<?xml version="1.0" encoding="UTF-8"?>
<svg id="OBJECT" xmlns="http://www.w3.org/2000/svg" viewBox="0 0 512 512">
  <defs>
    <style>
      .cls-1 {
        fill: #f27930;
      }

      .cls-2 {
        fill: #143a72;
      }
    </style>
  </defs>
  <g>
    <path class="cls-2"
      d="m362.8,82.2L282.8,2.2c-1.41-1.41-3.31-2.2-5.3-2.2H7.5C3.36,0,0,3.36,0,7.5v497c0,4.14,3.36,7.5,7.5,7.5h350c4.14,0,7.5-3.36,7.5-7.5V87.5c0-1.99-.79-3.9-2.2-5.3Zm-77.8-56.59l54.39,54.39h-46.89c-4.14,0-7.5-3.36-7.5-7.5V25.61ZM15,497V15h255v57.5c0,12.41,10.09,22.5,22.5,22.5h57.5v402H15Z" />
    <path class="cls-2"
      d="m327.5,210h-70c-4.14,0-7.5,3.36-7.5,7.5s3.36,7.5,7.5,7.5h70c4.14,0,7.5-3.36,7.5-7.5s-3.36-7.5-7.5-7.5Z" />
    <path class="cls-2"
      d="m327.5,150h-70c-4.14,0-7.5,3.36-7.5,7.5v30c0,4.14,3.36,7.5,7.5,7.5h70c4.14,0,7.5-3.36,7.5-7.5v-30c0-4.14-3.36-7.5-7.5-7.5Zm-7.5,30h-55v-15h55v15Z" />
    <path class="cls-2"
      d="m327.5,240H37.5c-4.14,0-7.5,3.36-7.5,7.5v227c0,4.14,3.36,7.5,7.5,7.5h290c4.14,0,7.5-3.36,7.5-7.5v-227c0-4.14-3.36-7.5-7.5-7.5Zm-7.5,15v15H45v-15h275ZM45,467v-182h275v182H45Z" />
    <path class="cls-2"
      d="m297.5,300h-155c-4.14,0-7.5,3.36-7.5,7.5v137c0,4.14,3.36,7.5,7.5,7.5h155c4.14,0,7.5-3.36,7.5-7.5v-137c0-4.14-3.36-7.5-7.5-7.5Zm-7.5,137h-140v-122h140v122Z" />
    <path class="cls-2"
      d="m177.5,418.5h85c4.14,0,7.5-3.36,7.5-7.5s-3.36-7.5-7.5-7.5h-85c-4.14,0-7.5,3.36-7.5,7.5s3.36,7.5,7.5,7.5Z" />
    <path class="cls-2"
      d="m207.5,348.5h55c4.14,0,7.5-3.36,7.5-7.5s-3.36-7.5-7.5-7.5h-55c-4.14,0-7.5,3.36-7.5,7.5s3.36,7.5,7.5,7.5Z" />
    <path class="cls-2"
      d="m177.5,348.5h5c4.14,0,7.5-3.36,7.5-7.5s-3.36-7.5-7.5-7.5h-5c-4.14,0-7.5,3.36-7.5,7.5s3.36,7.5,7.5,7.5Z" />
    <path class="cls-2"
      d="m177.5,383.5h85c4.14,0,7.5-3.36,7.5-7.5s-3.36-7.5-7.5-7.5h-85c-4.14,0-7.5,3.36-7.5,7.5s3.36,7.5,7.5,7.5Z" />
    <path class="cls-2"
      d="m97.96,368.5h-15.92c-3.88,0-7.04-3.36-7.04-7.5s3.16-7.5,7.04-7.5h25.96c4.14,0,7.5-3.36,7.5-7.5s-3.36-7.5-7.5-7.5h-1.12v-7.5c0-4.14-3.36-7.5-7.5-7.5s-7.5,3.36-7.5,7.5v7.5h-3.75v-7.5c0-4.14-3.36-7.5-7.5-7.5s-7.5,3.36-7.5,7.5v9.43c-7.72,3.5-13.12,11.4-13.12,20.57,0,12.41,9.89,22.5,22.04,22.5h15.92c3.88,0,7.04,3.36,7.04,7.5s-3.16,7.5-7.04,7.5h-25.96c-4.14,0-7.5,3.36-7.5,7.5s3.36,7.5,7.5,7.5h1.12v7.5c0,4.14,3.36,7.5,7.5,7.5s7.5-3.36,7.5-7.5v-7.5h3.75v7.5c0,4.14,3.36,7.5,7.5,7.5s7.5-3.36,7.5-7.5v-9.43c7.72-3.5,13.12-11.4,13.12-20.57,0-12.41-9.89-22.5-22.04-22.5Z" />
    <path class="cls-2"
      d="m37.5,210c-4.14,0-7.5,3.36-7.5,7.5s3.36,7.5,7.5,7.5h180c4.14,0,7.5-3.36,7.5-7.5s-3.36-7.5-7.5-7.5h-12.5v-99.35l7.75,6.34c1.39,1.14,3.08,1.7,4.75,1.7,2.17,0,4.32-.94,5.81-2.75,2.62-3.2,2.15-7.93-1.05-10.55L132.25,31.7c-2.76-2.26-6.74-2.26-9.5,0L32.75,105.39c-3.2,2.62-3.67,7.35-1.05,10.55,2.62,3.21,7.35,3.67,10.55,1.05l7.75-6.34v99.35h-12.5Zm112.5,0h-45v-67.5c0-4.14,3.36-7.5,7.5-7.5h30c4.14,0,7.5,3.36,7.5,7.5v67.5Zm-85-111.63l62.5-51.18,62.5,51.18v111.63h-25v-67.5c0-12.41-10.09-22.5-22.5-22.5h-30c-12.41,0-22.5,10.09-22.5,22.5v67.5h-25v-111.63Z" />
  </g>
  <g>
    <path class="cls-1"
      d="m507.93,206.7c-3.45-4.92-8.61-8.21-14.52-9.25l-7.39-1.3.87-4.92-54.16-9.55-13.02,73.86,54.16,9.55,9.55-54.17,7.39,1.3c1.97.35,3.69,1.44,4.84,3.08,1.15,1.64,1.59,3.63,1.24,5.6l-11.29,64.01c-.72,4.08,2,7.97,6.08,8.69,2.97.52,5.83-.77,7.45-3.09.61-.87,1.04-1.88,1.24-3l11.29-64.01c1.04-5.92-.28-11.89-3.73-16.81Z" />
    <path class="cls-1"
      d="m395.53,421.35c-1.4,7.94-.16,16.27,3.48,23.46l5.65,11.15-3.04,17.23c-.72,4.08,2,7.97,6.08,8.69,2.97.52,5.83-.77,7.45-3.09.61-.87,1.04-1.88,1.24-3l3.04-17.23,9.12-8.55c1.88-1.76,3.57-3.72,5.05-5.82,3.14-4.48,5.3-9.63,6.25-15.03l21.27-120.64-44.32-7.81-21.27,120.64Z" />
    <path class="cls-1"
      d="m487.31,145.6c.93-5.26-.25-10.57-3.31-14.94-3.06-4.38-7.65-7.3-12.91-8.22-5.26-.93-10.57.25-14.95,3.31-4.38,3.06-7.3,7.65-8.22,12.91l-5.21,29.54,39.39,6.95,5.21-29.55Z" />
    <rect class="cls-1" x="435.37" y="254.96" width="15" height="55" transform="translate(87.79 669.55) rotate(-80)" />
  </g>
</svg>