<?xml version="1.0" encoding="UTF-8"?>
<svg id="OBJECT" xmlns="http://www.w3.org/2000/svg" viewBox="0 0 512 512">
  <defs>
    <style>
      .cls-1 {
        fill: #7738c8;
      }

      .cls-2 {
        fill: #011839;
      }
    </style>
  </defs>
  <g>
    <path class="cls-2" d="m419.8,199.2c-2.93-2.93-7.68-2.93-10.61,0l-17.2,17.2v-36.3c0-15.16-12.34-27.5-27.5-27.5h-88.5c-4.14,0-7.5,3.36-7.5,7.5s3.36,7.5,7.5,7.5h88.5c6.89,0,12.5,5.61,12.5,12.5v36.3l-17.2-17.2c-2.93-2.93-7.68-2.93-10.61,0-2.93,2.93-2.93,7.68,0,10.61l30,30c1.46,1.46,3.38,2.2,5.3,2.2s3.84-.73,5.3-2.2l30-30c2.93-2.93,2.93-7.68,0-10.61Z"/>
    <path class="cls-2" d="m236,377h-88.5c-6.89,0-12.5-5.61-12.5-12.5v-36.3l17.2,17.2c1.46,1.46,3.38,2.2,5.3,2.2s3.84-.73,5.3-2.2c2.93-2.93,2.93-7.68,0-10.61l-30-30c-2.93-2.93-7.68-2.93-10.61,0l-30,30c-2.93,2.93-2.93,7.68,0,10.61,2.93,2.93,7.68,2.93,10.61,0l17.2-17.2v36.3c0,15.16,12.34,27.5,27.5,27.5h88.5c4.14,0,7.5-3.36,7.5-7.5s-3.36-7.5-7.5-7.5Z"/>
    <path class="cls-2" d="m152.5,172.59c-4.14,0-7.5,3.36-7.5,7.5v15.74c0,4.14,3.36,7.5,7.5,7.5s7.5-3.36,7.5-7.5v-15.74c0-4.14-3.36-7.5-7.5-7.5Z"/>
    <path class="cls-2" d="m244.27,70.41L131.42,1.11c-2.41-1.48-5.44-1.48-7.85,0L10.73,70.41c-6.62,4.06-10.73,11.41-10.73,19.17v27.91c0,2.72,1.47,5.22,3.84,6.55,2.37,1.33,5.27,1.27,7.59-.15l8.58-5.27v121.52c-11.23,1.25-20,10.8-20,22.36v15c0,4.14,3.36,7.5,7.5,7.5h240c4.14,0,7.5-3.36,7.5-7.5v-15c0-11.56-8.77-21.11-20-22.36v-121.52l8.58,5.27c1.2.74,2.56,1.11,3.92,1.11,1.26,0,2.52-.32,3.66-.95,2.37-1.33,3.84-3.83,3.84-6.55v-27.91c0-7.76-4.11-15.11-10.73-19.17Zm-4.27,192.09v7.5H15v-7.5c0-4.14,3.36-7.5,7.5-7.5h210c4.14,0,7.5,3.36,7.5,7.5Zm-75-22.5h-75v-97.5c0-4.14,3.36-7.5,7.5-7.5h60c4.14,0,7.5,3.36,7.5,7.5v97.5Zm55,0h-40v-97.5c0-12.41-10.09-22.5-22.5-22.5h-60c-12.41,0-22.5,10.09-22.5,22.5v97.5h-40V109.41l92.5-56.81,92.5,56.81v130.59Zm20-135.91l-108.58-66.68c-1.2-.74-2.56-1.11-3.92-1.11s-2.72.37-3.92,1.11L15,104.09v-14.51c0-2.59,1.37-5.04,3.58-6.39L127.5,16.3l108.92,66.89c2.21,1.35,3.58,3.8,3.58,6.39v14.51Z"/>
  </g>
  <g>
    <path class="cls-1" d="m384.5,302c-45.49,0-82.5,37.01-82.5,82.5s37.01,82.5,82.5,82.5,82.5-37.01,82.5-82.5-37.01-82.5-82.5-82.5Zm-55,90h-5c-4.14,0-7.5-3.36-7.5-7.5s3.36-7.5,7.5-7.5h5c4.14,0,7.5,3.36,7.5,7.5s-3.36,7.5-7.5,7.5Zm72.92,31.48v11.02c0,4.14-3.36,7.5-7.5,7.5s-7.5-3.36-7.5-7.5v-9.17h-5.83v9.17c0,4.14-3.36,7.5-7.5,7.5s-7.5-3.36-7.5-7.5v-9.17h-2.08c-4.14,0-7.5-3.36-7.5-7.5s3.36-7.5,7.5-7.5h28.85c4.77,0,8.65-4.11,8.65-9.17s-3.88-9.17-8.65-9.17h-17.69c-13.04,0-23.65-10.84-23.65-24.17,0-10.04,6.03-18.67,14.58-22.32v-11.02c0-4.14,3.36-7.5,7.5-7.5s7.5,3.36,7.5,7.5v9.17h5.83v-9.17c0-4.14,3.36-7.5,7.5-7.5s7.5,3.36,7.5,7.5v9.17h2.08c4.14,0,7.5,3.36,7.5,7.5s-3.36,7.5-7.5,7.5h-28.85c-4.77,0-8.65,4.11-8.65,9.17s3.88,9.17,8.65,9.17h17.69c13.04,0,23.65,10.84,23.65,24.17,0,10.04-6.03,18.67-14.58,22.32Zm42.08-31.48h-5c-4.14,0-7.5-3.36-7.5-7.5s3.36-7.5,7.5-7.5h5c4.14,0,7.5,3.36,7.5,7.5s-3.36,7.5-7.5,7.5Z"/>
    <path class="cls-1" d="m384.5,257c-70.3,0-127.5,57.2-127.5,127.5s57.2,127.5,127.5,127.5,127.5-57.2,127.5-127.5-57.2-127.5-127.5-127.5Zm0,225c-53.76,0-97.5-43.74-97.5-97.5s43.74-97.5,97.5-97.5,97.5,43.74,97.5,97.5-43.74,97.5-97.5,97.5Z"/>
  </g>
</svg>