<?xml version="1.0" encoding="UTF-8"?>
<svg id="OBJECT" xmlns="http://www.w3.org/2000/svg" viewBox="0 0 512 512">
  <defs>
    <style>
      .cls-1 {
        fill: #7738c8;
      }

      .cls-2 {
        fill: #011839;
      }
    </style>
  </defs>
  <path class="cls-2" d="m501.46,164.36c.97.43,2,.64,3.04.64,1.43,0,2.86-.41,4.09-1.21,2.13-1.38,3.41-3.75,3.41-6.29v-40c0-2.97-1.75-5.66-4.46-6.86L259.04.64c-1.93-.86-4.14-.86-6.07,0L4.46,110.64c-2.71,1.2-4.46,3.89-4.46,6.86v40c0,2.54,1.28,4.9,3.41,6.29s4.81,1.6,7.13.57l7.96-3.53v306.17H7.5c-4.14,0-7.5,3.36-7.5,7.5v30c0,4.14,3.36,7.5,7.5,7.5h497c4.14,0,7.5-3.36,7.5-7.5v-30c0-4.14-3.36-7.5-7.5-7.5h-11V160.83l7.96,3.53ZM15,122.38L256,15.7l241,106.68v23.6l-237.96-105.34c-.97-.43-2-.64-3.04-.64s-2.07.21-3.04.64L15,145.98v-23.6Zm482,374.62H15v-15h482v15ZM73.5,259h365v208H73.5v-208Zm.03-15c.27-6.66,5.75-12,12.47-12h340c6.72,0,12.21,5.34,12.47,12H73.53Zm404.97,223h-25v-222.5c0-15.16-12.34-27.5-27.5-27.5H86c-15.16,0-27.5,12.34-27.5,27.5v222.5h-25V154.19l222.5-98.49,222.5,98.49v312.81Z"/>
  <g>
    <path class="cls-1" d="m248.5,194.49v-113.99c-28.17,3.69-50,27.83-50,56.99s21.83,53.31,50,56.99Z"/>
    <path class="cls-1" d="m313.5,137.5c0-29.16-21.83-53.31-50-56.99v113.99c28.17-3.69,50-27.83,50-56.99Z"/>
    <path class="cls-1" d="m166,332c4.14,0,7.5-3.36,7.5-7.5v-10c0-1.38,1.12-2.5,2.5-2.5h12.93l-3.34,10.01c.14,0,.27-.01.41-.01h140c.14,0,.27,0,.41.01l-3.34-10.01h12.93c1.38,0,2.5,1.12,2.5,2.5v10c0,4.14,3.36,7.5,7.5,7.5s7.5-3.36,7.5-7.5v-10c0-9.65-7.85-17.5-17.5-17.5h-17.93l-.4-1.2c-3.75-11.25-14.23-18.8-26.09-18.8h-71.17c-11.85,0-22.34,7.56-26.09,18.8l-.4,1.2h-17.93c-9.65,0-17.5,7.85-17.5,17.5v10c0,4.14,3.36,7.5,7.5,7.5Z"/>
    <path class="cls-1" d="m356,397h-2.5v-32.5c0-15.16-12.34-27.5-27.5-27.5h-140c-15.16,0-27.5,12.34-27.5,27.5v32.5h-2.5c-4.14,0-7.5,3.36-7.5,7.5s3.36,7.5,7.5,7.5h62.5v-27.5c0-9.65,7.85-17.5,17.5-17.5h40c9.65,0,17.5,7.85,17.5,17.5v27.5h62.5c4.14,0,7.5-3.36,7.5-7.5s-3.36-7.5-7.5-7.5Zm-160-15h-5c-4.14,0-7.5-3.36-7.5-7.5s3.36-7.5,7.5-7.5h5c4.14,0,7.5,3.36,7.5,7.5s-3.36,7.5-7.5,7.5Zm125,0h-5c-4.14,0-7.5-3.36-7.5-7.5s3.36-7.5,7.5-7.5h5c4.14,0,7.5,3.36,7.5,7.5s-3.36,7.5-7.5,7.5Z"/>
    <path class="cls-1" d="m276,382h-40c-1.38,0-2.5,1.12-2.5,2.5v27.5h45v-27.5c0-1.38-1.12-2.5-2.5-2.5Z"/>
    <path class="cls-1" d="m288.5,432c0,11.05,8.95,20,20,20h15c11.05,0,20-8.95,20-20v-5h-55v5Z"/>
    <path class="cls-1" d="m168.5,432c0,11.05,8.95,20,20,20h15c11.05,0,20-8.95,20-20v-5h-55v5Z"/>
  </g>
</svg>