<?xml version="1.0" encoding="UTF-8"?>
<svg id="OBJECT" xmlns="http://www.w3.org/2000/svg" viewBox="0 0 512 512">
  <defs>
    <style>
      .cls-1 {
        fill: #7738c8;
      }

      .cls-2 {
        fill: #011839;
      }
    </style>
  </defs>
  <path class="cls-2" d="m439.51,72.49C392.76,25.74,330.61,0,264.5,0h-17C181.39,0,119.24,25.74,72.49,72.49S0,181.39,0,247.5c0,3.32,2.17,6.27,5.35,7.22.71.21,1.44.31,2.15.31,2.48,0,4.84-1.23,6.25-3.39.72-1.06,18.21-26.06,69.64-26.06s67.96,25.04,68.66,26.05c1.33,2.01,3.54,3.25,5.95,3.35,2.41.11,4.71-.96,6.2-2.85,8.18-10.39,18.97-19.27,32.05-26.4,10.3-5.61,21.16-9.67,32.26-12.19v33.24c0,4.14,3.36,7.5,7.5,7.5s7.5-3.36,7.5-7.5v-35.69c8.31-.84,16.69-.84,25,0v35.69c0,4.14,3.36,7.5,7.5,7.5s7.5-3.36,7.5-7.5v-33.24c11.1,2.52,21.95,6.58,32.26,12.19,13.08,7.13,23.86,16.01,32.05,26.4,1.49,1.89,3.8,2.98,6.18,2.88,2.41-.1,4.6-1.32,5.93-3.33.73-1.07,18.46-26.1,68.69-26.1s68.92,24.99,69.61,26.01c1.81,2.78,5.23,4.04,8.42,3.1,3.18-.94,5.37-3.87,5.37-7.19,0-66.11-25.74-128.26-72.49-175.01ZM83.39,210.59c-33.71,0-55.19,9.9-67.7,18.84C23.47,128.71,95.7,45.8,191.08,21.93c-26.59,66.01-40.17,135.79-40.46,207.87-12.37-9.03-33.74-19.22-67.23-19.22Zm239.54,1.98c-14.14-7.71-29.59-12.89-45.51-15.36-.24-.05-.49-.08-.74-.1-6.83-1.02-13.75-1.55-20.69-1.55s-13.85.53-20.68,1.55c-.25.02-.5.06-.75.11-15.92,2.46-31.36,7.65-45.5,15.35-8.71,4.75-16.54,10.22-23.44,16.34.42-73.24,14.93-144.01,43.23-210.7,12.57-2.11,25.48-3.22,38.65-3.22h17c13.16,0,26.07,1.11,38.65,3.22,28.3,66.68,42.81,137.46,43.23,210.7-6.9-6.12-14.73-11.6-23.44-16.34Zm105.68-1.98c-33.48,0-54.86,10.19-67.23,19.22-.29-72.09-13.87-141.87-40.46-207.87,95.38,23.86,167.61,106.78,175.38,207.49-12.51-8.93-33.98-18.84-67.7-18.84Z"/>
  <g>
    <path class="cls-1" d="m368.5,482h-225c-8.28,0-15,6.72-15,15v15h255v-15c0-8.28-6.72-15-15-15Z"/>
    <path class="cls-1" d="m372.77,327.41l-112.85-69.3c-2.41-1.48-5.44-1.48-7.85,0l-112.85,69.3c-6.62,4.06-10.73,11.41-10.73,19.17v23.72l123.58-75.89c2.41-1.48,5.44-1.48,7.85,0l123.58,75.89v-23.72c0-7.76-4.11-15.11-10.73-19.17Z"/>
    <path class="cls-1" d="m363.5,467v-91.38l-107.5-66.02-107.5,66.02v91.38h60v-77.5c0-12.41,10.09-22.5,22.5-22.5h50c12.41,0,22.5,10.09,22.5,22.5v77.5h60Z"/>
    <path class="cls-1" d="m231,382c-4.14,0-7.5,3.36-7.5,7.5v77.5h65v-77.5c0-4.14-3.36-7.5-7.5-7.5h-50Zm42.5,50.37c0,4.14-3.36,7.5-7.5,7.5s-7.5-3.36-7.5-7.5v-15.74c0-4.14,3.36-7.5,7.5-7.5s7.5,3.36,7.5,7.5v15.74Z"/>
  </g>
</svg>