<?xml version="1.0" encoding="UTF-8"?>
<svg id="OBJECT" xmlns="http://www.w3.org/2000/svg" viewBox="0 0 512 512">
  <defs>
    <style>
      .cls-1 {
        fill: #7738c8;
      }

      .cls-2 {
        fill: #011839;
      }
    </style>
  </defs>
  <g>
    <path class="cls-2" d="m419.5,338.5c12.41,0,22.5-10.09,22.5-22.5v-40c0-12.41-10.09-22.5-22.5-22.5h-72c-12.41,0-22.5,10.09-22.5,22.5v40c0,12.41,10.09,22.5,22.5,22.5h72Zm-72-70h72c4.14,0,7.5,3.36,7.5,7.5v12.5h-87v-12.5c0-4.14,3.36-7.5,7.5-7.5Zm-7.5,47.5v-12.5h87v12.5c0,4.14-3.36,7.5-7.5,7.5h-72c-4.14,0-7.5-3.36-7.5-7.5Z"/>
    <path class="cls-2" d="m504.5,393.5h-22.5v-165h22.5c2.7,0,5.2-1.45,6.53-3.8,1.33-2.35,1.29-5.24-.1-7.55l-30-50c-1.36-2.26-3.8-3.64-6.43-3.64h-127c-4.14,0-7.5,3.36-7.5,7.5s3.36,7.5,7.5,7.5h122.75l21,35h-168.75c-4.14,0-7.5,3.36-7.5,7.5s3.36,7.5,7.5,7.5h144.5v165h-107v-17.5c0-12.41-10.09-22.5-22.5-22.5h-90c-12.41,0-22.5,10.09-22.5,22.5v17.5H7.5c-4.14,0-7.5,3.36-7.5,7.5v30c0,4.14,3.36,7.5,7.5,7.5h497c4.14,0,7.5-3.36,7.5-7.5v-30c0-4.14-3.36-7.5-7.5-7.5Zm-264.5-17.5c0-4.14,3.36-7.5,7.5-7.5h90c4.14,0,7.5,3.36,7.5,7.5v17.5h-105v-17.5Zm257,47.5H15v-15h482v15Z"/>
  </g>
  <g>
    <path class="cls-1" d="m320.77,149.25l-155-75c-2.06-1-4.47-1-6.53,0L4.23,149.25C1.65,150.5,0,153.12,0,156v20.3l159.23-77.05c2.06-1,4.47-1,6.53,0l159.23,77.05v-20.3c0-2.88-1.64-5.5-4.23-6.75Z"/>
    <path class="cls-1" d="m225,203.5h-22.5c-4.14,0-7.5,3.36-7.5,7.5v57.5h30v-65Z"/>
    <path class="cls-1" d="m25,180.86v197.64h30v-107.5c0-12.41,10.09-22.5,22.5-22.5h50c12.41,0,22.5,10.09,22.5,22.5v107.5h60v-7.5c0-17.92,14.58-32.5,32.5-32.5h57.5v-157.64l-137.5-66.53L25,180.86Zm155,30.14c0-12.41,10.09-22.5,22.5-22.5h60c12.41,0,22.5,10.09,22.5,22.5v80c0,12.41-10.09,22.5-22.5,22.5h-60c-12.41,0-22.5-10.09-22.5-22.5v-80Z"/>
    <path class="cls-1" d="m270,211c0-4.14-3.36-7.5-7.5-7.5h-22.5v65h30v-57.5Z"/>
    <path class="cls-1" d="m202.5,298.5h60c4.14,0,7.5-3.36,7.5-7.5v-7.5h-75v7.5c0,4.14,3.36,7.5,7.5,7.5Z"/>
    <path class="cls-1" d="m127.5,263.5h-50c-4.14,0-7.5,3.36-7.5,7.5v107.5h65v-107.5c0-4.14-3.36-7.5-7.5-7.5Zm-2.5,67.5c0,4.14-3.36,7.5-7.5,7.5s-7.5-3.36-7.5-7.5v-20c0-4.14,3.36-7.5,7.5-7.5s7.5,3.36,7.5,7.5v20Z"/>
  </g>
</svg>