<?xml version="1.0" encoding="UTF-8"?>
<svg id="OBJECT" xmlns="http://www.w3.org/2000/svg" viewBox="0 0 512 512">
  <defs>
    <style>
      .cls-1 {
        fill: #7738c8;
      }

      .cls-2 {
        fill: #011839;
      }
    </style>
  </defs>
  <g>
    <path class="cls-2" d="m470,369.4c-1.42-1.53-3.41-2.4-5.5-2.4h-120c-2.09,0-4.08.87-5.5,2.4-1.42,1.53-2.14,3.59-1.98,5.67l8.93,116.15c.9,11.65,10.75,20.77,22.43,20.77h72.22c11.68,0,21.54-9.12,22.43-20.77l8.93-116.15c.16-2.08-.56-4.14-1.98-5.67Zm-13.6,12.6l-1.92,25h-99.96l-1.92-25h103.8Zm-15.79,115h-72.22c-3.89,0-7.18-3.04-7.48-6.92l-5.24-68.08h97.65l-5.24,68.08c-.3,3.88-3.58,6.92-7.48,6.92Z"/>
    <path class="cls-2" d="m187.5,392h60c12.41,0,22.5-10.09,22.5-22.5v-80c0-12.41-10.09-22.5-22.5-22.5h-60c-12.41,0-22.5,10.09-22.5,22.5v80c0,12.41,10.09,22.5,22.5,22.5Zm60-15h-60c-4.14,0-7.5-3.36-7.5-7.5v-7.5h75v7.5c0,4.14-3.36,7.5-7.5,7.5Zm-60-95h60c4.14,0,7.5,3.36,7.5,7.5v57.5h-75v-57.5c0-4.14,3.36-7.5,7.5-7.5Z"/>
    <path class="cls-2" d="m122.5,382c-4.14,0-7.5,3.36-7.5,7.5v20c0,4.14,3.36,7.5,7.5,7.5s7.5-3.36,7.5-7.5v-20c0-4.14-3.36-7.5-7.5-7.5Z"/>
    <path class="cls-2" d="m320.77,212.75l-155-75c-2.06-1-4.47-1-6.53,0L4.23,212.75c-2.59,1.25-4.23,3.88-4.23,6.75v40c0,2.58,1.33,4.98,3.52,6.35,2.19,1.37,4.93,1.52,7.25.4l14.23-6.89v197.64h-2.5c-12.41,0-22.5,10.09-22.5,22.5v25c0,4.14,3.36,7.5,7.5,7.5h310c4.14,0,7.5-3.36,7.5-7.5v-25c0-12.41-10.09-22.5-22.5-22.5h-2.5v-197.64l14.23,6.89c1.03.5,2.15.75,3.27.75,1.39,0,2.77-.38,3.98-1.15,2.19-1.37,3.52-3.77,3.52-6.35v-40c0-2.88-1.64-5.5-4.23-6.75Zm-10.77,266.75v17.5H15v-17.5c0-4.14,3.36-7.5,7.5-7.5h280c4.14,0,7.5,3.36,7.5,7.5Zm-175-22.5h-65v-107.5c0-4.14,3.36-7.5,7.5-7.5h50c4.14,0,7.5,3.36,7.5,7.5v107.5Zm150,0h-135v-107.5c0-12.41-10.09-22.5-22.5-22.5h-50c-12.41,0-22.5,10.09-22.5,22.5v107.5h-15v-204.89l122.5-59.27,122.5,59.27v204.89Zm25-209.46l-144.23-69.79c-1.03-.5-2.15-.75-3.27-.75s-2.23.25-3.27.75L15,247.54v-23.34l147.5-71.37,147.5,71.37v23.34Z"/>
  </g>
  <g>
    <path class="cls-1" d="m504.5,238.5h-40c-21.19,0-40.12,9.82-52.5,25.15v-33.88c-2.48.15-4.98.24-7.5.24s-5.02-.09-7.5-.24v122.24h15v-38.5h32.5c37.22,0,67.5-30.28,67.5-67.5,0-4.14-3.36-7.5-7.5-7.5Z"/>
    <path class="cls-1" d="m477,107.5c0-39.98-32.52-72.5-72.5-72.5s-72.5,32.52-72.5,72.5,32.52,72.5,72.5,72.5,72.5-32.52,72.5-72.5Zm-74.38,45c0,4.14-3.36,7.5-7.5,7.5s-7.5-3.36-7.5-7.5v-7.5h-1.12c-4.14,0-7.5-3.36-7.5-7.5s3.36-7.5,7.5-7.5h25.96c3.88,0,7.04-3.36,7.04-7.5s-3.16-7.5-7.04-7.5h-15.92c-12.15,0-22.04-10.09-22.04-22.5,0-9.17,5.4-17.07,13.12-20.57v-9.43c0-4.14,3.36-7.5,7.5-7.5s7.5,3.36,7.5,7.5v7.5h3.75v-7.5c0-4.14,3.36-7.5,7.5-7.5s7.5,3.36,7.5,7.5v7.5h1.12c4.14,0,7.5,3.36,7.5,7.5s-3.36,7.5-7.5,7.5h-25.96c-3.88,0-7.04,3.36-7.04,7.5s3.16,7.5,7.04,7.5h15.92c12.15,0,22.04,10.09,22.04,22.5,0,9.17-5.4,17.07-13.12,20.57v9.43c0,4.14-3.36,7.5-7.5,7.5s-7.5-3.36-7.5-7.5v-7.5h-3.75v7.5Z"/>
    <path class="cls-1" d="m512,107.5c0-59.28-48.22-107.5-107.5-107.5s-107.5,48.22-107.5,107.5,48.22,107.5,107.5,107.5,107.5-48.22,107.5-107.5Zm-195,0c0-48.25,39.25-87.5,87.5-87.5s87.5,39.25,87.5,87.5-39.25,87.5-87.5,87.5-87.5-39.25-87.5-87.5Z"/>
  </g>
</svg>