<?xml version="1.0" encoding="UTF-8"?>
<svg id="OBJECT" xmlns="http://www.w3.org/2000/svg" viewBox="0 0 512 512">
  <defs>
    <style>
      .cls-1 {
        fill: #7738c8;
      }

      .cls-2 {
        fill: #011839;
      }
    </style>
  </defs>
  <g>
    <path class="cls-2" d="m488.43,307.01v-32.51c0-15.16-12.34-27.5-27.5-27.5h-242.86c-15.16,0-27.5,12.34-27.5,27.5v32.51c-13.52,3.36-23.57,15.6-23.57,30.15v103.25c0,12.41,10.09,22.5,22.5,22.5h24.64v41.59c0,4.14,3.36,7.5,7.5,7.5h35.36c3.47,0,6.48-2.38,7.29-5.75l10.41-43.34h129.6l10.41,43.34c.81,3.37,3.83,5.75,7.29,5.75h35.36c4.14,0,7.5-3.36,7.5-7.5v-41.59h24.64c12.41,0,22.5-10.09,22.5-22.5v-103.25c0-14.55-10.05-26.79-23.57-30.15Zm-270.36-45.01h242.86c6.89,0,12.5,5.61,12.5,12.5v32.51c-13.52,3.36-23.57,15.6-23.57,30.15v4.38h-85.36c-10.04,0-19.03,4.58-25,11.76-5.97-7.18-14.96-11.76-25-11.76h-85.36v-4.38c0-14.55-10.05-26.79-23.57-30.15v-32.51c0-6.89,5.61-12.5,12.5-12.5Zm11.07,94.55h85.36c9.65,0,17.5,7.85,17.5,17.5v26.59h-102.86v-44.09Zm220.71,44.09h-102.86v-26.59c0-9.65,7.85-17.5,17.5-17.5h85.36v44.09Zm-220.71,15h220.71v32.27h-220.71v-32.27Zm-47.14,24.77v-103.25c0-8.86,7.21-16.07,16.07-16.07s16.07,7.21,16.07,16.07v110.75h-24.64c-4.14,0-7.5-3.36-7.5-7.5Zm69.09,56.59h-21.95v-34.09h30.13l-8.18,34.09Zm176.82,0l-8.18-34.09h30.13v34.09h-21.95Zm69.09-56.59c0,4.14-3.36,7.5-7.5,7.5h-24.64v-110.75c0-8.86,7.21-16.07,16.07-16.07s16.07,7.21,16.07,16.07v103.25Z"/>
    <path class="cls-2" d="m204.5,205h270c12.41,0,22.5-10.09,22.5-22.5V22.5c0-12.41-10.09-22.5-22.5-22.5H204.5c-12.41,0-22.5,10.09-22.5,22.5v160c0,12.41,10.09,22.5,22.5,22.5Zm-7.5-182.5c0-4.14,3.36-7.5,7.5-7.5h270c4.14,0,7.5,3.36,7.5,7.5v160c0,4.14-3.36,7.5-7.5,7.5H204.5c-4.14,0-7.5-3.36-7.5-7.5V22.5Z"/>
    <path class="cls-2" d="m219.5,175h240c4.14,0,7.5-3.36,7.5-7.5V37.5c0-4.14-3.36-7.5-7.5-7.5h-240c-4.14,0-7.5,3.36-7.5,7.5v130c0,4.14,3.36,7.5,7.5,7.5Zm168.37-56.23c.94-.81,2.31-.81,3.25,0l48.1,41.23h-99.45l48.1-41.23Zm-71.15,41.23h-76.95l48.1-41.23c.94-.81,2.31-.81,3.25,0l36.85,31.58-11.25,9.64Zm135.27-115v106.19l-51.11-43.81c-6.6-5.66-16.18-5.66-22.78,0l-38.61,33.1-38.61-33.1c-6.6-5.66-16.18-5.66-22.78,0l-51.11,43.81V45h225Z"/>
    <path class="cls-2" d="m339.5,110c15.16,0,27.5-12.34,27.5-27.5s-12.34-27.5-27.5-27.5-27.5,12.34-27.5,27.5,12.34,27.5,27.5,27.5Zm0-40c6.89,0,12.5,5.61,12.5,12.5s-5.61,12.5-12.5,12.5-12.5-5.61-12.5-12.5,5.61-12.5,12.5-12.5Z"/>
  </g>
  <g>
    <path class="cls-1" d="m120,482H15c-8.28,0-15,6.72-15,15v15h135v-15c0-8.28-6.72-15-15-15Z"/>
    <path class="cls-1" d="m40,417v50h55v-50c0-8.28-6.72-15-15-15h-25c-8.28,0-15,6.72-15,15Z"/>
    <rect class="cls-1" x="60" y="288.5" width="15" height="98.5"/>
    <path class="cls-1" d="m125.98,139.4c-.84-11.72-10.69-20.9-22.44-20.9H31.47c-11.75,0-21.61,9.18-22.44,20.9l-5.65,79.1h128.25l-5.65-79.1Z"/>
    <path class="cls-1" d="m7.5,273.5h92.5v51c0,4.14,3.36,7.5,7.5,7.5s7.5-3.36,7.5-7.5v-51h12.5c2.08,0,4.07-.87,5.49-2.39,1.42-1.52,2.14-3.57,1.99-5.65l-2.28-31.97H2.3L.02,265.47c-.15,2.08.57,4.12,1.99,5.65,1.42,1.52,3.41,2.39,5.49,2.39Z"/>
  </g>
</svg>