<?xml version="1.0" encoding="UTF-8"?>
<svg id="OBJECT" xmlns="http://www.w3.org/2000/svg" viewBox="0 0 512 512">
  <defs>
    <style>
      .cls-1 {
        fill: #7738c8;
      }

      .cls-2 {
        fill: #011839;
      }
    </style>
  </defs>
  <g>
    <path class="cls-2" d="m187.5,392h60c12.41,0,22.5-10.09,22.5-22.5v-80c0-12.41-10.09-22.5-22.5-22.5h-60c-12.41,0-22.5,10.09-22.5,22.5v80c0,12.41,10.09,22.5,22.5,22.5Zm60-15h-60c-4.14,0-7.5-3.36-7.5-7.5v-7.5h75v7.5c0,4.14-3.36,7.5-7.5,7.5Zm-60-95h60c4.14,0,7.5,3.36,7.5,7.5v57.5h-75v-57.5c0-4.14,3.36-7.5,7.5-7.5Z"/>
    <path class="cls-2" d="m122.5,382c-4.14,0-7.5,3.36-7.5,7.5v20c0,4.14,3.36,7.5,7.5,7.5s7.5-3.36,7.5-7.5v-20c0-4.14-3.36-7.5-7.5-7.5Z"/>
    <path class="cls-2" d="m314.23,266.25c1.03.5,2.15.75,3.27.75,1.39,0,2.77-.38,3.98-1.15,2.19-1.37,3.52-3.77,3.52-6.35v-40c0-2.88-1.64-5.5-4.23-6.75l-155-75c-2.06-1-4.47-1-6.53,0L4.23,212.75c-2.59,1.25-4.23,3.88-4.23,6.75v40c0,2.58,1.33,4.98,3.52,6.35,2.19,1.37,4.93,1.52,7.25.4l14.23-6.89v197.64h-2.5c-12.41,0-22.5,10.09-22.5,22.5v25c0,4.14,3.36,7.5,7.5,7.5h310c4.14,0,7.5-3.36,7.5-7.5v-25c0-12.41-10.09-22.5-22.5-22.5h-2.5v-197.64l14.23,6.89ZM15,224.2l147.5-71.37,147.5,71.37v23.34l-144.23-69.79c-1.03-.5-2.15-.75-3.27-.75s-2.23.25-3.27.75L15,247.54v-23.34Zm295,255.3v17.5H15v-17.5c0-4.14,3.36-7.5,7.5-7.5h280c4.14,0,7.5,3.36,7.5,7.5Zm-175-22.5h-65v-107.5c0-4.14,3.36-7.5,7.5-7.5h50c4.14,0,7.5,3.36,7.5,7.5v107.5Zm150,0h-135v-107.5c0-12.41-10.09-22.5-22.5-22.5h-50c-12.41,0-22.5,10.09-22.5,22.5v107.5h-15v-204.89l122.5-59.27,122.5,59.27v204.89Z"/>
  </g>
  <g>
    <path class="cls-1" d="m404.5,45c-34.46,0-62.5,28.04-62.5,62.5s28.04,62.5,62.5,62.5,62.5-28.04,62.5-62.5-28.04-62.5-62.5-62.5Zm30.15,51.27l-33.06,33.07c-1.41,1.41-3.31,2.2-5.3,2.2s-3.9-.79-5.3-2.2l-16.63-16.63c-2.93-2.93-2.93-7.68,0-10.61,2.93-2.93,7.68-2.93,10.61,0l11.33,11.33,27.76-27.76c2.93-2.93,7.68-2.93,10.61,0,2.93,2.93,2.93,7.68,0,10.61Z"/>
    <path class="cls-1" d="m479.98,30.96C459.34,10.6,431.99-.4,402.97.01c-27.74.39-53.98,11.41-73.88,31.04-19.91,19.63-31.29,45.71-32.05,73.44-1.09,39.79,19.72,76.76,54.3,96.47,1.37.78,2.45,1.9,3.11,3.22l28.86,57.73c4.04,8.07,12.15,13.09,21.18,13.09s17.14-5.02,21.18-13.09l28.87-57.74c.66-1.32,1.72-2.43,3.05-3.19,33.55-19.1,54.4-54.92,54.4-93.49,0-29-11.37-56.18-32.02-76.54Zm-75.48,154.04c-42.73,0-77.5-34.77-77.5-77.5s34.77-77.5,77.5-77.5,77.5,34.77,77.5,77.5-34.77,77.5-77.5,77.5Z"/>
  </g>
</svg>