<?xml version="1.0" encoding="UTF-8"?>
<svg id="OBJECT" xmlns="http://www.w3.org/2000/svg" viewBox="0 0 512 512">
  <defs>
    <style>
      .cls-1 {
        fill: #7738c8;
      }

      .cls-2 {
        fill: #011839;
      }
    </style>
  </defs>
  <g>
    <path class="cls-2" d="m224.81,9.6c-3.45-4.92-8.6-8.21-14.52-9.25-5.92-1.04-11.89.28-16.81,3.73l-20.48,14.34c-3.39,2.38-4.22,7.05-1.84,10.45l5.86,8.37-74.95,129.91c-2.91-2.33-6.36-3.91-10.13-4.58-5.92-1.04-11.89.28-16.81,3.73L9.59,212.19c-10.16,7.12-12.64,21.17-5.53,31.34l137.66,196.6c3.45,4.92,8.61,8.21,14.52,9.25,1.32.23,2.64.35,3.96.35,4.57,0,9.03-1.4,12.86-4.08l8.19-5.74c4.92-3.45,8.21-8.61,9.25-14.52,1.04-5.92-.28-11.89-3.73-16.81l-27.24-38.91,14.34-10.04c10.16-7.12,12.64-21.17,5.53-31.34l-15.77-22.53,6.14-4.3c8.36-5.85,11.5-16.39,8.41-25.61l147.73-26,5.86,8.37c1.14,1.63,2.88,2.74,4.84,3.08.43.08.87.11,1.3.11,1.53,0,3.03-.47,4.3-1.36l20.48-14.34c4.92-3.45,8.21-8.6,9.25-14.52s-.28-11.89-3.73-16.81L224.81,9.6Zm-49.08,413.18c-.35,1.97-1.44,3.69-3.08,4.84l-8.19,5.74c-3.39,2.37-8.07,1.55-10.45-1.84l-55.92-79.87,20.48-14.34,55.92,79.87c1.15,1.64,1.59,3.63,1.24,5.6Zm-8.63-85.89c2.37,3.39,1.55,8.07-1.84,10.45l-14.33,10.04-20.08-28.67,20.48-14.34,15.77,22.53Zm-5.95-47.72l-71.68,50.19L16.35,234.92c-2.37-3.39-1.55-8.07,1.84-10.45l65.53-45.89c1.28-.89,2.76-1.36,4.29-1.36.44,0,.88.04,1.32.12,1.97.35,3.69,1.44,4.84,3.08l68.83,98.3c2.37,3.39,1.55,8.07-1.84,10.45Zm8.52-27.06l-57.61-82.28L186.51,50.79l129.88,185.49-146.72,25.83Zm187.48-33.52c-.35,1.97-1.44,3.69-3.08,4.84l-14.33,10.04L187.74,26.4l14.33-10.04c1.64-1.15,3.63-1.59,5.6-1.24,1.97.35,3.69,1.44,4.84,3.08l143.39,204.79c1.15,1.64,1.59,3.63,1.24,5.6Z"/>
    <path class="cls-2" d="m94.99,216.47c-2.38-3.39-7.05-4.22-10.45-1.84l-32.77,22.94c-3.39,2.38-4.22,7.05-1.84,10.45,1.46,2.08,3.79,3.2,6.15,3.2,1.49,0,2.99-.44,4.3-1.36l32.77-22.94c3.39-2.38,4.22-7.05,1.84-10.45Z"/>
    <path class="cls-2" d="m112.2,241.05c-2.38-3.39-7.05-4.22-10.45-1.84l-32.77,22.94c-3.39,2.38-4.22,7.05-1.84,10.45,1.46,2.08,3.79,3.2,6.15,3.2,1.49,0,2.99-.44,4.3-1.36l32.77-22.94c3.39-2.38,4.22-7.05,1.84-10.45Z"/>
    <path class="cls-2" d="m118.96,263.78l-32.77,22.94c-3.39,2.38-4.22,7.05-1.84,10.45,1.46,2.08,3.79,3.2,6.15,3.2,1.49,0,2.99-.44,4.3-1.36l32.77-22.94c3.39-2.38,4.22-7.05,1.84-10.45-2.38-3.39-7.05-4.22-10.45-1.84Z"/>
    <path class="cls-2" d="m292.82,48.84c1.49,0,2.99-.44,4.29-1.36l12.29-8.6c3.39-2.38,4.22-7.05,1.84-10.45-2.38-3.39-7.05-4.22-10.45-1.84l-12.29,8.6c-3.39,2.38-4.22,7.05-1.84,10.45,1.46,2.08,3.79,3.2,6.15,3.2Z"/>
    <path class="cls-2" d="m327.23,97.99c1.49,0,2.99-.44,4.29-1.36l12.29-8.6c3.39-2.38,4.22-7.05,1.84-10.45-2.38-3.39-7.05-4.22-10.45-1.84l-12.29,8.6c-3.39,2.38-4.22,7.05-1.84,10.45,1.46,2.08,3.79,3.2,6.15,3.2Z"/>
    <path class="cls-2" d="m380.07,126.73c-2.38-3.39-7.05-4.22-10.45-1.84l-12.29,8.6c-3.39,2.38-4.22,7.05-1.84,10.45,1.46,2.08,3.79,3.2,6.15,3.2,1.49,0,2.99-.44,4.29-1.36l12.29-8.6c3.39-2.38,4.22-7.05,1.84-10.45Z"/>
  </g>
  <g>
    <path class="cls-1" d="m497,482h-225c-8.28,0-15,6.72-15,15v15h255v-15c0-8.28-6.72-15-15-15Z"/>
    <path class="cls-1" d="m501.27,327.41l-112.85-69.3c-2.41-1.48-5.44-1.48-7.85,0l-112.85,69.3c-6.62,4.06-10.73,11.41-10.73,19.17v23.72l123.58-75.89c2.41-1.48,5.44-1.48,7.85,0l123.58,75.89v-23.72c0-7.76-4.11-15.11-10.73-19.17Z"/>
    <path class="cls-1" d="m492,467v-91.38l-107.5-66.02-107.5,66.02v91.38h60v-77.5c0-12.41,10.09-22.5,22.5-22.5h50c12.41,0,22.5,10.09,22.5,22.5v77.5h60Z"/>
    <path class="cls-1" d="m359.5,382c-4.14,0-7.5,3.36-7.5,7.5v77.5h65v-77.5c0-4.14-3.36-7.5-7.5-7.5h-50Zm42.5,50.37c0,4.14-3.36,7.5-7.5,7.5s-7.5-3.36-7.5-7.5v-15.74c0-4.14,3.36-7.5,7.5-7.5s7.5,3.36,7.5,7.5v15.74Z"/>
  </g>
</svg>