<?xml version="1.0" encoding="UTF-8"?>
<svg id="OBJECT" xmlns="http://www.w3.org/2000/svg" viewBox="0 0 512 512">
  <defs>
    <style>
      .cls-1 {
        fill: #7738c8;
      }

      .cls-2 {
        fill: #011839;
      }
    </style>
  </defs>
  <g>
    <path class="cls-2" d="m440.25,424.5h-50c-4.14,0-7.5,3.36-7.5,7.5s3.36,7.5,7.5,7.5h50c4.14,0,7.5-3.36,7.5-7.5s-3.36-7.5-7.5-7.5Z"/>
    <path class="cls-2" d="m390.25,399.5h50c4.14,0,7.5-3.36,7.5-7.5s-3.36-7.5-7.5-7.5h-50c-4.14,0-7.5,3.36-7.5,7.5s3.36,7.5,7.5,7.5Z"/>
    <path class="cls-2" d="m494.5,222c9.65,0,17.5-7.85,17.5-17.5v-10c0-9.65-7.85-17.5-17.5-17.5h-80c-4.14,0-7.5,3.36-7.5,7.5s3.36,7.5,7.5,7.5h80c1.38,0,2.5,1.12,2.5,2.5v10c0,1.38-1.12,2.5-2.5,2.5h-80c-4.14,0-7.5,3.36-7.5,7.5s3.36,7.5,7.5,7.5h52.5v100h-103.5v-29.5c0-4.14-3.36-7.5-7.5-7.5s-7.5,3.36-7.5,7.5v204.5h-205v-204.5c0-4.14-3.36-7.5-7.5-7.5s-7.5,3.36-7.5,7.5v21.98H43.5v-21.98c0-4.14-3.36-7.5-7.5-7.5s-7.5,3.36-7.5,7.5v204.5H7.5c-4.14,0-7.5,3.36-7.5,7.5s3.36,7.5,7.5,7.5h497c4.14,0,7.5-3.36,7.5-7.5s-3.36-7.5-7.5-7.5h-22.5v-130h12.5c9.65,0,17.5-7.85,17.5-17.5v-10c0-9.65-7.85-17.5-17.5-17.5h-12.5v-100h12.5ZM43.5,329.48h85v167.52H43.5v-167.52Zm320,167.52v-25h103.5v25h-103.5Zm103.5-40h-103.5v-90h103.5v90Zm30-117.5v10c0,1.38-1.12,2.5-2.5,2.5h-131v-15h131c1.38,0,2.5,1.12,2.5,2.5Z"/>
    <path class="cls-2" d="m176,471.48h140c4.14,0,7.5-3.36,7.5-7.5v-162c0-4.14-3.36-7.5-7.5-7.5h-140c-4.14,0-7.5,3.36-7.5,7.5v162c0,4.14,3.36,7.5,7.5,7.5Zm55-15v-147h30v147h-30Zm77.5,0h-32.5v-147h32.5v147Zm-125-147h32.5v147h-32.5v-147Z"/>
    <path class="cls-2" d="m116,392.98c-4.14,0-7.5,3.36-7.5,7.5v25c0,4.14,3.36,7.5,7.5,7.5s7.5-3.36,7.5-7.5v-25c0-4.14-3.36-7.5-7.5-7.5Z"/>
    <path class="cls-2" d="m394.5,294.5h50c4.14,0,7.5-3.36,7.5-7.5s-3.36-7.5-7.5-7.5h-50c-4.14,0-7.5,3.36-7.5,7.5s3.36,7.5,7.5,7.5Z"/>
    <path class="cls-2" d="m409.5,264.5h35c4.14,0,7.5-3.36,7.5-7.5s-3.36-7.5-7.5-7.5h-35c-4.14,0-7.5,3.36-7.5,7.5s3.36,7.5,7.5,7.5Z"/>
  </g>
  <g>
    <rect class="cls-1" x="255.25" y="170" width="36.75" height="45"/>
    <rect class="cls-1" x="151.75" y="170" width="36.75" height="45"/>
    <rect class="cls-1" x="55" y="55" width="282" height="15"/>
    <rect class="cls-1" x="100" y="170" width="36.75" height="45"/>
    <rect class="cls-1" x="203.5" y="170" width="36.75" height="45"/>
    <rect class="cls-1" x="55" y="85" width="282" height="70"/>
    <rect class="cls-1" x="307" y="170" width="30" height="45"/>
    <path class="cls-1" d="m369.5,0H22.5C10.09,0,0,10.09,0,22.5v225c0,12.41,10.09,22.5,22.5,22.5h347c12.41,0,22.5-10.09,22.5-22.5V22.5c0-12.41-10.09-22.5-22.5-22.5Zm-17.5,222.5c0,4.14-3.36,7.5-7.5,7.5H47.5c-4.14,0-7.5-3.36-7.5-7.5V47.5c0-4.14,3.36-7.5,7.5-7.5h297c4.14,0,7.5,3.36,7.5,7.5v175Z"/>
    <rect class="cls-1" x="55" y="170" width="30" height="45"/>
  </g>
</svg>