<?xml version="1.0" encoding="UTF-8"?>
<svg id="OBJECT" xmlns="http://www.w3.org/2000/svg" viewBox="0 0 512 512">
  <defs>
    <style>
      .cls-1 {
        fill: #7738c8;
      }

      .cls-2 {
        fill: #011839;
      }
    </style>
  </defs>
  <g>
    <path class="cls-2" d="m404.5,308.5c4.14,0,7.5-3.36,7.5-7.5v-5c0-4.14-3.36-7.5-7.5-7.5s-7.5,3.36-7.5,7.5v5c0,4.14,3.36,7.5,7.5,7.5Z"/>
    <path class="cls-2" d="m502.1,219.24l-47.24-39.37c-4.93-4.11-11.18-6.37-17.61-6.37h-85.26v-7.5c0-12.41-10.09-22.5-22.5-22.5h-15c-4.14,0-7.5,3.36-7.5,7.5v182.5H22.5c-12.41,0-22.5,10.09-22.5,22.5v10c0,12.41,10.09,22.5,22.5,22.5h17.5v7.5c0,23.43,19.07,42.5,42.5,42.5s42.5-19.07,42.5-42.5v-7.5h15v7.5c0,23.43,19.07,42.5,42.5,42.5s42.5-19.07,42.5-42.5v-7.5h162v7.5c0,23.43,19.07,42.5,42.5,42.5s42.5-19.07,42.5-42.5v-7.5h17.5c12.41,0,22.5-10.09,22.5-22.5v-125.63c0-8.19-3.61-15.89-9.9-21.13Zm-5.1,114.26h-25v-22.5c0-1.38,1.12-2.5,2.5-2.5h22.5v25Zm-51.74-142.1l47.24,39.37c2.86,2.38,4.5,5.88,4.5,9.6v13.13h-72.5c-6.89,0-12.5-5.61-12.5-12.5v-52.5h25.26c2.92,0,5.76,1.03,8,2.9Zm-48.26-2.9v52.5c0,15.16,12.34,27.5,27.5,27.5h72.5v25h-22.5c-9.65,0-17.5,7.85-17.5,17.5v22.5h-105v-145h45Zm-75-30h7.5c4.14,0,7.5,3.36,7.5,7.5v167.5h-15v-175Zm-212,237.5c0,15.16-12.34,27.5-27.5,27.5s-27.5-12.34-27.5-27.5v-7.5h55v7.5Zm100,0c0,15.16-12.34,27.5-27.5,27.5s-27.5-12.34-27.5-27.5v-7.5h55v7.5Zm247,0c0,15.16-12.34,27.5-27.5,27.5s-27.5-12.34-27.5-27.5v-7.5h55v7.5Zm40-30c0,4.14-3.36,7.5-7.5,7.5H22.5c-4.14,0-7.5-3.36-7.5-7.5v-10c0-4.14,3.36-7.5,7.5-7.5h474.5v17.5Z"/>
  </g>
  <g>
    <rect class="cls-1" x="20" y="303.5" width="255" height="15"/>
    <path class="cls-1" d="m264.27,143.91l-112.85-69.3c-2.41-1.48-5.44-1.48-7.85,0L30.73,143.91c-6.62,4.06-10.73,11.41-10.73,19.17v23.72l123.58-75.89c2.41-1.48,5.44-1.48,7.85,0l123.58,75.89v-23.72c0-7.76-4.11-15.11-10.73-19.17Z"/>
    <path class="cls-1" d="m255,288.5v-96.38l-107.5-66.02-107.5,66.02v96.38h55v-82.5c0-12.41,10.09-22.5,22.5-22.5h60c12.41,0,22.5,10.09,22.5,22.5v82.5h55Z"/>
    <path class="cls-1" d="m117.5,198.5c-4.14,0-7.5,3.36-7.5,7.5v82.5h75v-82.5c0-4.14-3.36-7.5-7.5-7.5h-60Zm52.5,60.83c0,4.14-3.36,7.5-7.5,7.5s-7.5-3.36-7.5-7.5v-15.74c0-4.14,3.36-7.5,7.5-7.5s7.5,3.36,7.5,7.5v15.74Z"/>
  </g>
</svg>