<?xml version="1.0" encoding="UTF-8"?>
<svg id="OBJECT" xmlns="http://www.w3.org/2000/svg" viewBox="0 0 512 512">
  <defs>
    <style>
      .cls-1 {
        fill: #7738c8;
      }

      .cls-2 {
        fill: #011839;
      }
    </style>
  </defs>
  <g>
    <path class="cls-2" d="m187.5,392h60c12.41,0,22.5-10.09,22.5-22.5v-80c0-12.41-10.09-22.5-22.5-22.5h-60c-12.41,0-22.5,10.09-22.5,22.5v80c0,12.41,10.09,22.5,22.5,22.5Zm60-15h-60c-4.14,0-7.5-3.36-7.5-7.5v-7.5h75v7.5c0,4.14-3.36,7.5-7.5,7.5Zm-60-95h60c4.14,0,7.5,3.36,7.5,7.5v57.5h-75v-57.5c0-4.14,3.36-7.5,7.5-7.5Z"/>
    <path class="cls-2" d="m122.5,382c-4.14,0-7.5,3.36-7.5,7.5v20c0,4.14,3.36,7.5,7.5,7.5s7.5-3.36,7.5-7.5v-20c0-4.14-3.36-7.5-7.5-7.5Z"/>
    <path class="cls-2" d="m314.23,266.25c1.03.5,2.15.75,3.27.75,1.39,0,2.77-.38,3.98-1.15,2.19-1.37,3.52-3.77,3.52-6.35v-40c0-2.88-1.64-5.5-4.23-6.75l-155-75c-2.06-1-4.47-1-6.53,0L4.23,212.75c-2.59,1.25-4.23,3.88-4.23,6.75v40c0,2.58,1.33,4.98,3.52,6.35,2.19,1.37,4.93,1.52,7.25.4l14.23-6.89v197.64h-2.5c-12.41,0-22.5,10.09-22.5,22.5v25c0,4.14,3.36,7.5,7.5,7.5h310c4.14,0,7.5-3.36,7.5-7.5v-25c0-12.41-10.09-22.5-22.5-22.5h-2.5v-197.64l14.23,6.89ZM15,224.2l147.5-71.37,147.5,71.37v23.34l-144.23-69.79c-1.03-.5-2.15-.75-3.27-.75s-2.23.25-3.27.75L15,247.54v-23.34Zm295,255.3v17.5H15v-17.5c0-4.14,3.36-7.5,7.5-7.5h280c4.14,0,7.5,3.36,7.5,7.5Zm-175-22.5h-65v-107.5c0-4.14,3.36-7.5,7.5-7.5h50c4.14,0,7.5,3.36,7.5,7.5v107.5Zm150,0h-135v-107.5c0-12.41-10.09-22.5-22.5-22.5h-50c-12.41,0-22.5,10.09-22.5,22.5v107.5h-15v-204.89l122.5-59.27,122.5,59.27v204.89Z"/>
  </g>
  <g>
    <path class="cls-1" d="m324.5,135h45v-27.5c0-4.14,3.36-7.5,7.5-7.5s7.5,3.36,7.5,7.5v138.57c9.55-2.65,19.61-4.07,30-4.07s20.45,1.42,30,4.07V107.5c0-4.14,3.36-7.5,7.5-7.5s7.5,3.36,7.5,7.5v27.5h45c2.77,0,5.31-1.52,6.61-3.96,1.3-2.44,1.16-5.4-.37-7.7L436.29,11.66c-4.87-7.3-13.01-11.66-21.79-11.66s-16.92,4.36-21.79,11.66l-74.45,111.68c-1.53,2.3-1.68,5.26-.37,7.7,1.31,2.44,3.85,3.96,6.61,3.96Z"/>
    <path class="cls-1" d="m414.5,257c-53.76,0-97.5,43.74-97.5,97.5s43.74,97.5,97.5,97.5,97.5-43.74,97.5-97.5-43.74-97.5-97.5-97.5Zm-55,105h-5c-4.14,0-7.5-3.36-7.5-7.5s3.36-7.5,7.5-7.5h5c4.14,0,7.5,3.36,7.5,7.5s-3.36,7.5-7.5,7.5Zm72.92,31.48v11.02c0,4.14-3.36,7.5-7.5,7.5s-7.5-3.36-7.5-7.5v-9.17h-5.83v9.17c0,4.14-3.36,7.5-7.5,7.5s-7.5-3.36-7.5-7.5v-9.17h-2.08c-4.14,0-7.5-3.36-7.5-7.5s3.36-7.5,7.5-7.5h28.85c4.77,0,8.65-4.11,8.65-9.17s-3.88-9.17-8.65-9.17h-17.69c-13.04,0-23.65-10.84-23.65-24.17,0-10.04,6.03-18.67,14.58-22.32v-11.02c0-4.14,3.36-7.5,7.5-7.5s7.5,3.36,7.5,7.5v9.17h5.83v-9.17c0-4.14,3.36-7.5,7.5-7.5s7.5,3.36,7.5,7.5v9.17h2.08c4.14,0,7.5,3.36,7.5,7.5s-3.36,7.5-7.5,7.5h-28.85c-4.77,0-8.65,4.11-8.65,9.17s3.88,9.17,8.65,9.17h17.69c13.04,0,23.65,10.84,23.65,24.17,0,10.04-6.03,18.67-14.58,22.32Zm42.08-31.48h-5c-4.14,0-7.5-3.36-7.5-7.5s3.36-7.5,7.5-7.5h5c4.14,0,7.5,3.36,7.5,7.5s-3.36,7.5-7.5,7.5Z"/>
  </g>
</svg>