<?xml version="1.0" encoding="UTF-8"?>
<svg id="OBJECT" xmlns="http://www.w3.org/2000/svg" viewBox="0 0 512 512">
  <defs>
    <style>
      .cls-1 {
        fill: #f27930;
      }

      .cls-2 {
        fill: #143a72;
      }
    </style>
  </defs>
  <g>
    <path class="cls-2"
      d="m166,175h40c4.14,0,7.5-3.36,7.5-7.5v-40c0-4.14-3.36-7.5-7.5-7.5h-40c-4.14,0-7.5,3.36-7.5,7.5v40c0,4.14,3.36,7.5,7.5,7.5Zm7.5-40h25v25h-25v-25Z" />
    <path class="cls-2"
      d="m236,175h40c4.14,0,7.5-3.36,7.5-7.5v-40c0-4.14-3.36-7.5-7.5-7.5h-40c-4.14,0-7.5,3.36-7.5,7.5v40c0,4.14,3.36,7.5,7.5,7.5Zm7.5-40h25v25h-25v-25Z" />
    <path class="cls-2"
      d="m306,175h40c4.14,0,7.5-3.36,7.5-7.5v-40c0-4.14-3.36-7.5-7.5-7.5h-40c-4.14,0-7.5,3.36-7.5,7.5v40c0,4.14,3.36,7.5,7.5,7.5Zm7.5-40h25v25h-25v-25Z" />
    <path class="cls-2"
      d="m166,250h40c4.14,0,7.5-3.36,7.5-7.5v-40c0-4.14-3.36-7.5-7.5-7.5h-40c-4.14,0-7.5,3.36-7.5,7.5v40c0,4.14,3.36,7.5,7.5,7.5Zm7.5-40h25v25h-25v-25Z" />
    <path class="cls-2"
      d="m236,250h40c4.14,0,7.5-3.36,7.5-7.5v-40c0-4.14-3.36-7.5-7.5-7.5h-40c-4.14,0-7.5,3.36-7.5,7.5v40c0,4.14,3.36,7.5,7.5,7.5Zm7.5-40h25v25h-25v-25Z" />
    <path class="cls-2"
      d="m306,250h40c4.14,0,7.5-3.36,7.5-7.5v-40c0-4.14-3.36-7.5-7.5-7.5h-40c-4.14,0-7.5,3.36-7.5,7.5v40c0,4.14,3.36,7.5,7.5,7.5Zm7.5-40h25v25h-25v-25Z" />
    <path class="cls-2"
      d="m166,325h40c4.14,0,7.5-3.36,7.5-7.5v-40c0-4.14-3.36-7.5-7.5-7.5h-40c-4.14,0-7.5,3.36-7.5,7.5v40c0,4.14,3.36,7.5,7.5,7.5Zm7.5-40h25v25h-25v-25Z" />
    <path class="cls-2"
      d="m236,325h40c4.14,0,7.5-3.36,7.5-7.5v-40c0-4.14-3.36-7.5-7.5-7.5h-40c-4.14,0-7.5,3.36-7.5,7.5v40c0,4.14,3.36,7.5,7.5,7.5Zm7.5-40h25v25h-25v-25Z" />
    <path class="cls-2"
      d="m306,325h40c4.14,0,7.5-3.36,7.5-7.5v-40c0-4.14-3.36-7.5-7.5-7.5h-40c-4.14,0-7.5,3.36-7.5,7.5v40c0,4.14,3.36,7.5,7.5,7.5Zm7.5-40h25v25h-25v-25Z" />
    <path class="cls-2"
      d="m166,400h40c4.14,0,7.5-3.36,7.5-7.5v-40c0-4.14-3.36-7.5-7.5-7.5h-40c-4.14,0-7.5,3.36-7.5,7.5v40c0,4.14,3.36,7.5,7.5,7.5Zm7.5-40h25v25h-25v-25Z" />
    <path class="cls-2"
      d="m236,400h40c4.14,0,7.5-3.36,7.5-7.5v-40c0-4.14-3.36-7.5-7.5-7.5h-40c-4.14,0-7.5,3.36-7.5,7.5v40c0,4.14,3.36,7.5,7.5,7.5Zm7.5-40h25v25h-25v-25Z" />
    <path class="cls-2"
      d="m306,400h40c4.14,0,7.5-3.36,7.5-7.5v-40c0-4.14-3.36-7.5-7.5-7.5h-40c-4.14,0-7.5,3.36-7.5,7.5v40c0,4.14,3.36,7.5,7.5,7.5Zm7.5-40h25v25h-25v-25Z" />
    <path class="cls-2"
      d="m504.5,497h-121V97.5c0-4.14-3.36-7.5-7.5-7.5h-17.5v-22.5c0-4.14-3.36-7.5-7.5-7.5h-42.5V25.5c0-4.14-3.36-7.5-7.5-7.5h-30c-4.14,0-7.5,3.36-7.5,7.5v34.5h-15V7.5c0-4.14-3.36-7.5-7.5-7.5h-30c-4.14,0-7.5,3.36-7.5,7.5v52.5h-42.5c-4.14,0-7.5,3.36-7.5,7.5v22.5h-17.5c-4.14,0-7.5,3.36-7.5,7.5v107.5H7.5c-4.14,0-7.5,3.36-7.5,7.5v30c0,4.14,3.36,7.5,7.5,7.5h7.5v247h-7.5c-4.14,0-7.5,3.36-7.5,7.5s3.36,7.5,7.5,7.5h497c4.14,0,7.5-3.36,7.5-7.5s-3.36-7.5-7.5-7.5ZM278.5,33h15v27h-15v-27Zm-60-18h15v45h-15V15Zm-50,60h175v15h-175v-15Zm200,30v392h-55v-67h2.5c4.14,0,7.5-3.36,7.5-7.5s-3.36-7.5-7.5-7.5h-120c-4.14,0-7.5,3.36-7.5,7.5s3.36,7.5,7.5,7.5h2.5v67h-55V105h225Zm-120,325v67h-35v-67h35Zm15,0h35v67h-35v-67ZM15,220h113.5v15H15v-15Zm15,216h68.5v25H30v-25Zm0-75h68.5v25H30v-25Zm0-75h68.5v25H30v-25Zm0,190h76c4.14,0,7.5-3.36,7.5-7.5v-40c0-4.14-3.36-7.5-7.5-7.5H30v-20h76c4.14,0,7.5-3.36,7.5-7.5v-40c0-4.14-3.36-7.5-7.5-7.5H30v-20h76c4.14,0,7.5-3.36,7.5-7.5v-40c0-4.14-3.36-7.5-7.5-7.5H30v-21h98.5v247H30v-21Z" />
  </g>
  <g>
    <path class="cls-1" d="m506.21,165.2l-92.71-21.64v40l98.5,23v-34.05c0-3.49-2.4-6.51-5.79-7.3Z" />
    <path class="cls-1"
      d="m413.5,482h83.5V218.45l-83.5-19.49v283.04Zm46.75-243.5c0-4.14,3.36-7.5,7.5-7.5s7.5,3.36,7.5,7.5v20c0,4.14-3.36,7.5-7.5,7.5s-7.5-3.36-7.5-7.5v-20Zm0,65c0-4.14,3.36-7.5,7.5-7.5s7.5,3.36,7.5,7.5v20c0,4.14-3.36,7.5-7.5,7.5s-7.5-3.36-7.5-7.5v-20Zm0,65c0-4.14,3.36-7.5,7.5-7.5s7.5,3.36,7.5,7.5v20c0,4.14-3.36,7.5-7.5,7.5s-7.5-3.36-7.5-7.5v-20Zm0,65c0-4.14,3.36-7.5,7.5-7.5s7.5,3.36,7.5,7.5v20c0,4.14-3.36,7.5-7.5,7.5s-7.5-3.36-7.5-7.5v-20Zm-40-195c0-4.14,3.36-7.5,7.5-7.5s7.5,3.36,7.5,7.5v20c0,4.14-3.36,7.5-7.5,7.5s-7.5-3.36-7.5-7.5v-20Zm0,65c0-4.14,3.36-7.5,7.5-7.5s7.5,3.36,7.5,7.5v20c0,4.14-3.36,7.5-7.5,7.5s-7.5-3.36-7.5-7.5v-20Zm0,65c0-4.14,3.36-7.5,7.5-7.5s7.5,3.36,7.5,7.5v20c0,4.14-3.36,7.5-7.5,7.5s-7.5-3.36-7.5-7.5v-20Zm0,65c0-4.14,3.36-7.5,7.5-7.5s7.5,3.36,7.5,7.5v20c0,4.14-3.36,7.5-7.5,7.5s-7.5-3.36-7.5-7.5v-20Z" />
  </g>
</svg>