<?xml version="1.0" encoding="UTF-8"?>
<svg id="OBJECT" xmlns="http://www.w3.org/2000/svg" viewBox="0 0 512 512">
  <defs>
    <style>
      .cls-1 {
        fill: #7738c8;
      }

      .cls-2 {
        fill: #011839;
      }
    </style>
  </defs>
  <g>
    <path class="cls-2" d="m256,0C141.58,0,48.5,93.08,48.5,207.5s93.08,207.5,207.5,207.5,207.5-93.08,207.5-207.5S370.42,0,256,0Zm0,400c-106.14,0-192.5-86.36-192.5-192.5S149.86,15,256,15s192.5,86.35,192.5,192.5-86.36,192.5-192.5,192.5Z"/>
    <path class="cls-2" d="m256,40c-92.36,0-167.5,75.14-167.5,167.5s75.14,167.5,167.5,167.5,167.5-75.14,167.5-167.5S348.36,40,256,40Zm0,320c-84.09,0-152.5-68.41-152.5-152.5S171.91,55,256,55s152.5,68.41,152.5,152.5-68.41,152.5-152.5,152.5Z"/>
    <path class="cls-2" d="m201,290h-10c-4.14,0-7.5,3.36-7.5,7.5s3.36,7.5,7.5,7.5h10c4.14,0,7.5-3.36,7.5-7.5s-3.36-7.5-7.5-7.5Z"/>
    <path class="cls-2" d="m271,290h-30c-4.14,0-7.5,3.36-7.5,7.5s3.36,7.5,7.5,7.5h30c4.14,0,7.5-3.36,7.5-7.5s-3.36-7.5-7.5-7.5Z"/>
    <path class="cls-2" d="m321,290h-10c-4.14,0-7.5,3.36-7.5,7.5s3.36,7.5,7.5,7.5h10c4.14,0,7.5-3.36,7.5-7.5s-3.36-7.5-7.5-7.5Z"/>
    <path class="cls-2" d="m341.25,167c1.39,1.14,3.08,1.7,4.75,1.7,2.17,0,4.32-.94,5.81-2.75,2.62-3.2,2.15-7.93-1.05-10.55l-90-73.7c-2.76-2.26-6.74-2.26-9.5,0l-90,73.7c-3.2,2.62-3.67,7.35-1.05,10.55,2.62,3.21,7.35,3.68,10.55,1.05l7.75-6.34v99.35h-12.5c-4.14,0-7.5,3.36-7.5,7.5s3.36,7.5,7.5,7.5h180c4.14,0,7.5-3.36,7.5-7.5s-3.36-7.5-7.5-7.5h-12.5v-99.35l7.75,6.34Zm-62.75,93h-45v-67.5c0-4.14,3.36-7.5,7.5-7.5h30c4.14,0,7.5,3.36,7.5,7.5v67.5Zm40,0h-25v-67.5c0-12.41-10.09-22.5-22.5-22.5h-30c-12.41,0-22.5,10.09-22.5,22.5v67.5h-25v-111.63l62.5-51.18,62.5,51.18v111.63Z"/>
  </g>
  <g>
    <path class="cls-1" d="m471.57,262.68c-15.98,62.39-58.4,114.31-114.57,143.04v44.42l73.78-42.16c2.3-1.32,5.14-1.32,7.44,0l73.78,42.16v-125.65c0-27.6-16.65-51.36-40.43-61.82Z"/>
    <path class="cls-1" d="m357,467.42v37.08c0,2.67,1.42,5.14,3.74,6.49,2.31,1.34,5.17,1.35,7.49.02l66.28-37.87,66.28,37.87c1.15.66,2.44.99,3.72.99s2.6-.34,3.76-1.01c2.31-1.34,3.74-3.81,3.74-6.49v-37.08l-77.5-44.29-77.5,44.29Z"/>
    <path class="cls-1" d="m40.43,262.68C16.65,273.14,0,296.9,0,324.5v125.65l73.78-42.16c2.3-1.32,5.14-1.32,7.44,0l73.78,42.16v-44.42c-56.17-28.73-98.59-80.65-114.57-143.04Z"/>
    <path class="cls-1" d="m0,467.42v37.08c0,2.67,1.42,5.14,3.74,6.49,1.16.67,2.46,1.01,3.76,1.01s2.57-.33,3.72-.99l66.28-37.87,66.28,37.87c2.32,1.33,5.17,1.32,7.49-.02,2.31-1.34,3.74-3.81,3.74-6.49v-37.08l-77.5-44.29L0,467.42Z"/>
  </g>
</svg>