<?xml version="1.0" encoding="UTF-8"?>
<svg id="OBJECT" xmlns="http://www.w3.org/2000/svg" viewBox="0 0 512 512">
  <defs>
    <style>
      .cls-1 {
        fill: #7738c8;
      }

      .cls-2 {
        fill: #011839;
      }
    </style>
  </defs>
  <g>
    <path class="cls-2" d="m265.45,394.82l-1.86-2.05c-2.78-3.07-7.52-3.3-10.59-.52-3.07,2.78-3.3,7.52-.52,10.59l1.86,2.05c1.48,1.63,3.52,2.46,5.56,2.46,1.8,0,3.6-.64,5.03-1.94,3.07-2.78,3.3-7.52.52-10.59Z"/>
    <path class="cls-2" d="m505.33,381.57c-9.18-10.53-24.7-12.37-36.09-4.28l-70.94,50.34v-1.31c0-18.14-14.76-32.9-32.9-32.9h-31.04l-35.1-61.94c-8.56-15.1-24.66-24.48-42.01-24.48h-37.38c-12.72,0-24.73,4.91-33.81,13.81l-16.11,15.8h-24.95v-8.14c0-4.14-3.36-7.5-7.5-7.5h-32.5v-12.5c0-4.14-3.36-7.5-7.5-7.5H7.5C3.36,300.97,0,304.33,0,308.47v180c0,4.14,3.36,7.5,7.5,7.5h90c4.14,0,7.5-3.36,7.5-7.5v-12.5h32.5c4.14,0,7.5-3.36,7.5-7.5v-8.14h25.8l64.59,41.65c10.17,6.56,21.94,10.02,34.04,10.02h113.57c16.53,0,32.14-6.37,43.95-17.94l76.92-75.33c10.24-10.03,10.89-26.36,1.46-37.16Zm-415.33,99.4H15v-165h75v165Zm40-20h-25v-125h25v125Zm363.37-52.95l-76.92,75.33c-8.99,8.8-20.87,13.65-33.45,13.65h-113.57c-9.21,0-18.17-2.64-25.91-7.63l-66.44-42.85c-1.21-.78-2.62-1.2-4.06-1.2h-28.01v-93.71h28.01c1.96,0,3.85-.77,5.25-2.15l18.3-17.95c6.26-6.14,14.54-9.52,23.31-9.52h37.38c11.97,0,23.06,6.47,28.96,16.88l37.25,65.74c1.33,2.35,3.82,3.8,6.53,3.8h35.41c9.87,0,17.9,8.03,17.9,17.9v8.33h-72.37c-6.22,0-11.93-2.91-16.17-7.46-.02-.02-.03-.03-.05-.05l-17.31-18.3c-2.85-3.01-7.59-3.14-10.6-.3-3.01,2.85-3.14,7.59-.3,10.6l17.26,18.25c7.09,7.79,17.2,12.26,27.73,12.26h79.29v-.02c1.53,0,3.05-.45,4.34-1.37l82.78-58.75c5.09-3.61,12.01-2.79,16.11,1.91,4.21,4.82,3.92,12.11-.65,16.59Z"/>
    <path class="cls-2" d="m52.5,465.97c4.14,0,7.5-3.36,7.5-7.5v-10c0-4.14-3.36-7.5-7.5-7.5s-7.5,3.36-7.5,7.5v10c0,4.14,3.36,7.5,7.5,7.5Z"/>
    <path class="cls-2" d="m52.5,420.97c4.14,0,7.5-3.36,7.5-7.5v-10c0-4.14-3.36-7.5-7.5-7.5s-7.5,3.36-7.5,7.5v10c0,4.14,3.36,7.5,7.5,7.5Z"/>
  </g>
  <g>
    <path class="cls-1" d="m497,255h-225c-8.28,0-15,6.72-15,15v15h255v-15c0-8.28-6.72-15-15-15Z"/>
    <path class="cls-1" d="m501.27,70.41L388.42,1.11c-2.41-1.48-5.44-1.48-7.85,0l-112.85,69.3c-6.62,4.06-10.73,11.41-10.73,19.17v23.72l123.58-75.89c2.41-1.48,5.44-1.48,7.85,0l123.58,75.89v-23.72c0-7.76-4.11-15.11-10.73-19.17Z"/>
    <path class="cls-1" d="m492,240v-121.38l-107.5-66.02-107.5,66.02v121.38h55v-97.5c0-12.41,10.09-22.5,22.5-22.5h60c12.41,0,22.5,10.09,22.5,22.5v97.5h55Z"/>
    <path class="cls-1" d="m354.5,135c-4.14,0-7.5,3.36-7.5,7.5v97.5h75v-97.5c0-4.14-3.36-7.5-7.5-7.5h-60Zm52.5,60.83c0,4.14-3.36,7.5-7.5,7.5s-7.5-3.36-7.5-7.5v-15.74c0-4.14,3.36-7.5,7.5-7.5s7.5,3.36,7.5,7.5v15.74Z"/>
  </g>
</svg>