<?xml version="1.0" encoding="UTF-8"?>
<svg id="OBJECT" xmlns="http://www.w3.org/2000/svg" viewBox="0 0 512 512">
  <defs>
    <style>
      .cls-1 {
        fill: #7738c8;
      }

      .cls-2 {
        fill: #011839;
      }
    </style>
  </defs>
  <g>
    <rect class="cls-1" x="337" y="243.5" width="55" height="125"/>
    <path class="cls-1" d="m268.74,131h-10.48v11.14h10.48c3.07,0,5.57-2.5,5.57-5.57s-2.5-5.57-5.57-5.57Z"/>
    <path class="cls-1" d="m489.5,73.5h-250c-12.41,0-22.5,10.09-22.5,22.5v110c0,12.41,10.09,22.5,22.5,22.5h250c12.41,0,22.5-10.09,22.5-22.5v-110c0-12.41-10.09-22.5-22.5-22.5Zm-202.71,102.76c1.24,3.95-.96,8.16-4.92,9.4-.75.23-1.5.34-2.24.34-3.19,0-6.15-2.05-7.16-5.26l-7.39-23.6h-6.84v21.36c0,4.14-3.36,7.5-7.5,7.5s-7.5-3.36-7.5-7.5v-55c0-4.14,3.36-7.5,7.5-7.5h17.98c11.34,0,20.57,9.23,20.57,20.57,0,7.27-3.8,13.66-9.51,17.32l7,22.37Zm55.58-32.76c4.14,0,7.5,3.36,7.5,7.5s-3.36,7.5-7.5,7.5h-18.96v12.5h20.23c4.14,0,7.5,3.36,7.5,7.5s-3.36,7.5-7.5,7.5h-27.73c-4.14,0-7.5-3.36-7.5-7.5v-55c0-4.14,3.36-7.5,7.5-7.5h27.73c4.14,0,7.5,3.36,7.5,7.5s-3.36,7.5-7.5,7.5h-20.23v12.5h18.96Zm76.66,35c0,3.31-2.17,6.23-5.33,7.18-.72.22-1.45.32-2.17.32-2.47,0-4.83-1.22-6.25-3.35l-22.75-34.28v30.13c0,4.14-3.36,7.5-7.5,7.5s-7.5-3.36-7.5-7.5v-55c0-3.31,2.17-6.23,5.33-7.18,3.16-.96,6.59.28,8.42,3.03l22.75,34.28v-30.13c0-4.14,3.36-7.5,7.5-7.5s7.5,3.36,7.5,7.5v55Zm59.21-47.5h-13.96v47.5c0,4.14-3.36,7.5-7.5,7.5s-7.5-3.36-7.5-7.5v-47.5h-13.96c-4.14,0-7.5-3.36-7.5-7.5s3.36-7.5,7.5-7.5h42.92c4.14,0,7.5,3.36,7.5,7.5s-3.36,7.5-7.5,7.5Z"/>
  </g>
  <g>
    <path class="cls-2" d="m192.5,298.5c-4.14,0-7.5,3.36-7.5,7.5v20c0,4.14,3.36,7.5,7.5,7.5s7.5-3.36,7.5-7.5v-20c0-4.14-3.36-7.5-7.5-7.5Z"/>
    <path class="cls-2" d="m489.5,383.5h-189.5v-132.5c0-4.14-3.36-7.5-7.5-7.5s-7.5,3.36-7.5,7.5v132.5h-65v-117.5c0-12.41-10.09-22.5-22.5-22.5h-70c-12.41,0-22.5,10.09-22.5,22.5v117.5H40v-194.89l122.5-59.27,28.73,13.9c3.73,1.8,8.21.24,10.02-3.49,1.8-3.73.24-8.21-3.49-10.02l-32-15.48c-2.06-1-4.47-1-6.53,0L15,184.04v-23.34l147.5-71.37,28.73,13.9c3.73,1.8,8.21.24,10.02-3.49,1.8-3.73.24-8.21-3.49-10.02l-32-15.48c-2.06-1-4.47-1-6.53,0L4.23,149.25c-2.59,1.25-4.23,3.87-4.23,6.75v40c0,2.58,1.33,4.98,3.52,6.35,1.21.76,2.6,1.15,3.98,1.15,1.11,0,2.23-.25,3.27-.75l14.23-6.89v187.64h-2.5c-12.41,0-22.5,10.09-22.5,22.5v25c0,4.14,3.36,7.5,7.5,7.5h497c4.14,0,7.5-3.36,7.5-7.5v-25c0-12.41-10.09-22.5-22.5-22.5Zm-369.5-117.5c0-4.14,3.36-7.5,7.5-7.5h70c4.14,0,7.5,3.36,7.5,7.5v117.5h-85v-117.5Zm377,157.5H15v-17.5c0-4.14,3.36-7.5,7.5-7.5h467c4.14,0,7.5,3.36,7.5,7.5v17.5Z"/>
  </g>
</svg>