<?xml version="1.0" encoding="UTF-8"?>
<svg id="OBJECT" xmlns="http://www.w3.org/2000/svg" viewBox="0 0 512 512">
  <defs>
    <style>
      .cls-1 {
        fill: #7738c8;
      }

      .cls-2 {
        fill: #011839;
      }
    </style>
  </defs>
  <g>
    <path class="cls-2" d="m192.5,298.5c-4.14,0-7.5,3.36-7.5,7.5v20c0,4.14,3.36,7.5,7.5,7.5s7.5-3.36,7.5-7.5v-20c0-4.14-3.36-7.5-7.5-7.5Z"/>
    <path class="cls-2" d="m489.5,383.5h-189.5v-132.5c0-4.14-3.36-7.5-7.5-7.5s-7.5,3.36-7.5,7.5v132.5h-65v-117.5c0-12.41-10.09-22.5-22.5-22.5h-70c-12.41,0-22.5,10.09-22.5,22.5v117.5H40v-194.89l122.5-59.27,28.73,13.9c3.73,1.8,8.21.24,10.02-3.49,1.8-3.73.24-8.21-3.49-10.02l-32-15.48c-2.06-1-4.47-1-6.53,0L15,184.04v-23.34l147.5-71.37,28.73,13.9c3.73,1.8,8.21.24,10.02-3.49,1.8-3.73.24-8.21-3.49-10.02l-32-15.48c-2.06-1-4.47-1-6.53,0L4.23,149.25c-2.59,1.25-4.23,3.87-4.23,6.75v40c0,2.58,1.33,4.98,3.52,6.35,1.21.76,2.6,1.15,3.98,1.15,1.11,0,2.23-.25,3.27-.75l14.23-6.89v187.64h-2.5c-12.41,0-22.5,10.09-22.5,22.5v25c0,4.14,3.36,7.5,7.5,7.5h497c4.14,0,7.5-3.36,7.5-7.5v-25c0-12.41-10.09-22.5-22.5-22.5Zm-369.5-117.5c0-4.14,3.36-7.5,7.5-7.5h70c4.14,0,7.5,3.36,7.5,7.5v117.5h-85v-117.5Zm377,157.5H15v-17.5c0-4.14,3.36-7.5,7.5-7.5h467c4.14,0,7.5,3.36,7.5,7.5v17.5Z"/>
  </g>
  <g>
    <path class="cls-1" d="m489.5,73.5h-250c-12.41,0-22.5,10.09-22.5,22.5v110c0,12.41,10.09,22.5,22.5,22.5h250c12.41,0,22.5-10.09,22.5-22.5v-110c0-12.41-10.09-22.5-22.5-22.5Zm-222.53,70.33h8.94c11.32,0,20.53,9.46,20.53,21.08s-9.21,21.08-20.53,21.08h-21.97c-4.14,0-7.5-3.36-7.5-7.5s3.36-7.5,7.5-7.5h21.97c3.05,0,5.53-2.73,5.53-6.08s-2.48-6.08-5.53-6.08h-8.94c-11.32,0-20.53-9.46-20.53-21.08v-.67c0-11.62,9.21-21.08,20.53-21.08h21.97c4.14,0,7.5,3.36,7.5,7.5s-3.36,7.5-7.5,7.5h-21.97c-3.05,0-5.53,2.73-5.53,6.08v.67c0,3.35,2.48,6.08,5.53,6.08Zm89.07,41.71c-.85.31-1.71.45-2.56.45-3.06,0-5.94-1.89-7.05-4.94l-3.06-8.41h-19.79l-3.06,8.41c-1.42,3.89-5.72,5.9-9.61,4.49-3.89-1.42-5.9-5.72-4.49-9.61l20-55c1.08-2.96,3.89-4.94,7.05-4.94s5.97,1.97,7.05,4.94l20,55c1.42,3.89-.59,8.2-4.49,9.61Zm56.98.45h-35c-4.14,0-7.5-3.36-7.5-7.5v-55c0-4.14,3.36-7.5,7.5-7.5s7.5,3.36,7.5,7.5v47.5h27.5c4.14,0,7.5,3.36,7.5,7.5s-3.36,7.5-7.5,7.5Zm62.04-42.5c4.14,0,7.5,3.36,7.5,7.5s-3.36,7.5-7.5,7.5h-27.5v12.5h27.5c4.14,0,7.5,3.36,7.5,7.5s-3.36,7.5-7.5,7.5h-35c-4.14,0-7.5-3.36-7.5-7.5v-55c0-4.14,3.36-7.5,7.5-7.5h35c4.14,0,7.5,3.36,7.5,7.5s-3.36,7.5-7.5,7.5h-27.5v12.5h27.5Z"/>
    <polygon class="cls-1" points="329.04 157.66 337.92 157.66 333.48 145.45 329.04 157.66"/>
    <rect class="cls-1" x="337" y="243.5" width="55" height="125"/>
  </g>
</svg>