<?xml version="1.0" encoding="UTF-8"?>
<svg id="OBJECT" xmlns="http://www.w3.org/2000/svg" viewBox="0 0 512 512">
  <defs>
    <style>
      .cls-1 {
        fill: #7738c8;
      }

      .cls-2 {
        fill: #011839;
      }
    </style>
  </defs>
  <g>
    <path class="cls-2" d="m247.5,130h-60c-12.41,0-22.5,10.09-22.5,22.5v80c0,12.41,10.09,22.5,22.5,22.5h60c12.41,0,22.5-10.09,22.5-22.5v-80c0-12.41-10.09-22.5-22.5-22.5Zm-60,15h60c4.14,0,7.5,3.36,7.5,7.5v57.5h-75v-57.5c0-4.14,3.36-7.5,7.5-7.5Zm60,95h-60c-4.14,0-7.5-3.36-7.5-7.5v-7.5h75v7.5c0,4.14-3.36,7.5-7.5,7.5Z"/>
    <path class="cls-2" d="m122.5,245c-4.14,0-7.5,3.36-7.5,7.5v20c0,4.14,3.36,7.5,7.5,7.5s7.5-3.36,7.5-7.5v-20c0-4.14-3.36-7.5-7.5-7.5Z"/>
    <path class="cls-2" d="m320.77,75.75L165.77.75c-2.06-1-4.47-1-6.53,0L4.23,75.75c-2.59,1.25-4.23,3.88-4.23,6.75v40c0,2.58,1.33,4.98,3.52,6.35,2.19,1.37,4.93,1.52,7.25.4l14.23-6.89v197.64h-2.5c-12.41,0-22.5,10.09-22.5,22.5v25c0,4.14,3.36,7.5,7.5,7.5h210.46c4.14,0,7.5-3.36,7.5-7.5s-3.36-7.5-7.5-7.5H15v-17.5c0-4.14,3.36-7.5,7.5-7.5h199.14c4.14,0,7.5-3.36,7.5-7.5s-3.36-7.5-7.5-7.5h-71.64v-107.5c0-12.41-10.09-22.5-22.5-22.5h-50c-12.41,0-22.5,10.09-22.5,22.5v107.5h-15V115.11l122.5-59.27,122.5,59.27v123.65c0,4.14,3.36,7.5,7.5,7.5s7.5-3.36,7.5-7.5v-116.39l14.23,6.89c1.04.5,2.15.75,3.27.75,1.39,0,2.77-.38,3.98-1.15,2.19-1.37,3.52-3.77,3.52-6.35v-40c0-2.88-1.64-5.5-4.23-6.75ZM70,212.5c0-4.14,3.36-7.5,7.5-7.5h50c4.14,0,7.5,3.36,7.5,7.5v107.5h-65v-107.5Zm240-101.96L165.77,40.75c-1.03-.5-2.15-.75-3.27-.75s-2.24.25-3.27.75L15,110.54v-23.34L162.5,15.83l147.5,71.37v23.34Z"/>
  </g>
  <g>
    <path class="cls-1" d="m505.41,466.52l-36.85-36.85c-10.11,15.51-23.38,28.78-38.89,38.89l36.85,36.85c4.25,4.25,9.9,6.59,15.91,6.59s11.66-2.34,15.91-6.59l7.07-7.07c4.25-4.25,6.59-9.9,6.59-15.91s-2.34-11.66-6.59-15.91Z"/>
    <path class="cls-1" d="m357.5,280c-42.73,0-77.5,34.77-77.5,77.5s34.77,77.5,77.5,77.5,77.5-34.77,77.5-77.5-34.77-77.5-77.5-77.5Zm40.3,59.52l-46.58,46.57c-1.46,1.46-3.38,2.2-5.3,2.2s-3.84-.73-5.3-2.2l-23.42-23.42c-2.93-2.93-2.93-7.68,0-10.61,2.93-2.93,7.68-2.93,10.61,0l18.12,18.12,41.27-41.27c2.93-2.93,7.68-2.93,10.61,0,2.93,2.93,2.93,7.68,0,10.61Z"/>
    <path class="cls-1" d="m475,357.5c0-64.79-52.71-117.5-117.5-117.5s-117.5,52.71-117.5,117.5,52.71,117.5,117.5,117.5,117.5-52.71,117.5-117.5Zm-117.5,92.5c-51,0-92.5-41.5-92.5-92.5s41.5-92.5,92.5-92.5,92.5,41.5,92.5,92.5-41.5,92.5-92.5,92.5Z"/>
  </g>
</svg>