<?xml version="1.0" encoding="UTF-8"?>
<svg id="OBJECT" xmlns="http://www.w3.org/2000/svg" viewBox="0 0 512 512">
  <defs>
    <style>
      .cls-1 {
        fill: #7738c8;
      }

      .cls-2 {
        fill: #011839;
      }
    </style>
  </defs>
  <g>
    <rect class="cls-1" x="337" y="243.5" width="55" height="125"/>
    <path class="cls-1" d="m459.5,131h-7.5v40h7.5c6.89,0,12.5-5.61,12.5-12.5v-15c0-6.89-5.61-12.5-12.5-12.5Z"/>
    <path class="cls-1" d="m332,131c-5.51,0-10,4.49-10,10v20c0,5.51,4.49,10,10,10s10-4.49,10-10v-20c0-5.51-4.49-10-10-10Z"/>
    <path class="cls-1" d="m489.5,73.5h-250c-12.41,0-22.5,10.09-22.5,22.5v110c0,12.41,10.09,22.5,22.5,22.5h250c12.41,0,22.5-10.09,22.5-22.5v-110c0-12.41-10.09-22.5-22.5-22.5Zm-226.25,70h7.5c11.72,0,21.25,9.53,21.25,21.25s-9.53,21.25-21.25,21.25h-21.25c-4.14,0-7.5-3.36-7.5-7.5s3.36-7.5,7.5-7.5h21.25c3.45,0,6.25-2.8,6.25-6.25s-2.8-6.25-6.25-6.25h-7.5c-11.72,0-21.25-9.53-21.25-21.25s9.53-21.25,21.25-21.25h21.25c4.14,0,7.5,3.36,7.5,7.5s-3.36,7.5-7.5,7.5h-21.25c-3.45,0-6.25,2.8-6.25,6.25s2.8,6.25,6.25,6.25Zm93.75,17.5c0,13.79-11.21,25-25,25s-25-11.21-25-25v-20c0-13.79,11.21-25,25-25s25,11.21,25,25v20Zm52.5,25h-25c-4.14,0-7.5-3.36-7.5-7.5v-55c0-4.14,3.36-7.5,7.5-7.5s7.5,3.36,7.5,7.5v47.5h17.5c4.14,0,7.5,3.36,7.5,7.5s-3.36,7.5-7.5,7.5Zm77.5-27.5c0,15.16-12.34,27.5-27.5,27.5h-15c-4.14,0-7.5-3.36-7.5-7.5v-55c0-4.14,3.36-7.5,7.5-7.5h15c15.16,0,27.5,12.34,27.5,27.5v15Z"/>
  </g>
  <g>
    <path class="cls-2" d="m192.5,298.5c-4.14,0-7.5,3.36-7.5,7.5v20c0,4.14,3.36,7.5,7.5,7.5s7.5-3.36,7.5-7.5v-20c0-4.14-3.36-7.5-7.5-7.5Z"/>
    <path class="cls-2" d="m489.5,383.5h-189.5v-132.5c0-4.14-3.36-7.5-7.5-7.5s-7.5,3.36-7.5,7.5v132.5h-65v-117.5c0-12.41-10.09-22.5-22.5-22.5h-70c-12.41,0-22.5,10.09-22.5,22.5v117.5H40v-194.89l122.5-59.27,28.73,13.9c3.73,1.8,8.21.24,10.02-3.49,1.8-3.73.24-8.21-3.49-10.02l-32-15.48c-2.06-1-4.47-1-6.53,0L15,184.04v-23.34l147.5-71.37,28.73,13.9c3.73,1.8,8.21.24,10.02-3.49,1.8-3.73.24-8.21-3.49-10.02l-32-15.48c-2.06-1-4.47-1-6.53,0L4.23,149.25c-2.59,1.25-4.23,3.87-4.23,6.75v40c0,2.58,1.33,4.98,3.52,6.35,1.21.76,2.6,1.15,3.98,1.15,1.11,0,2.23-.25,3.27-.75l14.23-6.89v187.64h-2.5c-12.41,0-22.5,10.09-22.5,22.5v25c0,4.14,3.36,7.5,7.5,7.5h497c4.14,0,7.5-3.36,7.5-7.5v-25c0-12.41-10.09-22.5-22.5-22.5Zm-369.5-117.5c0-4.14,3.36-7.5,7.5-7.5h70c4.14,0,7.5,3.36,7.5,7.5v117.5h-85v-117.5Zm377,157.5H15v-17.5c0-4.14,3.36-7.5,7.5-7.5h467c4.14,0,7.5,3.36,7.5,7.5v17.5Z"/>
  </g>
</svg>