<?xml version="1.0" encoding="UTF-8"?>
<svg id="OBJECT" xmlns="http://www.w3.org/2000/svg" viewBox="0 0 512 512">
  <defs>
    <style>
      .cls-1 {
        fill: #7738c8;
      }

      .cls-2 {
        fill: #011839;
      }
    </style>
  </defs>
  <path class="cls-2" d="m434.73,435.71l-3-29.3c-.95-9.4-7.42-17.22-16.49-19.93l-104.04-30.98c-8.04-2.39-16.77-.26-22.81,5.57l-30.68,29.7c-35.93-19.74-75.14-57.18-77.27-59.22-2.05-2.13-39.48-41.34-59.22-77.26l29.7-30.68c5.83-6.02,7.96-14.76,5.57-22.8l-30.98-104.04c-2.7-9.06-10.52-15.54-19.92-16.5l-29.31-3c-20.15-2.05-40.03,7.68-50.64,24.78C11.01,125.63-5.06,164.48,1.52,215.65c7.75,60.25,44.83,122.36,110.24,184.6,62.25,65.41,124.35,102.49,184.6,110.24,8.12,1.04,15.92,1.52,23.4,1.52,39.7,0,70.35-13.33,90.19-25.64,17.1-10.61,26.83-30.49,24.77-50.65ZM74.76,92.19l29.31,3c3.34.34,6.11,2.64,7.07,5.86l30.98,104.03c.85,2.86.09,5.96-1.97,8.1l-4.57,4.72L45.87,101.28c7.84-6.71,18.3-10.16,28.89-9.09Zm47.73,297.58c-.09-.09-.17-.18-.27-.27C-15.19,258.81,8.03,161.64,36.29,113.43l88.74,115.36-10.76,11.11c-1.85-4.56-3.27-8.96-4.11-13.11-.83-4.06-4.79-6.68-8.85-5.85-4.06.83-6.68,4.79-5.85,8.85,9.09,44.6,71.63,109.55,74.29,112.29.05.06.11.11.17.17,2.74,2.66,67.69,65.2,112.29,74.28.51.1,1.01.15,1.51.15,3.49,0,6.62-2.45,7.34-6,.83-4.06-1.79-8.02-5.85-8.85-4.15-.85-8.55-2.26-13.1-4.11l11.11-10.75,115.36,88.74c-48.21,28.27-145.38,51.48-276.08-85.93Zm288.23,76.35l-116.62-89.71,4.71-4.56c2.14-2.07,5.24-2.83,8.1-1.98l104.04,30.98c3.22.96,5.51,3.73,5.85,7.07l3,29.3c1.08,10.59-2.37,21.05-9.08,28.89Z"/>
  <g>
    <path class="cls-1" d="m497,255h-225c-8.28,0-15,6.72-15,15v15h255v-15c0-8.28-6.72-15-15-15Z"/>
    <path class="cls-1" d="m501.27,70.41L388.42,1.11c-2.41-1.48-5.44-1.48-7.85,0l-112.85,69.3c-6.62,4.06-10.73,11.41-10.73,19.17v23.72l123.58-75.89c2.41-1.48,5.44-1.48,7.85,0l123.58,75.89v-23.72c0-7.76-4.11-15.11-10.73-19.17Z"/>
    <path class="cls-1" d="m492,240v-121.38l-107.5-66.02-107.5,66.02v121.38h55v-97.5c0-12.41,10.09-22.5,22.5-22.5h60c12.41,0,22.5,10.09,22.5,22.5v97.5h55Z"/>
    <path class="cls-1" d="m354.5,135c-4.14,0-7.5,3.36-7.5,7.5v97.5h75v-97.5c0-4.14-3.36-7.5-7.5-7.5h-60Zm52.5,60.83c0,4.14-3.36,7.5-7.5,7.5s-7.5-3.36-7.5-7.5v-15.74c0-4.14,3.36-7.5,7.5-7.5s7.5,3.36,7.5,7.5v15.74Z"/>
  </g>
</svg>