<?xml version="1.0" encoding="UTF-8"?>
<svg id="OBJECT" xmlns="http://www.w3.org/2000/svg" viewBox="0 0 512 512">
  <defs>
    <style>
      .cls-1 {
        fill: #f27930;
      }

      .cls-2 {
        fill: #143a72;
      }
    </style>
  </defs>
  <g>
    <path class="cls-2"
      d="m265.45,394.82l-1.86-2.05c-2.78-3.07-7.52-3.3-10.59-.52s-3.3,7.52-.52,10.59l1.86,2.05c1.48,1.63,3.52,2.46,5.56,2.46,1.8,0,3.6-.64,5.03-1.94,3.07-2.78,3.3-7.52.52-10.59Z" />
    <path class="cls-2"
      d="m505.33,381.57c-9.18-10.53-24.7-12.37-36.09-4.28l-70.94,50.34v-1.31c0-18.14-14.76-32.9-32.9-32.9h-31.04l-35.1-61.94c-8.56-15.1-24.66-24.48-42.01-24.48h-37.38c-12.72,0-24.73,4.91-33.81,13.81l-16.11,15.8h-24.95v-8.14c0-4.14-3.36-7.5-7.5-7.5h-32.5v-12.5c0-4.14-3.36-7.5-7.5-7.5H7.5C3.36,300.97,0,304.33,0,308.47v180c0,4.14,3.36,7.5,7.5,7.5h90c4.14,0,7.5-3.36,7.5-7.5v-12.5h32.5c4.14,0,7.5-3.36,7.5-7.5v-8.14h25.8l64.59,41.65c10.17,6.56,21.94,10.02,34.04,10.02h113.57c16.53,0,32.14-6.37,43.95-17.94l76.92-75.33c10.24-10.03,10.89-26.36,1.46-37.16Zm-415.33,99.4H15v-165h75v165Zm40-20h-25v-125h25v125Zm363.37-52.95l-76.92,75.33c-8.99,8.8-20.87,13.65-33.45,13.65h-113.57c-9.21,0-18.17-2.64-25.91-7.63l-66.44-42.85c-1.21-.78-2.62-1.2-4.06-1.2h-28.01v-93.71h28.01c1.96,0,3.85-.77,5.25-2.15l18.3-17.95c6.26-6.14,14.54-9.52,23.31-9.52h37.38c11.97,0,23.06,6.47,28.96,16.88l37.25,65.74c1.33,2.35,3.82,3.8,6.53,3.8h35.41c9.87,0,17.9,8.03,17.9,17.9v8.33h-72.37c-6.22,0-11.93-2.91-16.17-7.46-.02-.02-.03-.03-.05-.05l-17.31-18.3c-2.85-3.01-7.59-3.14-10.6-.3-3.01,2.85-3.14,7.59-.3,10.6l17.26,18.25c7.09,7.79,17.2,12.26,27.73,12.26h79.29v-.02c1.53,0,3.05-.45,4.34-1.37l82.78-58.75c5.09-3.61,12.01-2.79,16.11,1.91,4.21,4.82,3.92,12.11-.65,16.59Z" />
    <path class="cls-2"
      d="m52.5,465.97c4.14,0,7.5-3.36,7.5-7.5v-10c0-4.14-3.36-7.5-7.5-7.5s-7.5,3.36-7.5,7.5v10c0,4.14,3.36,7.5,7.5,7.5Z" />
    <path class="cls-2"
      d="m52.5,420.97c4.14,0,7.5-3.36,7.5-7.5v-10c0-4.14-3.36-7.5-7.5-7.5s-7.5,3.36-7.5,7.5v10c0,4.14,3.36,7.5,7.5,7.5Z" />
  </g>
  <g>
    <rect class="cls-1" x="347.75" y="55" width="65" height="35" rx="7.5" ry="7.5" />
    <path class="cls-1"
      d="m440.25,0h-120c-15.16,0-27.5,12.34-27.5,27.5v90c0,15.16,12.34,27.5,27.5,27.5h120c15.16,0,27.5-12.34,27.5-27.5V27.5c0-15.16-12.34-27.5-27.5-27.5Zm-12.5,82.5c0,12.41-10.09,22.5-22.5,22.5h-50c-12.41,0-22.5-10.09-22.5-22.5v-20c0-12.41,10.09-22.5,22.5-22.5h50c12.41,0,22.5,10.09,22.5,22.5v20Z" />
    <path class="cls-1"
      d="m337.75,317.5c0,1.82.66,3.57,1.86,4.94l35,40c1.42,1.63,3.48,2.56,5.64,2.56s4.22-.93,5.64-2.56l35-40c1.2-1.37,1.86-3.12,1.86-4.94v-20c0-2.28-1.04-4.43-2.81-5.86l-17.68-14.14,11.43-9.14c1.78-1.42,2.81-3.58,2.81-5.86s-1.04-4.43-2.81-5.86l-11.43-9.14,11.43-9.14c1.78-1.42,2.81-3.58,2.81-5.86s-1.04-4.43-2.81-5.86l-11.43-9.14,17.68-14.14c1.78-1.42,2.81-3.58,2.81-5.86v-37.5h-85v157.5Z" />
  </g>
</svg>