<svg xmlns="http://www.w3.org/2000/svg" xmlns:xlink="http://www.w3.org/1999/xlink" viewBox="0 0 278.28 218.81"><defs><style>.cls-1{fill:none;}.cls-2{fill:#e6ebf0;}.cls-3{clip-path:url(#clip-path);}.cls-4{clip-path:url(#clip-path-2);}.cls-5{fill:#c6d0db;}.cls-6{fill:#aab6c2;}.cls-7,.cls-8,.cls-9{fill:#fff;}.cls-7{opacity:0.31;}.cls-8{opacity:0.6;}.cls-10{opacity:0.22;fill:url(#Безымянный_градиент_3);}.cls-11{fill:#ffbf5b;}.cls-12{fill:#ff822e;}.cls-13{fill:#e07329;}</style><clipPath id="clip-path" transform="translate(10.93)"><path class="cls-1" d="M124.09,18.73c30.48,8.77,81.65,35.88,79.35,98.15S146.81,147,106,203.3C75.57,245.25-51.79,187.89,23.41,64.66,53.35,15.59,97.65,11.11,124.09,18.73Z"/></clipPath><clipPath id="clip-path-2" transform="translate(10.93)"><rect class="cls-1" x="125.2" y="38.79" width="104.3" height="134.51"/></clipPath><linearGradient id="Безымянный_градиент_3" x1="1692.95" y1="123.04" x2="1692.95" y2="45.38" gradientTransform="matrix(-1, 0, 0, 1, 1794.73, 0)" gradientUnits="userSpaceOnUse"><stop offset="0" stop-color="#fff" stop-opacity="0"/><stop offset="1" stop-color="#fff"/></linearGradient></defs><g id="Слой_2" data-name="Слой 2"><g id="Layer_1" data-name="Layer 1"><rect x="18.57" y="216.94" width="189.8" height="1.44"/><path class="cls-2" d="M124.09,18.73c30.48,8.77,81.65,35.88,79.35,98.15S146.81,147,106,203.3C75.57,245.25-51.79,187.89,23.41,64.66,53.35,15.59,97.65,11.11,124.09,18.73Z" transform="translate(10.93)"/><path class="cls-2" d="M151.39,178.67c-27,8.23-30.61,20.38-30.42,31.15.21,12.21,48.05,6.28,68.09-26.08S165.64,174.33,151.39,178.67Z" transform="translate(10.93)"/><g class="cls-3"><rect class="cls-2" x="125.18" y="40.28" width="104.21" height="133.6" transform="translate(365.5 214.16) rotate(180)"/><g class="cls-4"><path class="cls-5" d="M166.51,143.93c.3-1.6,1.8-2.06,1.42-3.93-.22-1.07-.83-1.58-.13-2.69a4.55,4.55,0,0,1,1.51-1.38,2.23,2.23,0,0,1-.79-2.56.38.38,0,0,1,.62-.16,9.8,9.8,0,0,1,1.38,1.77c.06-.41.11-.83.21-1.23a.75.75,0,0,1,.67-.65c.66,0,.67.6.54,1.18,1.22-.82,2.41-1.69,3.64-2.51.46-.31,1-.61,1.48-.9a1.6,1.6,0,0,1-.51-.8c-.17-.69.35-1.27,1-.9a4.13,4.13,0,0,1,1,.87,19.64,19.64,0,0,1,2.43-1,1.8,1.8,0,0,1-.58-.62.71.71,0,0,1,.54-1.05,1.93,1.93,0,0,1,1.43.63,3.52,3.52,0,0,1,.49.54c3-.56,6-.09,8.13,2.52l.35.44a2.73,2.73,0,0,1,1-1.46.31.31,0,0,1,.27-.06.42.42,0,0,1,.46.2.42.42,0,0,1,.12.35,6.17,6.17,0,0,1-.63,1.84,2.43,2.43,0,0,0,.62,0,4,4,0,0,1,1.58,0,3.55,3.55,0,0,1,1.87,1.53,4,4,0,0,1,.35.68c1.06,2.7-1.2,5.12-3.29,6.48a.29.29,0,0,1-.31,0c-2.87,1.73-6,4.15-9.36,4.61-.64.09-1.31-.08-1.92,0a11.5,11.5,0,0,0-2.1.7c-.18.16-.31.63-.46.84a4.92,4.92,0,0,1-2.55,2c-3.3,1.21-9.93.45-10.64-3.64A4.7,4.7,0,0,1,166.51,143.93Z" transform="translate(10.93)"/><path class="cls-6" d="M166.49,145.64c.71,4.09,7.34,4.85,10.64,3.64a4.92,4.92,0,0,0,2.55-2c.15-.21.28-.68.46-.84a11.5,11.5,0,0,1,2.1-.7c.61-.08,1.28.09,1.92,0,3.35-.46,6.49-2.88,9.36-4.61a.29.29,0,0,0,.31,0c2.09-1.36,4.35-3.78,3.29-6.48a4,4,0,0,0-.35-.68,6.89,6.89,0,0,1-8.66,4.51.38.38,0,0,0-.47.36c.24,2-1.56,3-3.26,3.08a9.67,9.67,0,0,1-3.56-.82c-.23-.09-.45.13-.47.36a3.27,3.27,0,0,1-1.69,2.8c-.37.2-.9.2-1.25.41-.58.34-.49.66-.8,1.18-1.88,3.16-7.06.61-9.64-.46a.36.36,0,0,0-.36.1A1.58,1.58,0,0,0,166.49,145.64Z" transform="translate(10.93)"/><path class="cls-5" d="M191.85,137.41l.11-.08a1.52,1.52,0,0,0,0-.21c-.09-.47.63-.67.72-.2a4.21,4.21,0,0,1-.75,3.4.38.38,0,0,1-.68-.09A2.9,2.9,0,0,1,191.85,137.41Z" transform="translate(10.93)"/><path class="cls-5" d="M182.58,140.89a.31.31,0,0,1,.3,0,6.78,6.78,0,0,0,.41-1.2c.11-.47.83-.27.72.2a8.2,8.2,0,0,1-1.62,3.26.38.38,0,0,1-.62-.17A2,2,0,0,1,182.58,140.89Z" transform="translate(10.93)"/><path class="cls-5" d="M175.41,144.65c.78.89,1.72,2.43.48,3.39a.38.38,0,0,1-.62-.16,5.57,5.57,0,0,1-.11-2.15.33.33,0,0,1,.07-.13c-.12-.15-.24-.3-.35-.42C174.57,144.82,175.09,144.29,175.41,144.65Z" transform="translate(10.93)"/><path class="cls-6" d="M185.9,131.75c1.18-.82,1.47,2.53,1.44,3.13.24.37-.26.86-.54.49a5.43,5.43,0,0,1-1-2C185.67,132.93,185.42,132.08,185.9,131.75Z" transform="translate(10.93)"/><path class="cls-6" d="M179.75,136.47l0,0a7.7,7.7,0,0,1-1.19-3.66.37.37,0,0,1,.27-.36c.84-.26,1.22.75,1.43,1.39a6.34,6.34,0,0,1,.16,3.29c-.1.47-.82.27-.72-.2C179.71,136.76,179.73,136.61,179.75,136.47Z" transform="translate(10.93)"/><path class="cls-5" d="M178.06,139a.39.39,0,0,1,.64.31.35.35,0,0,1,.05.18,2.35,2.35,0,0,1-.9,1.79.37.37,0,0,1-.58-.07C176.79,140.34,177.41,139.55,178.06,139Z" transform="translate(10.93)"/><path class="cls-6" d="M169.49,139.84c0-.72.65-1,1.23-.72a7,7,0,0,1,1.53.9,9,9,0,0,1,1.07.55c.29.17.19.73-.19.69h0a.38.38,0,0,1-.48,0h0C171.39,141.21,169.57,141.27,169.49,139.84Z" transform="translate(10.93)"/><path class="cls-5" d="M213.47,131.94c.64-1.41,2.31-3.48,4-3.37a2,2,0,0,1,.54.08,6.47,6.47,0,0,1,1.83.76c-.06-.2-.12-.41-.2-.61-.18-.44.54-.64.72-.2a7.37,7.37,0,0,1,.41,1.44l.1.06a2.71,2.71,0,0,1,.48-1.51.64.64,0,0,1,1,0c.3.4.09.94-.08,1.34s-.29.68-.46,1a4.4,4.4,0,0,1,.44.61c.38.65.45,1.29.74,1.82l.86-.89a.38.38,0,0,1,.63.36,5.34,5.34,0,0,1-.63,1.32l.24.12c.76.29,1.19.26,1.75.94a7.72,7.72,0,0,1,1.44,3.08,5.53,5.53,0,0,1,0,2.83,3.06,3.06,0,0,1-1.55,1.89,4,4,0,0,1-1,.26,4,4,0,0,0-2.23.7,2,2,0,0,1-.43.43c-3.87,1.28-4.14-5.86-6.88-7.19a.3.3,0,0,1-.18-.35C213.67,135.54,212.58,133.92,213.47,131.94Z" transform="translate(10.93)"/><path class="cls-6" d="M215,136.92a.3.3,0,0,0,.18.35c2.74,1.33,3,8.47,6.88,7.19a2,2,0,0,0,.43-.43,4,4,0,0,1,2.23-.7,4,4,0,0,0,1-.26,3.06,3.06,0,0,0,1.55-1.89,5.53,5.53,0,0,0,0-2.83,11.52,11.52,0,0,1-.67,1.87c-.78,1.3-2.35,1.45-3.68,1.25s-3-.56-2.72-2.18a3,3,0,0,0,.12-1.33c-.26-1.07-1.58-1.42-2.28-2.16a5.35,5.35,0,0,1,0-7.13v0a2,2,0,0,0-.54-.08c-1.68-.11-3.35,2-4,3.37C212.58,133.92,213.67,135.54,215,136.92Z" transform="translate(10.93)"/><path class="cls-5" d="M222.24,140.46a.29.29,0,0,1,.29-.18.41.41,0,0,1,.55.33,5.51,5.51,0,0,1-.14,2,.38.38,0,0,1-.68.08A2.48,2.48,0,0,1,222.24,140.46Z" transform="translate(10.93)"/><path class="cls-5" d="M220.43,139.67a.31.31,0,0,1,.37,0,.38.38,0,0,1,.51.51,3.18,3.18,0,0,1-1.32,1.3.37.37,0,0,1-.54-.42A2.52,2.52,0,0,1,220.43,139.67Z" transform="translate(10.93)"/><path class="cls-5" d="M215.55,133a4.2,4.2,0,0,1,1.26-.24,6.8,6.8,0,0,1-1.24-1,.38.38,0,0,1,.26-.64,2.23,2.23,0,0,1,2.1,1.3.41.41,0,0,1-.34.57l-.1,0a.38.38,0,0,1-.07.36,1.66,1.66,0,0,1-1.19.75.93.93,0,0,1-.94-.7A.38.38,0,0,1,215.55,133Z" transform="translate(10.93)"/><path class="cls-6" d="M223.28,136.92a1.33,1.33,0,0,1,.88.08,1.43,1.43,0,0,1,.91.35.84.84,0,0,1,.11,1c-.6,1-1.63-.4-2.06-.84A.38.38,0,0,1,223.28,136.92Z" transform="translate(10.93)"/><path class="cls-6" d="M220.41,131.77a.37.37,0,0,1,.69.19,7.89,7.89,0,0,1,0,2.17c-.05.36-.49.32-.65.07a.28.28,0,0,1-.15-.15A2.23,2.23,0,0,1,220.41,131.77Z" transform="translate(10.93)"/><path class="cls-5" d="M220.5,135.92c.05-.13.09-.25.13-.37.15-.46.87-.26.72.2l-.13.37C221.07,136.57,220.35,136.37,220.5,135.92Z" transform="translate(10.93)"/><path class="cls-5" d="M160.27,103.94a1.6,1.6,0,0,1-.55-.38c-.88-1,.2-1.84,1-2.4l3-2.1c.88-1.07,1.76-2.09,2.54-3a9,9,0,0,1-1.13-5.6,4.53,4.53,0,0,1-.53-3.92,1,1,0,0,1,1.91.26,12.76,12.76,0,0,1,1.56-2A4.27,4.27,0,0,1,167,82.89a.37.37,0,0,1,.26-.46,1.27,1.27,0,0,1,1.27.57,1.09,1.09,0,0,1,.1.11,2.88,2.88,0,0,1,.22.27l.31.38a23,23,0,0,1,8.24-4.51l.4-.13a3.48,3.48,0,0,1-.38-2.59.38.38,0,0,1,.62-.17A3.8,3.8,0,0,1,179,78a8,8,0,0,1,.77-1.91.92.92,0,0,1,.38-.36,8.48,8.48,0,0,1,.73-1,.37.37,0,0,1,.58.08,2.71,2.71,0,0,1,.57,1.76c0,.17.05.34.07.51A20.1,20.1,0,0,0,185.81,74a14.73,14.73,0,0,1,1.62-1.45c-.77-.52.11-2.29.36-2.87a.38.38,0,0,1,.65,0,3.67,3.67,0,0,1,.6,1.76,14.41,14.41,0,0,1,2.31-1.1,17.8,17.8,0,0,1,11.22-.15.83.83,0,0,1,.22-.78c.35-.34.71,0,.9.28s.39.71.58,1.06c.44.17.89.35,1.32.54a28,28,0,0,0,4.51,1.58,6.87,6.87,0,0,1-.29-1c-.07-.37-.22-1,.18-1.19s.87.11,1.17.34a4,4,0,0,1,1.32,2.32,29.3,29.3,0,0,0,3.09.28,24.17,24.17,0,0,1,3.28.35,2,2,0,0,1,.52-2.49c1-.54,2,.66,2.61,1.28a11.86,11.86,0,0,1,1.85,2.59,24.16,24.16,0,0,1,6.15,3.5l1.14.88a7.65,7.65,0,0,1,3.6-2.33,1,1,0,0,1,.71,1.77,8.8,8.8,0,0,1-2,2,6.82,6.82,0,0,0,4.68.2c7.13-1.76,11.71.31,14.84,4.61a3.43,3.43,0,0,1,.18-.66c.1-.27.52-.4.67-.09a3.75,3.75,0,0,1,.34,1.08,4.43,4.43,0,0,1,.75-.75.16.16,0,0,1,.08-.06l.11-.09a.33.33,0,0,1,.38,0,1.79,1.79,0,0,1,1,1.49,5.66,5.66,0,0,1-.57,4.67c.16.41.31.84.46,1.27a4.86,4.86,0,0,1,2.48-1,.3.3,0,0,1,.34.23.34.34,0,0,1,0,.4,3.39,3.39,0,0,1-2.43,1.56l0,0c.09.29.19.58.27.88a.22.22,0,0,0,.1,0c3.68,1.68,5.19,3.72,4.59,7.84-.33,2.24-.52,4.77-1.54,6.75a17.35,17.35,0,0,1,3.55,4.58l.13-.1a.84.84,0,0,1,.93-.6,1,1,0,0,1,1,1.53,5.93,5.93,0,0,1-.6,3l1.87-.19c.35,0,.45.42.26.64a3.71,3.71,0,0,1-2.77,1.32A12.16,12.16,0,0,1,263,124a15.18,15.18,0,0,1-6,5.75c-4.27,2.26-8.87,1.48-13.44.65a10.54,10.54,0,0,1-8-7.05,5.57,5.57,0,0,1-7.86-2.45,8.46,8.46,0,0,1-8.4-2.76c-1.66-1.87-1.79-3.6-2.57-5.85s-.14-1.52-2.26-1.77c-1.1-.16-2.19-.12-3.28-.32-2.8-.48-4.77-1.73-7.3-2.8-1.46-.6-3.54-2-5.29-.74-.5.37-.95,1.79-1.34,2.34a11.66,11.66,0,0,1-4.47,3.62c-2.77,1.26-6.11.42-8.45,2.37-3.5,2.92-5.89,6.54-10.93,6.81a7.84,7.84,0,0,1-6.34-2.28,19.09,19.09,0,0,1-2.12-2.59c-2.22-3.17-6.59-3-6.32-7.78A12.24,12.24,0,0,1,160.27,103.94Z" transform="translate(10.93)"/><path class="cls-6" d="M171.3,121.68a7.58,7.58,0,0,1-4.3-2.19,4.43,4.43,0,0,1,1.09-1.73c1.23-1.22,3-1.46,4.59-2,5-1.73,5.2-6.32,5-10.88a1,1,0,0,1,1.22-1,16.62,16.62,0,0,0,7.47-.21c.14-.12.3-.22.43-.35.72-.72.31-1.5.37-2.4v0a.15.15,0,0,1,0-.08v0a.7.7,0,0,1,.35-.64c.58-.51,1.69-.3,1.6.66a.23.23,0,0,0,0,.11c.06.62.5.89,1.07,1a3.83,3.83,0,0,0,1.51-1.13,2.25,2.25,0,0,0,.72-1.47,7.59,7.59,0,0,1,.11-1.16.34.34,0,0,1,.22-.22.38.38,0,0,1,.7-.18,2.2,2.2,0,0,1,.28,1.87c.14-.14.29-.27.42-.41.88-.89,1.52-2.14,2.63-2.8,2.33-1.42,4.79-1.57,6.71-3.91a1,1,0,0,1,1.36,0,43.52,43.52,0,0,0,4.44,3.87A2.79,2.79,0,0,0,212,95.16a1,1,0,0,1,1.73.8.78.78,0,0,1-.29.75c-1.52,1.27,1.23,2.44,2.14,2.69a.81.81,0,0,1,.39.21,7.43,7.43,0,0,0,6.67-2.31,1,1,0,0,1,1.38,0c2.63,2.24,2.49,5.33,4.34,7.86,1.44,1.14,6.67-.37,6.07.72a4.41,4.41,0,0,1-1.91,1.75,11.94,11.94,0,0,1,2,.72c2.8,1.4,3.91,3.73,7.7,1.81a6.14,6.14,0,0,0,1.28-1.79c.53-1.13,2.22-.14,1.69,1a8.13,8.13,0,0,1-1.28,1.9c-.27,5.2-.14,11,5.25,13.64,4.51,2.22,9.4,1,13.76-.93a15.18,15.18,0,0,1-6,5.75c-3.17,1.68-6.51,1.68-9.9,1.23a4.74,4.74,0,0,1,.34.72c.13.34-.23.53-.5.42a.35.35,0,0,1-.38,0,3.78,3.78,0,0,1-1.68-1.53l-1.32-.23a10.08,10.08,0,0,1-4.33-1.91.74.74,0,0,1-.82.52.64.64,0,0,1-.25-.11.36.36,0,0,1-.36-.36c0-.46,0-.91,0-1.37a11.82,11.82,0,0,1-2.26-3.82,5.57,5.57,0,0,1-7.86-2.45,8.87,8.87,0,0,1-2.65.18,2.39,2.39,0,0,1-.16.75.39.39,0,0,1-.41.25.32.32,0,0,1-.47,0,3.64,3.64,0,0,1-.66-1.28,8.72,8.72,0,0,1-4.05-2.63c-1.66-1.87-1.79-3.6-2.57-5.85s-.14-1.52-2.26-1.77c-1.1-.16-2.19-.12-3.28-.32a15.93,15.93,0,0,1-3.78-1.19,5.1,5.1,0,0,1-1.31.57.38.38,0,0,1-.47-.36.79.79,0,0,1,.38-.69l.18-.08-1-.49c-.05.13-.11.25-.17.37a.38.38,0,0,1-.68-.09,2.27,2.27,0,0,1-.16-.73l-.25-.11c-1.46-.6-3.54-2-5.29-.74-.5.37-.95,1.79-1.34,2.34a11.71,11.71,0,0,1-3.9,3.31,11.1,11.1,0,0,1-1.32,2,.38.38,0,0,1-.62-.16,3.19,3.19,0,0,1,.05-1.12,27.87,27.87,0,0,1-3.15.49,1.91,1.91,0,0,1-.59,1.58A.38.38,0,0,1,187,115a3.53,3.53,0,0,1,0-1.21,6.15,6.15,0,0,0-2.72,1.22c-3.46,2.88-5.84,6.45-10.76,6.79a6.79,6.79,0,0,1-2.44,1c-.32.06-.68-.37-.36-.63S171.1,121.81,171.3,121.68Z" transform="translate(10.93)"/><path class="cls-6" d="M243.28,95a8.25,8.25,0,0,1,2.31-3.7,1,1,0,0,1,1.62.45.88.88,0,0,1,.13.79,6.17,6.17,0,0,1-2.63,3.56A1,1,0,0,1,243.28,95Z" transform="translate(10.93)"/><path class="cls-6" d="M223.15,87.4a1,1,0,0,1,1.9-.36,7.9,7.9,0,0,1,.36,3.13c-.07.87-1.35,1.43-1.81.49A5,5,0,0,1,223.15,87.4Z" transform="translate(10.93)"/><path class="cls-6" d="M250.06,104.87a4.57,4.57,0,0,1,3.82-2.49c1.22-.1,1.23,1.75.07,1.92a.84.84,0,0,1-.16.5,3.5,3.5,0,0,1-2.89,1.53A1,1,0,0,1,250.06,104.87Z" transform="translate(10.93)"/><path class="cls-5" d="M199.06,94.38a.35.35,0,0,1,.2-.15h0c-.15-.46.57-.65.72-.2a3.31,3.31,0,0,1-.17,3.07.1.1,0,0,1,0,0,1.91,1.91,0,0,1-.57.47.38.38,0,0,1-.55-.22A5,5,0,0,1,199.06,94.38Z" transform="translate(10.93)"/><path class="cls-5" d="M207.39,94.11a.39.39,0,0,1,.49.53A2.81,2.81,0,0,1,206.25,96a.37.37,0,0,1-.46-.45A1.84,1.84,0,0,1,207.39,94.11Z" transform="translate(10.93)"/><path class="cls-5" d="M211.8,98.41a9.51,9.51,0,0,1,2.41-2.28c.41-.26.78.38.38.64a10,10,0,0,0-1,.75l.13,0s0,0,.05,0c.22,0,.45.06.42.34a1.34,1.34,0,0,1,0,.2.37.37,0,0,1,.29.1s0-.07,0-.1a.37.37,0,0,1,.73-.1c.45,1.3.4,2.79-.85,3.61a.38.38,0,0,1-.55-.22,8.41,8.41,0,0,1-.4-2.53A1.89,1.89,0,0,1,212,99,.38.38,0,0,1,211.8,98.41Z" transform="translate(10.93)"/><path class="cls-5" d="M231.75,107.82a18.5,18.5,0,0,1,3.09-1,.38.38,0,0,1,.3.68.37.37,0,0,1,0,.65,3.57,3.57,0,0,1-3.42.36A.37.37,0,0,1,231.75,107.82Z" transform="translate(10.93)"/><path class="cls-5" d="M228.88,106.93a7.19,7.19,0,0,1,1.38-2,.37.37,0,0,1,.61.15c.29-.36.92,0,.63.39a8.34,8.34,0,0,1-2.11,2C229.05,107.66,228.74,107.24,228.88,106.93Z" transform="translate(10.93)"/><path class="cls-5" d="M242.46,117.15a10.22,10.22,0,0,1,1.92-3.38c.31-.37.84.16.53.52-.12.14-.23.29-.34.44a.35.35,0,0,1,.27.34,3.09,3.09,0,0,1-1.93,2.54C242.65,117.72,242.37,117.4,242.46,117.15Z" transform="translate(10.93)"/><path class="cls-5" d="M249.9,124a.37.37,0,0,1,.72,0c.09.3.19.6.3.89a.33.33,0,0,1,.39,0,.38.38,0,0,1,.65.25,8.3,8.3,0,0,1,0,1.2,4,4,0,0,1,0,.77c0,.31-.44.32-.63.17l-.19-.18-.13,0a.9.9,0,0,1-.57-.75A2.78,2.78,0,0,1,249.9,124Z" transform="translate(10.93)"/><path class="cls-5" d="M183,103.75c.06-.28.39-.48.6-.21.67.86,1.37,2.1.41,3a.39.39,0,0,1-.63-.16,11,11,0,0,1-.58-2.26A.38.38,0,0,1,183,103.75Z" transform="translate(10.93)"/><path class="cls-5" d="M177.06,109a.28.28,0,0,1,.29-.13,1.47,1.47,0,0,1,1.23.69,1.09,1.09,0,0,1-.17,1.27.38.38,0,0,1-.53,0,6.45,6.45,0,0,1-1-1.31A.36.36,0,0,1,177.06,109Z" transform="translate(10.93)"/><path class="cls-5" d="M173.15,114.51a.34.34,0,0,1,.35-.17,18.39,18.39,0,0,0,.31-1.83c.05-.47.79-.47.74,0a17.09,17.09,0,0,1-.62,3.17,1.91,1.91,0,0,1-1.06,1.34.37.37,0,0,1-.47-.36A4.86,4.86,0,0,1,173.15,114.51Z" transform="translate(10.93)"/><path class="cls-6" d="M210.28,82.89c.08-.54.37-2.18,1.09-2.28s.9,1.16,1,1.62a4.52,4.52,0,0,1-.68,3l0,0a1.94,1.94,0,0,1,0,.24.37.37,0,0,1-.69.19A3.8,3.8,0,0,1,210.28,82.89Z" transform="translate(10.93)"/><path class="cls-6" d="M202.83,79.93a.38.38,0,0,1,.47-.36,4.12,4.12,0,0,1,3,2.59l.11.13a.29.29,0,0,1,0,.31.39.39,0,0,1-.59.25A2.91,2.91,0,0,1,202.83,79.93Z" transform="translate(10.93)"/><path class="cls-6" d="M193.25,87.2a.37.37,0,0,1,.64,0,3.67,3.67,0,0,1,.63,3.26.28.28,0,0,1-.05.11,1.69,1.69,0,0,1-.65,1.16c-.2.16-.47,0-.54-.22C192.76,90.09,192.4,88.57,193.25,87.2Z" transform="translate(10.93)"/><path class="cls-6" d="M182.9,80.37a7.52,7.52,0,0,1,2.57.37,2.06,2.06,0,0,1,1.21,1.17.9.9,0,0,1,.33.81c-.23,1.6-3.08-.08-3.72-.42a1.86,1.86,0,0,1-1.08-1.15C182.12,80.61,182.4,80.37,182.9,80.37Z" transform="translate(10.93)"/><path class="cls-6" d="M174.89,89.88a6.06,6.06,0,0,1,3.41-.77.78.78,0,0,1,.66,1.07.61.61,0,0,1-.25.43,3.69,3.69,0,0,1-3.65.63A.75.75,0,0,1,174.89,89.88Z" transform="translate(10.93)"/><path class="cls-6" d="M171.62,99.89c.71-.42,1.2.32,1.41.89a5.73,5.73,0,0,1,.35,1.87.74.74,0,0,1-1.29.48.51.51,0,0,1-.25-.16,2.83,2.83,0,0,1-.69-1.46C171.07,101,171.08,100.21,171.62,99.89Z" transform="translate(10.93)"/><path class="cls-5" d="M166.49,106.82a2.38,2.38,0,0,1,1.94-.81.75.75,0,0,1,.74.74.64.64,0,0,1,0,.23l0,0a.77.77,0,0,1-.52.92,3.71,3.71,0,0,1-1.81.13C166.22,108,166.17,107.2,166.49,106.82Z" transform="translate(10.93)"/><path class="cls-6" d="M188.31,141.84a.87.87,0,0,0,.47-.13,29.3,29.3,0,0,0,12.85,8.06c1.32,11.59.54,31.6-1,43.1a1,1,0,0,0,.94,1.23,22,22,0,0,0,5.62-.53.87.87,0,0,0,.61-1.25c.08-12.6-.16-32.92-1.51-45-.26-2.35-.5-4.79-.62-7.24a19.17,19.17,0,0,0,12.75-5.14,24.61,24.61,0,0,1-12.81,3.2,34.6,34.6,0,0,1,1.32-11c2.09-6.62,7.08-11.75,11.78-16.63.88-.9-4.93,2.33-6.61,4.29,0-2.37,0-4.73.15-7.1.08-1.25-2,9.26-2,9.36a35.06,35.06,0,0,0-3.94,6.33,25.07,25.07,0,0,0-1.46,4c-.59-7.87-5.64-27.15-5.56-25.9.56,8.24,2.65,16.08,2.29,23.35-.33,6.45-1.16,12.66-.6,19.14.1,1.23.14,1.63.27,2.85a41.35,41.35,0,0,1-5.74-2.61,6.35,6.35,0,0,1-2.13-5.62c.17-1.23-2,2.2-1.55,3.45a27.76,27.76,0,0,1-5.3-6.46c-.63-1.08-.2,3.24.62,4.28a54.29,54.29,0,0,1-12.74-1.72C173.25,137.82,183.43,141.85,188.31,141.84Z" transform="translate(10.93)"/><path class="cls-6" d="M79.15,181.19a3.89,3.89,0,0,0,2.61.18l.08,0a11.52,11.52,0,0,1,1.8,1,5.37,5.37,0,0,0-2,.39c-.65.28-1.68,1-1.14,1.68.69.84,3.41-.2,4.52-1a16.12,16.12,0,0,1,2.15,2.22,5.31,5.31,0,0,0-1.94.16c-.68.19-1.79.82-1.34,1.53s3,.31,4.29-.32a25.43,25.43,0,0,1,1.46,2.47,5.19,5.19,0,0,0-1.84-.25c-.71,0-1.93.4-1.65,1.18.33.94,2.85,1,4.28.66.4.85.74,1.61,1.09,2.42a5.11,5.11,0,0,0-2-.65c-.71-.08-2,.1-1.82.92.21,1.07,3.12,1.46,4.5,1.25.19.26.72,0,.67-.32l-.09-.22a2.79,2.79,0,0,0,1-1.24.78.78,0,0,0,0,.16c0,1,2.62,1.85,4.06,1.92a.38.38,0,0,0,.58-.15,8,8,0,0,0,.71-.58,6.82,6.82,0,0,0,.7.58.38.38,0,0,0,.58.15c1.44-.07,4-.89,4.06-1.92,0-.84-1.25-.82-1.93-.64a5.15,5.15,0,0,0-1.72.82l.27-1.31a7.63,7.63,0,0,0,3.4-1.1,6.13,6.13,0,0,0,.16,1.45,2.9,2.9,0,0,0,1.23,1.86l-.09.22c0,.31.48.58.68.32,1.37.21,4.28-.18,4.49-1.25.16-.82-1.11-1-1.81-.92a5.15,5.15,0,0,0-2,.65c.35-.81.69-1.57,1.09-2.42,1.43.32,4,.28,4.28-.66.28-.78-.94-1.15-1.65-1.18a5.19,5.19,0,0,0-1.84.25,25.43,25.43,0,0,1,1.46-2.47c1.33.63,3.76,1.15,4.3.32s-.66-1.34-1.34-1.53a5.36,5.36,0,0,0-2-.16,16.12,16.12,0,0,1,2.15-2.22c1.11.84,3.84,1.88,4.53,1,.53-.64-.49-1.4-1.15-1.68a5.37,5.37,0,0,0-2-.39,12,12,0,0,1,1.8-1l.09,0a3.87,3.87,0,0,0,2.6-.18,2.15,2.15,0,0,0,.88-1.88.34.34,0,0,0-.21-.28,3.74,3.74,0,0,0-2.27,0,2.94,2.94,0,0,0-1.58,1.7v0a12.83,12.83,0,0,0-1.22.64,4.65,4.65,0,0,0,.2-1.4c0-.48-.08-1.87-.9-1.67-.61.15-1.07,1.48-1.23,2a2.87,2.87,0,0,0,.21,2.26,16.42,16.42,0,0,0-2,1.92,4.5,4.5,0,0,0,0-1.27c-.06-.47-.3-1.84-1.09-1.54-.59.22-.89,1.59-1,2.13a2.84,2.84,0,0,0,.6,2.37.35.35,0,0,0,0,.28,22.29,22.29,0,0,0-1.21,2l-.06.11a4.5,4.5,0,0,0-.3-1.38c-.17-.44-.71-1.73-1.42-1.26-.52.35-.49,1.76-.46,2.3a2.85,2.85,0,0,0,1.12,2.18.37.37,0,0,0,0,.21c-.27.54-.52,1.07-.76,1.62a4.27,4.27,0,0,0-.44-1c-.2-.35-.76-1.27-1.31-1.17-.18-.62-1.29-.59-1.91-.43a5.13,5.13,0,0,0-1.67.79c.23-1.06.47-2.11.72-3.16,1.39,0,4.2-.85,4.24-1.93,0-.83-1.25-.81-1.94-.63a5.39,5.39,0,0,0-1.9.95c.23-.85.46-1.71.71-2.56,1.47.1,3.94-.32,4.13-1.3.15-.82-1.11-1-1.82-.92a5.47,5.47,0,0,0-1.78.53,27.79,27.79,0,0,1,1.06-2.66c1.41.42,3.9.56,4.3-.35.34-.76-.86-1.22-1.56-1.3a5.32,5.32,0,0,0-2,.14,16.1,16.1,0,0,1,1.78-2.52c1.23.65,4.08,1.26,4.64.33.42-.71-.71-1.31-1.39-1.48a5.3,5.3,0,0,0-2-.09,11.79,11.79,0,0,1,1.63-1.23l.08,0a3.9,3.9,0,0,0,2.55-.59,2.13,2.13,0,0,0,.58-2,.34.34,0,0,0-.25-.25,3.7,3.7,0,0,0-2.24.38,2.9,2.9,0,0,0-1.3,1.92v0c-.39.26-.76.53-1.12.82a4.45,4.45,0,0,0,0-1.41c-.08-.47-.37-1.84-1.15-1.51-.58.24-.83,1.62-.9,2.16a2.86,2.86,0,0,0,.55,2.2,17.08,17.08,0,0,0-1.67,2.21,5,5,0,0,0-.19-1.26c-.14-.45-.59-1.77-1.32-1.36-.55.31-.63,1.72-.64,2.26a2.86,2.86,0,0,0,1,2.25.34.34,0,0,0,0,.28c-.33.7-.62,1.41-.89,2.14,0,.05,0,.09,0,.13a4.78,4.78,0,0,0-.5-1.33c-.24-.41-1-1.59-1.6-1-.47.42-.22,1.81-.1,2.34a2.85,2.85,0,0,0,1.44,2,.37.37,0,0,0,0,.23c-.18.57-.35,1.14-.5,1.72a5,5,0,0,0-.6-1c-.3-.37-1.21-1.43-1.73-.78-.4.49,0,1.83.25,2.33a2.87,2.87,0,0,0,1.5,1.65c-.23,1-.46,2-.67,3a5,5,0,0,0-.7-1.25l-.14-.16a.94.94,0,0,0-.15-.61.54.54,0,0,0-.72-.13.55.55,0,0,0-.73.13,1,1,0,0,0-.15.61l-.13.16a4.73,4.73,0,0,0-.71,1.25c-.21-1-.43-2-.67-3a2.89,2.89,0,0,0,1.51-1.65c.19-.5.64-1.84.25-2.33-.53-.65-1.44.41-1.74.78a4.48,4.48,0,0,0-.59,1c-.16-.58-.33-1.15-.5-1.72a.36.36,0,0,0,0-.23,2.87,2.87,0,0,0,1.45-2c.12-.53.36-1.92-.1-2.34-.63-.57-1.36.61-1.6,1a4.81,4.81,0,0,0-.51,1.33.93.93,0,0,0,0-.13c-.26-.73-.56-1.44-.89-2.14a.34.34,0,0,0,0-.28,2.82,2.82,0,0,0,1-2.25c0-.54-.08-2-.63-2.26-.74-.41-1.19.91-1.33,1.36a5,5,0,0,0-.19,1.26A16.22,16.22,0,0,0,91.17,174a2.82,2.82,0,0,0,.56-2.2c-.08-.54-.33-1.92-.91-2.16-.78-.33-1.07,1-1.15,1.51a4.76,4.76,0,0,0,0,1.41,13.43,13.43,0,0,0-1.12-.82v0a2.93,2.93,0,0,0-1.29-1.92,3.73,3.73,0,0,0-2.25-.38.34.34,0,0,0-.25.25,2.13,2.13,0,0,0,.59,2,3.88,3.88,0,0,0,2.54.59l.08,0a11.79,11.79,0,0,1,1.63,1.23,5.24,5.24,0,0,0-2,.09c-.69.17-1.82.77-1.39,1.48.55.93,3.4.32,4.63-.33a15.46,15.46,0,0,1,1.78,2.52,5.27,5.27,0,0,0-1.94-.14c-.71.08-1.9.54-1.57,1.3.41.91,2.89.77,4.3.35a27.79,27.79,0,0,1,1.06,2.66,5.4,5.4,0,0,0-1.78-.53c-.7-.08-2,.1-1.82.92.19,1,2.67,1.4,4.13,1.3.25.85.49,1.71.71,2.56a5.31,5.31,0,0,0-1.9-.95c-.68-.18-2-.2-1.93.63,0,1.08,2.84,1.92,4.23,1.93.25,1.05.49,2.1.72,3.16a5,5,0,0,0-1.67-.79c-.65-.17-1.83-.19-1.93.52a3.14,3.14,0,0,0-.9,1.08,4.67,4.67,0,0,0-.43,1c-.25-.55-.5-1.08-.76-1.62a.49.49,0,0,0,0-.21,2.82,2.82,0,0,0,1.12-2.18c0-.54.06-1.95-.46-2.3-.7-.47-1.25.82-1.42,1.26a4.48,4.48,0,0,0-.29,1.38l-.07-.11q-.55-1-1.2-2a.4.4,0,0,0-.05-.28,2.84,2.84,0,0,0,.6-2.37c-.09-.54-.38-1.91-1-2.13-.79-.3-1,1.07-1.1,1.54a4.91,4.91,0,0,0,0,1.27,16.42,16.42,0,0,0-2-1.92,2.87,2.87,0,0,0,.21-2.26c-.16-.52-.62-1.85-1.23-2-.82-.2-.89,1.19-.9,1.67a4.65,4.65,0,0,0,.21,1.4c-.4-.23-.81-.45-1.23-.64v0a2.9,2.9,0,0,0-1.57-1.7,3.78,3.78,0,0,0-2.28,0,.36.36,0,0,0-.21.28A2.18,2.18,0,0,0,79.15,181.19Zm20,9.93-.09-.09.09-.1a.43.43,0,0,0,.09.1ZM93.88,193a3,3,0,0,0,.13-.45,6.35,6.35,0,0,0,.16-1.2,8.28,8.28,0,0,0,3,.85c.1.43.19.87.27,1.31a5.1,5.1,0,0,0-1.71-.82C95.16,192.52,94.16,192.48,93.88,193Z" transform="translate(10.93)"/><path class="cls-5" d="M164.18,63.87a80.71,80.71,0,0,0-7.07-8.18c-2.26-2.31-4.83-5.11-8.58-5.94-7.32-1.63-14.38,5.2-18.35,9.12a47.83,47.83,0,0,0-10.59,15.61,40.66,40.66,0,0,0-3,18.91c1.13,13.1,9.84,28.14,27.38,31.42a23.86,23.86,0,0,0,4,0,71.52,71.52,0,0,0,15.13-6.2c6.4-3.76,10.42-8.56,12-15.44C178,89.53,173,75.61,164.18,63.87Z" transform="translate(10.93)"/><path class="cls-6" d="M145.47,114.8c-6.28-2.27-12.58-5-16.8-9.42s-6.2-9.8-7.37-15.19c-1.1-5.08-2-10.52-1.71-15.71a40.66,40.66,0,0,0-3,18.91c1.13,13.1,9.84,28.14,27.38,31.42a23.86,23.86,0,0,0,4,0,71.52,71.52,0,0,0,15.13-6.2A61.34,61.34,0,0,1,145.47,114.8Z" transform="translate(10.93)"/><path class="cls-5" d="M114.68,85a.56.56,0,0,0-.79.43c.06,1.85-.1,4,1.41,5.58,1.23,1.27,3.09,1.46,5,1.71a.58.58,0,0,0,.59-.26.42.42,0,0,0,.18-.19C122.66,88.81,117.87,86.41,114.68,85Z" transform="translate(10.93)"/><path class="cls-5" d="M121.63,67a.61.61,0,0,0-.9.27c-.47,1.81-1.26,3.9-.23,5.68.83,1.46,2.59,2,4.34,2.57a.6.6,0,0,0,.65-.15.4.4,0,0,0,.23-.14C128.29,72.19,124.32,69,121.63,67Z" transform="translate(10.93)"/><path class="cls-5" d="M126.46,58.37a.61.61,0,0,0-.9.27c-.47,1.81-1.26,3.9-.23,5.68.83,1.46,2.59,2,4.34,2.57a.6.6,0,0,0,.65-.15.43.43,0,0,0,.23-.14C133.12,63.53,129.15,60.33,126.46,58.37Z" transform="translate(10.93)"/><path class="cls-5" d="M131.64,54a.61.61,0,0,0-.9.27c-.47,1.81-1.26,3.9-.24,5.68.84,1.46,2.59,2,4.35,2.57a.6.6,0,0,0,.65-.15.46.46,0,0,0,.23-.15C138.3,59.2,134.33,56,131.64,54Z" transform="translate(10.93)"/><path class="cls-5" d="M138.78,48.29a.64.64,0,0,0-.94.18c-.76,1.74-1.88,3.74-1.15,5.61.59,1.53,2.24,2.24,3.89,3a.63.63,0,0,0,.66-.08.56.56,0,0,0,.26-.12C144.54,54.09,141.13,50.51,138.78,48.29Z" transform="translate(10.93)"/><path class="cls-5" d="M165.89,75.26a.44.44,0,0,0,.23.14.6.6,0,0,0,.65.15c1.76-.58,3.51-1.11,4.35-2.57,1-1.78.23-3.87-.24-5.68A.61.61,0,0,0,170,67C167.29,69,163.32,72.19,165.89,75.26Z" transform="translate(10.93)"/><path class="cls-6" d="M161.06,69.83a.54.54,0,0,0,.23.15.62.62,0,0,0,.65.14c1.76-.58,3.51-1.11,4.35-2.57,1-1.78.23-3.87-.24-5.68a.61.61,0,0,0-.9-.27C162.46,63.56,158.49,66.77,161.06,69.83Z" transform="translate(10.93)"/><path class="cls-5" d="M155.88,62.26a.46.46,0,0,0,.23.15.61.61,0,0,0,.65.15c1.76-.58,3.51-1.11,4.35-2.57,1-1.78.23-3.87-.24-5.68A.61.61,0,0,0,160,54C157.28,56,153.31,59.2,155.88,62.26Z" transform="translate(10.93)"/><path class="cls-5" d="M150.11,56.87a.56.56,0,0,0,.26.12.63.63,0,0,0,.66.08c1.65-.75,3.3-1.46,3.9-3,.72-1.87-.4-3.87-1.16-5.61a.64.64,0,0,0-.94-.18C150.48,50.51,147.07,54.09,150.11,56.87Z" transform="translate(10.93)"/><path class="cls-5" d="M146.38,43.8a.64.64,0,0,0-1,0c-1.15,1.6-2.72,3.4-2.45,5.34.22,1.6,1.68,2.53,3.13,3.51a.63.63,0,0,0,.67,0,.52.52,0,0,0,.28-.08C150.69,50.35,148.17,46.33,146.38,43.8Z" transform="translate(10.93)"/><path class="cls-5" d="M111.31,93.43a.44.44,0,0,0-.43.68c1.2,1.59,2.41,3.55,4.69,4.31,1.86.63,3.6.08,5.39-.43a.41.41,0,0,0,.35-.46.3.3,0,0,0,0-.23C120.63,93.67,115,93.43,111.31,93.43Z" transform="translate(10.93)"/><path class="cls-6" d="M121.78,101.08a.45.45,0,0,0-.43.69c1.2,1.58,2.4,3.54,4.68,4.31,1.87.62,3.61.08,5.4-.44a.41.41,0,0,0,.35-.45.37.37,0,0,0,.05-.24C131.1,101.32,125.44,101.09,121.78,101.08Z" transform="translate(10.93)"/><path class="cls-5" d="M128.35,108.05a.41.41,0,0,0,0,.77c2,1,4.17,2.3,6.64,2.16,2-.11,3.26-1.22,4.56-2.32a.36.36,0,0,0,.06-.53.36.36,0,0,0-.1-.22C136.8,104.93,131.62,106.75,128.35,108.05Z" transform="translate(10.93)"/><path class="cls-5" d="M136.77,112.87a.4.4,0,0,0,0,.76c2,1,4.17,2.3,6.64,2.17,2-.11,3.26-1.22,4.56-2.33A.35.35,0,0,0,148,113a.39.39,0,0,0-.1-.23C145.22,109.74,140,111.56,136.77,112.87Z" transform="translate(10.93)"/><path class="cls-6" d="M119.19,92c-.43-.08-.73.3-.6.59.75,1.75,1.4,3.87,3.43,5,1.65.92,3.51.68,5.39.47a.49.49,0,0,0,.47-.39.35.35,0,0,0,.1-.22C128.23,93.82,122.77,92.65,119.19,92Z" transform="translate(10.93)"/><path class="cls-5" d="M131.6,122.45c-.26.18-.1.5.18.57,1.71.44,3.66,1.1,5.47.64a4.91,4.91,0,0,0,2.86-2.41.27.27,0,0,0-.08-.4.3.3,0,0,0-.12-.16C137.17,118.87,133.73,121,131.6,122.45Z" transform="translate(10.93)"/><path class="cls-5" d="M114.87,101.55a.5.5,0,0,0-.63.58c.64,1.77,1.17,3.91,3.13,5.11,1.59,1,3.46.81,5.35.67a.48.48,0,0,0,.49-.36.37.37,0,0,0,.12-.22C123.8,103.67,118.41,102.3,114.87,101.55Z" transform="translate(10.93)"/><path class="cls-6" d="M168.66,83.71a.47.47,0,0,0,.19.18.54.54,0,0,0,.58.26c1.88-.24,3.74-.44,5-1.71,1.51-1.56,1.34-3.73,1.41-5.58a.56.56,0,0,0-.8-.43C171.83,77.86,167.05,80.26,168.66,83.71Z" transform="translate(10.93)"/><path class="cls-6" d="M171.59,88a.34.34,0,0,0,0,.23.42.42,0,0,0,.36.45c1.78.52,3.53,1.07,5.39.44,2.28-.76,3.48-2.73,4.68-4.31a.43.43,0,0,0-.42-.68C178,84.16,172.32,84.4,171.59,88Z" transform="translate(10.93)"/><path class="cls-5" d="M168.58,110a.27.27,0,0,0,0,.23.38.38,0,0,0,.23.5c1.63.78,3.2,1.59,5.19,1.26,2.42-.4,4.08-2.14,5.65-3.51a.42.42,0,0,0-.26-.74C175.79,107.2,170.18,106.56,168.58,110Z" transform="translate(10.93)"/><path class="cls-5" d="M159.48,117.3a.34.34,0,0,0,0,.24.4.4,0,0,0,.24.5c1.62.78,3.2,1.59,5.18,1.26,2.43-.4,4.09-2.14,5.65-3.51a.42.42,0,0,0-.25-.74C166.69,114.49,161.08,113.85,159.48,117.3Z" transform="translate(10.93)"/><path class="cls-6" d="M152.75,122.22a.32.32,0,0,0,0,.23.38.38,0,0,0,.24.5c1.62.78,3.2,1.59,5.18,1.26,2.43-.4,4.09-2.14,5.65-3.51a.42.42,0,0,0-.25-.74C160,119.41,154.35,118.77,152.75,122.22Z" transform="translate(10.93)"/><path class="cls-5" d="M148.33,123.35a.26.26,0,0,0-.09.13.22.22,0,0,0-.06.33,4.13,4.13,0,0,0,2.42,1.93c1.51.35,3.09-.24,4.48-.63.23-.07.35-.33.13-.47C153.42,123.48,150.53,121.8,148.33,123.35Z" transform="translate(10.93)"/><path class="cls-5" d="M144.57,123.35a.23.23,0,0,1,.08.13.25.25,0,0,1,0,.33,3.69,3.69,0,0,1-2.06,1.93c-1.27.35-2.61-.24-3.79-.63a.28.28,0,0,1-.12-.47C140.26,123.48,142.71,121.8,144.57,123.35Z" transform="translate(10.93)"/><path class="cls-6" d="M169.62,98.06a.32.32,0,0,0,.12.21.49.49,0,0,0,.49.37c1.89.14,3.75.31,5.35-.67,2-1.2,2.49-3.35,3.13-5.12.11-.3-.21-.66-.63-.57C174.54,93,169.15,94.4,169.62,98.06Z" transform="translate(10.93)"/><path class="cls-5" d="M169.62,104.09a.37.37,0,0,0,.12.22.49.49,0,0,0,.49.36c1.89.14,3.75.31,5.35-.67,2-1.2,2.49-3.34,3.13-5.12.11-.29-.21-.66-.63-.57C174.54,99.06,169.15,100.43,169.62,104.09Z" transform="translate(10.93)"/><path class="cls-5" d="M124.46,116.53a.4.4,0,0,0,0,.76c2,1,4.19,2.28,6.66,2.13,2-.12,3.25-1.24,4.54-2.34a.35.35,0,0,0,.05-.53.34.34,0,0,0-.09-.23C132.88,113.36,127.71,115.2,124.46,116.53Z" transform="translate(10.93)"/><path class="cls-5" d="M120,111.94a.41.41,0,0,0-.17.75c1.71,1.25,3.57,2.86,6,3.09,2,.18,3.49-.73,5-1.63a.36.36,0,0,0,.17-.51.31.31,0,0,0,0-.24C129,110.08,123.51,111.12,120,111.94Z" transform="translate(10.93)"/><path class="cls-5" d="M153,54.08a.4.4,0,0,0-.6,0c-.87.94-2,2-2,3.21,0,1,.82,1.68,1.63,2.37a.38.38,0,0,0,.42,0,.33.33,0,0,0,.19,0C155.14,58.42,153.93,55.76,153,54.08Z" transform="translate(10.93)"/><path class="cls-5" d="M168.45,82.44c0-.22-.38-.28-.57-.16-1.16.72-2.61,1.47-3,2.66-.35,1,.22,1.8.77,2.64a.39.39,0,0,0,.39.14.4.4,0,0,0,.19,0C169,87.07,168.74,84.25,168.45,82.44Z" transform="translate(10.93)"/><path class="cls-6" d="M152.41,87.77a.41.41,0,0,0-.61,0c-.69,1-1.64,2.18-1.42,3.4.17,1,1.11,1.57,2.05,2.17a.4.4,0,0,0,.42,0,.37.37,0,0,0,.17,0C155.27,91.84,153.59,89.34,152.41,87.77Z" transform="translate(10.93)"/><path class="cls-5" d="M131,72.55a.55.55,0,0,0-.8.43c.06,1.84-.1,4,1.41,5.57,1.23,1.27,3.09,1.47,5,1.71a.57.57,0,0,0,.59-.25.47.47,0,0,0,.18-.19C138.93,76.37,134.14,74,131,72.55Z" transform="translate(10.93)"/><path class="cls-6" d="M154.31,68.64c-.14-.32-.79-.39-1.1-.2-1.84,1.14-4.22,2.34-4.57,4.14-.28,1.47,1,2.65,2.34,3.87a.9.9,0,0,0,.75.19.79.79,0,0,0,.34,0C157,75.5,155.47,71.32,154.31,68.64Z" transform="translate(10.93)"/><path class="cls-5" d="M135.18,57.54a.64.64,0,0,0-.76.41c-.2,1.45-.65,3.19.46,4.29.91.9,2.52.9,4.13.93a.7.7,0,0,0,.56-.26.46.46,0,0,0,.18-.16C141.65,59.88,137.78,58.39,135.18,57.54Z" transform="translate(10.93)"/><path class="cls-5" d="M134.53,92.35a.64.64,0,0,0-.76.42c-.2,1.45-.65,3.19.46,4.29.92.9,2.52.9,4.14.92a.66.66,0,0,0,.55-.25.58.58,0,0,0,.19-.16C141,94.7,137.13,93.21,134.53,92.35Z" transform="translate(10.93)"/><path class="cls-5" d="M126.7,117.94a33.25,33.25,0,0,0-4.34.06,7.69,7.69,0,0,0-4.15,1.12c-2.58,1.85-2.71,5.83-2.77,8.08a18.35,18.35,0,0,0,1.29,7.37,14.09,14.09,0,0,0,4.4,5.88,13.57,13.57,0,0,0,16.73-.31,11.77,11.77,0,0,0,1.15-1.22,32.37,32.37,0,0,0,2.66-6.33c.8-3,.63-5.47-.85-7.74C137.89,120.33,132.54,118.27,126.7,117.94Z" transform="translate(10.93)"/><path class="cls-6" d="M135.51,137.05c-2.46,1.36-5,2.62-7.51,2.76a11.42,11.42,0,0,1-6.38-1.67,19.9,19.9,0,0,1-4.89-3.57,14.09,14.09,0,0,0,4.4,5.88,13.57,13.57,0,0,0,16.73-.31,11.77,11.77,0,0,0,1.15-1.22,32.37,32.37,0,0,0,2.66-6.33A28.59,28.59,0,0,1,135.51,137.05Z" transform="translate(10.93)"/><path class="cls-6" d="M122.74,120.66a.33.33,0,0,0,.14,0,.33.33,0,0,0,.29-.23,4.56,4.56,0,0,0,.53-3c-.36-1.19-1.49-1.71-2.4-2.26a.32.32,0,0,0-.44.28C120.69,117.44,120.56,120.51,122.74,120.66Z" transform="translate(10.93)"/><path class="cls-5" d="M132.28,121.85a.19.19,0,0,0,.15,0,.31.31,0,0,0,.29-.22,4.63,4.63,0,0,0,.53-3c-.36-1.19-1.5-1.71-2.41-2.26a.32.32,0,0,0-.43.28C130.23,118.64,130.11,121.7,132.28,121.85Z" transform="translate(10.93)"/><path class="cls-5" d="M136.13,123.3a.26.26,0,0,0,.15,0,.33.33,0,0,0,.34-.13,4.57,4.57,0,0,0,1.37-2.69c0-1.24-.93-2.07-1.63-2.86a.32.32,0,0,0-.5.14C135.11,119.63,134.09,122.52,136.13,123.3Z" transform="translate(10.93)"/><path class="cls-5" d="M120.91,121.2a.28.28,0,0,0,.07-.13.34.34,0,0,0,.06-.37,4.6,4.6,0,0,0-1.7-2.49c-1.08-.61-2.26-.19-3.29.05a.32.32,0,0,0-.12.51C117.2,120.32,119.24,122.61,120.91,121.2Z" transform="translate(10.93)"/><path class="cls-5" d="M118.86,125.09a.25.25,0,0,1,0,.15.29.29,0,0,1-.17.29,4.26,4.26,0,0,1-2.78.75c-1.19-.24-1.87-1.28-2.53-2.1a.28.28,0,0,1,.2-.44C115.45,123.41,118.38,123,118.86,125.09Z" transform="translate(10.93)"/><path class="cls-6" d="M119.76,133.37a.21.21,0,0,1,0,.14.27.27,0,0,1-.16.3,4.28,4.28,0,0,1-2.78.75c-1.2-.24-1.87-1.28-2.54-2.1a.3.3,0,0,1,.2-.45C116.36,131.68,119.29,131.31,119.76,133.37Z" transform="translate(10.93)"/><path class="cls-5" d="M133,136.48a.24.24,0,0,1,.11.09.28.28,0,0,1,.17.3,4.31,4.31,0,0,1-.76,2.77c-.81.91-2.06,1-3.1,1.12a.29.29,0,0,1-.28-.4C129.85,138.56,131,135.85,133,136.48Z" transform="translate(10.93)"/><path class="cls-6" d="M131.49,144.1c-.05.21.24.4.47.37,1.34-.2,3-.3,3.84-1.22.71-.75.51-1.73.35-2.73a.39.39,0,0,0-.3-.28.54.54,0,0,0-.17-.08C132.84,139.63,132,142.32,131.49,144.1Z" transform="translate(10.93)"/><path class="cls-6" d="M122.53,143.13c-.15.17,0,.47.25.54,1.3.41,2.81,1,4,.58,1-.37,1.22-1.34,1.51-2.3a.37.37,0,0,0-.15-.38.29.29,0,0,0-.12-.15C125.69,139.7,123.72,141.73,122.53,143.13Z" transform="translate(10.93)"/><path class="cls-6" d="M116.2,138.33c-.17.09-.14.4,0,.53.9.8,1.91,1.84,3,1.9.91.05,1.46-.64,2-1.32a.34.34,0,0,0,0-.36.37.37,0,0,0-.05-.16C120,136.7,117.66,137.63,116.2,138.33Z" transform="translate(10.93)"/><path class="cls-6" d="M129.47,120.93c-.15-.14-.45,0-.53.19-.5,1.11-1.2,2.41-.86,3.47.28.88,1.19,1.16,2.09,1.47a.37.37,0,0,0,.38-.1.44.44,0,0,0,.15-.1C132.52,123.93,130.72,122.07,129.47,120.93Z" transform="translate(10.93)"/><path class="cls-6" d="M136.67,125.23c-.12-.16-.45-.08-.56.09-.69,1-1.61,2.15-1.47,3.26.12.91,1,1.35,1.8,1.82a.39.39,0,0,0,.39,0,.47.47,0,0,0,.17-.07C139.13,128.73,137.7,126.57,136.67,125.23Z" transform="translate(10.93)"/><path class="cls-5" d="M120.59,121.78c-.2,0-.38.25-.34.46.21,1.2.35,2.67,1.23,3.36.72.56,1.63.29,2.56,0a.37.37,0,0,0,.25-.29.33.33,0,0,0,.07-.17C124.8,122.57,122.26,122,120.59,121.78Z" transform="translate(10.93)"/><path class="cls-5" d="M123.8,132.09c-.17.12-.1.45.06.57,1,.73,2.07,1.72,3.19,1.62.91-.07,1.39-.89,1.9-1.7a.41.41,0,0,0,0-.4.35.35,0,0,0-.06-.16C127.41,129.8,125.19,131.14,123.8,132.09Z" transform="translate(10.93)"/><path class="cls-6" d="M144.13,107.81s.8,79.46-1.77,109.3h8.9S144.71,115.16,144.13,107.81Z" transform="translate(10.93)"/><path class="cls-6" d="M145.29,126.91s7.22-9.65,9-13.58c0,0-7.27,14.43-8.61,19.44Z" transform="translate(10.93)"/><path class="cls-6" d="M145.32,144.26s-5.15-4.86-10.73-9.81c0,0,7.1,10.67,10.31,15.67Z" transform="translate(10.93)"/><path class="cls-6" d="M145,122.79s-4.21-5.67-5.29-8c0,0,4.24,8.54,5,11.54Z" transform="translate(10.93)"/><path class="cls-5" d="M113.88,199.48a5.24,5.24,0,0,0,3.56.25.21.21,0,0,0,.11,0A18.16,18.16,0,0,1,120,201a7.25,7.25,0,0,0-2.71.55c-.89.37-2.29,1.42-1.56,2.3.94,1.14,4.66-.28,6.19-1.43a22.09,22.09,0,0,1,2.93,3,7.21,7.21,0,0,0-2.65.22c-.93.27-2.45,1.13-1.84,2.09.73,1.14,4.06.43,5.88-.43a35.73,35.73,0,0,1,2,3.38,7.15,7.15,0,0,0-2.52-.35c-1,0-2.65.55-2.26,1.62.45,1.29,3.9,1.34,5.86.9.55,1.17,1,2.2,1.48,3.31a7.22,7.22,0,0,0-2.76-.89c-1-.1-2.7.15-2.48,1.27.28,1.45,4.26,2,6.14,1.71.27.35,1,0,.92-.45l-.12-.3a3.76,3.76,0,0,0,1.42-1.69,1.49,1.49,0,0,0,0,.21c.05,1.42,3.59,2.53,5.56,2.63a.5.5,0,0,0,.78-.2,10,10,0,0,0,1-.8,10,10,0,0,0,1,.8.51.51,0,0,0,.79.2c2-.1,5.5-1.21,5.55-2.63,0-1.14-1.71-1.11-2.65-.87a7.33,7.33,0,0,0-2.34,1.12c.12-.6.24-1.2.37-1.79a10.46,10.46,0,0,0,4.64-1.5,8.47,8.47,0,0,0,.23,2,3.92,3.92,0,0,0,1.68,2.54l-.12.3c-.07.44.65.8.92.45,1.88.28,5.86-.26,6.15-1.71.21-1.12-1.52-1.37-2.48-1.27a7.22,7.22,0,0,0-2.77.89c.47-1.11.94-2.14,1.49-3.31,2,.44,5.4.39,5.86-.9.38-1.07-1.3-1.57-2.26-1.62a7.09,7.09,0,0,0-2.52.35,37.91,37.91,0,0,1,2-3.38c1.82.86,5.15,1.57,5.88.43.62-1-.9-1.82-1.83-2.09a7.26,7.26,0,0,0-2.66-.22,22.16,22.16,0,0,1,2.94-3c1.52,1.15,5.24,2.57,6.19,1.43.73-.88-.67-1.93-1.56-2.3A7.29,7.29,0,0,0,163,201a18,18,0,0,1,2.46-1.32.25.25,0,0,0,.11,0,5.24,5.24,0,0,0,3.56-.25,2.91,2.91,0,0,0,1.21-2.56.49.49,0,0,0-.29-.39,5.08,5.08,0,0,0-3.11.05,4,4,0,0,0-2.16,2.32v0c-.58.27-1.14.56-1.68.88a6.41,6.41,0,0,0,.27-1.92c0-.64-.1-2.55-1.22-2.28-.84.2-1.47,2-1.68,2.74a3.86,3.86,0,0,0,.28,3.09,22.54,22.54,0,0,0-2.72,2.63,6.76,6.76,0,0,0,0-1.74c-.09-.64-.42-2.52-1.5-2.11-.81.3-1.21,2.18-1.33,2.92a3.86,3.86,0,0,0,.82,3.24.51.51,0,0,0-.06.38c-.59.87-1.15,1.78-1.66,2.71,0,0-.05.1-.08.16a6.39,6.39,0,0,0-.4-1.9c-.24-.6-1-2.36-1.94-1.72-.72.48-.68,2.4-.64,3.15a3.9,3.9,0,0,0,1.53,3,.57.57,0,0,0,0,.29c-.36.74-.71,1.47-1,2.22a6.47,6.47,0,0,0-.59-1.42c-.28-.48-1.05-1.74-1.8-1.6-.25-.85-1.76-.81-2.61-.59a7.19,7.19,0,0,0-2.29,1.08c.32-1.45.64-2.89,1-4.32,1.9,0,5.74-1.16,5.8-2.64,0-1.14-1.71-1.11-2.65-.87a7.17,7.17,0,0,0-2.6,1.31c.3-1.17.63-2.34,1-3.5,2,.13,5.39-.45,5.64-1.79.22-1.12-1.52-1.36-2.48-1.25a7.32,7.32,0,0,0-2.44.72,35.88,35.88,0,0,1,1.46-3.64c1.93.57,5.32.77,5.87-.47.46-1.05-1.17-1.67-2.13-1.79a7.19,7.19,0,0,0-2.66.19,21.79,21.79,0,0,1,2.43-3.44c1.68.89,5.58,1.73,6.34.46.58-1-1-1.8-1.9-2a7.35,7.35,0,0,0-2.76-.13,17.18,17.18,0,0,1,2.23-1.69.23.23,0,0,0,.11,0,5.26,5.26,0,0,0,3.48-.79,2.93,2.93,0,0,0,.8-2.72.47.47,0,0,0-.34-.34,5.19,5.19,0,0,0-3.07.52,3.94,3.94,0,0,0-1.77,2.63v0a17.11,17.11,0,0,0-1.52,1.13,6.65,6.65,0,0,0,0-1.94c-.11-.64-.5-2.5-1.57-2.06-.8.32-1.14,2.22-1.24,3a3.88,3.88,0,0,0,.76,3,21.54,21.54,0,0,0-2.28,3,6.78,6.78,0,0,0-.27-1.72c-.19-.63-.8-2.43-1.81-1.86-.75.42-.85,2.34-.86,3.09a3.9,3.9,0,0,0,1.31,3.08.5.5,0,0,0,0,.38c-.45,1-.86,1.93-1.22,2.93l-.06.17a6.26,6.26,0,0,0-.69-1.81c-.32-.56-1.33-2.18-2.18-1.4-.64.58-.3,2.47-.14,3.2a3.93,3.93,0,0,0,2,2.71.57.57,0,0,0,.05.31c-.24.78-.46,1.56-.68,2.35a6,6,0,0,0-.82-1.34c-.4-.51-1.64-2-2.37-1.06-.54.67.08,2.49.34,3.19a4,4,0,0,0,2.07,2.26c-.33,1.35-.64,2.71-.93,4.07a6.45,6.45,0,0,0-1-1.71l-.18-.22a1.35,1.35,0,0,0-.21-.84,2.81,2.81,0,0,0-2,0,1.35,1.35,0,0,0-.21.84l-.18.22a6.45,6.45,0,0,0-1,1.71c-.29-1.36-.6-2.72-.93-4.07a4,4,0,0,0,2.07-2.26c.27-.7.88-2.52.34-3.19-.72-.9-2,.55-2.37,1.06a6.43,6.43,0,0,0-.82,1.34c-.21-.79-.44-1.57-.68-2.35a.49.49,0,0,0,.05-.31,3.9,3.9,0,0,0,2-2.71c.16-.73.5-2.62-.14-3.2-.85-.78-1.86.84-2.18,1.4a6.56,6.56,0,0,0-.69,1.81l-.06-.17c-.36-1-.77-2-1.22-2.93a.46.46,0,0,0,0-.38,3.86,3.86,0,0,0,1.3-3.08c0-.75-.11-2.67-.86-3.09-1-.57-1.62,1.23-1.81,1.86a6.35,6.35,0,0,0-.26,1.72,22.41,22.41,0,0,0-2.29-3,3.88,3.88,0,0,0,.76-3c-.1-.74-.44-2.64-1.24-3-1.07-.44-1.46,1.42-1.57,2.06a6.65,6.65,0,0,0,0,1.94,17.11,17.11,0,0,0-1.52-1.13v0a3.94,3.94,0,0,0-1.77-2.63,5.19,5.19,0,0,0-3.07-.52.47.47,0,0,0-.34.34,2.93,2.93,0,0,0,.8,2.72,5.28,5.28,0,0,0,3.48.79.2.2,0,0,0,.11,0,17.18,17.18,0,0,1,2.23,1.69,7.35,7.35,0,0,0-2.76.13c-.94.23-2.48,1.05-1.9,2,.76,1.27,4.66.43,6.34-.46a22.52,22.52,0,0,1,2.44,3.44,7.22,7.22,0,0,0-2.66-.19c-1,.12-2.6.74-2.14,1.79.55,1.24,4,1,5.88.47a35.82,35.82,0,0,1,1.45,3.64,7.32,7.32,0,0,0-2.44-.72c-1-.11-2.69.13-2.48,1.25.25,1.34,3.64,1.92,5.64,1.79.34,1.16.67,2.33,1,3.5a7.17,7.17,0,0,0-2.6-1.31c-.93-.24-2.68-.27-2.64.87.05,1.48,3.89,2.62,5.79,2.64.35,1.43.67,2.87,1,4.32a7.09,7.09,0,0,0-2.29-1.08c-.89-.23-2.51-.26-2.63.71a4.26,4.26,0,0,0-1.24,1.48,5.62,5.62,0,0,0-.59,1.42c-.34-.75-.68-1.48-1-2.22a.48.48,0,0,0,0-.29,3.84,3.84,0,0,0,1.53-3c0-.75.09-2.67-.63-3.15-1-.64-1.71,1.12-1.94,1.72a6.39,6.39,0,0,0-.4,1.9l-.09-.16c-.51-.93-1.06-1.84-1.65-2.71a.51.51,0,0,0-.06-.38,3.9,3.9,0,0,0,.82-3.24c-.13-.74-.53-2.62-1.33-2.92-1.09-.41-1.42,1.47-1.51,2.11a6.33,6.33,0,0,0,0,1.74,23.3,23.3,0,0,0-2.72-2.63,3.9,3.9,0,0,0,.28-3.09c-.21-.72-.84-2.54-1.68-2.74-1.13-.27-1.22,1.64-1.23,2.28a6.42,6.42,0,0,0,.28,1.92c-.54-.32-1.1-.61-1.68-.88v0a4,4,0,0,0-2.16-2.32,5.08,5.08,0,0,0-3.11-.05.49.49,0,0,0-.29.39A2.94,2.94,0,0,0,113.88,199.48Zm27.35,13.59-.12-.12.12-.14.12.14Zm-7.2,2.55a6.32,6.32,0,0,0,.18-.62,9.45,9.45,0,0,0,.22-1.65,11.28,11.28,0,0,0,4.12,1.17c.12.59.24,1.19.37,1.79a7.39,7.39,0,0,0-2.35-1.12C135.78,215,134.41,214.94,134,215.62Z" transform="translate(10.93)"/></g><rect class="cls-7" x="136.12" y="38.79" width="104.3" height="134.51"/><polygon class="cls-8" points="172.37 170.87 161.45 170.87 207.85 40.33 218.77 40.33 172.37 170.87"/><polygon class="cls-8" points="153.09 170.87 147.63 170.87 194.03 40.33 199.49 40.33 153.09 170.87"/><polygon class="cls-8" points="206.15 170.87 200.69 170.87 239.17 54.45 240.33 62.03 206.15 170.87"/><rect class="cls-9" x="134.52" y="37.25" width="3.08" height="137.78"/><rect class="cls-9" x="169.29" y="37.95" width="3.08" height="136.39"/><rect class="cls-9" x="175.75" y="-14.9" width="3.08" height="107.38" transform="translate(149.42 216.08) rotate(-90)"/><rect class="cls-9" x="175.75" y="119.61" width="3.08" height="107.38" transform="translate(14.91 350.58) rotate(-90)"/><rect class="cls-9" x="204.06" y="37.95" width="3.08" height="136.39"/><rect class="cls-9" x="238.82" y="37.25" width="3.08" height="137.78"/><rect class="cls-9" x="134.52" y="104.61" width="107.38" height="3.08"/><rect class="cls-6" x="137.62" y="107.68" width="101.19" height="1.09"/><rect class="cls-6" x="137.62" y="170.87" width="101.19" height="1.09"/><rect class="cls-6" x="137.59" y="40.33" width="101.25" height="1.09"/><rect class="cls-6" y="70.88" width="79.33" height="47.83"/><rect class="cls-2" x="3.94" y="74.86" width="71.46" height="39.87"/><rect class="cls-5" x="10.29" y="80.27" width="58.75" height="29.05"/><path class="cls-6" d="M-.64,109.32,8.62,95.88a.88.88,0,0,1,1.46,0L15.17,104l4.09-4.33a.87.87,0,0,1,1.4.18l5.22,9.49Z" transform="translate(10.93)"/><path class="cls-9" d="M17.3,87.1a2.9,2.9,0,1,1-2.9-2.9A2.9,2.9,0,0,1,17.3,87.1Z" transform="translate(10.93)"/><path class="cls-9" d="M36.72,86.61c-.62-.17-.88-.78-1.45-1a2.14,2.14,0,0,0-1.61-.08,3.21,3.21,0,0,0-.71.37c-.56.36-.45.38-1.08.47a7.34,7.34,0,0,0-1.33.3c-.9.28-3.51,0-4,1.16s1,.82,1.5.86c.83.07,1.49.56,2.31.58a5.11,5.11,0,0,0,2.15-.58c.68,0,1.36,0,2,0a21.61,21.61,0,0,0,3.51-.12c.3-.06.63-.1.77-.41C39.47,86.83,37.24,86.76,36.72,86.61Z" transform="translate(10.93)"/><path class="cls-9" d="M46.85,88.73a1.59,1.59,0,0,0-.78,0,6.75,6.75,0,0,1-.73.22,3.93,3.93,0,0,1-.84-.18,3.63,3.63,0,0,0-2,.35,1,1,0,0,0-1,.2.76.76,0,0,0-.05,1.1,3.28,3.28,0,0,0,1.94.57,8,8,0,0,0,3.12-.31C47.36,90.35,48.05,89.2,46.85,88.73Z" transform="translate(10.93)"/><path class="cls-6" d="M32.74,109.32,38.52,99a.54.54,0,0,1,.93,0l4.38,7.15,1.85-2.89a.54.54,0,0,1,.94.06l2.86,6,4.81-11.17a.54.54,0,0,1,1,0l2.83,7.93v3.21Z" transform="translate(10.93)"/><path class="cls-5" d="M90.21,61.38A18.11,18.11,0,0,0,108.3,43.29h-.85a17.24,17.24,0,0,1-34.48,0h-.85A18.1,18.1,0,0,0,90.21,61.38Z" transform="translate(10.93)"/><polygon class="cls-6" points="101.38 29.14 124.19 48.05 73.89 48.05 101.38 29.14"/><polygon class="cls-10" points="112.72 45.38 136.81 123.04 66.75 123.04 89.52 45.38 112.72 45.38"/><polygon class="cls-5" points="102.43 15.88 102.43 26.8 102.43 29.93 102.43 30.01 102.43 31.48 102.43 31.64 102.43 34.96 100.21 34.96 100.21 31.64 100.21 31.47 100.21 30.02 100.21 29.95 100.21 26.81 100.21 16.88 102.43 15.88"/><path class="cls-11" d="M86.68,31.64H94.1a0,0,0,0,1,0,0v5.42a2.62,2.62,0,0,1-2.62,2.62H89.3a2.62,2.62,0,0,1-2.62-2.62V31.64A0,0,0,0,1,86.68,31.64Z" transform="translate(191.71 71.33) rotate(180)"/><path class="cls-5" d="M86.17,48.68A4.32,4.32,0,1,1,90.49,53,4.32,4.32,0,0,1,86.17,48.68Z" transform="translate(10.93)"/><path class="cls-9" d="M90.43,51.39a3.52,3.52,0,0,0,2.7-2.07c.09-.39.69-.22.59.16A4,4,0,0,1,90.6,52C90.21,52.05,90,51.46,90.43,51.39Z" transform="translate(10.93)"/><polygon class="cls-5" points="101.38 29.14 126.53 48.05 76.23 48.05 101.38 29.14"/><rect class="cls-5" x="99.04" y="26.81" width="4.67" height="4.67" rx="1.3"/></g><path class="cls-6" d="M77,171.4a5.08,5.08,0,0,0,2.93-1,24.9,24.9,0,0,1-.44,5.38c-1.15,1.85-4.34,5.26-4.12,5.24a10.16,10.16,0,0,0,2.56-.6A19.17,19.17,0,0,1,76,183.65c-1.55,2.07-3.75,3.72-4.59,6.24a.18.18,0,0,1-.1.11c0,.14-.17.25-.3.13-4.16-3.95-4.91-10-5.52-15.37,0-.26-.06-.51-.08-.77a16.46,16.46,0,0,0,3.84,3c.2.11-2.61-4.38-4-6.45a12.25,12.25,0,0,1,.72-3.85,31.87,31.87,0,0,1,4.27-7.3l.2-.27a12.67,12.67,0,0,0,1.79,3.24,37,37,0,0,0-.55-4.86c.4-.51.81-1,1.23-1.5.56-.66,1.24-1.77,2.24-1.62s3.17,4.1,3.45,5.23c.12.49.23,1,.33,1.48,0,.21.09.43.12.64a58.75,58.75,0,0,1,.75,6l-.22.32C78.79,169.17,76.83,171.4,77,171.4Z" transform="translate(10.93)"/><path d="M73.24,169.41c2.05-.31,3.62-1.61,5.13-2.95.22-.2-.05-.58-.28-.38a10,10,0,0,1-4.8,2.84q.64-4.59,1.54-9.14c.06-.3-.4-.37-.46-.07-.8,4-1.44,8.06-2,12.12a20.21,20.21,0,0,1-2.72-5.46c-.09-.29-.53-.12-.44.17a20.77,20.77,0,0,0,2.92,5.77.21.21,0,0,0,.17.1q-.16,1.34-.3,2.67a12.55,12.55,0,0,1-2-3.54c-.1-.28-.54-.11-.44.18a13.17,13.17,0,0,0,2.3,3.91.17.17,0,0,0,.1.07c-.31,2.93-.53,5.87-.69,8.81l0,.1c-.06,1.08-.1,2.15-.11,3.22l-.06,2.11a.2.2,0,0,0,.07.16,102.82,102.82,0,0,0,2.5,19.67l.46-.11a97,97,0,0,1-2.49-22.26c0-.79.06-1.59.1-2.38a.26.26,0,0,0,.21,0,7.67,7.67,0,0,0,2.15-2.21c.17-.25-.2-.54-.36-.29a7.51,7.51,0,0,1-2,2q.39-7.59,1.45-15.13Z" transform="translate(10.93)"/><path class="cls-6" d="M56.9,183a5.13,5.13,0,0,1-2.76.23,17.28,17.28,0,0,0,1.93,3.9c1.51,1,5.22,2.53,5,2.59a11.2,11.2,0,0,1-2.35.39,14.81,14.81,0,0,0,2.58,1.75c1.92,1.05,4.27,1.56,5.72,3.18a.13.13,0,0,0,.11.05.17.17,0,0,0,.3,0c2.39-4.34,1.28-9.1.22-13.37l-.15-.6a15.14,15.14,0,0,1-2.39,3.51c-.14.15.94-4.15,1.51-6.16a8.91,8.91,0,0,0-1.73-2.65,25.45,25.45,0,0,0-5.75-4.08l-.25-.14a10,10,0,0,1-.58,3,25.83,25.83,0,0,1-.94-3.84c-.5-.25-1-.5-1.49-.72-.66-.31-1.57-.92-2.37-.48s-1.51,4.12-1.42,5.06c0,.41.09.81.15,1.22,0,.17.06.35.08.52a42.59,42.59,0,0,0,1.13,4.78l.27.17A33.66,33.66,0,0,1,56.9,183Z" transform="translate(10.93)"/><path d="M70.91,210.75a73.65,73.65,0,0,0-3.59-15.6.17.17,0,0,0,0-.14l-.66-1.57c-.32-.8-.67-1.59-1-2.38l-.06-.07q-1.47-3.24-3.14-6.39a.16.16,0,0,0,.06-.08,10.28,10.28,0,0,0,.82-3.7c0-.25-.42-.24-.42,0a10.15,10.15,0,0,1-.69,3.32c-.34-.64-.69-1.28-1-1.91a.18.18,0,0,0,.12-.12,15.87,15.87,0,0,0,.8-5.3c0-.24-.42-.23-.42,0a15.29,15.29,0,0,1-.72,5q-2.41-4.32-5.18-8.47c-.14-.2-.51,0-.37.21,1.39,2.08,2.71,4.21,4,6.36a9.49,9.49,0,0,1-4.91-.55c-.25-.08-.38.3-.13.37a9.72,9.72,0,0,0,5.22.53h0q3.07,5.32,5.63,10.9a6.34,6.34,0,0,1-2.27-.89c-.21-.14-.44.21-.23.34a6.8,6.8,0,0,0,2.47.95.24.24,0,0,0,.19,0c.26.58.52,1.17.77,1.75a69.76,69.76,0,0,1,4.36,17.55Z" transform="translate(10.93)"/><path d="M55.93,177.33a11,11,0,0,1-3.66-1.43c0,.17.06.35.08.52a11.16,11.16,0,0,0,3.45,1.28C56.07,177.75,56.19,177.38,55.93,177.33Z" transform="translate(10.93)"/><path class="cls-6" d="M95.65,180.86c0,1.69-3.94,2.51-5.19,3-2.75,1-5.44,2-7.48,4.26a93.24,93.24,0,0,0-6.54,8.51.48.48,0,0,1-.48.21,6.94,6.94,0,0,1-.58-1.24c-.71-1.76-1.8-5-1.53-6.81a11,11,0,0,1,1.25-3.66,3.26,3.26,0,0,0,.78,1.55,33.2,33.2,0,0,0,.46-3.41c.18-.22.36-.44.55-.65a13.07,13.07,0,0,1,1.45-1.33l.33-.26q.64-.47,1.32-.87l.37-.22c.43-.23.87-.45,1.32-.65a9,9,0,0,0,.73,2.42,16.6,16.6,0,0,0,.29-2.83c.42-.16.85-.29,1.3-.42a6.55,6.55,0,0,0,.54,1.56,8.23,8.23,0,0,0,.85-1.89,17.1,17.1,0,0,1,4.2-.33l.35,0c.38,0,.75.07,1.12.12,1.35.21,4.53,1.07,4.59,2.89Z" transform="translate(10.93)"/><path d="M80.58,185.31c-3.33,3.28-4.37,9.32-4.58,11a7.43,7.43,0,0,0-.68,2.23,50,50,0,0,0-.22,8.3c0,.89.07,1.79.11,2.69l.46-.09c0-.56,0-1.13-.07-1.7-.08-2.44-.08-4.89,0-7.33a11,11,0,0,1,.66-3.7.5.5,0,0,0,.15-.14A93.24,93.24,0,0,1,83,188.09c2-2.21,4.73-3.24,7.48-4.26,1.25-.46,5.17-1.28,5.19-3C90.43,181.46,84.41,181.53,80.58,185.31Z" transform="translate(10.93)"/><path d="M80.43,183.7a11,11,0,0,1-.07-3.79l-.37.22a11.14,11.14,0,0,0,.11,3.64C80.14,184,80.47,183.91,80.43,183.7Z" transform="translate(10.93)"/><path d="M79.16,184.37a14.21,14.21,0,0,1-.49-3.37l-.33.26a14.39,14.39,0,0,0,.48,3.19C78.88,184.66,79.22,184.59,79.16,184.37Z" transform="translate(10.93)"/><path class="cls-9" d="M65.42,216.65a12,12,0,0,1-4.62-7.14,11.62,11.62,0,0,1-.26-2.51,12.06,12.06,0,0,1,.28-2.61,11.39,11.39,0,0,1,.6-1.91H83.59a10.84,10.84,0,0,1,.6,1.91,12,12,0,0,1,.29,2.61,11.63,11.63,0,0,1-.27,2.51,12,12,0,0,1-4.62,7.14Z" transform="translate(10.93)"/><path d="M83.42,202.73a11.4,11.4,0,0,1,.53,1.72,12.07,12.07,0,0,1,.28,2.55,11.88,11.88,0,0,1-.26,2.46,11.64,11.64,0,0,1-4.46,6.94h-14A11.73,11.73,0,0,1,61,209.46a11.87,11.87,0,0,1-.25-2.46,11.45,11.45,0,0,1,.28-2.55,10.62,10.62,0,0,1,.52-1.72Zm.34-.5H61.25a12.31,12.31,0,0,0-1,4.77,12.8,12.8,0,0,0,.26,2.57,12.27,12.27,0,0,0,4.79,7.33H79.67a12.18,12.18,0,0,0,5.06-9.9,12.06,12.06,0,0,0-1-4.77Z" transform="translate(10.93)"/><path d="M84.73,207a12.18,12.18,0,0,1-5.06,9.9H65.34c18.73.93,18.42-14.67,18.42-14.67a12.06,12.06,0,0,1,1,4.77Z" transform="translate(10.93)"/><path class="cls-9" d="M116.35,89.58c-3.75,1.75-13.8,18.16-14.24,18.9-1,1.64-4.87,9.12-4.85,9.19-6.56,5-15.77,5.14-15.77,5.14L79.54,126s15.55,5.58,22.56,1.6c5.2-3,14-17.34,14.19-18.76a16.6,16.6,0,0,0,.16-3.56S120.09,87.86,116.35,89.58Z" transform="translate(10.93)"/><path d="M95.2,129.26c-7.11,0-15.28-2.89-15.74-3.06l-.29-.11,2.18-3.53h.14c.09,0,9.21-.21,15.62-5.09.65-1.55,4.73-9,4.78-9.12s10.43-17.17,14.36-19h0a1.08,1.08,0,0,1,1.2.07c2.12,1.69-.41,14.22-.75,15.83a16.63,16.63,0,0,1-.16,3.57c-.2,1.38-9,15.93-14.31,19A14.42,14.42,0,0,1,95.2,129.26Zm-15.28-3.43c2.16.73,15.75,5.1,22.06,1.52,5-2.87,13.87-17.25,14.06-18.59a16,16,0,0,0,.16-3.49v-.08c.81-3.84,2.54-14.09.93-15.37-.11-.09-.29-.18-.67,0-3.74,1.73-14,18.63-14.14,18.8-.9,1.53-4.42,8.26-4.79,9.07l0,.08-.14.1c-6.11,4.66-14.59,5.15-15.78,5.19Z" transform="translate(10.93)"/><path class="cls-9" d="M108.44,204.8c.52-.52,5.39.56,5.4.86,0,.93-.15,4.43-.68,4.83s-5.42-.23-5.41-1.12S107.93,205.29,108.44,204.8Z" transform="translate(10.93)"/><path d="M112.32,210.86a12.44,12.44,0,0,1-4.23-.8c-.15-.07-.6-.3-.59-.69,0,0,.09-4.1.76-4.75h0c.62-.6,4.53.3,5.41.65.21.08.41.18.42.38,0,.37,0,4.48-.78,5A1.87,1.87,0,0,1,112.32,210.86ZM108.61,205c-.35.35-.59,3-.61,4.39,0,0,0,.11.37.27a10.75,10.75,0,0,0,4.64.65c.35-.27.62-3.25.58-4.52C112.92,205.39,109,204.67,108.61,205Z" transform="translate(10.93)"/><path d="M113.64,209.48s1.87,3.53-.07,5.89c0,0-11.92-.9-15.43-1.9,0,0,.44-4.38,3.56-4.38a46.48,46.48,0,0,1,6.17.49S111.11,211.62,113.64,209.48Z" transform="translate(10.93)"/><path class="cls-9" d="M138.87,205.89c.3-.67,5.22-1.45,5.34-1.17.38.84,1.49,4.17,1.14,4.74s-5.13,1.77-5.44.94S138.58,206.54,138.87,205.89Z" transform="translate(10.93)"/><path d="M140.77,210.93h-.29c-.16,0-.67-.06-.81-.43,0,0-1.41-3.84-1-4.7h0c.35-.78,4.31-1.38,5.26-1.38h0c.23,0,.46,0,.54.21s1.6,4.18,1.13,5C145.24,210.12,142.27,210.93,140.77,210.93ZM139.09,206c-.19.45.57,3.05,1,4.31,0,0,.07.09.44.11a10.5,10.5,0,0,0,4.56-1.1c.23-.37-.62-3.24-1.12-4.41C143.24,204.79,139.38,205.55,139.09,206Z" transform="translate(10.93)"/><path d="M145.42,208.33s3.05,2.6,2.11,5.51c0,0-11.42,3.54-15.05,3.91,0,0-1.2-4.24,1.7-5.38a45.32,45.32,0,0,1,5.92-1.81S143.86,211.26,145.42,208.33Z" transform="translate(10.93)"/><path d="M129.59,142.76c-.37.82-.77,1.68-1.17,2.57-2.81,6.08-6.22,13.16-6.76,16.91-6.44,7.34-5.75,22.33-6.23,30.61-.37,6.79-.79,14.21-1,14.82,0,0-7.1.66-7.1.66-1.61-8.94-5.25-37.58-5.25-43.81,0-6.43,5.73-31.47,10.16-39.66,4.21-7.78,18.19,7.69,19.8,9.76C132.67,135.41,131.41,138.67,129.59,142.76Z" transform="translate(10.93)"/><path d="M129.42,142.62a.59.59,0,0,0-.54-.08c-1.38-2.1-4.5-4.26-6.4-1.45-1.06,1.58-.08,3.58-.09,5.28,0,3.44-2.34,6.38-3.86,9.29-5.41,10.39-2.27,22.41-4.25,33.49-1,5.81-4.62,13-4.53,19,3,.25,4.09-.09,4.7-.45,1.87-8.08,3.3-32.45,7.21-45.43a160.75,160.75,0,0,1,6.76-16.91c.4-.89.8-1.75,1.17-2.57Z" transform="translate(10.93)"/><path class="cls-12" d="M116.45,105.24a16.6,16.6,0,0,1-.16,3.56,16.19,16.19,0,0,1-3.77,8.48c-2.53,2.85-11.16-11-8.68-14.48,3.77-5.3,8.8-12.07,12.5-13.78S116.45,105.24,116.45,105.24Z" transform="translate(10.93)"/><path d="M116.35,94.36a12,12,0,0,0-3,5,26.13,26.13,0,0,0-.87,13.06,32.41,32.41,0,0,0,1,3.69h0l2.2-3.28s2.37-3.65,2-4.51S116.35,94.36,116.35,94.36Z" transform="translate(10.93)"/><path d="M145.42,205.89c-1.77,2-6.6,3.05-6.6,3.05-4.31-9.43-8.6-27.84-9.25-38.5-1-16.55-3.85-32.7-3.73-37,0-.7,0-1.07,0-1.07,4.28-4.7,9.5-7.24,12.56-7.44,1.21-.08,2.07.2,2.42.85a44.37,44.37,0,0,1,2.65,5.92c.07.18.13.37.19.55,4.07,11.55,2.83,17.73,2.14,32.65C145.51,171.9,142.86,202,145.42,205.89Z" transform="translate(10.93)"/><path d="M144.17,190.67c0-7.77,1.34-18.77,1.67-25.81.69-14.92,1.93-21.1-2.14-32.65a7.64,7.64,0,0,0-4,.8.49.49,0,0,0-.07.85.44.44,0,0,0,0,.42,43.27,43.27,0,0,1,3,19.28,96.89,96.89,0,0,1-1.94,9.94,94,94,0,0,0-1.45,10.27c-.54,5.87-1.32,12-.52,17.86.82,6.08.9,10.72,2.28,16.7.08.38,4-1.51,4.44-2.44C145.06,205.1,144.1,203.57,144.17,190.67Z" transform="translate(10.93)"/><path class="cls-12" d="M110.24,127.62c.16.52,2.06,1.48,4.85,2.48a66.92,66.92,0,0,0,11.58,2.9,49,49,0,0,0,14.58.28c1.26-.23,2.07-.57,2.26-1,.6-1.28,1.35-9,1.6-17.27,0-1.61.07-3.24.07-4.84,0-8.34-.54-16.15-2.42-17.6-.43-.34-.93-.69-1.48-1.06a29.36,29.36,0,0,0-2.85-1.71,27.83,27.83,0,0,0-5.88-2.27,24.53,24.53,0,0,0-11.74-.18h0a26.19,26.19,0,0,0-3.24,1l-.78.29c-3.69,1.49-3.16,9.51-2.56,16.25a64.68,64.68,0,0,1,.43,7.74,15.18,15.18,0,0,1-.22,1.78C113.6,119.37,110.85,124,110.24,127.62Z" transform="translate(10.93)"/><path class="cls-9" d="M124.05,83.25v3.6s-.85,1.57,0,1.74c1.87.37,4.58-1.74,4.58-1.74v-5.5Z" transform="translate(10.93)"/><path d="M124.52,88.88a3,3,0,0,1-.52,0,.68.68,0,0,1-.5-.38c-.25-.52.16-1.38.3-1.66V83.08l5.08-2.1v6l-.1.07C128.68,87.13,126.41,88.88,124.52,88.88Zm-.22-5.47,0,3.56c-.2.38-.44,1-.32,1.27a.18.18,0,0,0,.15.1c1.55.31,3.79-1.25,4.28-1.61v-5Z" transform="translate(10.93)"/><path class="cls-9" d="M122.93,74a24.86,24.86,0,0,0-2.11,6.6c-.3,2.26,3.84,5.25,7.21,2.06s2.44-8.06,2.44-8.06Z" transform="translate(10.93)"/><path d="M124.79,84.3a4.62,4.62,0,0,1-2.08-.51,3.48,3.48,0,0,1-2.14-3.22,24.9,24.9,0,0,1,2.13-6.68l.08-.16,7.9.64,0,.19c0,.2.93,5-2.51,8.28A4.94,4.94,0,0,1,124.79,84.3Zm-1.71-10a24.31,24.31,0,0,0-2,6.37,3,3,0,0,0,1.87,2.72,4.2,4.2,0,0,0,4.92-.87c2.87-2.71,2.51-6.73,2.39-7.64Z" transform="translate(10.93)"/><path d="M141,122.38c.45,3.44-.87,7.49.24,10.9,1.26-.23,2.07-.57,2.26-1,.6-1.28,1.35-9,1.6-17.27,0-1.61.07-3.24.07-4.84a29.3,29.3,0,0,0-2.37-4.3c-2.65-4.09-.62-3.8-2.75-8.18-.17-.34-.43-1.8-.21-1.89-.27-.1-2.49-3.54-3.87-1.78-4.06,5.16-3.23,12.1.54,17.54C139.09,115.28,140.38,117.58,141,122.38Z" transform="translate(10.93)"/><path d="M120.14,72.72c0,2.87,3.14,3.11,5.25,3,.18,0,.29-.23.44-.24s.41.14.71.19a8.69,8.69,0,0,0,1.84.17,3.51,3.51,0,0,1,.9.14,5.36,5.36,0,0,0-.29,1.25c-.22,1.07-.89,2.36-.55,3.48a1.36,1.36,0,0,0,1.71,1c.93-.27.83-1.13,1.15-1.84a1.67,1.67,0,0,0,.21-1.2,2,2,0,0,0-.19-.39s0-.15.1-.3a2.26,2.26,0,0,0-.15-1.9,1.69,1.69,0,0,0,.74-2.16,2.41,2.41,0,0,0-2.35-1.41,2.33,2.33,0,0,0-3.16-.55,2,2,0,0,0-1.68-.72C123.54,68.94,120.17,70,120.14,72.72Z" transform="translate(10.93)"/><path d="M129.61,80.16l.17-.17c.47-.56-.42-1.28-.9-.72a4.57,4.57,0,0,1-2,1.47,2,2,0,0,1-2.42-.66.6.6,0,0,0-.82.07c-.68.8-2.63-.31-2.87.92a3.36,3.36,0,0,0,2.08,3.06c3.17,1,5.43-1.11,7.17-3.06A.56.56,0,0,0,129.61,80.16Z" transform="translate(10.93)"/><path class="cls-9" d="M166.52,120.92a54.13,54.13,0,0,1-6.39,10.6,15.79,15.79,0,0,1-6.13,4.92,1.23,1.23,0,0,1-.29.09h0c-7.09,2.41-16.17-7-16.17-7,.08-.33.56-4.35.56-4.35.56,0,8.66,4.22,11.14,3.49.82-.22,9-17.78,12.41-21.89l.55-.62c.76-.85,0-3.44,1.11-4.21,1.5-1.07,3.13-1.67,4.42-.75C171.71,104,170.59,112.41,166.52,120.92Z" transform="translate(10.93)"/><path d="M151.21,137.19c-6.55,0-13.53-7.17-13.86-7.51l-.1-.1,0-.13c.06-.23.37-2.71.56-4.32l0-.23h.23a9.05,9.05,0,0,1,1.82.72c2.43,1.07,7.48,3.3,9.24,2.78a76.2,76.2,0,0,0,4-7.2c2.83-5.45,6.35-12.23,8.33-14.61L162,106a3.3,3.3,0,0,0,.35-1.72c0-1,.09-2,.8-2.52,1.91-1.37,3.49-1.62,4.71-.75,3.83,2.74,3.39,10.61-1.13,20h0a53.19,53.19,0,0,1-6.41,10.65,16.06,16.06,0,0,1-6.24,5l-.13,0v.06h-.21A7.89,7.89,0,0,1,151.21,137.19Zm-13.41-7.77c.94,1,9.19,9,15.66,6.94v0l.2-.05.25-.08a15.45,15.45,0,0,0,6-4.85,52.19,52.19,0,0,0,6.35-10.55h0c4.34-9.07,4.85-16.87,1.29-19.43-1-.72-2.41-.47-4.13.76-.51.35-.55,1.25-.6,2.13a3.29,3.29,0,0,1-.47,2l-.55.62c-1.94,2.34-5.45,9.09-8.27,14.52-3,5.85-3.86,7.34-4.27,7.45-1.77.52-5.87-1.17-9.57-2.8-.57-.25-1.11-.49-1.42-.61C138.2,126.37,137.9,128.77,137.8,129.42Z" transform="translate(10.93)"/><path class="cls-9" d="M139.51,125.33c-.09.36-.19.71-.29,1.07a.57.57,0,0,0,1.09.3c.1-.36.19-.72.29-1.07A.57.57,0,0,0,139.51,125.33Z" transform="translate(10.93)"/><path d="M139.8,127.35a.85.85,0,0,1-.23,0,.79.79,0,0,1-.59-1l.29-1.08a.75.75,0,0,1,.54-.55.9.9,0,0,1,.84.22.8.8,0,0,1,.19.76l-.29,1.08A.75.75,0,0,1,139.8,127.35Zm.23-2.17h-.09a.28.28,0,0,0-.19.2h0l-.28,1.08a.31.31,0,0,0,.6.17l.29-1.08a.28.28,0,0,0-.07-.27A.36.36,0,0,0,140,125.18Z" transform="translate(10.93)"/><path class="cls-9" d="M155.92,129.89c-1.14,1.6-3.22,2.45-5.71,2.83-8,1.22-20.27-2.44-20.27-2.44l.29-3.7s12.48,1,15-3.13c.45-.76-.87-9.35-3.19-11.58-1-1-2.12-2-3.07-2.79a13.28,13.28,0,0,1-4.46-7.68,13.65,13.65,0,0,1,.61-7.2,4.12,4.12,0,0,1,6.48-1.71c3.57,2.91,9,9.69,10.65,11.78.29.37.46.58.48.62C158.68,112.72,160.72,123.16,155.92,129.89Z" transform="translate(10.93)"/><path d="M146.62,133.22c-7.58,0-16.65-2.67-16.75-2.7l-.2-.06.33-4.15.25,0c.13,0,12.35,1,14.73-3,.35-.67-.91-9.11-3.15-11.27-1.15-1.1-2.3-2.12-3.06-2.78a13.61,13.61,0,0,1-4.55-7.82,14.13,14.13,0,0,1,.62-7.34,4.26,4.26,0,0,1,2.9-2.65,4.43,4.43,0,0,1,4,.84c3.42,2.79,8.61,9.19,10.68,11.82.3.37.48.59.5.63,6.47,8.46,7.8,18.86,3.22,25.28h0c-1.08,1.52-3.05,2.51-5.87,2.94A24.74,24.74,0,0,1,146.62,133.22Zm-16.41-3.12c1.59.45,12.68,3.49,20,2.37,2.68-.41,4.55-1.33,5.54-2.73h0c4.46-6.24,3.13-16.4-3.22-24.7,0-.05-.2-.26-.48-.61-2.06-2.61-7.22-9-10.61-11.75a4,4,0,0,0-3.53-.74,3.78,3.78,0,0,0-2.56,2.34,13.56,13.56,0,0,0-.59,7.08,13,13,0,0,0,4.38,7.53c.76.67,1.92,1.69,3.07,2.8,2.4,2.31,3.76,11,3.24,11.89-2.37,4-13.11,3.4-14.95,3.27Z" transform="translate(10.93)"/><path class="cls-12" d="M142,113.71c-1-.91-7-6.8-7.88-12.65-.42-2.66-.12-9.1,3.19-9.87,5.31-1.23,12.93,6.49,17.83,12.31C152.88,108.56,148,112.11,142,113.71Z" transform="translate(10.93)"/><path class="cls-9" d="M129.44,125.91h0c-.7-.35-2.42-1.2-3.23-1.08-.44.06-.94.38-.45.79a2.47,2.47,0,0,0,1.14.42h0c-1.68.47-3.42,1.48-4,3.08-.38,1,.28,1.29,1,.57,1.33-1.39,2.67-1.93.56,0-.43.39-1.12,1.41-.83,1.73.61.69,1.95-.91,2.63-1.53.77-.19-.59,1.52-.62,2-.16,2,2.45-1.12,2.73-1,.78.23-1.31,2.06,0,2,1,0,2.18-2.48,2.87-2.95s1.22-.25,1.35-1.05C132.8,127.47,130.75,126.32,129.44,125.91Z" transform="translate(10.93)"/><path d="M128.31,133.1a.65.65,0,0,1-.57-.26c-.19-.31,0-.72.27-1.15a3.82,3.82,0,0,0,.26-.54l-.48.42c-.93.83-1.62,1.4-2.1,1.17s-.32-.72-.31-.89a2.87,2.87,0,0,1,.43-.94l.27-.48-.06,0c-.62.63-1.42,1.39-2,1.38a.72.72,0,0,1-.54-.25c-.31-.35,0-1,.35-1.49a.85.85,0,0,1-.93.14c-.15-.1-.47-.4-.17-1.23a5.57,5.57,0,0,1,3.36-3,1.73,1.73,0,0,1-.44-.25.64.64,0,0,1-.27-.67,1,1,0,0,1,.85-.57,8,8,0,0,1,3.37,1.1h0c1.47.47,3.52,1.7,3.28,3.21a1.17,1.17,0,0,1-1,1,2.87,2.87,0,0,0-.51.23,6.42,6.42,0,0,0-.89,1.08c-.68.93-1.38,1.89-2.11,1.92Zm-.14-.52.18,0c.49,0,1.2-1,1.72-1.71a5.63,5.63,0,0,1,1-1.2,2.91,2.91,0,0,1,.63-.29c.35-.13.55-.2.61-.59.19-1.14-1.62-2.24-3-2.66l-.18-.06v0a6.72,6.72,0,0,0-2.93-1,.58.58,0,0,0-.44.21s0,.06.11.14a2.06,2.06,0,0,0,1,.36l1.11.19-1.06.31c-.93.25-3.16,1.06-3.84,2.91-.15.41-.09.6,0,.63s.29,0,.6-.31c0,0,1.4-1.43,1.88-1.32l.14,0,.06.17c0,.14.08.33-1.18,1.48-.46.43-.89,1.23-.8,1.39a.23.23,0,0,0,.17.08h0c.44,0,1.18-.74,1.68-1.23l.41-.4.11-.06a.4.4,0,0,1,.47.12c.2.26,0,.67-.41,1.37a3.53,3.53,0,0,0-.37.73c0,.33,0,.4,0,.4.23.07,1.18-.77,1.54-1.09.56-.51.75-.68,1-.61a.5.5,0,0,1,.32.27c.12.3-.08.68-.3,1.07a1.92,1.92,0,0,0-.28.66Z" transform="translate(10.93)"/><path class="cls-9" d="M138.89,125.15l-.1,0a.76.76,0,0,0-.83,0,.77.77,0,0,0-.52,0,.8.8,0,0,0-.44.17.74.74,0,0,0-.68.17.68.68,0,0,0-1.06.23q-.22.61-.39,1.23c-.15.59.67.88,1.06.56a.7.7,0,0,0,1.12.2c0,.07,0,.14,0,.2a.67.67,0,0,0,.93.34.83.83,0,0,0,.45-.82.21.21,0,0,1,0,.06c.29.37,1,.36,1.16-.14A2,2,0,0,0,138.89,125.15Z" transform="translate(10.93)"/><path d="M137.72,128.53a1,1,0,0,1-.32-.06.91.91,0,0,1-.5-.42,1,1,0,0,1-.56,0,.91.91,0,0,1-.51-.3,1,1,0,0,1-.85-.1.75.75,0,0,1-.35-.86c.12-.43.25-.83.39-1.24a.82.82,0,0,1,.55-.52,1.06,1.06,0,0,1,.74.07,1,1,0,0,1,.63-.13,1.06,1.06,0,0,1,.45-.16,1,1,0,0,1,.53,0,1,1,0,0,1,1,.08.21.21,0,0,1,.1,0h0a2.18,2.18,0,0,1,.88,2.42.78.78,0,0,1-.62.56,1.07,1.07,0,0,1-.64-.08,1.14,1.14,0,0,1-.49.56A.83.83,0,0,1,137.72,128.53Zm-.55-1.39.12.46a.36.36,0,0,1,0,.11.64.64,0,0,1,0,.07.4.4,0,0,0,.24.22.34.34,0,0,0,.32,0,.57.57,0,0,0,.33-.59l0-.77.51.66a.51.51,0,0,0,.48.16.3.3,0,0,0,.24-.2,1.7,1.7,0,0,0-.68-1.88l-.07,0a.53.53,0,0,0-.58,0l-.1.06-.12,0a.5.5,0,0,0-.34,0l-.08,0a.45.45,0,0,0-.29.12l-.1.08-.12,0a.49.49,0,0,0-.45.1l-.16.15-.17-.14a.57.57,0,0,0-.46-.08.33.33,0,0,0-.22.21c-.14.39-.26.79-.38,1.2a.26.26,0,0,0,.13.3.47.47,0,0,0,.52,0l.29-.25.12.36c0,.16.21.2.27.22a.45.45,0,0,0,.42-.1Z" transform="translate(10.93)"/><path d="M165.71,96.25c.58,1.19,3.27,1.07,4.21,1.14a12.24,12.24,0,0,0,6.14-.84c3.82-1.76,5.06-5.93,3.78-9.79a13.23,13.23,0,0,0-3.3-5.34c-1.37-1.24-2.54-.68-4.23-.58a.45.45,0,0,0-.11,0,.57.57,0,0,0-.7.32q-2,4.77-4,9.59C167.1,91.9,165.14,95.07,165.71,96.25Z" transform="translate(10.93)"/><path class="cls-6" d="M170,102.92c.29,2.91.39,5.4.39,5.4s3.15,1.36,3.32,3.23a5.45,5.45,0,0,1-1,3.09c-.93,1.55-2.27,3.26-3.18,5a12.93,12.93,0,0,1-10.57-10.75c2.15-5.4,6.07-12,10.19-12.84C171.29,95.58,169.54,98.39,170,102.92Z" transform="translate(10.93)"/><path d="M170.37,108.32s-4.24,9-4.07,10.82c.09.91-3.38-2.18-5.78-5.55,3.12-5.14,1.85-4.55,2.59-7.51,1.77-7.2,6.39-7.75,6.39-7.75s-2,1.33.48,4.59C170.27,105.83,170.37,108.32,170.37,108.32Z" transform="translate(10.93)"/><path class="cls-9" d="M202.33,207.46l-3.82,2s-2.66-3.9-5-7.17-17.15-19.14-17.15-19.14c-4.78-7.14,1.82-20,1.82-20l10.95,3.59s-2.56,6.93-2.34,7.23c.34.5.73,1,1.14,1.6a33.82,33.82,0,0,1,5.24,10c.89,2.74,4.49,11.16,6.9,16.71Z" transform="translate(10.93)"/><path d="M198.43,209.78l-.12-.19s-2.69-3.93-5-7.16-17-19-17.14-19.12c-4.83-7.21,1.51-19.78,1.78-20.32l.1-.19.2.07,11.2,3.68-.09.24a68.09,68.09,0,0,0-2.34,7c.34.49.71,1,1.12,1.55a34.41,34.41,0,0,1,5.27,10.11c1,3,5.15,12.68,6.89,16.69l2.26,5.18.1.22ZM178.3,163.41c-.78,1.63-6.06,13.12-1.74,19.59.58.62,14.83,15.89,17.15,19.14,2,2.83,4.33,6.18,4.88,7l3.42-1.78-2.17-5c-1.75-4-5.92-13.7-6.91-16.74a34,34,0,0,0-5.2-10c-.42-.57-.8-1.1-1.15-1.59-.08-.12-.28-.41,2.22-7.22Z" transform="translate(10.93)"/><path class="cls-9" d="M169.58,164.08s-1,12-1.73,15a6.89,6.89,0,0,0-.18,1.2,1.43,1.43,0,0,1,0,.16c-.31,2.59-3,10.3-7.76,27.86,0,.17-.09.34-.13.5a46.64,46.64,0,0,0-1.13,5.8l-4.13-1.83s.51-3.88.9-7.88-.3-25.7-.3-25.7c1.11-8.51,8.61-25,8.61-25Z" transform="translate(10.93)"/><path d="M158.83,214.94l-4.61-2.05,0-.19s.51-3.92.9-7.87-.3-25.45-.3-25.66c1.1-8.49,8.56-24.94,8.63-25.1l.2-.44,6.16,10.4v.08c-.05.49-1.05,12.1-1.74,15a7,7,0,0,0-.17,1.16.75.75,0,0,1,0,.17,73.1,73.1,0,0,1-2.19,8.18c-1.35,4.57-3.2,10.82-5.58,19.72q-.08.25-.12.48a47.35,47.35,0,0,0-1.14,5.78Zm-4.07-2.36,3.65,1.62a49.49,49.49,0,0,1,1.1-5.49c0-.15.08-.32.12-.49,2.39-8.91,4.24-15.17,5.59-19.74a77,77,0,0,0,2.18-8.1c0-.07,0-.1,0-.13a6.79,6.79,0,0,1,.18-1.26c.66-2.74,1.63-13.79,1.72-14.85l-5.59-9.43c-1.19,2.67-7.4,16.88-8.39,24.48,0,.85.69,21.72.3,25.69C155.3,208.35,154.87,211.76,154.76,212.58Z" transform="translate(10.93)"/><path d="M201.11,204.34s3.87,1.32,4.07,4.43c0,0-7.92,5.85-11.23,7.57,0,0-3.78-1.29-1.46-3.46a53.74,53.74,0,0,0,4.73-5.3S200.73,207.7,201.11,204.34Z" transform="translate(10.93)"/><path d="M159.15,211.39S160.27,215,158,217c0,0-9.28-2.65-12.59-4.2,0,0-1.26-3.71,1.81-3.2s7.56,1,7.56,1A3.06,3.06,0,0,0,159.15,211.39Z" transform="translate(10.93)"/><path d="M193.17,185.57a33.82,33.82,0,0,0-5.24-10,3.47,3.47,0,0,0-1.75.25.56.56,0,0,0-.79.5.58.58,0,0,0,.18.55A59.79,59.79,0,0,0,192,188.29a78.46,78.46,0,0,1,7.13,13.81.56.56,0,0,0,.93.18C197.66,196.73,194.06,188.31,193.17,185.57Z" transform="translate(10.93)"/><path d="M162,178.71c-.45-.11-.72.36-.63.74s.23,1,.32,1.45a22.15,22.15,0,0,0-2.51-2.22c-.56-.44-1.29.42-.72.86a18.35,18.35,0,0,1,3.47,3.22c.69,8.11-3.26,16.14-2.6,24.36,0,.32.19,1.51.41,1.65,0-.16.08-.33.13-.5,4.71-17.56,7.45-25.27,7.76-27.86C166.05,179.35,163.65,179.1,162,178.71Z" transform="translate(10.93)"/><path d="M192.38,175.38a52.35,52.35,0,0,1-6,2.58c-9,3.36-26.55,7.67-39.56-2.58,0,0,9.1-.75,7.35-12.27-2.24-14.74,4-34.65,12.65-37.63s19.93,0,19.93,0a14.94,14.94,0,0,1,4.47,4.89,19.76,19.76,0,0,1,2.65,10.25C193.91,149.51,185.83,156.08,192.38,175.38Z" transform="translate(10.93)"/><path d="M193.91,140.62a19.76,19.76,0,0,0-2.65-10.25,19.58,19.58,0,0,0-4.11,1.51.56.56,0,0,0-.31.35.5.5,0,0,0-.29.81c6.48,7.83.16,17.6-2.33,25.66a21.3,21.3,0,0,0-.74,11.11,38.89,38.89,0,0,0,2.15,6.26c.24.56.47,1.26.79,1.89a52.35,52.35,0,0,0,6-2.58C185.83,156.08,193.91,149.51,193.91,140.62Z" transform="translate(10.93)"/><path class="cls-6" d="M157.39,134c16.91,7.38,35.21-2.22,35.29-2.26-.32-.6-3.69-6.66-4.72-9a12.82,12.82,0,0,1-.94-3.9,29.64,29.64,0,0,1,0-6c.07-.73.15-1.28.18-1.54a.23.23,0,0,0,0-.09c1.36-6.77,4.31-14.8-3.54-17.27a16.21,16.21,0,0,0-3.44-.65h0a31.22,31.22,0,0,0-5,0,47.19,47.19,0,0,0-5.13,2.21c-.93.47-1.92,1-2.87,1.61-2.83,1.77-3.45,5.34-3.35,7.76.07,1.69,2.53,6.35,2.33,7.24C164.83,118.59,158.69,131.67,157.39,134Z" transform="translate(10.93)"/><path d="M170.32,111.92c2.48,1.89,6,1.91,8.89,3,2.53,1,5.15,3.32,7.81,3.9a29.64,29.64,0,0,1,0-6,.24.24,0,0,0-.08-.09c.08-.47.16-1,.26-1.45a.13.13,0,0,1,0-.09,12.11,12.11,0,0,0-2.49-3.14c-3.26-3.08-3-10.64-3-10.64-.74,3.77-.38,9.55.88,11.87a26.72,26.72,0,0,0,2.53,3.71s0,.07,0,.13c.08,1.24-7.55-1.29-8.46-1.53a19.06,19.06,0,0,0-6.15-.71C170,110.93,170,111.65,170.32,111.92Z" transform="translate(10.93)"/><path class="cls-9" d="M172.06,90.89v3.17s-.85,1.56,0,1.73c1.87.37,4.57-2.55,4.57-2.55V89Z" transform="translate(10.93)"/><path d="M172.4,96.07a1.72,1.72,0,0,1-.39,0,.63.63,0,0,1-.5-.37c-.25-.53.15-1.39.3-1.67V90.72l5.07-2.11v4.73l-.06.07C176.71,93.53,174.33,96.07,172.4,96.07Zm-.09-5,0,3.13c-.21.37-.44,1-.32,1.26a.18.18,0,0,0,.15.1c1.56.32,3.86-2,4.27-2.4V89.36Z" transform="translate(10.93)"/><path class="cls-9" d="M171.17,81.65a25,25,0,0,0-2.11,6.6c-.3,2.26,3.84,5.25,7.21,2.06s2.44-8,2.44-8Z" transform="translate(10.93)"/><path d="M173,92a4.43,4.43,0,0,1-2.07-.51,3.48,3.48,0,0,1-2.15-3.22,25.7,25.7,0,0,1,2.13-6.68l.08-.15,7.9.63,0,.19c0,.2.92,5-2.51,8.28A5,5,0,0,1,173,92Zm-1.71-10a24.81,24.81,0,0,0-2,6.38A3,3,0,0,0,171.18,91a4.18,4.18,0,0,0,4.92-.87c2.87-2.7,2.52-6.73,2.39-7.64Z" transform="translate(10.93)"/><path class="cls-9" d="M82.31,125c.94-3-3.18-4.46-3.82-4.3s-.71,1-.19,1a1.45,1.45,0,0,1,1.34.89,2.66,2.66,0,0,0-2.79-.46c-.4.16-.52.84-.17.9a6.27,6.27,0,0,1,1.43.42,3,3,0,0,0-1.28.16c-.55.18-.72.94-.19,1a2.52,2.52,0,0,1,2,.93,4.18,4.18,0,0,0-.91-.42c-.45-.13-1.05.65-.64.9s1,.58,1.44.89a1.11,1.11,0,0,0,1.12.93,3,3,0,0,0,2.05-1.16.57.57,0,0,0,.3-.31,1.27,1.27,0,0,0,.06-.18A1.66,1.66,0,0,0,82.31,125Z" transform="translate(10.93)"/><path d="M79.59,128a1.35,1.35,0,0,1-1.33-1c-.48-.31-.92-.58-1.34-.83a.56.56,0,0,1-.21-.74,1.16,1.16,0,0,1,.51-.54,2.7,2.7,0,0,0-.6-.09.54.54,0,0,1-.54-.48.94.94,0,0,1,.67-1l.16,0-.27-.05a.5.5,0,0,1-.41-.48.89.89,0,0,1,.53-.9,3.09,3.09,0,0,1,1-.22.57.57,0,0,1-.07-.22.93.93,0,0,1,.69-1A5,5,0,0,1,81.79,122a3,3,0,0,1,.78,3,2,2,0,0,1-.34,1.25,1.09,1.09,0,0,1,0,.14.82.82,0,0,1-.38.42,3.31,3.31,0,0,1-2.19,1.2Zm-2-2.74a.58.58,0,0,0-.41.34c0,.09,0,.11,0,.11.45.26.92.56,1.44.9l.08.05,0,.09a.88.88,0,0,0,.88.75,2.78,2.78,0,0,0,1.86-1.08l.09-.06a.34.34,0,0,0,.18-.19s0,0,0-.06l0-.1a1.45,1.45,0,0,0,.28-1v-.11a2.43,2.43,0,0,0-.64-2.56,4.74,4.74,0,0,0-2.88-1.42.45.45,0,0,0-.32.43s0,0,.07,0a1.66,1.66,0,0,1,1.56,1l.51,1-.89-.74a2.4,2.4,0,0,0-2.53-.42.44.44,0,0,0-.21.25.38.38,0,0,0,0,.18,6,6,0,0,1,1.48.43l1.41.62-1.53-.14a2.71,2.71,0,0,0-1.18.15.47.47,0,0,0-.34.43s0,0,.08.05a2.8,2.8,0,0,1,2.14,1l.76,1-1.08-.61a3.82,3.82,0,0,0-.85-.4Z" transform="translate(10.93)"/><path class="cls-12" d="M180,119.67c3.53.64,6.76,5.21,8.7,7.86a16.54,16.54,0,0,1,3.6,11c-.05.73-1.17.6-1.12-.12.43-6.21-4.21-12.84-9.09-16.43-1.4-1-1.8-1.56-3.65-1.08s-1.58.86-2.35,2.26a27.64,27.64,0,0,0-1.66,4,24.43,24.43,0,0,0-1.65,9.7c0,.72-1.07.89-1.11.17a28.05,28.05,0,0,1,2.37-12C175.11,122.37,176.64,119.07,180,119.67Z" transform="translate(10.93)"/><path class="cls-9" d="M170.31,121s.85,3.66.94,4c0,0,1.17.67,3.11,1.57,4.86,2.26,16.09,4.66,23.74,3,7.46-1.66,5.69-16.1-.3-23.17,0,0,0,0-.06-.09-4.74-5.62-10.05,5.43-9.12,6.32a10.16,10.16,0,0,1,1.07,1.29c1.92,2.68,4,7.29,3.43,7.64a14.39,14.39,0,0,1-4,.85,68.83,68.83,0,0,1-8.84-.34C175.25,121.58,170.57,120.94,170.31,121Z" transform="translate(10.93)"/><path d="M192.25,130.31c-6.73,0-14.24-1.8-18-3.55-1.92-.89-3.11-1.58-3.12-1.58l-.09-.05,0-.1c-.09-.32-.91-3.83-.94-4l-.06-.25.25,0a18.14,18.14,0,0,1,2.56.24c1.84.2,4.61.52,7.45.75a66.79,66.79,0,0,0,8.81.34,13.81,13.81,0,0,0,3.91-.82c.19-.49-1.6-4.62-3.51-7.27a10.15,10.15,0,0,0-1-1.26c-.24-.22-.25-.7,0-1.46.56-2,2.89-6.18,5.74-6.8a3.78,3.78,0,0,1,3.77,1.6.5.5,0,0,1,.08.12c4.29,5.09,6.41,13.85,4.62,19.15a6.1,6.1,0,0,1-4.48,4.39A27.52,27.52,0,0,1,192.25,130.31Zm-20.78-5.52c.31.18,1.39.77,3,1.52,4.87,2.26,16.07,4.61,23.58,2.94a5.67,5.67,0,0,0,4.12-4.07c1.74-5.16-.34-13.72-4.55-18.7l0-.07c-1.55-1.83-3.26-2-5.09-.53-2.5,2-4,6.05-3.69,6.49a9.67,9.67,0,0,1,1.1,1.33c1.67,2.31,3.77,6.62,3.56,7.68a.48.48,0,0,1-.2.31,14.26,14.26,0,0,1-4.14.89,67.92,67.92,0,0,1-8.89-.34c-2.83-.23-5.62-.55-7.46-.76l-2.13-.23C170.91,122.46,171.35,124.31,171.47,124.79Z" transform="translate(10.93)"/><path class="cls-6" d="M189,115c-.86-.82-6.43-6.45-7.26-11.73-.38-2.39-.83-7.86,2.16-8.55,4.78-1.11,11.17,5.84,15.58,11.08C197.49,110.39,194.41,113.58,189,115Z" transform="translate(10.93)"/><path class="cls-9" d="M171.29,121.52h0c-.49-.6-1.7-2.09-2.48-2.32-.43-.13-1,0-.74.54a2.42,2.42,0,0,0,.86.85h0c-1.72-.27-3.72-.08-4.91,1.12-.78.78-.29,1.29.64.93,1.79-.71,3.23-.64.5.25-.55.18-1.61.82-1.48,1.23.28.88,2.16,0,3-.29.78.14-1.16,1.13-1.38,1.52-1,1.75,2.69,0,2.91.19.62.53-2,1.32-.83,1.83.9.39,3-1.34,3.84-1.48s1.21.28,1.66-.39C173.69,124.34,172.31,122.44,171.29,121.52Z" transform="translate(10.93)"/><path d="M167.72,127.68a.9.9,0,0,1-.4-.08.68.68,0,0,1-.47-.49c0-.36.33-.64.73-.93a4.43,4.43,0,0,0,.46-.38l-.61.18c-1.19.37-2.06.59-2.39.18s0-.78.08-.93a2.77,2.77,0,0,1,.79-.68l.44-.33-.07,0c-.83.3-1.86.68-2.44.4a.76.76,0,0,1-.39-.45c-.14-.46.42-.92.94-1.22a.84.84,0,0,1-.91-.26c-.09-.15-.25-.56.37-1.18a5.49,5.49,0,0,1,4.28-1.29,2,2,0,0,1-.29-.42.63.63,0,0,1,0-.72,1,1,0,0,1,1-.16,7.86,7.86,0,0,1,2.6,2.4c1.14,1,2.5,3,1.64,4.29a1.17,1.17,0,0,1-1.26.5,2.1,2.1,0,0,0-.56,0,5.65,5.65,0,0,0-1.27.6A5.6,5.6,0,0,1,167.72,127.68Zm-.37-.62.16.08c.46.2,1.51-.4,2.28-.83a5.41,5.41,0,0,1,1.43-.67,2.57,2.57,0,0,1,.68,0c.39,0,.59,0,.81-.28.64-1-.54-2.72-1.59-3.66l0,0a7.07,7.07,0,0,0-2.36-2.24.54.54,0,0,0-.48,0s0,.07,0,.18a2.33,2.33,0,0,0,.78.75l.65.57-.82-.1c-1-.15-3.31-.35-4.7,1-.3.31-.33.51-.3.56s.26.12.67,0c0,0,1.88-.73,2.26-.41l.12.09,0,.18c0,.14-.06.33-1.69.86-.59.19-1.32.74-1.31.92a.22.22,0,0,0,.13.15c.38.19,1.39-.18,2.05-.42l.54-.19.06,0h.06a.41.41,0,0,1,.38.31c.07.32-.3.6-1,1.07a3.79,3.79,0,0,0-.64.51c-.16.29-.13.38-.13.38.18.17,1.39-.21,1.85-.35.72-.23,1-.3,1.14-.15a.49.49,0,0,1,.18.38c0,.32-.36.58-.72.85-.18.13-.5.37-.53.48Z" transform="translate(10.93)"/><path class="cls-12" d="M176.61,120.68a3.81,3.81,0,0,1,3.42-1c3.53.64,6.76,5.21,8.7,7.86a16.54,16.54,0,0,1,3.6,11c-.05.73-1.17.6-1.12-.12.43-6.21-4.21-12.84-9.09-16.43-1.4-1-1.8-1.56-3.65-1.08a4.35,4.35,0,0,0-1.24.48A1,1,0,0,0,176.61,120.68Z" transform="translate(10.93)"/><path class="cls-12" d="M173.2,127.39a1.08,1.08,0,0,0,.92.75,23.44,23.44,0,0,0-1.31,8.71c0,.72-1.07.89-1.11.17A25.16,25.16,0,0,1,173.2,127.39Z" transform="translate(10.93)"/><path class="cls-13" d="M192.89,138.42s-.22,7.37-1.16,10.66c0,0-17.17.19-21.19-.79,0,0,.21-9.81.77-11.54C174.47,136.32,187.22,136.67,192.89,138.42Z" transform="translate(10.93)"/><path class="cls-12" d="M192.89,138.42s-9.26,5.51-11.08,5.77-10-5.91-10.5-7.44A45.39,45.39,0,0,1,192.89,138.42Z" transform="translate(10.93)"/><path d="M180.77,141.64a.83.83,0,1,1,.47,1.07A.83.83,0,0,1,180.77,141.64Z" transform="translate(10.93)"/><path class="cls-9" d="M81.72,122.62s.26.41,1.09.36a1.36,1.36,0,0,1,1,2,3.4,3.4,0,0,1-1.74,1.53s-.65-.17-.87.11-.45-2-.3-2.73A2.46,2.46,0,0,1,81.72,122.62Z" transform="translate(10.93)"/><path class="cls-9" d="M130.24,126.48a7.45,7.45,0,0,0,2.91.47c1.45-.11.89,1.89.21,2.53a5.16,5.16,0,0,1-2.23.88.75.75,0,0,0-.89.31c-.39.53-1.61-2.08-1.24-3.06A1.74,1.74,0,0,1,130.24,126.48Z" transform="translate(10.93)"/><polygon class="cls-9" points="181.53 121.21 183.43 121.46 186.11 124.64 184.22 125.73 183.07 125.63 180.78 122.44 181.53 121.21"/><path d="M169.07,83.46a1.89,1.89,0,0,0,2.32.38,3.75,3.75,0,0,0,1.27-.89c.24-.25.46-.64.72-.89A3.35,3.35,0,0,1,176,83.6a6.44,6.44,0,0,1,0,1.32,6.86,6.86,0,0,0,.43,3.85,1.25,1.25,0,0,0,1.9.65,39.51,39.51,0,0,1-1.49,5.17c-1,2.89-3.81,4.09-5.09,6.76-.17.36.17.68.48.75,5.21,1.06,15.93,2.75,15.45-5.77a20.37,20.37,0,0,0-4.41-10.92c-1.87-2.39-3.51-5.72-6.84-5.87a.51.51,0,0,0-.26-.18,6.87,6.87,0,0,0-3.89,0,2.81,2.81,0,0,0-1.15.81c-.4.43-.11.64-.8,1.09-.22.14-.52.14-.75.29A1.36,1.36,0,0,0,169.07,83.46Z" transform="translate(10.93)"/><path class="cls-9" d="M88.81,74.87c-.77-1-5.65-1.81-5.65-1.81l-.12.37-.17-.17c-.64-.77-.23-1.06-.21-1.75a.87.87,0,0,0-.44-.85c-.39-.16-.63.12-.8.43a5.11,5.11,0,0,0-.75,1.84A1.47,1.47,0,0,0,81,74.06a13.16,13.16,0,0,0,1.31,1.39l-.59,1.72s4.85,2.25,5.64.82S89.58,75.92,88.81,74.87Z" transform="translate(10.93)"/><path d="M86.22,78.7a13.85,13.85,0,0,1-4.58-1.31l-.2-.09.61-1.78a14.72,14.72,0,0,1-1.22-1.3,1.74,1.74,0,0,1-.41-1.32A5.35,5.35,0,0,1,81.2,71c.31-.53.68-.71,1.11-.53a1.13,1.13,0,0,1,.6,1.09,2.73,2.73,0,0,1-.09.57.86.86,0,0,0,.12.85l.06-.16.2,0c.51.08,5,.82,5.81,1.92.63.85.07,1.5-.53,2.2a7.52,7.52,0,0,0-.87,1.18A1.48,1.48,0,0,1,86.22,78.7ZM82.06,77c1.81.81,4.64,1.7,5.11.84a7.77,7.77,0,0,1,.93-1.26c.63-.73.89-1.08.51-1.59-.5-.68-3.36-1.36-5.28-1.68l-.19.55-.28-.28-.18-.19A1.4,1.4,0,0,1,82.33,72a2.29,2.29,0,0,0,.08-.48.64.64,0,0,0-.29-.61c-.13,0-.26-.07-.49.32A5.28,5.28,0,0,0,80.91,73a1.26,1.26,0,0,0,.32,1,12.84,12.84,0,0,0,1.24,1.32l.12.11v.19Z" transform="translate(10.93)"/><path class="cls-9" d="M70.48,107.1c-8.9,0-16.68-4.29-19.14-7.2-1.2-1.41-5.71-11.19-4.52-14.25a1.17,1.17,0,0,1,1-.83,7.12,7.12,0,0,1,1-.06c4.78,0,13.41,3.61,19.12,6C71,92.08,73.3,93,74,93c1.13-.06,2.44-3.36,4.47-8.79C79.7,81,81.35,76.6,82,76.49c2.65.05,5.6.55,5.68,1.27,0,0,.37,1.47.68,3.57,1,6.58-.5,20.83-8.47,24a25.43,25.43,0,0,1-9.45,1.77Z" transform="translate(10.93)"/><path d="M82.09,76.74c2.93.07,5.34.62,5.38,1.05v.07a32.67,32.67,0,0,1,.67,3.51c1,6.51-.47,20.61-8.32,23.73a25.3,25.3,0,0,1-9.35,1.75c-8.82,0-16.52-4.24-19-7.11-1.15-1.36-5.61-11.09-4.48-14a.92.92,0,0,1,.82-.67,6.32,6.32,0,0,1,.91-.06c4.73,0,13.33,3.6,19,6,3.58,1.49,5.48,2.27,6.22,2.27h.07c1.19-.07,2.33-2.78,4.63-9,1.13-3,2.67-7.14,3.36-7.58Zm-.09-.5c-1.73.29-6,16.42-7.93,16.53h0c-2,0-17.91-8.26-25.25-8.26a7.59,7.59,0,0,0-1,.06c-4.16.53,2,13.85,3.35,15.49,2.44,2.88,10.29,7.29,19.33,7.29A25.59,25.59,0,0,0,80,105.56c8-3.17,9.71-17.09,8.63-24.26-.32-2.15-.68-3.57-.68-3.57-.15-1.38-6-1.49-6-1.49Z" transform="translate(10.93)"/><path class="cls-9" d="M55.63,206.7c-.47-.59-5.53-.1-5.58.2-.16.94-.4,4.51.08,5s5.53.44,5.63-.46S56.08,207.26,55.63,206.7Z" transform="translate(10.93)"/><path d="M52.37,212.42a5.11,5.11,0,0,1-2.41-.36c-.67-.66-.22-4.83-.16-5.2,0-.2.25-.28.48-.33.93-.25,5-.67,5.54,0s.19,4.86.18,4.9c0,.4-.52.57-.68.63A10.39,10.39,0,0,1,52.37,212.42ZM50.28,207c-.19,1.28-.29,4.34,0,4.66a11.08,11.08,0,0,0,4.85-.1c.31-.12.35-.21.35-.21.15-1.38.24-4.14-.08-4.54S51,206.76,50.28,207Z" transform="translate(10.93)"/><path d="M49.78,210.79s-2.34,3.35-.67,6c0,0,12.19.57,15.87,0,0,0,.1-4.5-3.06-4.88a46.68,46.68,0,0,0-6.31-.27S52.07,213.28,49.78,210.79Z" transform="translate(10.93)"/><path class="cls-9" d="M28.67,206.7c-.47-.59-5.54-.1-5.59.2-.15.94-.39,4.51.09,5s5.53.44,5.62-.46S29.12,207.26,28.67,206.7Z" transform="translate(10.93)"/><path d="M25.4,212.42a5,5,0,0,1-2.4-.36c-.63-.62-.27-4.58-.16-5.2,0-.2.25-.28.47-.33.93-.25,5-.67,5.55,0h0c.59.74.19,4.86.18,4.9,0,.4-.52.57-.68.63A10.42,10.42,0,0,1,25.4,212.42ZM23.31,207c-.19,1.28-.29,4.34,0,4.66a10.94,10.94,0,0,0,4.85-.1c.32-.12.35-.21.36-.21.14-1.33.24-4.12-.08-4.54S24,206.76,23.31,207Zm0-.1h0Z" transform="translate(10.93)"/><path d="M22.81,210.79s-2.34,3.35-.66,6c0,0,12.19.57,15.87,0,0,0,.09-4.5-3.06-4.88a46.84,46.84,0,0,0-6.32-.27S25.11,213.28,22.81,210.79Z" transform="translate(10.93)"/><path d="M63.19,165.59c0,10.9-4.12,33.82-6.89,43.71H49.13c0-.06-.08-11.38-.07-15.76,0-7.93-2.15-21-2.72-28.14-.31-3.85-.2-13.46-2.68-19.82-.46-1.19-.89-2.32-1.29-3.4-1.46-4-2.39-7-1.75-7.74,1.77-2,17-16.91,20.78-8.71C65.4,134.34,63.19,154.69,63.19,165.59Z" transform="translate(10.93)"/><path d="M51.58,184.83c-.08-4.05.47-8.08.35-12.13a57.42,57.42,0,0,0-1.49-10.27,59.92,59.92,0,0,1-1.67-12c0-2.88,1.21-6.26.62-9.06a3,3,0,0,0-3-2.56c-2,0-3.19,1.71-4,3.34.4,1.08,2.72,21.95,6.14,49.36a89.79,89.79,0,0,1,.62,17.76c.72,0,1.74.1,3.67,0C54.42,202.18,51.73,191.91,51.58,184.83Z" transform="translate(10.93)"/><path d="M45.15,131.34s0,.38,0,1.09a62,62,0,0,1-1,7.33c-.25,1.46-.45,7.82-.75,9.56-1.25,7.06-3,11.41-4,20.67-1.23,10.83-7,28.14-9.89,39.69h-7.1s1.52-16.9,2.44-20.08c1.11-3.89-1.64-9-1.6-13.7,0-3.35-.07-6.66-.12-9.58,0-1,0-1.93,0-2.88.09-15.25-.85-21.62,3.91-33.17.07-.18.14-.37.22-.55a45.4,45.4,0,0,1,3-5.9c.39-.64,1.28-.88,2.51-.73,3,.34,7.8,3,11.82,7.55C44.76,130.87,45,131.1,45.15,131.34Z" transform="translate(10.93)"/><path d="M31,131.29a7.73,7.73,0,0,0-4-1c-4.76,11.55-3.82,17.92-3.91,33.17,0,.95,0,1.91,0,2.88.07,3.11.22,6.33.12,9.58-.1,3.46,0,13.39-.34,16.93-.5,6.15-.78,15-.5,16.85h3.53c1.67-5.77,1.92-12.68,3-18.58s.65-12.21.41-18.23a95.7,95.7,0,0,0-.93-10.54A98.54,98.54,0,0,1,27,152.09,44.19,44.19,0,0,1,31,132.6a.46.46,0,0,0,0-.44C31.3,131.93,31.4,131.5,31,131.29Z" transform="translate(10.93)"/><path class="cls-9" d="M33.79,135.32c-1,0-1.88,0-2.73-.06-3.69-.18-5.2-.66-5.37-1-.28-.6-.11-4,.08-7.85.2-4.05.45-9.09.32-13.32,0-1.37-.07-2.74-.08-4.11-.09-10.58.77-17.35,2.38-18.59.4-.31.87-.65,1.49-1.07a27.94,27.94,0,0,1,2.89-1.73,27.4,27.4,0,0,1,5.95-2.3,25.1,25.1,0,0,1,6.3-.82,24.49,24.49,0,0,1,5.37.6v0h.26a24,24,0,0,1,3.21,1l.58.21.23.09c3.76,1.51,2.94,10.78,2.45,16.32l-.08,1a53.84,53.84,0,0,0-.36,7,14.34,14.34,0,0,0,.23,1.85c.46,2.76,2.23,6.77,3.78,10.31a43.77,43.77,0,0,1,2.84,7.4c-.89.53-13.75,3.56-18.38,4.28A77.81,77.81,0,0,1,33.79,135.32Z" transform="translate(10.93)"/><path d="M45,84.71h0a24.78,24.78,0,0,1,5.13.55v.11h.44a22.61,22.61,0,0,1,3.2,1l.58.21.2.08c3.6,1.45,2.79,10.6,2.31,16.07l-.09,1a53.88,53.88,0,0,0-.36,7,16.35,16.35,0,0,0,.23,1.85c.47,2.8,2.17,6.65,3.8,10.38A49.51,49.51,0,0,1,63.24,130a173.48,173.48,0,0,1-18.13,4.22,77.15,77.15,0,0,1-11.32.83c-.95,0-1.87,0-2.71-.06-3.71-.18-5-.65-5.16-.87-.25-.54-.07-4.19.1-7.72.2-4.06.45-9.1.32-13.35,0-1.25-.06-2.59-.08-4.1-.09-10.35.76-17.22,2.29-18.4.39-.31.86-.64,1.48-1a28,28,0,0,1,8.76-4A25.07,25.07,0,0,1,45,84.71Zm0-.5a25.08,25.08,0,0,0-6.36.83,27,27,0,0,0-6,2.32,28.89,28.89,0,0,0-2.92,1.74q-.84.57-1.5,1.08c-2,1.53-2.56,10-2.48,18.79,0,1.37,0,2.75.08,4.11.26,8.47-1,20-.38,21.27.3.62,2.52,1,5.59,1.16.86,0,1.78.06,2.74.06a77.62,77.62,0,0,0,11.4-.84c4.32-.66,18.44-3.92,18.61-4.46-.63-3.68-5.8-12.76-6.64-17.82a13.78,13.78,0,0,1-.23-1.81,65.78,65.78,0,0,1,.44-7.91c.61-6.87,1.15-15.06-2.61-16.58L54,85.86a23.23,23.23,0,0,0-3.3-1,0,0,0,0,1,0,0A25,25,0,0,0,45,84.21Z" transform="translate(10.93)"/><path class="cls-9" d="M42.47,84.59l.15,0,3.75,1.52-.15-.5c-.07-.22-.18-.9.15-1a1.16,1.16,0,0,1,.5-.08,6.5,6.5,0,0,1,1.29.18l1.59,2.62-2.44-1.49L44,88.26Z" transform="translate(10.93)"/><path d="M46.87,84.72a6.34,6.34,0,0,1,1.13.15l1,1.65-1.41-.86-.29-.18-.27.21-.42.31-.15-.48c-.08-.27-.09-.7,0-.74a.93.93,0,0,1,.4-.06Zm-4,.23,2.9,1.17.42.17-2.09,1.58L42.89,85Zm4-.73a1.54,1.54,0,0,0-.6.1c-.61.27-.29,1.34-.29,1.34l-3.32-1.34-.55.07,1.79,4.26,3.43-2.56L50.5,88l-2.18-3.58a6.46,6.46,0,0,0-1.45-.22Z" transform="translate(10.93)"/><path class="cls-9" d="M47.33,80.64v3.68s.87,1.59,0,1.77c-1.91.38-4.67-1.77-4.67-1.77V78.7Z" transform="translate(10.93)"/><path d="M46.85,86.38c-1.93,0-4.24-1.78-4.35-1.86l-.09-.08V78.33l5.17,2.14v3.78c.14.29.56,1.16.31,1.7a.7.7,0,0,1-.51.38A2.32,2.32,0,0,1,46.85,86.38Zm-3.94-2.19c.49.37,2.78,2,4.37,1.65a.18.18,0,0,0,.15-.1,2.08,2.08,0,0,0-.32-1.3l0-.12V80.8l-4.17-1.73Z" transform="translate(10.93)"/><path class="cls-9" d="M49.41,72.77a25.83,25.83,0,0,1,.51,7.06c-.25,2.31-5.07,4.28-7.65.31s-.48-8.58-.48-8.58Z" transform="translate(10.93)"/><path d="M46.15,82.67a4.87,4.87,0,0,1-4.09-2.39c-2.63-4-.59-8.63-.5-8.82l.08-.17,8,1.26,0,.17a26,26,0,0,1,.51,7.13,3.54,3.54,0,0,1-2.9,2.68A4.84,4.84,0,0,1,46.15,82.67ZM41.94,71.84c-.34.87-1.66,4.79.54,8.16a4.27,4.27,0,0,0,4.67,2,3.1,3.1,0,0,0,2.52-2.25A24.78,24.78,0,0,0,49.2,73Z" transform="translate(10.93)"/><path d="M49,68.59a5.72,5.72,0,0,0-1.7.54,7.79,7.79,0,0,1-2.9.41,4.81,4.81,0,0,0-3.5,1c-1.55,1.46-2,4.94-1.09,7a1.19,1.19,0,0,0,.62,1,1.4,1.4,0,0,0,1.94-.56c.6-1,.25-2.46.29-3.58,0-.25,0-.57,0-.89,3,.52,6.94,1,8.91-1.07S51.41,68.43,49,68.59Z" transform="translate(10.93)"/><polygon points="58.26 86.09 56.77 87.2 58.06 88.65 59.38 88.57 59.91 87.09 58.26 86.09"/><path d="M48.46,88.57A38.63,38.63,0,0,1,51,106l-2.5,2.65-1.9-2.22s1.86-11.81.57-17.74Z" transform="translate(10.93)"/><path class="cls-9" d="M77.23,128a5.14,5.14,0,0,1-2.16-.93,5.44,5.44,0,0,0-1.15-.59,1.37,1.37,0,0,0-.28,0l-.48,0a1,1,0,0,1-.93-.51c-.76-1.23.61-3,1.71-4a7.24,7.24,0,0,1,2.49-2.12,1.49,1.49,0,0,1,.36,0,.69.69,0,0,1,.63.29.64.64,0,0,1,0,.63,1.7,1.7,0,0,1-.26.34h.23A5,5,0,0,1,81,122.38c.47.51.42.87.35,1a.63.63,0,0,1-.63.35h-.2a2.06,2.06,0,0,1,.71.7.54.54,0,0,1,0,.42.78.78,0,0,1-.82.49h0a5.49,5.49,0,0,1-1.79-.5l.3.24a2.67,2.67,0,0,1,.72.65.84.84,0,0,1,.09.82.64.64,0,0,1-.58.26,6.29,6.29,0,0,1-1.7-.42l-.52-.17a4.23,4.23,0,0,0,.38.31c.36.29.7.56.65.9s-.18.35-.46.46A1,1,0,0,1,77.23,128Z" transform="translate(10.93)"/><path d="M76.79,120.06c.32,0,.59.15.38.55a2.39,2.39,0,0,1-.84.77h0a8.94,8.94,0,0,1,1-.06,4.71,4.71,0,0,1,3.49,1.23c.53.57.38,1-.09,1a1.52,1.52,0,0,1-.54-.12,5.8,5.8,0,0,0-1.73-.49c-.33,0-.09.23,1.26.71.5.18,1.46.79,1.32,1.17a.54.54,0,0,1-.58.33,8.68,8.68,0,0,1-2.22-.68c-.74.11,1,1.07,1.22,1.44.28.53.11.71-.26.71a20.48,20.48,0,0,1-2.4-.63h0c-.59.48,1.85,1.28.71,1.72a.71.71,0,0,1-.26,0c-.93,0-2.57-1.38-3.26-1.51a1.23,1.23,0,0,0-.33,0l-.48,0a.75.75,0,0,1-.72-.4c-.68-1.09.67-2.81,1.66-3.63h0c.48-.54,1.66-1.88,2.39-2.07a1,1,0,0,1,.3,0Zm0-.5h0a1.47,1.47,0,0,0-.42.06c-.63.16-1.44.84-2.63,2.2-1,.86-2.63,2.8-1.72,4.25a1.25,1.25,0,0,0,1.14.63h.48a.9.9,0,0,1,.23,0,5.33,5.33,0,0,1,1.07.56,5.29,5.29,0,0,0,2.29,1,1.23,1.23,0,0,0,.44-.08.86.86,0,0,0,.62-.65.77.77,0,0,0-.2-.63,4.38,4.38,0,0,0,1.14.22.85.85,0,0,0,.79-.38,1.12,1.12,0,0,0-.08-1.06.41.41,0,0,0-.07-.11,2.85,2.85,0,0,0,.62.08,1,1,0,0,0,1.05-.66.78.78,0,0,0,0-.61,1.64,1.64,0,0,0-.31-.41.8.8,0,0,0,.43-.42c.09-.22.17-.68-.4-1.3a5.09,5.09,0,0,0-3.6-1.39.83.83,0,0,0,0-.85.92.92,0,0,0-.84-.41Z" transform="translate(10.93)"/><path class="cls-9" d="M43.28,134.6a13.14,13.14,0,0,1-4.12-.56c-7.25-2.43-11.85-8.43-14-18.34-1.66-7.52-1.24-16.68,1-22.26a4.77,4.77,0,0,1,4.07-3.25A3.55,3.55,0,0,1,32,90.7a12.26,12.26,0,0,1,5,5.19c1.61,3.26,3.11,11.3,4.21,17.18.82,4.36,1.23,6.48,1.55,6.86,1.4,1.64,16.89,2.5,28.43,3l2,.1.44,3c-2,.86-19.92,8.55-30.4,8.55Z" transform="translate(10.93)"/><path d="M30.22,90.44a3.18,3.18,0,0,1,1.65.48A12.06,12.06,0,0,1,36.82,96c1.59,3.23,3.09,11.25,4.19,17.11.92,4.94,1.25,6.57,1.6,7,1.15,1.35,9.7,2.27,28.61,3.08l1.81.08.39,2.65c-2.67,1.15-20,8.45-30.13,8.45a13,13,0,0,1-4-.54c-7.16-2.41-11.7-8.35-13.88-18.17-1.66-7.48-1.24-16.57,1-22.11a4.54,4.54,0,0,1,3.85-3.09Zm0-.5a5,5,0,0,0-4.31,3.4c-2.2,5.39-2.79,14.52-1,22.41,1.92,8.67,6,15.77,14.21,18.53a13.32,13.32,0,0,0,4.21.57c11.22,0,30.68-8.64,30.68-8.64l-.5-3.43c-.36-.09-28.69-.91-30.48-3-.78-.92-3.11-18.68-5.72-24a12.5,12.5,0,0,0-5.14-5.29,3.72,3.72,0,0,0-1.91-.55Z" transform="translate(10.93)"/><path d="M90.49,111.49l1.25-1.75a1.2,1.2,0,0,0,.2-.88L88.72,88.94a6,6,0,1,0-4.53.94l.21,1.27-.92,1.69-.43.14.19.59v0h0a.38.38,0,0,0,.12.17l1.71,1.61.14.85-.25.64-.45.39.18.54h0a.37.37,0,0,0,.09.19l.89,1.06.19,1.2-.68.85-.12-.39-.6.87.18.54h0a.47.47,0,0,0,.19.25l1.54,1,.24,1.47-.39,1-.31,0,.18.56h0a.51.51,0,0,0,.09.16l.88,1.07.27,1.65,0,0,.09.3a1.22,1.22,0,0,0,.48.72l1.78,1.26A.61.61,0,0,0,90.49,111.49ZM85.55,85.43a1.46,1.46,0,1,1,1.21-1.67A1.46,1.46,0,0,1,85.55,85.43Z" transform="translate(10.93)"/><path class="cls-6" d="M90.31,111l1.25-1.75a1.16,1.16,0,0,0,.21-.88L88.54,88.4a6,6,0,1,0-4.52.94l.2,1.27L83.1,92.68a.46.46,0,0,0,.09.55l1.72,1.61.14.85L84.54,97a.47.47,0,0,0,.08.47l.88,1.06.2,1.2-1.15,1.45a.47.47,0,0,0,.11.67l1.54,1,.24,1.47-.5,1.3a.45.45,0,0,0,.07.46l.89,1.07.31,1.91a1.2,1.2,0,0,0,.48.78l1.79,1.26A.6.6,0,0,0,90.31,111Zm-6.6-27.27a1.46,1.46,0,1,1,1.67,1.21A1.46,1.46,0,0,1,83.71,83.68Z" transform="translate(10.93)"/><path class="cls-12" d="M90.89,108.72a.36.36,0,0,0,.06-.27L87.6,87.75a4.94,4.94,0,1,0-2.9.63l.39,2.38L84,92.82l1.72,1.61.22,1.35-.51,1.3.9,1.08.28,1.78-1.12,1.42,1.51,1,.34,2.06-.51,1.3.89,1.07.35,2.14a.33.33,0,0,0,.14.23l1.6,1.13Zm-7.18-25a1.46,1.46,0,1,1,1.67,1.21A1.46,1.46,0,0,1,83.71,83.68Z" transform="translate(10.93)"/><path d="M85.64,73.06c-2.18,0-4,2.28-4,5.09,0,.13,0,.26,0,.38a5.06,5.06,0,0,0,2.62,4.41,3,3,0,0,0,1.32.3,2.94,2.94,0,0,0,.84-.12,1.39,1.39,0,0,0-.62-.48h-.22a2.59,2.59,0,0,1-.63-.08c-1.54-.39-2.72-2.2-2.73-4.38v0c0-2.48,1.51-4.49,3.36-4.49s3.35,2,3.35,4.49a4.92,4.92,0,0,1,0,.67,4.77,4.77,0,0,1,.52.48,5.41,5.41,0,0,0,.11-1.15C89.58,75.34,87.82,73.06,85.64,73.06Z" transform="translate(10.93)"/><path class="cls-9" d="M88.36,73.24a.28.28,0,0,0-.16.07.88.88,0,0,0-.27-.71c-.26-.19-.6,0-.86.07l0,0c0-.6-.06-1.2-.56-1.41s-.85.11-1.13.56a2.59,2.59,0,0,0-.07-.63c-.17-.77-1-.67-1.52-.21a4.36,4.36,0,0,0-.67,1.85,2.9,2.9,0,0,0,0,1.34c.28.69,1,.21,1.42-.18-.19.55-.22,1.11.48,1.26a1.32,1.32,0,0,0,1.19-.35,1.78,1.78,0,0,0,0,.8c.22.63.95.31,1.31,0a1.81,1.81,0,0,0,.4-.52.35.35,0,0,0,.08.13c.27.3.81,0,1-.22A1.06,1.06,0,0,0,88.36,73.24Z" transform="translate(10.93)"/><path d="M86.66,76.33a.64.64,0,0,1-.2,0,.69.69,0,0,1-.51-.5,1.57,1.57,0,0,1-.08-.4,1.53,1.53,0,0,1-1,.11,1,1,0,0,1-.68-.44.91.91,0,0,1-.12-.47,1.08,1.08,0,0,1-.76.17.75.75,0,0,1-.52-.48,2.65,2.65,0,0,1,0-1.34l0-.14a4.46,4.46,0,0,1,.75-2,1.37,1.37,0,0,1,1.3-.38.93.93,0,0,1,.64.72s0,0,0,.07a1,1,0,0,1,1-.18,1.27,1.27,0,0,1,.73,1.27.81.81,0,0,1,.78.08.92.92,0,0,1,.34.59,1.27,1.27,0,0,1,1.12.83,1.37,1.37,0,0,1-.36,1.46,1.33,1.33,0,0,1-.93.42.75.75,0,0,1-.33-.1,1.93,1.93,0,0,1-.27.3A1.62,1.62,0,0,1,86.66,76.33Zm-.17-2.06-.1.69a1.48,1.48,0,0,0,0,.68c0,.13.11.17.16.18a1,1,0,0,0,.74-.3,1.62,1.62,0,0,0,.36-.45l.27-.49.18.53a.17.17,0,0,0,.14.09,1.11,1.11,0,0,0,.57-.27.89.89,0,0,0,.23-.94.78.78,0,0,0-.69-.5l-.39.38,0-.54c0-.28-.06-.46-.16-.53s-.36,0-.61.09l-.41.25,0-.47c0-.44,0-1-.41-1.16-.19-.08-.46-.1-.82.47l-.46.73v-.87a2.49,2.49,0,0,0-.06-.57.44.44,0,0,0-.29-.36.93.93,0,0,0-.82.27,4.25,4.25,0,0,0-.59,1.71l0,.15a2.12,2.12,0,0,0,0,1.06c.06.16.13.18.16.18s.43-.07.86-.46l.72-.66-.32.93a1,1,0,0,0-.06.73A.5.5,0,0,0,85,75a1,1,0,0,0,1-.28Z" transform="translate(10.93)"/><path class="cls-9" d="M27.58,91.62a15.85,15.85,0,0,1,5.69-4c4-1.84,5.59,5.82,5.59,5.82l-.81,3.5s-1,.09-1,.81-5.63,2-7.25,0S27.58,91.62,27.58,91.62Z" transform="translate(10.93)"/><path class="cls-9" d="M49.69,85.15s5.77.61,8.94,2.22,0,9.38,0,9.38l-5.92-2.67-1-7.46Z" transform="translate(10.93)"/><path class="cls-9" d="M80,127.58c0-.27-.11-.78-.52-.83a.34.34,0,0,0-.14,0,1.26,1.26,0,0,0,.13-.54c0-.4-.23-1.06-.84-.91a1.52,1.52,0,0,0-.64.37,1.16,1.16,0,0,0-.52-1c-.57-.41-1-.11-1.26.29,0-.48-.09-1.22-.79-1.07a2.37,2.37,0,0,0-1,.69,5.23,5.23,0,0,0-.93,1.13.17.17,0,0,0,0,0,.19.19,0,0,0-.09.19c.06.53.53,1.2,1.23.94a2.37,2.37,0,0,0,.53-.26c-.16.42-.16.82.3,1.06a1.37,1.37,0,0,0,1.44-.3,0,0,0,0,0,0,0,.85.85,0,0,0,.51.63,1,1,0,0,0,.72-.17.16.16,0,0,0,0,.15A1.06,1.06,0,0,0,80,127.58Z" transform="translate(10.93)"/><path d="M79.05,128.65a1.51,1.51,0,0,1-1-.41,1,1,0,0,1-.67.07.93.93,0,0,1-.57-.52,1.42,1.42,0,0,1-1.43.14.92.92,0,0,1-.54-.82l-.09,0a1,1,0,0,1-.92-.08,1.51,1.51,0,0,1-.65-1.07.44.44,0,0,1,.13-.38l0,0a5.93,5.93,0,0,1,1-1.19l.1-.09a2.29,2.29,0,0,1,1-.66.79.79,0,0,1,.72.16,1,1,0,0,1,.33.6,1,1,0,0,1,1.2.07,1.45,1.45,0,0,1,.56.75,2.05,2.05,0,0,1,.38-.16.83.83,0,0,1,.74.14,1.31,1.31,0,0,1,.42,1,1.55,1.55,0,0,1,0,.31,1.06,1.06,0,0,1,.57,1.06h0a1.11,1.11,0,0,1-.73,1A1.43,1.43,0,0,1,79.05,128.65Zm-.65-.75a1,1,0,0,0,1,.19.61.61,0,0,0,.42-.53h0c0-.15-.07-.53-.3-.56l-.5.13.15-.47a1,1,0,0,0,.11-.44.87.87,0,0,0-.23-.61.3.3,0,0,0-.3,0,1.23,1.23,0,0,0-.54.3l-.43.4,0-.59a.89.89,0,0,0-.41-.79c-.3-.21-.57-.25-.92.24l-.48.66,0-.82a1.05,1.05,0,0,0-.19-.77.32.32,0,0,0-.3,0,2,2,0,0,0-.78.53l-.1.1a5,5,0,0,0-.89,1.09l0,.11h0a1,1,0,0,0,.41.65.53.53,0,0,0,.49,0,3,3,0,0,0,.47-.24l.64-.41-.27.71c-.18.48,0,.64.19.74s.72.07,1.17-.27l.33-.25.07.4c.08.24.16.42.34.47a.7.7,0,0,0,.52-.14l.43-.24Zm0,0h0Z" transform="translate(10.93)"/><path class="cls-12" d="M85.84,16.44A16.56,16.56,0,1,1,69.17,0,16.56,16.56,0,0,1,85.84,16.44Z" transform="translate(10.93)"/><path class="cls-9" d="M67.36,26.31c-1.53-.08-4.27-2.86-8.15-8.26A1.42,1.42,0,0,1,59,17a1.45,1.45,0,0,1,1.44-1.23,1.49,1.49,0,0,1,1.2.61,53.21,53.21,0,0,0,5.31,6.43l.22.21.16-.27c2.44-4,9.51-15.16,9.58-15.27A1.47,1.47,0,0,1,79.35,9c-2.41,3.81-9.46,15-10.2,16.33a1.86,1.86,0,0,1-1.51,1h-.28Z" transform="translate(10.93)"/><path d="M78.11,7h0a1.23,1.23,0,0,1,.65.19,1.22,1.22,0,0,1,.38,1.68c-2.59,4.09-9.48,15-10.21,16.34a1.59,1.59,0,0,1-1.31.83h-.25c-1.43-.08-4.18-2.9-8-8.16a1.19,1.19,0,0,1,.28-1.69,1.17,1.17,0,0,1,.7-.23,1.24,1.24,0,0,1,1,.5A52.4,52.4,0,0,0,66.74,23l.45.42.32-.53C69.83,19,76.35,8.74,77.08,7.58a1.21,1.21,0,0,1,1-.57Zm0-.5a1.71,1.71,0,0,0-1.45.8c-.33.52-7.2,11.36-9.58,15.27a51.75,51.75,0,0,1-5.28-6.39,1.73,1.73,0,0,0-2.4-.39A1.71,1.71,0,0,0,59,18.19c5.41,7.54,7.42,8.32,8.33,8.37h.31a2.08,2.08,0,0,0,1.71-1.09c.73-1.33,7.61-12.23,10.2-16.31a1.72,1.72,0,0,0-1.45-2.64Z" transform="translate(10.93)"/><path class="cls-9" d="M170,51.59A12.33,12.33,0,0,1,158.69,44l-.13-.32-.27.24A8.18,8.18,0,0,1,145.66,42l-.16-.28-.23.23a9.67,9.67,0,0,1-16.16-3.6l0-.11-.11,0a10.83,10.83,0,0,1-6.79-10.08,10.65,10.65,0,0,1,10.47-10.78,10,10,0,0,1,4.75,1.19l.41.21-.05-.46c-.05-.51-.07-1-.07-1.55A15,15,0,0,1,152.49,1.5a14.81,14.81,0,0,1,13.57,9.14l.14.32.26-.23a9.83,9.83,0,0,1,6.67-2.63,10.22,10.22,0,0,1,10.06,10.36,10.85,10.85,0,0,1-.1,1.42l-.05.38.37-.11a8.87,8.87,0,0,1,2.54-.37,9.44,9.44,0,0,1,9.29,9.56,3.84,3.84,0,0,1,0,.39s0,.47,0,.56l0,.25a8.58,8.58,0,0,1-3.66,6.21c-.08.07-.36.24-.36.24l-.14.09a8.38,8.38,0,0,1-3.78,1.24l-.05,0-.08,0H187l-.4,0a8.32,8.32,0,0,1-4-1l-.41-.21.05.46c0,.42.06.86.06,1.29A12.51,12.51,0,0,1,170,51.59Z" transform="translate(10.93)"/><path d="M152.49,1.75a14.56,14.56,0,0,1,13.34,9l.27.65.53-.48a9.62,9.62,0,0,1,6.5-2.56,10,10,0,0,1,9.81,10.11,10.4,10.4,0,0,1-.1,1.38l-.1.76.74-.21A8.79,8.79,0,0,1,186,20a9.19,9.19,0,0,1,9,9.3v.08a2.83,2.83,0,0,1,0,.29V30c0,.08,0,.16,0,.24s0,.09,0,.13l0,.12a8.34,8.34,0,0,1-3.56,6,2.67,2.67,0,0,1-.28.19l-.06,0-.14.09a8.17,8.17,0,0,1-3.68,1.2h-.25l-.39,0a8.06,8.06,0,0,1-3.83-1l-.82-.43.09.92c0,.42.06.85.06,1.27A12.27,12.27,0,0,1,170,51.34a12.08,12.08,0,0,1-11.06-7.44l-.27-.66-.52.48a7.92,7.92,0,0,1-12.25-1.83l-.34-.56-.45.47a9.42,9.42,0,0,1-15.74-3.51l-.08-.22-.22-.09a10.57,10.57,0,0,1-6.63-9.84,10.38,10.38,0,0,1,10.22-10.53,9.81,9.81,0,0,1,4.63,1.16l.82.43-.09-.92c-.05-.51-.07-1-.07-1.53a14.8,14.8,0,0,1,14.56-15Zm0-.5a15.28,15.28,0,0,0-15.06,15.5c0,.53,0,1.06.07,1.58a10.39,10.39,0,0,0-4.86-1.22,10.88,10.88,0,0,0-10.72,11,11,11,0,0,0,7,10.31,9.93,9.93,0,0,0,16.58,3.7,8.54,8.54,0,0,0,7.3,4.19,8.43,8.43,0,0,0,5.71-2.25A12.57,12.57,0,0,0,170,51.84a12.76,12.76,0,0,0,12.57-12.93,11.38,11.38,0,0,0-.07-1.31,8.73,8.73,0,0,0,4.07,1l.55,0h0l.11,0a8.54,8.54,0,0,0,3.89-1.28l.21-.12.3-.21a8.86,8.86,0,0,0,3.77-6.4,2.13,2.13,0,0,0,0-.25,3,3,0,0,0,0-.42c0-.16,0-.32,0-.48v-.07A9.68,9.68,0,0,0,186,19.53a9.36,9.36,0,0,0-2.61.38,11.64,11.64,0,0,0,.1-1.45A10.46,10.46,0,0,0,173.13,7.85a10.08,10.08,0,0,0-6.84,2.69,15.06,15.06,0,0,0-13.8-9.29Z" transform="translate(10.93)"/><path class="cls-9" d="M130.77,56.42a3.21,3.21,0,0,1-2.94-4.48,3.21,3.21,0,0,1,1.77-1.7,3.33,3.33,0,0,1,1.17-.22,3.2,3.2,0,0,1,1.17,6.18A3.15,3.15,0,0,1,130.77,56.42Z" transform="translate(10.93)"/><path d="M130.76,50.27h0a3,3,0,0,1,1.09,5.7,3.08,3.08,0,0,1-1.08.2,2.94,2.94,0,0,1-1.08-5.69,2.83,2.83,0,0,1,1.07-.21Zm0-.5a3.52,3.52,0,0,0-1.26.24,3.45,3.45,0,0,0,1.27,6.66,3.31,3.31,0,0,0,1.26-.24,3.45,3.45,0,0,0-1.27-6.66Z" transform="translate(10.93)"/><path class="cls-9" d="M128.09,65.17a1.81,1.81,0,0,1-1.7-1.16,1.77,1.77,0,0,1,0-1.39,1.8,1.8,0,0,1,1-1,1.74,1.74,0,0,1,.67-.13,1.82,1.82,0,0,1,1.67,2.56,1.77,1.77,0,0,1-1,1A1.65,1.65,0,0,1,128.09,65.17Z" transform="translate(10.93)"/><path d="M128.09,61.77a1.56,1.56,0,0,1,1.46,1,1.56,1.56,0,0,1-.89,2,1.57,1.57,0,0,1-2-.89,1.59,1.59,0,0,1,.89-2,1.66,1.66,0,0,1,.58-.11Zm0-.5a2.08,2.08,0,0,0,0,4.15,2.27,2.27,0,0,0,.76-.14,2.08,2.08,0,0,0-.76-4Z" transform="translate(10.93)"/><path class="cls-9" d="M174.09,63a3.42,3.42,0,0,1-1.14-.2,3.34,3.34,0,0,1-2-4.26,3.34,3.34,0,0,1,3.13-2.19,3.13,3.13,0,0,1,1.13.2,3.32,3.32,0,0,1,2,4.26A3.33,3.33,0,0,1,174.09,63Z" transform="translate(10.93)"/><path d="M174.09,56.06v.5a3.13,3.13,0,0,1,1,.18,3.08,3.08,0,0,1-1,6,3.13,3.13,0,0,1-1.05-.18,3.09,3.09,0,0,1-1.74-1.59,3,3,0,0,1-.1-2.35,3.07,3.07,0,0,1,2.89-2v-.5Zm0,0A3.58,3.58,0,0,0,172.87,63a3.68,3.68,0,0,0,1.22.21,3.58,3.58,0,0,0,1.22-6.94,3.73,3.73,0,0,0-1.22-.21Z" transform="translate(10.93)"/><path class="cls-9" d="M175.51,72.4a2,2,0,1,1,1.86-1.3A2,2,0,0,1,175.51,72.4Z" transform="translate(10.93)"/><path d="M175.51,68.71h0a1.7,1.7,0,0,1,.59.1,1.73,1.73,0,0,1,1,.89,1.68,1.68,0,0,1,.06,1.32,1.71,1.71,0,0,1-1.62,1.13,1.65,1.65,0,0,1-.58-.1,1.7,1.7,0,0,1-1-.89,1.68,1.68,0,0,1-.06-1.32,1.71,1.71,0,0,1,1.61-1.13Zm0-.5a2.21,2.21,0,1,0,.76.13,2.21,2.21,0,0,0-.76-.13Z" transform="translate(10.93)"/><path class="cls-9" d="M167.85,23.45l-9.09-8.53a2,2,0,0,0-2.74,0l-9.09,8.53Z" transform="translate(10.93)"/><path d="M167.85,23.82a.37.37,0,0,1-.26-.1l-9.09-8.53a1.61,1.61,0,0,0-2.22,0l-9.09,8.53a.37.37,0,0,1-.53,0,.38.38,0,0,1,0-.53l9.09-8.53a2.39,2.39,0,0,1,3.25,0l9.08,8.53a.38.38,0,0,1,0,.53A.36.36,0,0,1,167.85,23.82Z" transform="translate(10.93)"/><path class="cls-9" d="M164.67,24.91v8.65a1.23,1.23,0,0,1-1.23,1.23h-12.1a1.23,1.23,0,0,1-1.23-1.23V24.91Z" transform="translate(10.93)"/><path d="M163.44,35.16h-12.1a1.6,1.6,0,0,1-1.6-1.6V24.91a.38.38,0,0,1,.75,0v8.65a.85.85,0,0,0,.85.85h12.1a.85.85,0,0,0,.85-.85V24.91a.38.38,0,0,1,.38-.37.37.37,0,0,1,.37.37v8.65A1.6,1.6,0,0,1,163.44,35.16Z" transform="translate(10.93)"/><path class="cls-12" d="M161.28,21.65A2.83,2.83,0,0,0,157.51,23a2.34,2.34,0,0,0-.13.35,1.6,1.6,0,0,0-.12-.35,2.83,2.83,0,0,0-5.11,2.42c.63,1.33,5.21,4.46,5.22,4.45s4.61-3.1,5.24-4.43A2.82,2.82,0,0,0,161.28,21.65Z" transform="translate(10.93)"/></g></g></svg>