<svg xmlns="http://www.w3.org/2000/svg" viewBox="0 0 215.42 215.34"><defs><style>.cls-1{fill:#e6ebf0;}.cls-2{fill:#aab6c2;}.cls-3{fill:#fff;}.cls-4{fill:#ff822e;}.cls-5{fill:#33373b;}</style></defs><g id="Слой_2" data-name="Слой 2"><g id="Layer_1" data-name="Layer 1"><rect x="11.25" y="213.9" width="189.8" height="1.44"/><path class="cls-1" d="M5.48,111C13,62.23,55.4-27.85,117.58,8.37c53.38,31.1,16.65,68.82,60.54,84.35C253.05,119.22,187.93,231,97,211.66S-1.51,156.43,5.48,111Z"/><path class="cls-1" d="M156.2,24.41c-3.52,17.8,2.66,51,37.43,62.31s22.7-15.94,0-38.16S161.52-2.39,156.2,24.41Z"/><path class="cls-2" d="M173.77,159.78H156V150h17.82Zm-16.8-1h15.78V151H157Z"/><path class="cls-2" d="M186,168.52H168.15v-9.76H186Zm-16.8-1H185v-7.72H169.18Z"/><path class="cls-2" d="M129.82,75.84H112V66.08h17.83Zm-16.81-1h15.78V67.1H113Z"/><path class="cls-2" d="M98.49,183.67H80.66V173.9H98.49Zm-16.8-1H97.47v-7.73H81.69Z"/><path class="cls-2" d="M115.31,183.67H97.48V173.9h17.83Zm-16.8-1h15.78v-7.73H98.51Z"/><path class="cls-2" d="M106.89,192.41H89.06v-9.76h17.83Zm-16.8-1h15.78v-7.72H90.09Z"/><path class="cls-2" d="M72.64,127.49H54.81v-9.76H72.64Zm-16.8-1H71.62v-7.72H55.84Z"/><path class="cls-2" d="M60.43,136.24H42.61v-9.77H60.43Zm-16.8-1H59.41v-7.73H43.63Z"/><path class="cls-2" d="M42.85,87.32H25V77.55H42.85Zm-16.8-1H41.83V78.57H26.05Z"/><path class="cls-2" d="M59.68,87.32H41.85V77.55H59.68Zm-16.81-1H58.65V78.57H42.87Z"/><path class="cls-2" d="M51.25,96.06H33.43V86.29H51.25Zm-16.8-1H50.23V87.32H34.45Z"/><polygon points="49.84 35.96 52.37 35.96 50.91 15.13 48.38 15.13 49.84 35.96"/><polygon points="75.93 213.85 77.19 213.85 58.25 145 56.99 145 75.93 213.85"/><rect x="53.07" y="145" width="1.21" height="68.85"/><polygon points="30.05 213.85 31.31 213.85 50.25 145 48.98 145 30.05 213.85"/><polygon points="67.09 183.28 56.44 145 58.96 145 69.62 183.28 67.09 183.28"/><rect x="52.42" y="145" width="2.52" height="38.27"/><polygon points="37.62 183.28 48.39 145 50.92 145 40.15 183.28 37.62 183.28"/><rect x="48.39" y="145" width="10.57" height="2.68"/><polygon points="45.25 19.93 54.72 19.93 54.53 17.25 45.06 17.25 45.25 19.93"/><polygon points="99.37 147.25 7.3 147.25 0 19.69 92.06 19.69 99.37 147.25"/><polygon class="cls-2" points="101.83 147.25 9.77 147.25 2.47 19.69 94.53 19.69 101.83 147.25"/><polygon class="cls-3" points="13.35 144.26 5.7 22.67 90.95 22.67 98.6 144.26 13.35 144.26"/><path d="M90.72,22.92,98.34,144H13.58L6,22.92Zm.46-.5H5.43l7.69,122.09H98.87L91.18,22.42Z"/><rect x="23.33" y="77.84" width="9.59" height="0.39"/><rect x="51.72" y="31.87" width="15.37" height="0.39"/><rect x="88.51" y="34" width="0.39" height="9.36" transform="matrix(1, -0.07, 0.07, 1, -2.48, 6.28)"/><rect x="76.07" y="60.02" width="8.69" height="0.39"/><rect x="35.68" y="77.84" width="36.32" height="0.39"/><rect x="14.79" y="43.17" width="0.39" height="12.58" transform="translate(-3.41 1.17) rotate(-4)"/><rect x="15.36" y="43.34" width="0.39" height="12.42" transform="translate(-3.42 1.21) rotate(-4)"/><rect x="32.11" y="28.62" width="0.39" height="9.83" transform="translate(-2.26 2.33) rotate(-4)"/><path d="M42.44,36.15h-.2c-7.31,0-8.77-7.41-8.78-7.49l.38-.07c0,.29,1.39,7,8.19,7.17l-.48-6.86.39,0Z"/><polygon points="22.71 78.05 21.78 64.82 41.09 64.82 40.77 60.23 41.16 60.2 41.51 65.21 22.2 65.21 23.09 78.02 22.71 78.05"/><path d="M67.76,74H62.15l-.71-10.12h5.61Zm-5.25-.39h4.83l-.65-9.34H61.86Z"/><path d="M58.19,48.47H50.44v-.18l-1-14.47H79.73l.52,7.34H57.68Zm-7.39-.38h7l-.51-7.32H79.83l-.46-6.56H49.83Z"/><path d="M30.41,53.66h-8l-.57-8.19h8Zm-7.68-.39H30l-.52-7.41H22.21Z"/><polygon points="36.88 77.67 36.23 68.25 31.43 68.25 32.08 77.64 31.7 77.67 31.01 67.86 36.59 67.86 37.27 77.64 36.88 77.67"/><path d="M71.41,58.53H58.24l-.17-2.47H71.24Zm-12.8-.39H71l-.12-1.69H58.49Z"/><rect x="17.01" y="67.87" width="5.19" height="0.39"/><rect x="17.32" y="72.21" width="5.19" height="0.39"/><rect x="57.03" y="34" width="0.39" height="6.97" transform="translate(-2.47 4.08) rotate(-4)"/><rect x="50.12" y="40.95" width="7.1" height="0.39"/><polygon points="51.56 48.29 50.62 34.85 79.63 34.85 79.63 35.24 51.04 35.24 51.95 48.27 51.56 48.29"/><polygon points="27.5 38.63 26.74 27.81 34.23 27.81 34.23 29.45 28.5 29.45 29.13 38.52 27.5 38.63"/><polygon points="45.4 38.63 44.75 29.45 41.72 29.45 41.72 27.81 46.28 27.81 47.03 38.52 45.4 38.63"/><rect x="45.76" y="31.25" width="7.46" height="1.64"/><polygon points="87.69 36.01 87.47 32.88 64.63 32.88 64.63 31.25 89 31.25 89.33 35.9 87.69 36.01"/><polygon points="91.08 61.03 83.85 61.03 83.85 59.39 89.33 59.39 88.07 41.46 89.71 41.35 91.08 61.03"/><rect x="48.57" y="59.39" width="28.8" height="1.64"/><rect x="16.01" y="59.39" width="26.59" height="1.64"/><polygon points="14.02 43.41 13.62 37.75 34.34 37.75 34.34 39.39 15.38 39.39 15.65 43.29 14.02 43.41"/><polygon points="24.27 78.86 16.49 78.86 14.86 55.53 16.5 55.42 18.02 77.22 24.27 77.22 24.27 78.86"/><rect x="30.55" y="77.22" width="8.3" height="1.64"/><polygon points="77.09 78.86 69.98 78.86 69.98 77.22 75.33 77.22 74.15 60.27 75.78 60.16 77.09 78.86"/><rect x="72.85" y="92.02" width="8.95" height="0.36"/><rect x="40.95" y="134.93" width="14.35" height="0.36"/><rect x="20.6" y="124.57" width="0.36" height="8.74" transform="translate(-8.95 1.76) rotate(-4)"/><rect x="24.46" y="108.66" width="8.11" height="0.36"/><rect x="36.37" y="92.02" width="33.9" height="0.36"/><rect x="89.41" y="113" width="0.36" height="11.74" transform="translate(-8.07 6.54) rotate(-4)"/><rect x="88.88" y="113" width="0.36" height="11.59" transform="translate(-8.07 6.5) rotate(-4)"/><rect x="73.24" y="129.15" width="0.36" height="9.18" transform="translate(-9.16 5.45) rotate(-4)"/><path d="M72,138.36c0-.27-1.29-6.57-7.64-6.7l.45,6.41-.37,0L64,131.3h.19c6.83,0,8.18,6.92,8.2,7Z"/><polygon points="65.16 108.85 64.83 104.18 82.86 104.18 82.02 92.21 82.38 92.19 83.25 104.54 65.22 104.54 65.52 108.83 65.16 108.85"/><path d="M46.22,105.39H41l-.66-9.45h5.23Zm-4.9-.37h4.51l-.61-8.71H40.71Z"/><path d="M57.45,133.48H29.15l-.48-6.85H49.74l-.48-6.83h7.23Zm-28-.36H57.06l-.9-13H49.65l.48,6.83H29.06Z"/><path d="M83.23,122.6h-7.5L75.2,115h7.5Zm-7.16-.37h6.77l-.48-6.91H75.59Z"/><polygon points="74.63 101.69 69.42 101.69 68.79 92.56 69.15 92.54 69.76 101.33 74.24 101.33 73.63 92.56 73.99 92.54 74.63 101.69"/><path d="M49.37,112.71H37.08l-.16-2.3H49.21Zm-11.95-.36H49l-.11-1.57H37.31Z"/><rect x="82.85" y="101.33" width="4.84" height="0.36"/><rect x="82.57" y="97.27" width="4.84" height="0.36"/><rect x="49.98" y="126.8" width="0.36" height="6.5" transform="matrix(1, -0.07, 0.07, 1, -8.95, 3.81)"/><rect x="50.16" y="126.46" width="6.63" height="0.36"/><polygon points="56.32 132.51 29.25 132.51 29.25 132.15 55.93 132.15 55.08 119.99 55.45 119.97 56.32 132.51"/><polygon points="78.62 139.09 71.62 139.09 71.62 137.56 76.98 137.56 76.39 129.09 77.91 128.99 78.62 139.09"/><polygon points="64.63 139.09 60.38 139.09 59.68 129.09 61.2 128.99 61.8 137.56 64.63 137.56 64.63 139.09"/><rect x="53.9" y="134.35" width="6.96" height="1.53"/><polygon points="43.25 135.88 20.5 135.88 20.19 131.53 21.72 131.43 21.92 134.35 43.25 134.35 43.25 135.88"/><polygon points="19.84 126.45 18.55 108.07 25.3 108.07 25.3 109.6 20.19 109.6 21.36 126.34 19.84 126.45"/><rect x="31.36" y="108.07" width="26.88" height="1.53"/><rect x="63.81" y="108.07" width="24.82" height="1.53"/><polygon points="90.87 129.8 71.52 129.8 71.52 128.27 89.22 128.27 88.97 124.63 90.5 124.53 90.87 129.8"/><polygon points="88.18 113.31 86.76 92.96 80.93 92.96 80.93 91.43 88.18 91.43 89.71 113.2 88.18 113.31"/><rect x="67.31" y="91.43" width="7.75" height="1.53"/><polygon points="32.84 108.89 31.61 91.43 38.25 91.43 38.25 92.96 33.26 92.96 34.36 108.78 32.84 108.89"/><rect x="42.61" y="147.22" width="22.13" height="2.68"/><polygon points="53.86 191.09 72.09 197.33 72.09 196.27 53.86 190.02 53.86 191.09"/><polygon points="35.2 197.24 53.49 191.09 53.49 190.02 35.2 196.17 35.2 197.24"/><path class="cls-4" d="M159.84,28.51a16.56,16.56,0,1,1-16.67-16.44A16.56,16.56,0,0,1,159.84,28.51Z"/><path class="cls-3" d="M141.36,38.38c-1.53-.08-4.27-2.86-8.15-8.26A1.48,1.48,0,0,1,133,29a1.45,1.45,0,0,1,1.44-1.22,1.46,1.46,0,0,1,1.2.61,53.21,53.21,0,0,0,5.31,6.43l.22.21.16-.27c2.42-4,9.51-15.16,9.58-15.27a1.47,1.47,0,0,1,2.48,1.57c-2.59,4.09-9.47,15-10.2,16.33a1.86,1.86,0,0,1-1.51,1h-.28Z"/><path d="M152.11,19.08h0a1.23,1.23,0,0,1,.65.19,1.22,1.22,0,0,1,.38,1.68c-2.59,4.09-9.48,15-10.21,16.34a1.59,1.59,0,0,1-1.31.83h-.25c-1.43-.08-4.18-2.9-8-8.16a1.2,1.2,0,0,1-.22-.9,1.22,1.22,0,0,1,.5-.8,1.16,1.16,0,0,1,.7-.22,1.24,1.24,0,0,1,1,.5A52.4,52.4,0,0,0,140.74,35l.45.42.32-.53c2.32-3.82,8.84-14.1,9.57-15.26a1.21,1.21,0,0,1,1-.57Zm0-.5a1.71,1.71,0,0,0-1.45.8c-.33.52-7.2,11.36-9.58,15.27a51.75,51.75,0,0,1-5.28-6.39,1.72,1.72,0,0,0-2.79,2c5.41,7.53,7.42,8.32,8.33,8.37h.31a2.09,2.09,0,0,0,1.72-1.09c.72-1.33,7.6-12.23,10.19-16.31a1.72,1.72,0,0,0-1.45-2.64Z"/><path d="M41.31,78.09l-1,.79a.22.22,0,0,0,.09.38l1.28.24a1,1,0,0,0,.42,0l16.87-4a.83.83,0,0,0,.61-1h0a.83.83,0,0,0-1-.61L41.69,77.91A.89.89,0,0,0,41.31,78.09Z"/><rect class="cls-3" x="57.92" y="73.99" width="0.36" height="1.63" transform="translate(-15.87 15.64) rotate(-13.51)"/><path class="cls-3" d="M88,72.79c-.19,0-.39,0-.6,0s-.12,0-.14-.09a2.9,2.9,0,0,1,.34-1.7l0,0V67.5L92,65.69v5a5.21,5.21,0,0,1-4,2.12Z"/><path d="M91.75,66.07v4.51A4.39,4.39,0,0,1,87.5,72.5a3.34,3.34,0,0,1,.35-1.44l.05-.1V67.67l3.85-1.6Zm.5-.75-4.85,2v3.53s-.92,2,0,2.13A4.7,4.7,0,0,0,88,73a5.44,5.44,0,0,0,4.22-2.29V65.32Z"/><path class="cls-3" d="M88.53,67.82a4.25,4.25,0,0,1-3.12-1.5,3.1,3.1,0,0,1-.89-2.3,24.28,24.28,0,0,1,1.84-6.24L94,58.4c.13.94.52,5.24-2.54,8.13a4.26,4.26,0,0,1-2.92,1.29Z"/><path d="M86.52,58.05l7.24.58c.14,1.21.31,5.08-2.48,7.72a3.73,3.73,0,0,1-5.68-.19,2.89,2.89,0,0,1-.83-2.11,23.51,23.51,0,0,1,1.75-6Zm-.31-.53A24.37,24.37,0,0,0,84.27,64c-.22,1.7,1.79,4.08,4.26,4.08a4.49,4.49,0,0,0,3.09-1.36c3.58-3.38,2.58-8.54,2.58-8.54l-8-.65Z"/><path d="M95.11,62s0-.16.1-.32a2.48,2.48,0,0,0-.5-2.52.67.67,0,0,0-.89-.08h0c-1-.08-6.35.85-6.49,1.53-.23,1.14-1.1,3.7-.11,4.45,2.29,1.75,5.79,1.11,6.61.87,1-.28,1-1.49,1.28-2.24a1.78,1.78,0,0,0,.23-1.27A2.3,2.3,0,0,0,95.11,62Z"/><path d="M87.2,55.88c-.84-.53-1.9-.9-2.66,0-1,1.13.06,2.44.93,3.2a.57.57,0,0,0,.89-.2c1.1.59.27,1.52,1.29,2,1.5.73,5.75,1.84,6.83-.52C96.31,56.35,90.06,53.71,87.2,55.88Z"/><path class="cls-3" d="M121.92,209.67c-.22,0-.32,0-.33-.07s0-.39-.09-.72c-.46-3.39-.58-5.25-.37-5.55,0,0,.18-.19,1.41-.19a12.78,12.78,0,0,1,3.21.37c.2,1.32.31,4.52,0,4.85A9.81,9.81,0,0,1,121.92,209.67Z"/><path d="M122.54,203.39a14.38,14.38,0,0,1,3,.31c.17,1.3.27,4.06,0,4.49a9.77,9.77,0,0,1-3.62,1.23h-.1c0-.15,0-.34-.07-.57a24.75,24.75,0,0,1-.43-5.33,3.48,3.48,0,0,1,1.22-.13Zm0-.5a2.71,2.71,0,0,0-1.61.29c-.46.59.33,5.63.42,6.44,0,.22.24.3.57.3a9.78,9.78,0,0,0,4-1.38c.5-.49.26-4.2.09-5.17,0-.2-2-.48-3.44-.48Z"/><path d="M126.52,205.86l-6.22.67c-3.24-10.73-11.91-29.06-13.19-40.31-2-17.48-4.37-36.19-4.47-40.8,0-.73,0-1.13,0-1.13,4.28-5.21,11.54-7.33,14.77-7.71,1.27-.16,2.2.09,2.61.76a48.24,48.24,0,0,1,3.13,6.13c5.21,12.37.83,19.85.92,35.94,0,.93,0,1.88,0,2.83.16,6.65-1.63,14.84.28,21.79C128.11,197.66,126.52,205.86,126.52,205.86Z"/><path d="M113.13,187c-2.8-7.47-5.37-15.05-6-20.78-1.39-12.3-3-25.19-3.84-33.37l5.29-1a68.77,68.77,0,0,1-.36,12.07c-.8,7.45,3.13,38.31,4.93,43.06Z"/><path d="M126.26,207.41s2.44,3.48.7,6.21c0,0-12.67.6-16.49,0,0,0-.1-4.67,3.18-5.07s7.48-.57,7.48-.57A3.84,3.84,0,0,0,126.26,207.41Z"/><path class="cls-3" d="M94.34,209.25c-.62,0-.77-.13-.77-.16,0-.19-.09-.58-.18-1.08-.2-1.18-.74-4.31-.45-4.69,0,0,.2-.2,1.56-.2a17.77,17.77,0,0,1,3.81.39c.2,1.33.3,4.52,0,4.85A10.46,10.46,0,0,1,94.34,209.25Z"/><path d="M94.5,203.37h0a19.1,19.1,0,0,1,3.59.34,16.12,16.12,0,0,1,0,4.47,11.06,11.06,0,0,1-3.77.82,2,2,0,0,1-.54-.06c0-.21-.09-.54-.16-1a23.41,23.41,0,0,1-.52-4.47,4.46,4.46,0,0,1,1.38-.13Zm0-.5a3.12,3.12,0,0,0-1.76.29c-.47.59.49,5.14.58,6,0,.28.44.39,1,.39a10.24,10.24,0,0,0,4.11-1c.5-.49.25-4.2.09-5.17,0-.2-2.33-.5-4-.5Z"/><path d="M98.82,207.41s2.43,3.48.69,6.21c0,0-12.66.6-16.49,0,0,0-.09-4.67,3.18-5.07a61.85,61.85,0,0,1,7-.34S96.44,210,98.82,207.41Z"/><path d="M99.56,164a160.8,160.8,0,0,0-.33,24c0,.5,0,17.81,0,17.81l-7,.67c-3.81-11.37-11.09-36.88-11.09-48.21s1-30.2,5.14-39.15c4-8.51,19.69,3.14,21.4,5.33,2.64,3.39,1.59,14-1.94,19.09C101.72,149.42,99.88,160,99.56,164Z"/><path d="M108.29,137.08s.27-.38.36-.05,4.87-.48,4.87-.48l4.82-5.68-.61-7.9H103.27l-2,7.07,3.77,5.45Z"/><path d="M81.17,158.32c0-11.33,1-30.2,5.14-39.15,3.09-6.66,13.4-1,18.56,2.86a26.09,26.09,0,0,1,12.51-5.45c1.27-.16,2.2.09,2.61.76a48.24,48.24,0,0,1,3.13,6.13c.29.67.53,1.32.76,2,0,0-14.11,5.27-28.43,2.4s-12.88,42.89-11.27,50C82.43,170.21,81.17,163,81.17,158.32Z"/><path class="cls-3" d="M94.29,110.94a.46.46,0,0,1-.22-.07,2.42,2.42,0,0,1,.43-.63c.31-.37.59-.72.52-1a.5.5,0,0,0-.28-.34l0,0H94.6c-.18,0-.43.15-1,.49a5.83,5.83,0,0,1-1.79.84c-.07,0-.14-.09,0-.44a3.63,3.63,0,0,1,.53-.7c.54-.64.84-1,.7-1.32a.38.38,0,0,0-.4-.22h-.07l-.11,0-.51.33a4.92,4.92,0,0,1-1.94,1,.29.29,0,0,1-.28-.14,2.8,2.8,0,0,1,1.13-1.31c1.61-1,1.55-1.2,1.5-1.37l0-.18-.25,0a5.61,5.61,0,0,0-2.07,1,1.13,1.13,0,0,1-.6.25c-.07,0-.11,0-.13,0s0-.28.17-.65c1-1.73,3.51-2.35,5.48-2.35a8.42,8.42,0,0,1,.9,0A6.34,6.34,0,0,1,99,106.41a1.53,1.53,0,0,1,.26,1.34c-.14.4-.37.43-.77.5a2.56,2.56,0,0,0-.71.18,5.87,5.87,0,0,0-1.31,1c-.69.65-1.55,1.46-2.09,1.46Z"/><path d="M94.89,104.27a6.31,6.31,0,0,1,.88,0,6.12,6.12,0,0,1,3,2.22,1.31,1.31,0,0,1,.24,1.12c-.09.25-.16.27-.59.34a3.44,3.44,0,0,0-.76.2,6,6,0,0,0-1.38,1.1,6.51,6.51,0,0,1-1.8,1.37,2.13,2.13,0,0,1,.22-.27c.34-.42.66-.81.57-1.26a.76.76,0,0,0-.42-.51l-.13-.06H94.6c-.24,0-.47.14-1.11.52a8.88,8.88,0,0,1-1.49.78.19.19,0,0,0,0-.08,6,6,0,0,1,.49-.62c.55-.65,1-1.12.74-1.59a.64.64,0,0,0-.63-.36h-.2l-.11.06-.52.35a5.17,5.17,0,0,1-1.8.93,3.38,3.38,0,0,1,1-1c1.5-.94,1.73-1.25,1.61-1.65a.53.53,0,0,0-.54-.39,5.73,5.73,0,0,0-2.22,1.08,1.39,1.39,0,0,1-.33.18,1.22,1.22,0,0,1,.14-.3c1-1.65,3.44-2.23,5.26-2.23Zm0-.5c-2.07,0-4.63.68-5.69,2.47-.4.68-.24,1.08.17,1.08a1.35,1.35,0,0,0,.74-.29A5.68,5.68,0,0,1,92,106c.22,0-.07.33-1.34,1.12-.52.32-1.45,1.26-1.2,1.65a.55.55,0,0,0,.49.26c.74,0,1.93-.95,2.59-1.35h0c.75,0-1,1.48-1.07,1.92s0,.76.28.76c.74,0,2.47-1.33,2.77-1.33h0c.78.39-1.77,1.89-.38,2.1h.11c1,0,2.7-2.19,3.5-2.53s1.33,0,1.62-.83c.64-1.79-2.75-3.91-3.66-4a9,9,0,0,0-.93,0Z"/><path class="cls-3" d="M95.47,104a1.32,1.32,0,0,1-.38,0,2.53,2.53,0,0,1-.52-.22,3,3,0,0,0-.49-.21,2.68,2.68,0,0,1-1-.58c-.09-.1-.11-.17-.1-.19a.61.61,0,0,1,.47-.15A6,6,0,0,1,96.08,104,5.93,5.93,0,0,1,95.47,104Z"/><path d="M93.44,102.9h0a4.41,4.41,0,0,1,1.83.88l-.15,0a3.08,3.08,0,0,1-.48-.2,4.67,4.67,0,0,0-.51-.23,2.33,2.33,0,0,1-.83-.42Zm0-.5c-.46,0-1,.25-.56.75a2.53,2.53,0,0,0,1.12.65c.35.12.68.35,1,.45a2.36,2.36,0,0,0,.44,0,4,4,0,0,0,1.24-.13c-.67-.5-2.33-1.71-3.21-1.75Z"/><path class="cls-3" d="M101.66,108.25c-.6,0-1.13,0-1.58,0-1.1-.1-1.86-.2-2.15-.24l-2-3.79c1.94-.17,10.49-1,14.6-3.08q2.63-1.31,2.19-3c0-.06-1.74-6.27-5-8.1l-.36-.2c-1.13-.62-2.33-1.24-3.55-1.83a13.88,13.88,0,0,1-6.54-6.54A14.37,14.37,0,0,1,95.89,74,4.07,4.07,0,0,1,100,70.32a4.29,4.29,0,0,1,1.72.37,73.12,73.12,0,0,1,14.93,8.6l0,0,.09.06.69.5a15,15,0,0,1,1.93,1.81A30.53,30.53,0,0,1,122,85.3a21.56,21.56,0,0,1,3.42,9.94c.34,4.47-1,7.41-4,9-5.18,2.73-14.85,4-19.77,4Z"/><path d="M100,70.57a3.92,3.92,0,0,1,1.61.35,72.91,72.91,0,0,1,14.88,8.56l.07,0h0l0,0h0l.69.51a13.28,13.28,0,0,1,1.9,1.78,29.7,29.7,0,0,1,2.59,3.58,21.47,21.47,0,0,1,3.38,9.83c.33,4.35-.93,7.22-3.87,8.77-5.13,2.71-14.76,4-19.65,4-.6,0-1.12,0-1.56,0-.95-.09-1.66-.17-2-.22l-1.79-3.34c2.5-.24,10.39-1.12,14.31-3.07,1.87-.93,2.65-2,2.32-3.28,0-.07-1.71-6.35-5.15-8.25a3.24,3.24,0,0,0-.36-.2l-.09,0c-1.06-.58-2.26-1.2-3.48-1.8a13.56,13.56,0,0,1-6.42-6.42A14.08,14.08,0,0,1,96.14,74,3.83,3.83,0,0,1,100,70.57Zm0-.5A4.36,4.36,0,0,0,95.64,74,14.55,14.55,0,0,0,97,81.53a14.12,14.12,0,0,0,6.66,6.66c1.06.52,2.27,1.14,3.46,1.79.15.08.3.15.44.24,3,1.65,4.68,7,4.92,8,.28,1.07-.58,2-2.06,2.7C105.83,103.15,95.5,104,95.5,104l2.27,4.24s.86.13,2.29.26c.45,0,1,0,1.6,0,5,0,14.74-1.31,19.88-4,3.47-1.83,4.45-5.22,4.14-9.26a21.79,21.79,0,0,0-3.46-10.06,30,30,0,0,0-2.64-3.64,13.72,13.72,0,0,0-2-1.85l-.71-.52h0l-.09-.07a73.55,73.55,0,0,0-15-8.61,4.44,4.44,0,0,0-1.82-.4Z"/><path class="cls-4" d="M108,92.11c-1.22-.68-9-5.09-11.51-10.84-1.15-2.61-2-9.42,1.14-11.11,5.11-2.7,14.47,3.28,21.07,7.92C117.79,83.88,113.7,88.85,108,92.11Z"/><path d="M112.28,80.06A39,39,0,0,1,117,83.25a29.7,29.7,0,0,1-2.14,3.3c-1.19,1.57-3.5-5.09-3.5-5.09Z"/><path class="cls-4" d="M83,94.1a67.25,67.25,0,0,1,3.41,7.48c1.8,5.7-3.16,15-2.29,19.25.79,1,12.27,5.8,20.91,6.11,11.25.41,20.48-2.49,20.59-4.13s-5.24-22.28-8.19-30.58C114.12,83,109.59,74.1,107,71.47a4.85,4.85,0,0,0-.57-.5A7.92,7.92,0,0,0,103,69.76c-8.16-1.32-20.82,2.34-25.81,6.73C76.1,80.66,79.78,87.67,83,94.1Z"/><path d="M85.9,100.34A29.45,29.45,0,0,0,87.73,87C86.92,80,82,92.11,82,92.11l2,4.1S85,98.24,85.9,100.34Z"/><path class="cls-3" d="M65.07,105.53c-1.22,0-2.65-.92-4.25-2.75C56,97.27,50.89,85.15,51.34,81.7c.07-.5.46-1.1,1.95-1.1a8.23,8.23,0,0,1,1.67.19c.3.08,1.08.92,4,4.23,2.66,3,7.13,8,7.86,8.08.49-.25,2.23-2.89,3.92-5.44l.57-.84.46-.67c3.94-5.9,5.39-7.56,9.61-9.2a2.14,2.14,0,0,1,.76-.15,1.65,1.65,0,0,1,1.24.58c2,2.19,1.42,10.23,1.39,10.58a17,17,0,0,1-.42,3.75c-.43,2.09-1.28,3.62-3.36,6l-.08.09s-.09.1-.13.16c-.45.51-1,1-1.53,1.59-.42.38-.84.74-1.3,1.12-.28.22-.58.44-.87.65a23.16,23.16,0,0,1-11.85,4.17Z"/><path d="M82.17,77.05c3.24,0,2.38,10.89,2.38,10.89a16.43,16.43,0,0,1-.41,3.72c-.45,2.14-1.33,3.61-3.31,5.93a3,3,0,0,0-.22.26c-.45.52-1,1-1.5,1.56-.41.37-.84.73-1.29,1.11-.27.21-.56.43-.86.63a22.63,22.63,0,0,1-11.72,4.13h-.17c-5.28,0-14-19.24-13.48-23.55.1-.71.91-.88,1.7-.88A8.26,8.26,0,0,1,54.9,81c.67.18,10.66,12.32,11.95,12.32h.06C67.49,93.06,69,90.8,71,87.8l.39-.56c.2-.31.4-.62.63-.95a.18.18,0,0,0,0-.07c4-6,5.38-7.45,9.45-9a1.71,1.71,0,0,1,.67-.14Zm0-.5h0a2.38,2.38,0,0,0-.85.17c-4.29,1.67-5.75,3.34-9.69,9.22v0h0l0,0q-.24.33-.45.66L71,87l-.17.25-.22.32a47.22,47.22,0,0,1-3.76,5.28c-1-.55-5.14-5.16-7.63-8-3.25-3.65-3.79-4.22-4.14-4.31a8.83,8.83,0,0,0-1.74-.2c-1.75,0-2.13.82-2.2,1.32-.45,3.5,4.67,15.73,9.54,21.28,1.65,1.88,3.15,2.83,4.44,2.83h.21a23.29,23.29,0,0,0,12-4.22c.33-.23.63-.45.88-.66.47-.38.9-.75,1.31-1.12.6-.58,1.1-1.1,1.55-1.6l.14-.17.09-.11c2.1-2.45,3-4,3.41-6.14A17.21,17.21,0,0,0,85.05,88c.08-1,.59-8.53-1.45-10.74a1.9,1.9,0,0,0-1.43-.66Z"/><path d="M64.2,92.13a7.72,7.72,0,0,0,.73,2.42,1.92,1.92,0,0,0,1.82,1A4.63,4.63,0,0,0,69.29,94c7.23-7.64,6.23-12.4,5.95-12.54-.23.32-3.67,5.47-3.87,5.78L71,87.8c-2,3-3.47,5.3-4.07,5.54S63.82,90.17,64.2,92.13Z"/><path class="cls-3" d="M52.19,83.22a4.35,4.35,0,0,1-1.93-.6c-1.3-.52-1.62-1.48-1.52-2a.5.5,0,0,1,.09-.24A1.49,1.49,0,0,1,48.31,79a.64.64,0,0,1,.17-.3,1.65,1.65,0,0,1-.1-1.39,1,1,0,0,1,.47-.55A9.5,9.5,0,0,0,46.56,76a1,1,0,0,1-.89-.79.78.78,0,0,1,.52-.81,1.6,1.6,0,0,1,.64-.11,9.92,9.92,0,0,1,2.9.66,10.15,10.15,0,0,1,3.53,2,.81.81,0,0,1,.05-.46.78.78,0,0,1,1.13-.45,2.35,2.35,0,0,1,1.37,1.57,19.07,19.07,0,0,1-.12,4,.42.42,0,0,1-.43.29h0a1.58,1.58,0,0,1-.59-.16,2.74,2.74,0,0,1-1.9,1.45A4.26,4.26,0,0,1,52.19,83.22Z"/><path d="M46.83,74.54a10.83,10.83,0,0,1,2.82.64,8.64,8.64,0,0,1,4.31,3,2,2,0,0,1,.27-.31,4.3,4.3,0,0,0-.54-.58.62.62,0,0,1,.36-1.06.54.54,0,0,1,.26.07,2.1,2.1,0,0,1,1.26,1.4,20.77,20.77,0,0,1-.12,3.83.18.18,0,0,1-.19.12,2.2,2.2,0,0,1-.7-.23,2.58,2.58,0,0,1-1.83,1.52,3.74,3.74,0,0,1-.54,0,4.21,4.21,0,0,1-1.82-.57c-1.63-.66-1.57-2-1.16-2h.06c-.87-.55-.92-1.58-.41-1.62-.56-.53-.44-1.87.43-1.87a1.19,1.19,0,0,1,.45.1,8.47,8.47,0,0,0-3.14-1.26c-.75-.13-.93-.86-.32-1.13a1.47,1.47,0,0,1,.55-.09Zm0-.5h0a1.87,1.87,0,0,0-.75.13,1,1,0,0,0-.66,1.07,1.25,1.25,0,0,0,1.1,1,8.68,8.68,0,0,1,1.86.58,1.49,1.49,0,0,0-.23.39,1.89,1.89,0,0,0,0,1.46.81.81,0,0,0-.11.27,1.67,1.67,0,0,0,.46,1.48.74.74,0,0,0,0,.14c-.12.6.24,1.71,1.7,2.29a4.48,4.48,0,0,0,2,.61,3.78,3.78,0,0,0,.62-.06,2.86,2.86,0,0,0,2-1.38,1.48,1.48,0,0,0,.49.1.7.7,0,0,0,.67-.45,19.63,19.63,0,0,0,.13-4.09,2.63,2.63,0,0,0-1.51-1.75,1,1,0,0,0-.5-.13,1.07,1.07,0,0,0-1,.71.43.43,0,0,0,0,0,10.68,10.68,0,0,0-3.25-1.76,10.42,10.42,0,0,0-3-.67Z"/><path class="cls-4" d="M89,81.22a14.51,14.51,0,0,1-.64,4.85S83.4,97.66,82.1,99.53a15.25,15.25,0,0,1-10.92-14c3.26-6,4.55-8.36,8.19-10.62C81.61,73.5,89.08,75.86,89,81.22Z"/><path class="cls-3" d="M55.53,81.13a1.14,1.14,0,0,0,.4.87c.44.46-2.48,2.64-2.48,2.64l-1.76-1.17a.4.4,0,0,0-.19-.61c-.47-.23.06-1.91.86-2.22a5.12,5.12,0,0,1,2.44-.5C55.16,80.33,55.53,81.13,55.53,81.13Z"/><polygon class="cls-4" points="191.97 152.71 190.04 155.98 114.25 155.98 112.32 152.71 191.97 152.71"/><polygon class="cls-4" points="196.79 213.9 198.51 213.9 188.97 155.98 185.31 155.98 196.79 213.9"/><polygon class="cls-4" points="178.04 213.9 179.77 213.9 170.22 155.98 166.57 155.98 178.04 213.9"/><polygon class="cls-4" points="124.05 213.9 122.32 213.9 131.86 155.98 135.52 155.98 124.05 213.9"/><polygon class="cls-4" points="142.16 213.9 140.43 213.9 149.97 155.98 153.63 155.98 142.16 213.9"/><polygon class="cls-2" points="213.97 152.71 212.04 155.98 187.21 155.98 186.09 152.71 213.97 152.71"/><polygon class="cls-5" points="177.99 122.71 180.57 120.64 180.62 116.54 177.99 116.54 177.99 122.71"/><rect class="cls-2" x="175.65" y="116.54" width="2.34" height="6.17"/><rect x="177.75" y="116.1" width="3.3" height="0.87" transform="translate(358.79 233.07) rotate(180)"/><rect class="cls-5" x="175.34" y="116.1" width="2.4" height="0.87" transform="translate(353.09 233.07) rotate(180)"/><polygon points="194.37 127.23 178.64 127.23 170.78 119.62 186.51 119.62 194.37 127.23"/><polygon class="cls-2" points="192.88 127.23 178.64 127.23 175.48 119.62 185.02 119.62 192.88 127.23"/><rect class="cls-2" x="178.69" y="127.23" width="14.19" height="25.48"/><rect x="181.89" y="140.76" width="6.99" height="11.95" transform="translate(370.77 293.47) rotate(180)"/><polygon class="cls-4" points="182.29 152.66 182.34 140.76 189.28 140.81 189.22 152.66 182.29 152.66"/><path d="M189.17,140.86V152.6h-6.78V140.86Zm.11-.1h-7v12h7v-12Z"/><path d="M183.58,125c0,1.47.85,2.66,1.89,2.66s1.89-1.19,1.89-2.66-.85-2.66-1.89-2.66S183.58,123.52,183.58,125Z"/><path class="cls-3" d="M183.9,125c0,1.47.84,2.66,1.88,2.66s1.89-1.19,1.89-2.66-.84-2.66-1.89-2.66S183.9,123.52,183.9,125Z"/><path d="M185.78,127.79c-1.12,0-2-1.26-2-2.8s.9-2.8,2-2.8,2,1.25,2,2.8S186.9,127.79,185.78,127.79Zm0-5.32c-1,0-1.74,1.13-1.74,2.52s.78,2.52,1.74,2.52,1.75-1.13,1.75-2.52S186.75,122.47,185.78,122.47Z"/><path class="cls-3" d="M185.78,122.33v0Z"/><rect x="185.71" y="122.33" width="0.14" height="5.33"/><path class="cls-3" d="M187.67,125h0Z"/><rect x="183.9" y="124.92" width="3.78" height="0.14"/><rect class="cls-5" x="164.53" y="127.23" width="14.19" height="25.48" transform="translate(343.25 279.94) rotate(180)"/><rect x="172.28" y="130.68" width="4.74" height="6.81" transform="translate(349.3 268.18) rotate(180)"/><rect class="cls-3" x="172.13" y="130.82" width="4.46" height="6.53"/><path d="M176.45,131v6.26h-4.18V131Zm.28-.28H172v6.82h4.74v-6.82Z"/><path class="cls-3" d="M174.36,130.81v0Z"/><rect x="174.29" y="130.81" width="0.14" height="6.59"/><path class="cls-3" d="M176.63,134.11h0Z"/><rect x="171.99" y="134.04" width="4.63" height="0.14"/><rect x="166.3" y="130.68" width="4.74" height="6.81" transform="translate(337.33 268.18) rotate(180)"/><rect class="cls-3" x="166.18" y="130.82" width="4.46" height="6.53"/><path d="M170.5,131v6.26h-4.18V131Zm.28-.28H166v6.82h4.74v-6.82Z"/><path class="cls-3" d="M168.41,130.81v0Z"/><rect x="168.34" y="130.81" width="0.14" height="6.59"/><path class="cls-3" d="M170.68,134.11h0Z"/><rect x="166.04" y="134.04" width="4.63" height="0.14"/><rect x="179.98" y="130.68" width="4.74" height="6.81"/><rect class="cls-3" x="180.41" y="130.82" width="4.46" height="6.53"/><path d="M184.73,131v6.26h-4.18V131Zm.28-.28h-4.74v6.82H185v-6.82Z"/><path class="cls-3" d="M182.64,130.81v0Z"/><rect x="182.57" y="130.81" width="0.14" height="6.59"/><path class="cls-3" d="M180.37,134.11h0Z"/><rect x="180.37" y="134.04" width="4.63" height="0.14"/><rect x="185.96" y="130.68" width="4.74" height="6.81"/><rect class="cls-3" x="186.36" y="130.82" width="4.46" height="6.53"/><path d="M190.68,131v6.26H186.5V131Zm.28-.28h-4.74v6.82H191v-6.82Z"/><path class="cls-3" d="M188.59,130.81v0Z"/><rect x="188.52" y="130.81" width="0.14" height="6.59"/><path class="cls-3" d="M186.32,134.11h0Z"/><rect x="186.32" y="134.04" width="4.63" height="0.14"/><rect x="172.28" y="141.51" width="4.74" height="6.81" transform="translate(349.3 289.83) rotate(180)"/><rect class="cls-3" x="172.13" y="141.65" width="4.46" height="6.53"/><path d="M176.45,141.79V148h-4.18v-6.25Zm.28-.28H172v6.81h4.74v-6.81Z"/><path class="cls-3" d="M174.36,141.64v0Z"/><rect x="174.29" y="141.64" width="0.14" height="6.59"/><path class="cls-3" d="M176.63,144.93h0Z"/><rect x="171.99" y="144.86" width="4.63" height="0.14"/><rect x="166.3" y="141.51" width="4.74" height="6.81" transform="translate(337.33 289.83) rotate(180)"/><rect class="cls-3" x="166.18" y="141.65" width="4.46" height="6.53"/><path d="M170.5,141.79V148h-4.18v-6.25Zm.28-.28H166v6.81h4.74v-6.81Z"/><path class="cls-3" d="M168.41,141.64v0Z"/><rect x="168.34" y="141.64" width="0.14" height="6.59"/><path class="cls-3" d="M170.68,144.93h0Z"/><rect x="166.04" y="144.86" width="4.63" height="0.14"/><polygon points="163.04 127.49 178.77 127.49 186.63 119.88 170.9 119.88 162.92 127.23 163.04 127.49"/><polygon class="cls-4" points="162.92 127.18 170.82 119.66 186.51 119.68 178.63 127.18 162.92 127.18"/><path d="M186.25,119.73l-7.64,7.4H163.19l7.63-7.4Zm.26-.11H170.78l-7.86,7.61h15.73l7.86-7.61Z"/><path d="M188.88,146.55a.42.42,0,0,1-.41.41.41.41,0,0,1-.41-.41.41.41,0,0,1,.41-.41A.41.41,0,0,1,188.88,146.55Z"/><polygon class="cls-5" points="147.16 134.99 144.83 133.13 144.78 129.44 147.16 129.44 147.16 134.99"/><rect class="cls-2" x="147.16" y="129.44" width="2.11" height="5.56"/><rect x="144.41" y="129.04" width="2.97" height="0.78"/><rect class="cls-5" x="147.38" y="129.04" width="2.17" height="0.78"/><polygon points="132.41 139.07 146.57 139.07 153.65 132.21 139.48 132.21 132.41 139.07"/><polygon class="cls-2" points="133.75 139.07 146.57 139.07 149.42 132.21 140.82 132.21 133.75 139.07"/><rect class="cls-2" x="133.75" y="139.07" width="12.78" height="13.7"/><rect x="137.27" y="141.58" width="6.3" height="11.19"/><polygon class="cls-4" points="136.99 152.71 137.04 141.58 143.28 141.63 143.23 152.71 136.99 152.71"/><path d="M143.18,141.68v11h-6.09v-11Zm.11-.1H137v11.19h6.3V141.58Z"/><path d="M142.12,137.05c0,1.32-.76,2.39-1.7,2.39s-1.7-1.07-1.7-2.39.76-2.4,1.7-2.4S142.12,135.72,142.12,137.05Z"/><path class="cls-3" d="M141.84,137.05c0,1.32-.76,2.39-1.7,2.39s-1.7-1.07-1.7-2.39.76-2.4,1.7-2.4S141.84,135.72,141.84,137.05Z"/><path d="M140.14,139.57c-1,0-1.83-1.13-1.83-2.52s.82-2.53,1.83-2.53,1.82,1.13,1.82,2.53S141.14,139.57,140.14,139.57Zm0-4.8c-.87,0-1.58,1-1.58,2.28s.71,2.27,1.58,2.27,1.57-1,1.57-2.27S141,134.77,140.14,134.77Z"/><path class="cls-3" d="M140.14,134.65v0Z"/><rect x="140.07" y="134.65" width="0.13" height="4.8"/><path class="cls-3" d="M138.44,137.05h0Z"/><rect x="138.44" y="136.98" width="3.4" height="0.13"/><rect class="cls-5" x="146.5" y="139.07" width="12.78" height="13.7"/><rect x="148.03" y="142.17" width="4.27" height="6.14"/><rect class="cls-3" x="148.41" y="142.3" width="4.02" height="5.88"/><path d="M152.31,142.43v5.63h-3.77v-5.63Zm.25-.26h-4.27v6.14h4.27v-6.14Z"/><path class="cls-3" d="M150.42,142.29v0Z"/><rect x="150.36" y="142.29" width="0.13" height="5.94"/><path class="cls-3" d="M148.38,145.26h0Z"/><rect x="148.38" y="145.19" width="4.17" height="0.13"/><rect x="153.42" y="142.17" width="4.27" height="6.14"/><rect class="cls-3" x="153.78" y="142.3" width="4.02" height="5.88"/><path d="M157.67,142.43v5.63H153.9v-5.63Zm.25-.26h-4.27v6.14h4.27v-6.14Z"/><path class="cls-3" d="M155.78,142.29v0Z"/><rect x="155.72" y="142.29" width="0.13" height="5.94"/><path class="cls-3" d="M153.74,145.26h0Z"/><rect x="153.74" y="145.19" width="4.17" height="0.13"/><polygon points="160.62 139.29 146.46 139.29 139.38 132.44 153.54 132.44 160.73 139.07 160.62 139.29"/><polygon class="cls-4" points="146.56 139.01 139.52 132.18 153.65 132.27 160.6 139.01 146.56 139.01"/><path d="M153.61,132.32l6.86,6.64H146.6l-6.86-6.64Zm0-.11H139.48l7.08,6.86h14.17l-7.08-6.86Z"/><path d="M142.8,147.19a.48.48,0,1,1-.48-.48A.48.48,0,0,1,142.8,147.19Z"/></g></g></svg>