<svg xmlns="http://www.w3.org/2000/svg" viewBox="0 0 256.69 206.94"><defs><style>.cls-1{fill:#e6ebf0;}.cls-2{fill:#aab6c2;}.cls-3{fill:#fff;}.cls-4{fill:#ff822e;}.cls-5{fill:#191e3f;opacity:0.15;}.cls-6{fill:#33373b;}</style></defs><g id="Слой_2" data-name="Слой 2"><g id="Layer_1" data-name="Layer 1"><path class="cls-1" d="M106.18,5.22C136,11.1,151.27,44.91,199.34,75s37.48,147.55-38.44,128.39C88.48,185.1,85.13,186.55,37.69,188.23-21.68,190.35,11.71-13.39,106.18,5.22Z"/><path class="cls-1" d="M187.13,54.78c-14-11.15-25.67-30.61-19-49.35s20.33,16.15,31.36,27.77C215.39,50,216.45,78.11,187.13,54.78Z"/><rect x="13.89" y="205.5" width="207.14" height="1.44"/><path class="cls-2" d="M186.52,143.9H168.69v-9.76h17.83Zm-16.81-1h15.78v-7.72H169.71Z"/><path class="cls-2" d="M198.72,152.65H180.9v-9.77h17.82Zm-16.8-1H197.7V143.9H181.92Z"/><path class="cls-2" d="M142.56,60H124.73V50.2h17.83Zm-16.8-1h15.78V51.22H125.76Z"/><path class="cls-2" d="M111.23,167.79H93.41V158h17.82Zm-16.8-1h15.78V159H94.43Z"/><path class="cls-2" d="M128.05,167.79H110.23V158h17.82Zm-16.8-1H127V159H111.25Z"/><path class="cls-2" d="M119.63,176.53H101.81v-9.76h17.82Zm-16.8-1h15.78v-7.72H102.83Z"/><path class="cls-2" d="M85.38,111.62H67.56v-9.77H85.38Zm-16.8-1H84.36v-7.73H68.58Z"/><path class="cls-2" d="M73.18,120.36H55.35V110.6H73.18Zm-16.81-1H72.15v-7.72H56.37Z"/><path class="cls-2" d="M55.6,71.44H37.77V61.67H55.6Zm-16.81-1H54.57V62.7H38.79Z"/><path class="cls-2" d="M72.42,71.44H54.59V61.67H72.42Zm-16.8-1H71.4V62.7H55.62Z"/><path class="cls-2" d="M64,80.19H46.17V70.42H64Zm-16.8-1H63V71.44H47.2Z"/><path class="cls-2" d="M94.23,160.3a5.13,5.13,0,0,0,2.92-1,24.85,24.85,0,0,1-.43,5.38c-1.15,1.85-4.34,5.26-4.13,5.24a10.12,10.12,0,0,0,2.57-.59,19.37,19.37,0,0,1-2,3.19c-1.54,2.06-3.75,3.71-4.59,6.23a.13.13,0,0,1-.09.11.19.19,0,0,1-.31.14c-4.16-4-4.9-10-5.52-15.38,0-.26,0-.51-.08-.77a16.71,16.71,0,0,0,3.84,3c.2.11-2.61-4.39-4-6.46a12.14,12.14,0,0,1,.72-3.84,32,32,0,0,1,4.26-7.3l.21-.28a12.44,12.44,0,0,0,1.79,3.25,39.58,39.58,0,0,0-.56-4.87c.41-.51.82-1,1.24-1.5.55-.65,1.24-1.76,2.24-1.62s3.17,4.1,3.45,5.24c.12.48.23,1,.32,1.47,0,.21.09.43.13.64a59.25,59.25,0,0,1,.74,6l-.21.31C96,158.06,94,160.3,94.23,160.3Z"/><path d="M90.43,158.3c2.06-.31,3.63-1.6,5.14-2.94.22-.2-.06-.58-.29-.38-1.41,1.25-2.88,2.51-4.8,2.83.44-3.06,1-6.1,1.55-9.14.06-.3-.41-.37-.47-.07q-1.19,6-1.94,12.13a20,20,0,0,1-2.72-5.47c-.1-.29-.53-.11-.44.18a20.5,20.5,0,0,0,2.92,5.77.21.21,0,0,0,.17.09q-.17,1.33-.3,2.67a12.64,12.64,0,0,1-2-3.53.24.24,0,0,0-.44.17,13.19,13.19,0,0,0,2.29,3.92l.1.07q-.45,4.4-.68,8.8a.17.17,0,0,0,0,.1c-.06,1.08-.1,2.16-.11,3.23q0,1.05-.06,2.1a.19.19,0,0,0,.07.16,101.94,101.94,0,0,0,2.5,19.67l.45-.11a97.51,97.51,0,0,1-2.48-22.26c0-.79.06-1.58.1-2.37a.24.24,0,0,0,.21,0,7.9,7.9,0,0,0,2.15-2.2c.16-.25-.2-.55-.37-.3a7.39,7.39,0,0,1-2,2.05q.39-7.6,1.45-15.14Z"/><path class="cls-2" d="M74.1,171.92a5.08,5.08,0,0,1-2.77.24,18.39,18.39,0,0,0,1.93,3.9c1.52,1,5.22,2.52,5,2.58a10,10,0,0,1-2.35.39,15,15,0,0,0,2.59,1.76c1.91,1,4.27,1.56,5.71,3.17a.16.16,0,0,0,.12.06.17.17,0,0,0,.29,0c2.39-4.34,1.28-9.1.23-13.37,0-.2-.1-.4-.16-.6a15,15,0,0,1-2.39,3.51c-.14.15.94-4.15,1.51-6.16a8.76,8.76,0,0,0-1.73-2.66,25.32,25.32,0,0,0-5.75-4.08l-.25-.14a10,10,0,0,1-.58,3,28.37,28.37,0,0,1-.94-3.84c-.49-.25-1-.49-1.49-.72s-1.56-.92-2.37-.48-1.5,4.12-1.41,5.07c0,.4.09.81.15,1.21,0,.18,0,.35.08.53a44.69,44.69,0,0,0,1.12,4.77,2.61,2.61,0,0,0,.28.17C72,170.82,74.27,171.86,74.1,171.92Z"/><path d="M88.1,199.64A72.58,72.58,0,0,0,84.51,184a.12.12,0,0,0,0-.14q-.31-.78-.66-1.56c-.32-.8-.66-1.6-1-2.39a.18.18,0,0,0,0-.07c-1-2.16-2-4.29-3.14-6.39a.17.17,0,0,0,.06-.08,10.48,10.48,0,0,0,.81-3.7c0-.24-.41-.23-.42,0A9.79,9.79,0,0,1,79.4,173c-.34-.64-.68-1.27-1-1.9a.2.2,0,0,0,.12-.13,15.82,15.82,0,0,0,.8-5.29c0-.25-.43-.24-.42,0a15.66,15.66,0,0,1-.73,5q-2.42-4.33-5.18-8.47c-.13-.21-.51,0-.37.2q2.09,3.14,4,6.36a9.35,9.35,0,0,1-4.9-.55.2.2,0,0,0-.13.38,9.72,9.72,0,0,0,5.22.53,0,0,0,0,1,0,0,121.87,121.87,0,0,1,5.63,10.89,6.54,6.54,0,0,1-2.26-.88.21.21,0,0,0-.23.34,6.78,6.78,0,0,0,2.47.94.19.19,0,0,0,.18-.05c.27.59.52,1.17.78,1.76a70.22,70.22,0,0,1,4.36,17.54Z"/><path d="M73.13,166.22a10.76,10.76,0,0,1-3.66-1.43c0,.18,0,.35.08.53A11.32,11.32,0,0,0,73,166.6C73.26,166.65,73.39,166.27,73.13,166.22Z"/><path class="cls-2" d="M112.85,169.75c0,1.7-3.95,2.52-5.19,3-2.75,1-5.44,2-7.48,4.26a90,90,0,0,0-6.54,8.5.47.47,0,0,1-.49.21,8.06,8.06,0,0,1-.57-1.23c-.71-1.76-1.81-5-1.54-6.82A11.51,11.51,0,0,1,92.29,174a3.23,3.23,0,0,0,.79,1.55,31.35,31.35,0,0,0,.45-3.41c.18-.22.36-.43.56-.64a11.57,11.57,0,0,1,1.45-1.34l.33-.25a13.16,13.16,0,0,1,1.32-.88l.37-.21a11.55,11.55,0,0,1,1.32-.65,9,9,0,0,0,.72,2.41,15.54,15.54,0,0,0,.29-2.82c.43-.16.86-.3,1.3-.42a7.21,7.21,0,0,0,.54,1.56,8.16,8.16,0,0,0,.85-1.9,17.17,17.17,0,0,1,4.2-.33l.36,0c.37,0,.75.07,1.11.13,1.35.21,4.53,1.06,4.59,2.89A.09.09,0,0,1,112.85,169.75Z"/><path d="M97.77,174.2c-3.33,3.29-4.36,9.32-4.57,11a7.64,7.64,0,0,0-.69,2.23,48.8,48.8,0,0,0-.21,8.29c0,.9.06,1.79.11,2.69l.46-.09c0-.56-.06-1.13-.08-1.69-.08-2.45-.08-4.89,0-7.34a10.57,10.57,0,0,1,.66-3.7.48.48,0,0,0,.15-.14,90,90,0,0,1,6.54-8.5c2-2.22,4.73-3.25,7.48-4.26,1.24-.46,5.16-1.28,5.19-3C107.62,170.36,101.6,170.42,97.77,174.2Z"/><path d="M97.63,172.59a10.91,10.91,0,0,1-.07-3.78l-.37.21a11.19,11.19,0,0,0,.1,3.65A.17.17,0,0,0,97.63,172.59Z"/><path d="M96.36,173.27a14.29,14.29,0,0,1-.49-3.37l-.33.25a14.39,14.39,0,0,0,.48,3.19A.17.17,0,0,0,96.36,173.27Z"/><path class="cls-3" d="M82.61,205.55A12,12,0,0,1,78,198.41a12.36,12.36,0,0,1-.26-2.51,12.26,12.26,0,0,1,.88-4.52h22.18a12.12,12.12,0,0,1,.6,1.91,12,12,0,0,1,.28,2.61,11.69,11.69,0,0,1-.26,2.51,12,12,0,0,1-4.62,7.14Z"/><path d="M100.62,191.63a11.25,11.25,0,0,1,.52,1.71,11.54,11.54,0,0,1,.28,2.56,11.61,11.61,0,0,1-4.71,9.4h-14a11.7,11.7,0,0,1-4.46-6.94A11.88,11.88,0,0,1,78,195.9a11.73,11.73,0,0,1,.8-4.27Zm.34-.5H78.45a11.45,11.45,0,0,0-.68,2.1,12.34,12.34,0,0,0-.29,2.67,12,12,0,0,0,.27,2.56,12.26,12.26,0,0,0,4.78,7.34H96.87a12.32,12.32,0,0,0,4.79-7.34,12.63,12.63,0,0,0,.26-2.56,12.21,12.21,0,0,0-1-4.77Z"/><path d="M101.92,195.9a12,12,0,0,1-.27,2.56,12.26,12.26,0,0,1-4.78,7.34H82.53c18.74.93,18.43-14.67,18.43-14.67a12.21,12.21,0,0,1,1,4.77Z"/><path class="cls-3" d="M62.88,100.7a19.45,19.45,0,0,1-9.61-2.23,7.36,7.36,0,0,1-1.37-1c-.7-.7-1.41-1.28-2.1-1.85-1.32-1.07-2.46-2-2.83-3.28a15.41,15.41,0,0,1-.64-3.49C45,84.94,41.81,74.73,43.11,72.9a.5.5,0,0,1,.44-.24,1.17,1.17,0,0,1,.3,0c2.34.71,7,5.19,13,12.6l.25.31a9.74,9.74,0,0,0,7.62,3.18,14.49,14.49,0,0,0,4.64-.75c.8-.28,2.57-2.72,5.4-6.68,2.54-3.56,6-8.45,7-8.45l.18.15.2-.16c.5-.6,1.49-1.54,2-1.54.09,0,.18,0,.25.21.58,1.57-.34,6.17-2.29,11.46-2.65,7.19-7.84,15.49-12.25,16.71A25.89,25.89,0,0,1,62.88,100.7Z"/><path d="M84.14,71.61a.16.16,0,0,1,0,.06c.56,1.49-.38,6.13-2.29,11.29C79.22,90.19,74,98.36,69.8,99.52a25.85,25.85,0,0,1-6.92.94,19.13,19.13,0,0,1-9.49-2.2,6.74,6.74,0,0,1-1.32-1A26.62,26.62,0,0,0,50,95.39c-1.29-1-2.4-2-2.75-3.16a16.55,16.55,0,0,1-.64-3.44v-.08l0-.06C44.7,83.43,42.21,74.58,43.3,73a.29.29,0,0,1,.25-.13.7.7,0,0,1,.23,0c2.26.68,7,5.25,12.88,12.52l.27.32A10,10,0,0,0,64.73,89a15.13,15.13,0,0,0,4.72-.76C70.32,88,72,85.62,75,81.51c2.17-3.05,5.79-8.11,6.77-8.34l.31.25.31-.36a4.6,4.6,0,0,1,1.79-1.45Zm0-.48c-.8,0-2.17,1.62-2.17,1.62a.37.37,0,0,0-.2-.07c-2,0-10.76,14.53-12.49,15.15a14.8,14.8,0,0,1-4.56.73,9.55,9.55,0,0,1-7.44-3.1c-.39-.44-9.35-11.76-13.37-13a1.29,1.29,0,0,0-.37-.06c-3.23,0,2.54,16.38,2.54,16.38a15.32,15.32,0,0,0,.65,3.56c.59,2,2.91,3.15,5,5.23a7.36,7.36,0,0,0,1.41,1.08,19.52,19.52,0,0,0,9.74,2.26,26.49,26.49,0,0,0,7.05-1c4.52-1.25,9.78-9.75,12.4-16.86,1.92-5.19,2.91-10,2.29-11.62a.47.47,0,0,0-.47-.37Z"/><path class="cls-4" d="M44.24,82.94c.91,3.2,1.85,5.86,1.85,5.86s-2.76,2.76-2.17,4.81a6.24,6.24,0,0,0,2.38,2.82c1.63,1.27,3.75,2.51,5.43,3.93a14.7,14.7,0,0,0,6.69-15.78c-4.53-4.8-10.54-10.9-14.5-12.1C41.49,71.74,42.83,78,44.24,82.94Z"/><path d="M38.77,89.09c.09,1.84,11.78,10.37,13,11.27-4.81-6,0-16.63-1.61-19.27-1.59-2.4-6.2-8.61-6.2-8.61S38.67,87,38.77,89.09Z"/><path class="cls-3" d="M88.55,66a.73.73,0,0,0-.79,0,1.58,1.58,0,0,0-.54-1.11c-.48-.32-.79-.13-1.12.22l-.16.21-.08-.06a.38.38,0,0,0-.41,0,3.74,3.74,0,0,0-1.24,1.95c-.75,2.1-1.6,2.8-2.32,3.13,0-.77-.09-1,.21-1.36a.78.78,0,0,0,.08-.8c-.18-.33-.46-.29-.71-.19a4.77,4.77,0,0,0-1.29,1.21,1.14,1.14,0,0,0-.26.94c.4,3.48,1.44,4.2,2.7,4.77.52.23,2.28-.84,2.73-1.91,1.74-1.21,3.69-3.07,3-4C89.09,67.88,89.57,66.59,88.55,66Z"/><path d="M82.8,75.21a.61.61,0,0,1-.28-.06c-1.31-.59-2.43-1.37-2.84-5A1.42,1.42,0,0,1,80,69.07l.17-.19a3.66,3.66,0,0,1,1.21-1.08.73.73,0,0,1,1,.29,1,1,0,0,1-.1,1.06,1,1,0,0,0-.18.83A5.14,5.14,0,0,0,84,67.16a3.84,3.84,0,0,1,1.32-2.07.64.64,0,0,1,.57-.07l.05-.06a1,1,0,0,1,1.42-.26,1.6,1.6,0,0,1,.59,1,1,1,0,0,1,.73.12h0a1.29,1.29,0,0,1,.66.86A3.27,3.27,0,0,1,88.62,69a1,1,0,0,1,.09.65c-.17,1.07-1.74,2.51-3.17,3.51a4.4,4.4,0,0,1-2.15,1.89A1.86,1.86,0,0,1,82.8,75.21Zm-1-7a.87.87,0,0,0-.23,0,4,4,0,0,0-1,1l-.18.2a.94.94,0,0,0-.19.76c.38,3.33,1.34,4,2.56,4.57a.77.77,0,0,0,.49-.09,3.82,3.82,0,0,0,1.92-1.69l0-.06,0,0c1.41-1,2.88-2.36,3-3.24a.57.57,0,0,0-.09-.43l-.1-.13.09-.14a3.15,3.15,0,0,0,.73-2.14.87.87,0,0,0-.44-.56h0a.52.52,0,0,0-.55,0l-.31.18,0-.35a1.27,1.27,0,0,0-.44-.94c-.3-.2-.47-.16-.8.19a1.09,1.09,0,0,0-.13.17l-.14.21-.26-.18a.15.15,0,0,0-.17,0,3.51,3.51,0,0,0-1.14,1.83c-.83,2.31-1.8,3-2.45,3.27l-.33.14,0-.62a1.51,1.51,0,0,1,.27-1.24.54.54,0,0,0,.06-.55A.21.21,0,0,0,81.78,68.19Z"/><path d="M85.55,75.92c3.33-3.7,3.65-10.06.42-15.49s-8.9-8.15-13.72-7L72,53l-2.4,1.43c-5.21,3.09-6.33,10.8-2.52,17.22s11.13,9.1,16.34,6l2.35-1.31Z"/><path class="cls-4" d="M88.36,59C92.18,65.42,91,73.24,85.8,76.34s-12.47.3-16.29-6.12S66.82,56.1,72,53,84.55,52.59,88.36,59Z"/><path class="cls-4" d="M86.68,60c3.14,5.27,2.17,11.69-2.1,14.24s-10.25.24-13.38-5S69,57.62,73.26,55.08,83.55,54.74,86.68,60Z"/><path d="M84.38,65.22a3.15,3.15,0,0,0-.43-.86,2.85,2.85,0,0,0-.64-.61,3.73,3.73,0,0,0-.79-.42,6.63,6.63,0,0,0-.9-.25,7.83,7.83,0,0,0-1-.15l-1-.11-1.32-4.1a2.41,2.41,0,0,1,1.35.18,3,3,0,0,1,1.11,1l1.47-.48a4.17,4.17,0,0,0-.86-1.16,3.72,3.72,0,0,0-1.07-.7,3.9,3.9,0,0,0-1.2-.29,4.93,4.93,0,0,0-1.27.07L77.43,56l-1.49.48.43,1.32a4.64,4.64,0,0,0-1.12.77,3.79,3.79,0,0,0-.8,1,3.51,3.51,0,0,0-.39,1.17A2.64,2.64,0,0,0,74,61a2.81,2.81,0,0,0,.14.95,2.63,2.63,0,0,0,.17.42,2.25,2.25,0,0,0,.5.72,3.24,3.24,0,0,0,1,.69,4.79,4.79,0,0,0,.57.21l.3.08.32.07h.06c.45.08.91.14,1.38.2l1.11,3.45.05.15h0l0,.14.23.71a2.44,2.44,0,0,1-.8-.13,2.89,2.89,0,0,1-.53-.26l-.17-.1h0l0,0-.11-.09a3.76,3.76,0,0,1-.54-.52,4.44,4.44,0,0,1-.53-.8l-1.56.51a5.39,5.39,0,0,0,.8,1.19l0,0,.07.08a0,0,0,0,0,0,0l0,0,.09.08s0,0,0,0a5.14,5.14,0,0,0,1,.78,2.69,2.69,0,0,0,.29.16l.16.08.16.08a4.56,4.56,0,0,0,.71.24,4.13,4.13,0,0,0,1.4.1l.68,2.09,1.48-.48-.66-2.06a5.7,5.7,0,0,0,1.2-.72,4.17,4.17,0,0,0,.94-1,3.52,3.52,0,0,0,.49-1.31A3.42,3.42,0,0,0,84.38,65.22Zm-8.67-3.83a1.55,1.55,0,0,1,.09-1.19,2.21,2.21,0,0,1,1-1L78,62.74a6.13,6.13,0,0,1-.79-.16,2.74,2.74,0,0,1-.66-.25A1.84,1.84,0,0,1,76,62,1.55,1.55,0,0,1,75.71,61.39Zm7.23,5.12a2,2,0,0,1-.22.73,2.52,2.52,0,0,1-.5.65,3.15,3.15,0,0,1-.77.52l-1.28-4a6.36,6.36,0,0,1,.89.15,3.12,3.12,0,0,1,.8.24,2,2,0,0,1,.62.37,1.15,1.15,0,0,1,.37.55A1.93,1.93,0,0,1,82.94,66.51Z"/><path d="M77.42,74.77a12.78,12.78,0,0,1-6.32-5.49C67.94,64,68.89,57.55,73.21,55a8.27,8.27,0,0,1,7.23-.47,13.06,13.06,0,0,1,8.08,13.66,8.4,8.4,0,0,1-3.89,6.17,7,7,0,0,1-1.36.64A8.52,8.52,0,0,1,77.42,74.77Zm9.17-14.7a12.35,12.35,0,0,0-6.23-5.35,8.09,8.09,0,0,0-7,.45c-4.21,2.51-5.12,8.79-2,14a12.5,12.5,0,0,0,6.2,5.39,8,8,0,0,0,7-.41,8.17,8.17,0,0,0,3.78-6,12.31,12.31,0,0,0-1.71-8.06Z"/><path class="cls-3" d="M52.05,200.46a4.56,4.56,0,0,1-1.64-.17c-.35-.29-.52-3.34-.44-4.62a17.47,17.47,0,0,1,4.41-.73c.59,0,.7.09.7.09.35.36.51,3.36.48,4.81,0,.22-1.34.62-3.51.62Z"/><path d="M54.38,195.18a2.12,2.12,0,0,1,.54,0,18.63,18.63,0,0,1,.4,4.53,8.21,8.21,0,0,1-3.27.47,6.37,6.37,0,0,1-1.48-.12,15.51,15.51,0,0,1-.37-4.27,18.46,18.46,0,0,1,4.18-.65Zm0-.48c-1.57,0-4.62.62-4.64.86-.07.93,0,4.49.52,4.92a4.5,4.5,0,0,0,1.79.22c1.62,0,3.73-.26,3.75-.85,0-.78,0-4.47-.55-5a1.41,1.41,0,0,0-.87-.16Z"/><path d="M49.88,199.23s-2.24,3.39-.5,6c0,0,12.13.24,15.78-.43,0,0,0-4.48-3.18-4.77a47.13,47.13,0,0,0-6.28-.1S52.22,201.64,49.88,199.23Z"/><path d="M57.74,171.4c-.06,9.77-.52,20.09-1.57,25.84l-5.59,1.41c-.93.23-1.61.38-1.65.38.06-1.59-7.3-38.61-8.28-45.68-.37-2.64-5.35-16.32-7-26.21-.74-4.4-.8-8,.5-9.63,1.7-2,13.57-8.73,17.82-.81a31.48,31.48,0,0,1,2.72,7.92c2,8.67,2.23,19.92,2.7,27.93C57.66,157.16,57.8,164.13,57.74,171.4Z"/><path class="cls-3" d="M7.67,196.74a10.25,10.25,0,0,1-4.5-2.28c-.14-.44,1.41-3,2.21-4.08.82.09,4.46,1.82,4.6,2.33s-1.35,2.9-2.12,4c0,0-.05,0-.19,0Z"/><path d="M5.49,190.65a15.1,15.1,0,0,1,4.25,2.13,15.82,15.82,0,0,1-2,3.71h0a10.47,10.47,0,0,1-4.26-2.12,14.94,14.94,0,0,1,2.08-3.73Zm-.16-.51a.1.1,0,0,0-.07,0c-.59.74-2.51,3.73-2.32,4.37S6.46,197,7.67,197a.47.47,0,0,0,.39-.14c.45-.64,2.28-3.47,2.16-4.18S6,190.14,5.33,190.14Z"/><path d="M37.39,119.79s-2.36,24-4.25,40.7c-1.22,10.78-14.91,28.44-24,35.34l-5-2.68-1.12-.6s5.57-10.1,8.28-14.28c7-10.84,5.55-17.14,5.58-24.29.09-14.74-3.74-21.93.27-32.89.19-.5.39-1,.61-1.52a46.14,46.14,0,0,1,3-5.87,1.5,1.5,0,0,1,.86-.63,3.72,3.72,0,0,1,1.64-.1C26.11,113.3,37,119.31,37.39,119.79Z"/><path d="M3.37,193.21S-.15,195.1,0,198.15c0,0,9.89,6,13.23,7.11,0,0,2.2-3.9-.25-5.64a42.59,42.59,0,0,0-5.14-3.07S4.12,196.42,3.37,193.21Z"/><path class="cls-4" d="M52.65,115.53c0,1.41-31.21,8.45-34.33,7.85-1.28-.24-2.1-.58-2.3-1-.6-1.3,1.48-14,1.23-22.39-.05-1.63-.08-3.28-.08-4.9-.05-8.47.51-16.61,3.2-18.42.84-.57,2.56-1.69,3.66-2.27a27.21,27.21,0,0,1,6-2.3,24.73,24.73,0,0,1,11.91-.18h0a24.41,24.41,0,0,1,3.29,1l.8.3c3.74,1.5,3.21,9.65,2.6,16.49a64.94,64.94,0,0,0-.44,7.86,13.42,13.42,0,0,0,.23,1.8C49.24,104.41,52,111.87,52.65,115.53Z"/><path d="M20.88,87.22A60.28,60.28,0,0,0,31,98.11a12.47,12.47,0,0,0,9.42-4.75c3.79-4.87-10.12-7.46-10.6-7.46S20.88,87.22,20.88,87.22Z"/><path class="cls-3" d="M38.15,73a8.18,8.18,0,0,1-3.93-1.68V66.17l4.17,1.73v3.56l0,.05c.2.38.44,1,.32,1.3,0,0-.06.09-.16.11A2.09,2.09,0,0,1,38.15,73Z"/><path d="M34.46,66.53l3.69,1.53v3.46l.06.11a2.1,2.1,0,0,1,.32,1.06,2.34,2.34,0,0,1-.38,0,7.77,7.77,0,0,1-3.69-1.56V66.53ZM34,65.81V71.4s2.31,1.8,4.17,1.8a2.59,2.59,0,0,0,.48,0c.86-.17,0-1.76,0-1.76V67.74L34,65.81Z"/><path class="cls-3" d="M37.86,68.73a4.54,4.54,0,0,1-3.11-1.35c-2.93-2.76-2.56-6.88-2.43-7.78l7.3-.59a24.82,24.82,0,0,1,2.05,6.49A2.35,2.35,0,0,1,41,67.32,4.21,4.21,0,0,1,37.86,68.73Z"/><path d="M39.48,59.26a24.41,24.41,0,0,1,2,6.27,2.14,2.14,0,0,1-.63,1.63,3.94,3.94,0,0,1-2.94,1.33,4.3,4.3,0,0,1-3-1.28c-2.67-2.53-2.5-6.23-2.38-7.39l6.95-.56Zm.29-.5-7.66.62s-.95,4.94,2.47,8.18A4.76,4.76,0,0,0,37.86,69c2.34,0,4.26-1.93,4-3.51a25.54,25.54,0,0,0-2.14-6.7Z"/><path d="M40.74,57c-.15-2.71-4.54-1.12-6-.6-1,.38-4.49,1.93-4.26,3.62a6.72,6.72,0,0,0,1,5.64,1.22,1.22,0,0,0,.86.93,1.4,1.4,0,0,0,1.74-1c.35-1.13-.33-2.44-.56-3.53,0-.2-.16-1-.3-1.71a3.22,3.22,0,0,1,1.91-.72c.93-.06,1.87,0,2.8-.07C39.5,59.38,42.14,58.36,40.74,57Z"/><path class="cls-3" d="M46.46,97.49A25,25,0,0,1,32.25,93l-.12-.08A70.19,70.19,0,0,1,19.62,82.19a1.32,1.32,0,0,1-.06-1.51c1.05-2.47,5.84-6,8.12-6h.18a13.35,13.35,0,0,1,8,3.82c.73.71,1.86,1.8,3.08,2.88,2.22,2,8.49,4.36,10.24,4.36.13,0,.51,0,.65-.27h0s1.43-2,1.77-2.56l.73-1.08c2.14-3.16,6.27-9.06,9-13q2.32-3.31,2.87-4.11c.54.47,2,1.72,2.6,2.18-.33,1.55-3.76,16.86-8,24.4L58.4,92C56.32,95.5,52,97.49,46.46,97.49Z"/><path d="M64.24,65.11c.59.51,1.69,1.45,2.28,1.92-.47,2.14-3.86,16.94-7.91,24.18l-.42.71c-2,3.38-6.31,5.33-11.73,5.33a25,25,0,0,1-14.09-4.46l-.09-.06A69.55,69.55,0,0,1,19.8,82c-.26-.27-.26-.69,0-1.26,1-2.35,5.73-5.86,7.9-5.86h.16a13,13,0,0,1,7.85,3.75c.74.72,1.87,1.81,3.09,2.89C41,83.55,47.4,86,49.18,86a.91.91,0,0,0,.84-.36c.24-.32,1.42-2,1.77-2.55l.05-.08.69-1c2.14-3.16,6.27-9.06,9-13l2.71-3.88Zm-.1-.71c-.19.33-8.56,12.21-12,17.3-.26.38-.5.73-.69,1,0,0,0,0,0,0-.27.51-1.79,2.6-1.81,2.61s-.2.14-.43.14c-1.73,0-7.93-2.4-10.08-4.3-1.09-1-2.17-2-3.08-2.88a13.53,13.53,0,0,0-8.14-3.88h-.2c-3.07,0-10.16,5.9-8.23,7.92A70.62,70.62,0,0,0,32,93.13l.1.07a25.43,25.43,0,0,0,14.35,4.53c5.17,0,9.87-1.77,12.14-5.57l.42-.71c4.4-7.87,8.06-24.6,8-24.62-.6-.43-2.91-2.43-2.91-2.43Z"/><path class="cls-4" d="M41,81c-1-.89-7.46-6.48-13.45-6.93-2.73-.2-8.27,1.89-8.81,5.3-1.17,7.46,6.29,12.31,13,15.76C36.65,92.47,39.83,87.19,41,81Z"/><path class="cls-3" d="M64.88,62.87a7.64,7.64,0,0,1,.83-3.12c.3-.35.86-.6.94,0A2.42,2.42,0,0,1,66.37,61v0c1.34-1.18,3.17-2.12,4.87-1.74,1.1.25,1,1,0,1.16-1.93.37-3.14,1.23-.29.49.58-.15,1.84-.18,2,.25.24.91-1.88,1.18-2.79,1.42-.59.55,1.64.34,2,.55,1.8,1-2.34,1.48-2.42,1.77-.24.8,2.5,0,1.74,1.13-.57.83-3.35.5-4.14.84s-1.61,1.07-2.36.74C63.52,67,64.28,64.2,64.88,62.87Z"/><path d="M65.32,68a1.06,1.06,0,0,1-.49-.11,1.4,1.4,0,0,1-.78-.85c-.47-1.22.17-3.26.58-4.2a7,7,0,0,1,.89-3.23,1,1,0,0,1,1-.41.65.65,0,0,1,.42.6,1.64,1.64,0,0,1,0,.54,5.68,5.68,0,0,1,4.42-1.26c.88.2,1,.64,1,.82s-.26.57-.68.73c.62,0,1.39,0,1.52.53a.76.76,0,0,1-.08.59c-.35.57-1.45.81-2.33,1l-.12,0,.61,0a2.93,2.93,0,0,1,1,.15c.16.09.64.34.59.76s-.94.82-2.16,1.15c-.23.06-.49.13-.65.19a3,3,0,0,0,.63.08c.5,0,1,.07,1.14.4a.72.72,0,0,1-.14.68c-.42.62-1.64.68-2.81.75a6.22,6.22,0,0,0-1.43.17,5.59,5.59,0,0,0-.53.28A3.4,3.4,0,0,1,65.32,68Zm1-8.32a.72.72,0,0,0-.41.26c-.22.26-.54,1-.77,3l0,.08c-.45,1-1,2.85-.6,3.85a1,1,0,0,0,.52.58c.45.19,1-.15,1.59-.45a6.17,6.17,0,0,1,.57-.29,5.5,5.5,0,0,1,1.6-.22c.91,0,2.15-.12,2.43-.53a.46.46,0,0,0,.09-.19,2,2,0,0,0-.72-.11c-.46,0-.9-.06-1.08-.33a.48.48,0,0,1-.06-.43c.06-.21.27-.28,1.06-.49.44-.12,1.75-.48,1.8-.73h0s0-.1-.32-.26a4.63,4.63,0,0,0-.84-.09c-.82,0-1.29-.09-1.41-.4a.41.41,0,0,1,.16-.46l.11-.06a5.44,5.44,0,0,1,.57-.13c.71-.16,1.78-.39,2-.78a.2.2,0,0,0,0-.2c-.07-.17-1-.24-1.65-.08-1.69.44-1.82.3-1.92.19l-.1-.11,0-.17c.16-.48,2.16-.89,2.18-.89.45-.09.61-.27.61-.34s-.16-.23-.58-.32c-2-.45-3.91,1-4.65,1.68l-1,.86.58-1.16a2.54,2.54,0,0,0,.25-1.09c0-.12-.05-.18-.07-.18Z"/><polygon class="cls-3" points="66.77 66.4 65.81 70.08 62.66 67.37 65.01 63.67 66.63 64.48 66.77 66.4"/><path class="cls-3" d="M91,65.11a.15.15,0,0,0-.14-.07,1,1,0,0,0,.27-.69c0-.32-.33-.48-.55-.6h0a1.36,1.36,0,0,0,.51-1.38c-.17-.49-.57-.55-1-.45a2.56,2.56,0,0,0,.33-.48c.36-.66-.24-1.22-.76-1.36a.17.17,0,0,0-.19.06h0a5.42,5.42,0,0,0-1.26.76,2.46,2.46,0,0,0-.83.89c-.25.68.47.88,1,.94-.44.23-.8.58-.47,1.21a1.14,1.14,0,0,0,.91.65,1.5,1.5,0,0,0-.45.58c-.25.59.37.91.77,1a1.27,1.27,0,0,0,.55,0,.28.28,0,0,0,0,.13c0,.41.47.62.74.64A1.06,1.06,0,0,0,91,65.11Z"/><path d="M90.35,67.11h-.09a1.07,1.07,0,0,1-1-.72H89a1.3,1.3,0,0,1-.94-.56.82.82,0,0,1,0-.75,1.68,1.68,0,0,1,.21-.36,1.41,1.41,0,0,1-.66-.66,1,1,0,0,1,.1-1.2,1,1,0,0,1-.55-.41.81.81,0,0,1,0-.74,2.28,2.28,0,0,1,.79-.91l.11-.08a6,6,0,0,1,1.32-.8h0a.46.46,0,0,1,.38-.08,1.53,1.53,0,0,1,1,.8,1,1,0,0,1-.06.93.41.41,0,0,1-.05.09.89.89,0,0,1,.73.64,1.41,1.41,0,0,1-.34,1.4.92.92,0,0,1,.43.64,1,1,0,0,1-.17.65,1.45,1.45,0,0,1,.1,1.55A1.09,1.09,0,0,1,90.35,67.11ZM90,65.7l-.19.48c0,.29.35.42.5.43a.61.61,0,0,0,.58-.34.94.94,0,0,0,0-1l-.45,0,.3-.39a.71.71,0,0,0,.21-.5c0-.18-.18-.28-.41-.4l-.37-.14.28-.28c.41-.39.56-.77.44-1.12s-.21-.39-.71-.29l-.74.16.5-.57a2.38,2.38,0,0,0,.3-.43.54.54,0,0,0,0-.49,1,1,0,0,0-.6-.5l0,0h-.12a5.62,5.62,0,0,0-1.17.71l-.11.09a1.87,1.87,0,0,0-.63.69c-.07.2,0,.28,0,.31a1,1,0,0,0,.74.3l.81.09-.72.38c-.54.28-.54.55-.37.87a.87.87,0,0,0,.72.52l.58.06-.45.38a1.26,1.26,0,0,0-.38.48.32.32,0,0,0,0,.31.81.81,0,0,0,.57.31,1.16,1.16,0,0,0,.45,0Z"/><path class="cls-4" d="M68.42,114.45a.63.63,0,0,0,.62.63l4.5,0,20.87.06a.63.63,0,0,0,.63-.62v-2.27a.64.64,0,0,0-.63-.64H92.25l-18.65-.06H69.05a.59.59,0,0,0-.23,0,.63.63,0,0,0-.39.58Z"/><path d="M69,115.2a.75.75,0,0,1-.73-.75v-2.27a.74.74,0,0,1,.47-.68.65.65,0,0,1,.27,0l25.37.07a.75.75,0,0,1,.74.75v2.27a.74.74,0,0,1-.74.73Zm-.18-3.5a.53.53,0,0,0-.32.48v2.27A.51.51,0,0,0,69,115l25.37.08a.51.51,0,0,0,.52-.51v-2.27a.52.52,0,0,0-.52-.52l-25.37-.08Z"/><path class="cls-4" d="M66,111a.63.63,0,0,0,.63.63h2.17l4.69,0,18.5.06a.6.6,0,0,0,.24-.05.63.63,0,0,0,.39-.58v-2.27a.63.63,0,0,0-.63-.63l-16.85-.05-8.51,0a.63.63,0,0,0-.63.63Z"/><path d="M66.65,111.71a.74.74,0,0,1-.74-.74V108.7a.74.74,0,0,1,.21-.53.76.76,0,0,1,.53-.21L92,108a.71.71,0,0,1,.53.22.76.76,0,0,1,.21.52v2.27a.73.73,0,0,1-.46.68.64.64,0,0,1-.28.06Zm-.36-3.38a.51.51,0,0,0-.15.37V111a.51.51,0,0,0,.52.51l25.36.08a.64.64,0,0,0,.2,0,.53.53,0,0,0,.32-.48v-2.27a.51.51,0,0,0-.52-.52l-25.36-.08h0A.55.55,0,0,0,66.29,108.33Z"/><path class="cls-4" d="M67.7,107.44a.63.63,0,0,0,.63.63l6.85,0h0l18.51.06a.63.63,0,0,0,.63-.63v-2.27a.62.62,0,0,0-.43-.59.65.65,0,0,0-.2,0l-15,0-8.73,0H68.34a.63.63,0,0,0-.63.63Z"/><path d="M68.32,108.18a.74.74,0,0,1-.52-.22.72.72,0,0,1-.21-.52v-2.27a.75.75,0,0,1,.75-.74l25.36.08a1,1,0,0,1,.24,0,.75.75,0,0,1,.5.7v2.27a.74.74,0,0,1-.74.74Zm-.5-3v2.27a.52.52,0,0,0,.52.52l6.8,0,0,0,0,0,18.49.06a.52.52,0,0,0,.52-.52v-2.27a.53.53,0,0,0-.35-.49.51.51,0,0,0-.17,0l-25.36-.07A.51.51,0,0,0,67.82,105.17Z"/><path class="cls-4" d="M68.42,93.41a.64.64,0,0,0,.62.64h4.5l20.87.06A.63.63,0,0,0,95,93.5V91.23a.63.63,0,0,0-.63-.63H92.25L73.6,90.53H69.05a.85.85,0,0,0-.23,0,.63.63,0,0,0-.39.58Z"/><path d="M69,94.16a.75.75,0,0,1-.73-.75V91.14a.74.74,0,0,1,.47-.68.65.65,0,0,1,.27,0l25.37.08a.74.74,0,0,1,.74.74V93.5a.74.74,0,0,1-.74.73Zm-.18-3.49a.51.51,0,0,0-.32.48v2.26a.51.51,0,0,0,.51.52L94.41,94a.51.51,0,0,0,.52-.51V91.23a.52.52,0,0,0-.52-.52l-25.37-.08A.46.46,0,0,0,68.86,90.67Z"/><path class="cls-4" d="M66,89.93a.63.63,0,0,0,.63.63h2.17l4.69,0,18.5.06a.6.6,0,0,0,.24,0,.62.62,0,0,0,.39-.58V87.74a.63.63,0,0,0-.63-.63l-16.85,0-8.51,0a.63.63,0,0,0-.63.63Z"/><path d="M66.65,90.67a.74.74,0,0,1-.74-.74V87.66a.74.74,0,0,1,.21-.53.8.8,0,0,1,.53-.21L92,87a.75.75,0,0,1,.53.22.76.76,0,0,1,.21.52V90a.73.73,0,0,1-.46.68.64.64,0,0,1-.28.06Zm-.36-3.38a.51.51,0,0,0-.15.37v2.27a.52.52,0,0,0,.52.52L92,90.53a.65.65,0,0,0,.2,0,.53.53,0,0,0,.32-.48V87.74a.51.51,0,0,0-.52-.52l-25.36-.07h0A.54.54,0,0,0,66.29,87.29Z"/><path class="cls-4" d="M67.7,86.4a.63.63,0,0,0,.63.63l6.85,0h0l18.51,0a.63.63,0,0,0,.63-.62V84.21a.62.62,0,0,0-.43-.59.65.65,0,0,0-.2,0l-15,0-8.73,0H68.34a.62.62,0,0,0-.63.62Z"/><path d="M68.32,87.15a.79.79,0,0,1-.52-.22.74.74,0,0,1-.21-.53V84.13a.75.75,0,0,1,.75-.73l25.36.07a1,1,0,0,1,.24,0,.76.76,0,0,1,.5.71v2.27a.74.74,0,0,1-.74.73Zm-.5-3V86.4a.52.52,0,0,0,.52.52l6.8,0,0,0,0,0L93.69,87a.51.51,0,0,0,.52-.51V84.21a.5.5,0,0,0-.35-.48.34.34,0,0,0-.17,0l-25.36-.08A.51.51,0,0,0,67.82,84.13Z"/><path class="cls-4" d="M69.56,104a.62.62,0,0,0,.42.59.69.69,0,0,0,.2,0l8.48,0,15.24,0h1.65a.62.62,0,0,0,.63-.62v-2.27a.63.63,0,0,0-.63-.63H92.15l-15.38,0h0l-6.58,0-.13,0a.62.62,0,0,0-.49.61Z"/><path d="M70.18,104.7a.85.85,0,0,1-.23,0,.75.75,0,0,1-.5-.7v-2.27A.74.74,0,0,1,70,101a.44.44,0,0,1,.16,0l6.47,0h0l18.9.06a.74.74,0,0,1,.74.74V104a.74.74,0,0,1-.74.74Zm6.56-3.49,0,0-6.53,0-.11,0a.51.51,0,0,0-.4.5V104a.53.53,0,0,0,.35.49l.16,0,25.37.08a.51.51,0,0,0,.52-.51v-2.27a.52.52,0,0,0-.52-.52l-18.76-.06Z"/><path class="cls-4" d="M66,100.44a.63.63,0,0,0,.63.63h3.41l6.68,0,15.27,0h.14a.63.63,0,0,0,.49-.61V98.25a.61.61,0,0,0-.48-.61.39.39,0,0,0-.15,0l-14.47-.05-10.89,0-.16,0a.62.62,0,0,0-.47.61Z"/><path d="M66.65,101.18a.74.74,0,0,1-.74-.74V98.17a.74.74,0,0,1,.55-.72l.19,0L92,97.51a.5.5,0,0,1,.18,0,.73.73,0,0,1,.56.72v2.27a.73.73,0,0,1-.57.71.47.47,0,0,1-.17,0Zm-.13-3.51a.52.52,0,0,0-.38.5v2.27a.51.51,0,0,0,.52.51L92,101h.12a.51.51,0,0,0,.4-.5V98.24a.52.52,0,0,0-.4-.5H92l-25.36-.08Z"/><path class="cls-4" d="M66,97a.62.62,0,0,0,.48.61l.15,0,10.83,0,14.53,0,.16,0a.63.63,0,0,0,.47-.61V94.76a.63.63,0,0,0-.63-.63H89.31l-8.67,0-14,0h-.1a.63.63,0,0,0-.53.62Z"/><path d="M66.65,97.69l-.18,0a.74.74,0,0,1-.56-.72V94.68a.75.75,0,0,1,.62-.73h.12L92,94a.75.75,0,0,1,.53.22.78.78,0,0,1,.21.52V97a.73.73,0,0,1-.55.71.58.58,0,0,1-.19,0Zm-.07-3.52a.52.52,0,0,0-.44.51V97a.5.5,0,0,0,.4.5l.12,0L92,97.55l.13,0a.51.51,0,0,0,.39-.5V94.76a.51.51,0,0,0-.15-.36.52.52,0,0,0-.37-.16l-25.36-.08Z"/><path class="cls-5" d="M48.94,111.59a.67.67,0,0,1-.14-.09.78.78,0,0,1-.21-.52v-2.27a.72.72,0,0,1,.74-.74h1a.74.74,0,0,1-.21-.52v-2.27a.74.74,0,0,1,.74-.74h3a.7.7,0,0,1-.2-.51v-2.27a.75.75,0,0,1,.74-.74h0l25.37.08a.75.75,0,0,1,.74.74V104a.74.74,0,0,1-.74.74h-3a.75.75,0,0,1,.21.51v2.27a.74.74,0,0,1-.74.74h-1a.72.72,0,0,1,.21.52v2.27a.71.71,0,0,1-.34.6.67.67,0,0,1,.14.09.78.78,0,0,1,.21.52v2.27a.72.72,0,0,1-.73.74h0l-25.36-.08a.74.74,0,0,1-.74-.74v-2.27A.72.72,0,0,1,48.94,111.59Z"/><path class="cls-4" d="M46.14,115.09l25.37.08a.63.63,0,0,0,.62-.63v-2.27a.64.64,0,0,0-.62-.63l-25.37-.07a.63.63,0,0,0-.63.62v2.27A.63.63,0,0,0,46.14,115.09Z"/><path d="M71.5,115.28l-25.36-.08a.74.74,0,0,1-.74-.74v-2.27a.74.74,0,0,1,.74-.74h0l25.37.08a.74.74,0,0,1,.52.22.73.73,0,0,1,.21.52v2.28a.79.79,0,0,1-.22.52.73.73,0,0,1-.52.21Zm-25.87-3.09v2.27a.52.52,0,0,0,.52.52l25.37.08h0a.51.51,0,0,0,.36-.15.51.51,0,0,0,.15-.37v-2.27a.51.51,0,0,0-.51-.51l-25.37-.08h0A.51.51,0,0,0,45.63,112.19Z"/><rect class="cls-4" x="62.18" y="89.53" width="3.53" height="26.62" rx="0.63" transform="translate(-39.1 166.47) rotate(-89.82)"/><path d="M76.62,104.76l-25.37-.08a.74.74,0,0,1-.52-.22.72.72,0,0,1-.21-.52v-2.27a.73.73,0,0,1,.22-.52.74.74,0,0,1,.52-.22h0l25.37.08a.75.75,0,0,1,.74.74V104a.74.74,0,0,1-.74.74ZM50.9,101.3a.51.51,0,0,0-.15.37v2.27a.51.51,0,0,0,.15.37.55.55,0,0,0,.36.15l25.37.08h0a.51.51,0,0,0,.52-.52v-2.27a.51.51,0,0,0-.52-.52l-25.37-.08h0A.55.55,0,0,0,50.9,101.3Z"/><path class="cls-4" d="M46.14,111.61l25.37.07a.62.62,0,0,0,.62-.62v-2.27a.63.63,0,0,0-.62-.63l-25.37-.08a.63.63,0,0,0-.63.63V111A.63.63,0,0,0,46.14,111.61Z"/><path d="M71.5,111.8l-25.36-.08a.71.71,0,0,1-.52-.22.74.74,0,0,1-.22-.52v-2.27a.75.75,0,0,1,.22-.53.72.72,0,0,1,.52-.21l25.37.08a.73.73,0,0,1,.73.74v2.27a.75.75,0,0,1-.74.74Zm-25.72-3.46a.56.56,0,0,0-.15.37V111a.55.55,0,0,0,.15.36.51.51,0,0,0,.37.15l25.37.08h0a.51.51,0,0,0,.36-.15.48.48,0,0,0,.15-.36v-2.27a.51.51,0,0,0-.15-.37.51.51,0,0,0-.36-.15l-25.37-.08h0A.51.51,0,0,0,45.78,108.34Z"/><path class="cls-4" d="M47.72,108.08l25.37.08a.63.63,0,0,0,.63-.63v-2.27a.63.63,0,0,0-.63-.63l-25.36-.08a.63.63,0,0,0-.63.63v2.27A.63.63,0,0,0,47.72,108.08Z"/><path d="M73.09,108.27l-25.37-.08a.74.74,0,0,1-.73-.74v-2.27a.75.75,0,0,1,.74-.74h0l25.37.08a.71.71,0,0,1,.52.22.74.74,0,0,1,.22.52v2.27a.74.74,0,0,1-.74.74Zm-25.87-3.09v2.27a.51.51,0,0,0,.51.52l25.37.08h0a.52.52,0,0,0,.52-.52v-2.27a.52.52,0,0,0-.52-.52l-25.37-.07h0A.51.51,0,0,0,47.22,105.18Z"/><path d="M96.92,112.93c3.42-3.18,4.24-9.09,1.68-14.43S91,90.14,86.38,90.77l-.17-.38-2.37,1.13C78.73,94,77,101.09,80.05,107.4s9.64,9.43,14.76,7l2.3-1Z"/><path class="cls-4" d="M101,97.37c3,6.31,1.27,13.51-3.85,16s-11.67-.77-14.7-7.08-1.32-13.41,3.8-15.87S97.93,91.06,101,97.37Z"/><path class="cls-4" d="M99.3,98.17c2.49,5.18,1,11.1-3.16,13.11s-9.58-.62-12.07-5.81-1.09-11,3.12-13S96.82,93,99.3,98.17Z"/><path d="M96.72,102.84a2.9,2.9,0,0,0-.34-.84,2.51,2.51,0,0,0-.54-.63,3.64,3.64,0,0,0-.7-.45,6.63,6.63,0,0,0-.82-.31,8.89,8.89,0,0,0-.89-.22q-.47-.11-.93-.18l-.9-3.95a2.23,2.23,0,0,1,1.25.28,2.83,2.83,0,0,1,1,1l1.42-.33A4.14,4.14,0,0,0,94.51,96a3.46,3.46,0,0,0-2-1.11,4.29,4.29,0,0,0-1.19,0L91,93.62,89.57,94l.29,1.26a4.6,4.6,0,0,0-1.11.62,4,4,0,0,0-.83.87,3.22,3.22,0,0,0-.46,1.06,2.91,2.91,0,0,0,0,1.17,2.64,2.64,0,0,0,.12.4A2.14,2.14,0,0,0,88,100a2.88,2.88,0,0,0,.89.73c.16.09.33.17.51.25l.27.1.3.09h0c.41.11.84.21,1.27.3l.75,3.32,0,.14h0l0,.14.15.68a2.32,2.32,0,0,1-.73-.19,2.87,2.87,0,0,1-.48-.28l-.15-.12h0l0,0-.1-.1a3.39,3.39,0,0,1-.45-.53,3.53,3.53,0,0,1-.43-.79l-1.51.34a5.17,5.17,0,0,0,.65,1.18.05.05,0,0,0,0,0l.06.08h0s0,0,0,0l.07.08,0,0a4.74,4.74,0,0,0,.86.82l.26.17a.55.55,0,0,0,.14.09l.15.09a4.59,4.59,0,0,0,.64.28,3.81,3.81,0,0,0,1.3.21l.46,2,1.42-.33-.44-2a5.86,5.86,0,0,0,1.18-.58,3.85,3.85,0,0,0,1-.88,3.1,3.1,0,0,0,.55-2.64Zm-7.78-4.3a1.46,1.46,0,0,1,.18-1.11,2.13,2.13,0,0,1,1-.82l.77,3.38c-.26-.07-.5-.13-.72-.21a2.59,2.59,0,0,1-.6-.3,1.64,1.64,0,0,1-.43-.4A1.41,1.41,0,0,1,88.94,98.54Zm6.32,5.38a1.86,1.86,0,0,1-.26.66,2.32,2.32,0,0,1-.52.57,2.83,2.83,0,0,1-.77.42l-.86-3.8a7,7,0,0,1,.82.21,3.7,3.7,0,0,1,.73.29,2.11,2.11,0,0,1,.55.4,1.14,1.14,0,0,1,.29.54A1.55,1.55,0,0,1,95.26,103.92Z"/><path d="M89.42,111.17A11.91,11.91,0,0,1,84,105.52c-2.51-5.23-1.09-11.14,3.16-13.18a7.79,7.79,0,0,1,6.8.17,11.72,11.72,0,0,1,5.46,5.61,11.85,11.85,0,0,1,.94,7.82,7.44,7.44,0,0,1-10.92,5.23Zm9.79-13a11.58,11.58,0,0,0-5.36-5.51,7.6,7.6,0,0,0-6.62-.17c-4.14,2-5.52,7.78-3.06,12.9A11.67,11.67,0,0,0,89.51,111a7.47,7.47,0,0,0,6.59.21,7.64,7.64,0,0,0,4-5.3,11.56,11.56,0,0,0-.92-7.68Z"/><polygon points="192.93 114.81 192.72 114.63 224.58 39.82 224.79 40.01 192.93 114.81"/><polygon class="cls-6" points="226.13 77.39 220.89 73.19 220.78 64.88 226.13 64.88 226.13 77.39"/><rect class="cls-2" x="226.13" y="64.88" width="4.75" height="12.51"/><rect x="219.93" y="63.98" width="6.69" height="1.76"/><rect class="cls-6" x="226.62" y="63.98" width="4.88" height="1.76"/><polygon points="192.9 86.57 224.8 86.57 240.75 71.13 208.84 71.13 192.9 86.57"/><polygon class="cls-2" points="195.92 86.57 224.8 86.57 231.22 71.13 211.86 71.13 195.92 86.57"/><rect class="cls-2" x="195.92" y="86.57" width="28.79" height="30.86"/><rect x="203.86" y="92.22" width="14.18" height="25.2"/><rect class="cls-4" x="203.34" y="92.34" width="13.94" height="24.97"/><path d="M217.16,92.46v24.73h-13.7V92.46Zm.24-.24H203.22v25.2H217.4V92.22Z"/><path d="M214.78,82c0,3-1.72,5.4-3.83,5.4S207.12,85,207.12,82s1.71-5.41,3.83-5.41S214.78,79,214.78,82Z"/><path class="cls-3" d="M214.14,82c0,3-1.71,5.4-3.83,5.4S206.48,85,206.48,82s1.72-5.41,3.83-5.41S214.14,79,214.14,82Z"/><path d="M210.31,87.7c-2.27,0-4.11-2.55-4.11-5.68s1.84-5.69,4.11-5.69,4.12,2.55,4.12,5.69S212.58,87.7,210.31,87.7Zm0-10.8c-1.95,0-3.55,2.29-3.55,5.12s1.6,5.12,3.55,5.12,3.55-2.3,3.55-5.12S212.27,76.9,210.31,76.9Z"/><path class="cls-3" d="M210.31,76.61v0Z"/><rect x="210.17" y="76.61" width="0.28" height="10.8"/><path class="cls-3" d="M206.48,82h0Z"/><rect x="206.48" y="81.87" width="7.66" height="0.28"/><rect class="cls-6" x="224.64" y="86.57" width="28.79" height="30.86"/><rect x="228.09" y="93.57" width="9.61" height="13.82"/><rect class="cls-3" x="228.95" y="93.85" width="9.05" height="13.25"/><path d="M237.72,94.14v12.68h-8.48V94.14Zm.56-.57h-9.61v13.82h9.61V93.57Z"/><path class="cls-3" d="M233.48,93.83v0Z"/><rect x="233.34" y="93.83" width="0.28" height="13.37"/><path class="cls-3" d="M228.88,100.51h0Z"/><rect x="228.88" y="100.37" width="9.4" height="0.28"/><rect x="240.23" y="93.57" width="9.61" height="13.82"/><rect class="cls-3" x="241.03" y="93.85" width="9.05" height="13.25"/><path d="M249.79,94.14v12.68h-8.48V94.14Zm.57-.57h-9.61v13.82h9.61V93.57Z"/><path class="cls-3" d="M245.55,93.83v0Z"/><rect x="245.41" y="93.83" width="0.28" height="13.37"/><path class="cls-3" d="M241,100.51h0Z"/><rect x="240.96" y="100.37" width="9.4" height="0.28"/><polygon points="256.45 87.08 224.54 87.08 208.6 71.65 240.51 71.65 256.69 86.57 256.45 87.08"/><polygon class="cls-4" points="224.78 86.45 209.13 71.25 240.75 71.25 256.4 86.45 224.78 86.45"/><path d="M240.65,71.37l15.45,15H224.88l-15.46-15Zm.1-.24H208.84l15.94,15.44h31.91L240.75,71.13Z"/><path d="M216.32,104.88a1.09,1.09,0,1,1-1.09-1.09A1.08,1.08,0,0,1,216.32,104.88Z"/><rect class="cls-2" x="144.44" y="41.6" width="10.42" height="142.61"/><rect class="cls-6" x="113.45" y="182.24" width="71.55" height="9.86" rx="3.38"/><rect class="cls-2" x="94.86" y="190.5" width="108.73" height="14.98" rx="5.14"/><path d="M225.28,41H73.17a2.68,2.68,0,0,1-2.67-2.68h0a2.68,2.68,0,0,1,2.67-2.67H225.28A2.68,2.68,0,0,1,228,38.36h0A2.68,2.68,0,0,1,225.28,41Z"/><path class="cls-3" d="M149.65,52.48a12.57,12.57,0,1,1,12.56-12.57A12.59,12.59,0,0,1,149.65,52.48Z"/><path d="M149.65,27.6a12.32,12.32,0,1,1-12.32,12.31A12.32,12.32,0,0,1,149.65,27.6Zm0-.5a12.82,12.82,0,1,0,12.81,12.81A12.82,12.82,0,0,0,149.65,27.1Z"/><path d="M105.56,114.63c0,8.56-14.31,15.5-32,15.5s-32-6.94-32-15.5Z"/><polygon points="41.84 114.81 41.62 114.63 73.49 39.82 73.7 40.01 41.84 114.81"/><polygon points="105.35 115 73.49 40.01 73.7 39.82 105.56 114.81 105.35 115"/><path d="M256.66,114.63c0,8.56-14.32,15.5-32,15.5s-32-6.94-32-15.5Z"/><polygon points="256.45 115 224.58 40.01 224.79 39.82 256.66 114.81 256.45 115"/></g></g></svg>