<svg xmlns="http://www.w3.org/2000/svg" xmlns:xlink="http://www.w3.org/1999/xlink" viewBox="0 0 278.28 215.22"><defs><style>.cls-1{fill:none;}.cls-2{fill:#e6ebf0;}.cls-3{clip-path:url(#clip-path);}.cls-4{clip-path:url(#clip-path-2);}.cls-5{fill:#c6d0db;}.cls-6{fill:#aab6c2;}.cls-7,.cls-8,.cls-9{fill:#fff;}.cls-7{opacity:0.31;}.cls-8{opacity:0.6;}.cls-10{opacity:0.22;fill:url(#Безымянный_градиент_3);}.cls-11{fill:#ffbf5b;}.cls-12{fill:#ff822e;}</style><clipPath id="clip-path" transform="translate(54.61)"><path class="cls-1" d="M210.2,93.4c-6.28-31.7-28.71-57.82-58.8-69.62C83.14-3,14.81,17.63,1.72,91.47-10.75,161.83,47,136.81,97.26,191.31c43.75,47.47,131.19,4.61,113.38-95.6C210.5,94.93,210.35,94.16,210.2,93.4Z"/></clipPath><clipPath id="clip-path-2" transform="translate(54.61)"><rect class="cls-1" x="-16.76" y="35.2" width="104.3" height="134.51" transform="translate(70.79 204.91) rotate(180)"/></clipPath><linearGradient id="Безымянный_градиент_3" x1="2278.42" y1="119.45" x2="2278.42" y2="41.79" gradientTransform="translate(-2101.92)" gradientUnits="userSpaceOnUse"><stop offset="0" stop-color="#fff" stop-opacity="0"/><stop offset="1" stop-color="#fff"/></linearGradient></defs><g id="Слой_2" data-name="Слой 2"><g id="Layer_1" data-name="Layer 1"><rect x="73.72" y="210.91" width="189.8" height="1.44"/><path class="cls-2" d="M210.2,93.4c-6.28-31.7-28.71-57.82-58.8-69.62C83.14-3,14.81,17.63,1.72,91.47-10.75,161.83,47,136.81,97.26,191.31c43.75,47.47,131.19,4.61,113.38-95.6C210.5,94.93,210.35,94.16,210.2,93.4Z" transform="translate(54.61)"/><path class="cls-2" d="M26.69,162.76c21.17,8.55,35.8,2.72,53,24s11.82,25.87-20.77,15.69C14.2,188.48,7,154.79,26.69,162.76Z" transform="translate(54.61)"/><g class="cls-3"><rect class="cls-2" x="37.96" y="36.69" width="104.21" height="133.6"/><g class="cls-4"><path class="cls-5" d="M46.23,140.34c-.3-1.6-1.8-2.06-1.42-3.93.22-1.07.83-1.58.13-2.69a4.55,4.55,0,0,0-1.51-1.38,2.22,2.22,0,0,0,.79-2.56.37.37,0,0,0-.62-.16,10.27,10.27,0,0,0-1.38,1.77c-.06-.41-.11-.83-.21-1.23a.76.76,0,0,0-.67-.65c-.66,0-.67.6-.54,1.18-1.22-.83-2.41-1.69-3.64-2.51-.46-.31-1-.61-1.48-.9a1.6,1.6,0,0,0,.51-.8c.17-.69-.35-1.27-1-.9a4.13,4.13,0,0,0-1,.87,19.64,19.64,0,0,0-2.43-1,1.71,1.71,0,0,0,.58-.62.71.71,0,0,0-.54-1,1.9,1.9,0,0,0-1.43.63,3.52,3.52,0,0,0-.49.54c-3-.56-6-.09-8.13,2.52l-.35.44a2.73,2.73,0,0,0-1-1.46.31.31,0,0,0-.27-.06.42.42,0,0,0-.46.2.42.42,0,0,0-.12.35,6.17,6.17,0,0,0,.63,1.84,2.43,2.43,0,0,1-.62,0,4,4,0,0,0-1.58,0A3.55,3.55,0,0,0,16,130.38a4,4,0,0,0-.35.68c-1.06,2.7,1.21,5.12,3.29,6.48a.29.29,0,0,0,.31,0c2.87,1.73,6,4.15,9.36,4.61.64.09,1.31-.08,1.92,0a11.5,11.5,0,0,1,2.1.7,5.18,5.18,0,0,1,.46.84,4.92,4.92,0,0,0,2.55,2c3.3,1.21,9.93.45,10.64-3.64A4.7,4.7,0,0,0,46.23,140.34Z" transform="translate(54.61)"/><path class="cls-6" d="M46.13,141.9a.36.36,0,0,0-.36-.1c-2.58,1.07-7.76,3.62-9.64.46-.31-.52-.22-.84-.8-1.18-.35-.22-.87-.21-1.25-.41a3.27,3.27,0,0,1-1.69-2.8.37.37,0,0,0-.47-.36,9.67,9.67,0,0,1-3.56.82c-1.7-.08-3.5-1.12-3.26-3.08a.38.38,0,0,0-.47-.36A6.89,6.89,0,0,1,16,130.38a4,4,0,0,0-.35.68c-1.06,2.7,1.21,5.12,3.29,6.48a.29.29,0,0,0,.31,0c2.87,1.73,6,4.15,9.36,4.61.64.09,1.31-.08,1.92,0a11.5,11.5,0,0,1,2.1.7,5.18,5.18,0,0,1,.46.84,4.92,4.92,0,0,0,2.55,2c3.3,1.21,9.93.45,10.64-3.64A1.58,1.58,0,0,0,46.13,141.9Z" transform="translate(54.61)"/><path class="cls-5" d="M20.89,133.82l-.11-.08a1.52,1.52,0,0,1,0-.21c.09-.47-.63-.67-.72-.2a4.21,4.21,0,0,0,.75,3.4.38.38,0,0,0,.68-.09A2.9,2.9,0,0,0,20.89,133.82Z" transform="translate(54.61)"/><path class="cls-5" d="M30.16,137.3a.29.29,0,0,0-.3-.05,7.07,7.07,0,0,1-.41-1.2c-.11-.47-.83-.27-.71.2a8,8,0,0,0,1.61,3.25.37.37,0,0,0,.62-.16A2,2,0,0,0,30.16,137.3Z" transform="translate(54.61)"/><path class="cls-5" d="M37.33,141.06c-.78.89-1.72,2.43-.48,3.39a.38.38,0,0,0,.62-.16,5.57,5.57,0,0,0,.11-2.15.33.33,0,0,0-.07-.13c.12-.16.24-.3.35-.42C38.17,141.23,37.65,140.7,37.33,141.06Z" transform="translate(54.61)"/><path class="cls-6" d="M26.84,128.16c-1.18-.82-1.47,2.53-1.44,3.13-.24.37.26.86.54.49a5.43,5.43,0,0,0,1-2C27.07,129.34,27.32,128.49,26.84,128.16Z" transform="translate(54.61)"/><path class="cls-6" d="M33,132.88s0,0,0,0a7.7,7.7,0,0,0,1.19-3.66.36.36,0,0,0-.27-.36c-.84-.26-1.21.75-1.43,1.39a6.34,6.34,0,0,0-.16,3.29c.1.47.82.27.72-.2C33,133.17,33,133,33,132.88Z" transform="translate(54.61)"/><path class="cls-5" d="M34.68,135.41a.39.39,0,0,0-.64.31.27.27,0,0,0,0,.18,2.3,2.3,0,0,0,.89,1.79.37.37,0,0,0,.58-.07C36,136.75,35.33,136,34.68,135.41Z" transform="translate(54.61)"/><path class="cls-6" d="M43.25,136.25c0-.72-.65-.95-1.23-.72a7,7,0,0,0-1.53.9,8.88,8.88,0,0,0-1.06.55c-.3.17-.2.73.18.69h0a.38.38,0,0,0,.48,0h0C41.35,137.62,43.17,137.68,43.25,136.25Z" transform="translate(54.61)"/><path class="cls-5" d="M-.73,128.35c-.64-1.41-2.31-3.48-4-3.37a2,2,0,0,0-.54.08,6.47,6.47,0,0,0-1.83.76c.06-.2.12-.41.2-.61.18-.44-.54-.64-.72-.2A7.48,7.48,0,0,0-8,126.44l-.1.07A2.71,2.71,0,0,0-8.6,125a.65.65,0,0,0-1,0c-.3.41-.09.95.08,1.35s.29.68.46,1a5.43,5.43,0,0,0-.44.61c-.38.65-.45,1.29-.74,1.82l-.86-.89a.37.37,0,0,0-.62.36,5,5,0,0,0,.62,1.32l-.24.12c-.76.29-1.19.26-1.75.94a7.85,7.85,0,0,0-1.44,3.08,5.53,5.53,0,0,0,0,2.83A3.06,3.06,0,0,0-13,139.48a4,4,0,0,0,1,.26,4,4,0,0,1,2.23.7,1.72,1.72,0,0,0,.43.42c3.87,1.29,4.14-5.85,6.88-7.18a.29.29,0,0,0,.18-.35C-.93,132,.16,130.33-.73,128.35Z" transform="translate(54.61)"/><path class="cls-6" d="M-.73,128.35c-.64-1.41-2.31-3.48-4-3.37a2,2,0,0,0-.54.08s0,0,0,0a5.34,5.34,0,0,1,0,7.13c-.7.74-2,1.09-2.28,2.16a3.16,3.16,0,0,0,.12,1.33c.29,1.61-1.42,2-2.72,2.18s-2.9.05-3.68-1.25a12.55,12.55,0,0,1-.67-1.87,5.53,5.53,0,0,0,0,2.83A3.06,3.06,0,0,0-13,139.48a4,4,0,0,0,1,.26,4,4,0,0,1,2.23.7,1.72,1.72,0,0,0,.43.42c3.87,1.29,4.14-5.85,6.88-7.18a.29.29,0,0,0,.18-.35C-.93,132,.16,130.33-.73,128.35Z" transform="translate(54.61)"/><path class="cls-5" d="M-9.5,136.87a.29.29,0,0,0-.29-.18.41.41,0,0,0-.55.33,5.51,5.51,0,0,0,.14,2,.38.38,0,0,0,.68.08A2.48,2.48,0,0,0-9.5,136.87Z" transform="translate(54.61)"/><path class="cls-5" d="M-7.69,136.08a.31.31,0,0,0-.37,0,.38.38,0,0,0-.51.51,3.18,3.18,0,0,0,1.32,1.3.38.38,0,0,0,.55-.42A2.54,2.54,0,0,0-7.69,136.08Z" transform="translate(54.61)"/><path class="cls-5" d="M-2.81,129.45a4.2,4.2,0,0,0-1.26-.24,6.48,6.48,0,0,0,1.24-1,.38.38,0,0,0-.26-.64,2.23,2.23,0,0,0-2.1,1.3.41.41,0,0,0,.35.57l.09,0a.38.38,0,0,0,.07.36,1.66,1.66,0,0,0,1.19.75.93.93,0,0,0,.94-.7A.38.38,0,0,0-2.81,129.45Z" transform="translate(54.61)"/><path class="cls-6" d="M-10.54,133.33a1.39,1.39,0,0,0-.88.08,1.4,1.4,0,0,0-.9.35.83.83,0,0,0-.12,1c.6,1,1.63-.4,2.06-.84A.37.37,0,0,0-10.54,133.33Z" transform="translate(54.61)"/><path class="cls-6" d="M-7.67,128.18a.37.37,0,0,0-.69.19,7.89,7.89,0,0,0,0,2.17c.05.36.49.32.65.07a.28.28,0,0,0,.15-.15A2.23,2.23,0,0,0-7.67,128.18Z" transform="translate(54.61)"/><path class="cls-5" d="M-7.76,132.33c0-.12-.09-.25-.13-.37-.15-.46-.87-.26-.72.19,0,.13.09.25.13.38C-8.33,133-7.61,132.79-7.76,132.33Z" transform="translate(54.61)"/><path class="cls-5" d="M52.47,100.35A1.6,1.6,0,0,0,53,100c.89-1-.2-1.84-1-2.4l-3-2.1c-.88-1.07-1.75-2.09-2.54-3a9,9,0,0,0,1.13-5.6,4.53,4.53,0,0,0,.53-3.92,1,1,0,0,0-1.91.26,12.76,12.76,0,0,0-1.56-2,4.25,4.25,0,0,0,1.08-1.92.37.37,0,0,0-.26-.45,1.27,1.27,0,0,0-1.27.57,1.09,1.09,0,0,0-.1.11,2.88,2.88,0,0,0-.22.27l-.31.38a23,23,0,0,0-8.24-4.51l-.4-.13a3.53,3.53,0,0,0,.39-2.59.39.39,0,0,0-.63-.17,3.75,3.75,0,0,0-1,1.65,8,8,0,0,0-.77-1.91,1,1,0,0,0-.38-.37,9.35,9.35,0,0,0-.73-1,.38.38,0,0,0-.58.07A2.75,2.75,0,0,0,30.68,73c0,.17-.05.34-.07.51a20.1,20.1,0,0,1-3.68-3.12A14.73,14.73,0,0,0,25.31,69c.77-.52-.11-2.29-.36-2.87-.12-.28-.51-.21-.65,0a3.67,3.67,0,0,0-.6,1.76,14.41,14.41,0,0,0-2.31-1.1,17.8,17.8,0,0,0-11.22-.15.81.81,0,0,0-.22-.77c-.35-.35-.71-.06-.9.27s-.39.71-.58,1.06c-.44.17-.89.35-1.32.54a27.65,27.65,0,0,1-4.51,1.58,5.8,5.8,0,0,0,.29-1c.07-.37.22-1-.18-1.19s-.87.11-1.17.34A4,4,0,0,0,.26,69.74,29.3,29.3,0,0,1-2.83,70a23.86,23.86,0,0,0-3.27.35,2,2,0,0,0-.53-2.49c-1-.54-2,.66-2.61,1.28a11.86,11.86,0,0,0-1.85,2.59,24.16,24.16,0,0,0-6.15,3.5l-1.14.88A7.6,7.6,0,0,0-22,73.8a1,1,0,0,0-.71,1.77,8.57,8.57,0,0,0,2,2,6.76,6.76,0,0,1-4.68.21c-7.13-1.76-11.71.31-14.84,4.61a4.28,4.28,0,0,0-.17-.66c-.11-.27-.53-.4-.68-.09a3.75,3.75,0,0,0-.34,1.08,4.43,4.43,0,0,0-.75-.75.16.16,0,0,0-.08-.06.48.48,0,0,0-.11-.09.33.33,0,0,0-.38,0,1.79,1.79,0,0,0-1,1.49A5.66,5.66,0,0,0-43.14,88c-.16.41-.31.84-.45,1.27a4.93,4.93,0,0,0-2.49-1,.28.28,0,0,0-.33.23.35.35,0,0,0,0,.4A3.39,3.39,0,0,0-44,90.47l0,0-.27.88a.22.22,0,0,1-.1,0c-3.68,1.68-5.19,3.72-4.59,7.84.33,2.24.53,4.77,1.54,6.75a17.1,17.1,0,0,0-3.54,4.58l-.14-.1a.84.84,0,0,0-.93-.6,1,1,0,0,0-1,1.53,5.94,5.94,0,0,0,.61,3l-1.88-.19c-.35,0-.45.42-.26.64a3.74,3.74,0,0,0,2.77,1.32,12,12,0,0,0,1.54,4.23,15.16,15.16,0,0,0,6,5.75c4.28,2.26,8.87,1.48,13.44.64a10.5,10.5,0,0,0,8-7,5.57,5.57,0,0,0,7.86-2.45,8.46,8.46,0,0,0,8.4-2.76c1.66-1.87,1.79-3.6,2.57-5.85s.14-1.52,2.26-1.77c1.11-.16,2.19-.12,3.28-.32,2.81-.48,4.77-1.73,7.3-2.8,1.46-.6,3.54-2,5.29-.74.5.37.95,1.79,1.34,2.34A11.74,11.74,0,0,0,20,109c2.77,1.26,6.11.42,8.45,2.37,3.5,2.92,5.89,6.54,10.93,6.81a7.82,7.82,0,0,0,6.34-2.28,19.09,19.09,0,0,0,2.12-2.59c2.22-3.17,6.59-3,6.32-7.78A12.24,12.24,0,0,0,52.47,100.35Z" transform="translate(54.61)"/><path class="cls-6" d="M41.44,118.09a7.58,7.58,0,0,0,4.3-2.19,4.21,4.21,0,0,0-1.09-1.73c-1.22-1.22-3-1.46-4.59-2-5-1.73-5.19-6.33-5-10.88a1,1,0,0,0-1.22-1,16.62,16.62,0,0,1-7.47-.21c-.14-.12-.29-.22-.43-.35-.72-.72-.31-1.5-.37-2.4v0a.12.12,0,0,0,0-.07v0a.73.73,0,0,0-.35-.65c-.58-.5-1.69-.29-1.6.67a.22.22,0,0,1,0,.11c-.06.62-.5.89-1.07,1A4,4,0,0,1,21,97.26a2.24,2.24,0,0,1-.71-1.47,9.12,9.12,0,0,0-.12-1.16.34.34,0,0,0-.22-.22.38.38,0,0,0-.7-.18A2.2,2.2,0,0,0,19,96.1c-.14-.14-.29-.27-.42-.41-.88-.89-1.52-2.14-2.63-2.8-2.33-1.42-4.78-1.57-6.71-3.91a1,1,0,0,0-1.36,0,43.52,43.52,0,0,1-4.44,3.87A2.79,2.79,0,0,1,.73,91.57a1,1,0,0,0-1.73.8.78.78,0,0,0,.29.75c1.52,1.27-1.23,2.44-2.14,2.69a.81.81,0,0,0-.39.21,7.44,7.44,0,0,1-6.67-2.31,1,1,0,0,0-1.38,0c-2.63,2.24-2.49,5.33-4.34,7.86-1.44,1.14-6.67-.37-6.07.72A4.41,4.41,0,0,0-19.79,104a11.13,11.13,0,0,0-2,.72c-2.8,1.4-3.91,3.73-7.7,1.81a6.14,6.14,0,0,1-1.28-1.79c-.53-1.13-2.22-.14-1.69,1a8.13,8.13,0,0,0,1.28,1.9c.27,5.2.14,11-5.25,13.64-4.51,2.22-9.4,1-13.75-.93a15.16,15.16,0,0,0,6,5.75c3.17,1.68,6.51,1.68,9.9,1.23a4.74,4.74,0,0,0-.34.72c-.13.34.24.53.5.42a.35.35,0,0,0,.38,0A3.78,3.78,0,0,0-32.08,127c.44-.08.88-.15,1.32-.24a10,10,0,0,0,4.33-1.9.74.74,0,0,0,.82.52.64.64,0,0,0,.25-.11.36.36,0,0,0,.36-.36c0-.46,0-.92,0-1.37a11.65,11.65,0,0,0,2.26-3.82,5.57,5.57,0,0,0,7.86-2.45,8.87,8.87,0,0,0,2.65.18,2.39,2.39,0,0,0,.16.75.39.39,0,0,0,.41.25.32.32,0,0,0,.47,0,3.64,3.64,0,0,0,.66-1.28,8.64,8.64,0,0,0,4-2.63c1.66-1.87,1.79-3.6,2.57-5.85s.14-1.52,2.26-1.77c1.11-.16,2.19-.12,3.28-.32a15.93,15.93,0,0,0,3.78-1.19,5.65,5.65,0,0,0,1.31.57.38.38,0,0,0,.47-.36.79.79,0,0,0-.38-.69l-.18-.08,1-.49c0,.13.11.25.17.37a.38.38,0,0,0,.68-.09,2.33,2.33,0,0,0,.16-.73l.25-.11c1.46-.6,3.54-2,5.29-.74.5.37.95,1.79,1.34,2.34a11.71,11.71,0,0,0,3.9,3.31,11.1,11.1,0,0,0,1.32,2,.38.38,0,0,0,.62-.16,3.19,3.19,0,0,0-.05-1.12,27.87,27.87,0,0,0,3.15.49,1.91,1.91,0,0,0,.59,1.58.38.38,0,0,0,.62-.16,3.53,3.53,0,0,0,.05-1.21,6.15,6.15,0,0,1,2.72,1.22c3.46,2.88,5.84,6.45,10.76,6.79a6.79,6.79,0,0,0,2.44,1c.33.06.68-.37.36-.63S41.64,118.22,41.44,118.09Z" transform="translate(54.61)"/><path class="cls-6" d="M-30.54,91.41a8.17,8.17,0,0,0-2.31-3.7,1,1,0,0,0-1.62.45.88.88,0,0,0-.13.79A6.09,6.09,0,0,0-32,92.5,1,1,0,0,0-30.54,91.41Z" transform="translate(54.61)"/><path class="cls-6" d="M-10.41,83.81a1,1,0,0,0-1.9-.36,7.9,7.9,0,0,0-.36,3.13c.07.87,1.35,1.43,1.81.49A5,5,0,0,0-10.41,83.81Z" transform="translate(54.61)"/><path class="cls-6" d="M-37.32,101.28a4.56,4.56,0,0,0-3.82-2.49c-1.22-.1-1.23,1.75-.07,1.92a.84.84,0,0,0,.16.5,3.5,3.5,0,0,0,2.89,1.53A1,1,0,0,0-37.32,101.28Z" transform="translate(54.61)"/><path class="cls-5" d="M13.68,90.79a.31.31,0,0,0-.2-.15h0c.15-.46-.57-.65-.72-.2a3.31,3.31,0,0,0,.17,3.07l0,0a1.91,1.91,0,0,0,.57.47.37.37,0,0,0,.55-.23A5,5,0,0,0,13.68,90.79Z" transform="translate(54.61)"/><path class="cls-5" d="M5.35,90.52a.39.39,0,0,0-.49.53,2.81,2.81,0,0,0,1.63,1.36A.37.37,0,0,0,7,92,1.84,1.84,0,0,0,5.35,90.52Z" transform="translate(54.61)"/><path class="cls-5" d="M.94,94.82a9.51,9.51,0,0,0-2.41-2.28c-.4-.26-.78.38-.38.64a10,10,0,0,1,1,.75l-.13,0s0,0-.05,0c-.22,0-.45.06-.42.34a1.41,1.41,0,0,0,0,.2.37.37,0,0,0-.29.1s0-.07,0-.1a.37.37,0,0,0-.73-.1c-.45,1.3-.4,2.79.85,3.61a.38.38,0,0,0,.55-.22,8.11,8.11,0,0,0,.4-2.53,1.89,1.89,0,0,0,1.42.18A.38.38,0,0,0,.94,94.82Z" transform="translate(54.61)"/><path class="cls-5" d="M-19,104.23a18.5,18.5,0,0,0-3.09-1,.38.38,0,0,0-.3.68.37.37,0,0,0,0,.65,3.57,3.57,0,0,0,3.42.36A.37.37,0,0,0-19,104.23Z" transform="translate(54.61)"/><path class="cls-5" d="M-16.14,103.34a7.19,7.19,0,0,0-1.38-2,.37.37,0,0,0-.61.15c-.29-.36-.92,0-.63.39a8.34,8.34,0,0,0,2.11,1.95C-16.31,104.07-16,103.65-16.14,103.34Z" transform="translate(54.61)"/><path class="cls-5" d="M-29.72,113.56a10.19,10.19,0,0,0-1.92-3.39c-.31-.36-.84.17-.53.53.12.14.23.29.34.44a.35.35,0,0,0-.27.34A3.09,3.09,0,0,0-30.17,114C-29.91,114.13-29.63,113.81-29.72,113.56Z" transform="translate(54.61)"/><path class="cls-5" d="M-45.87,121.46a2.54,2.54,0,0,0-.83-.47.38.38,0,0,0-.42-.55l-2.15.57a.38.38,0,0,0-.17.62,3.19,3.19,0,0,0,3.49.42A.38.38,0,0,0-45.87,121.46Z" transform="translate(54.61)"/><path class="cls-5" d="M-37.16,120.4a.38.38,0,0,0-.72,0q-.13.46-.3.9a.33.33,0,0,0-.39,0,.38.38,0,0,0-.65.25,8.45,8.45,0,0,0,0,1.21,4.88,4.88,0,0,0,0,.76c.05.31.44.32.63.17l.19-.18.13,0a.88.88,0,0,0,.57-.75A2.8,2.8,0,0,0-37.16,120.4Z" transform="translate(54.61)"/><path class="cls-5" d="M29.71,100.16c-.06-.28-.39-.48-.6-.21-.67.86-1.37,2.1-.4,3a.38.38,0,0,0,.62-.16,11.2,11.2,0,0,0,.58-2.26A.38.38,0,0,0,29.71,100.16Z" transform="translate(54.61)"/><path class="cls-5" d="M35.68,105.42a.28.28,0,0,0-.29-.13,1.47,1.47,0,0,0-1.23.69,1.09,1.09,0,0,0,.17,1.27.38.38,0,0,0,.53,0,6.45,6.45,0,0,0,1-1.31A.36.36,0,0,0,35.68,105.42Z" transform="translate(54.61)"/><path class="cls-5" d="M39.59,110.92a.34.34,0,0,0-.35-.17,18.37,18.37,0,0,1-.3-1.83c-.06-.47-.8-.47-.75,0a17.09,17.09,0,0,0,.62,3.17,1.91,1.91,0,0,0,1.06,1.34.38.38,0,0,0,.48-.36A5,5,0,0,0,39.59,110.92Z" transform="translate(54.61)"/><path class="cls-6" d="M2.46,79.3c-.08-.54-.37-2.18-1.09-2.28s-.9,1.16-1,1.61a4.53,4.53,0,0,0,.68,3l0,0c0,.08,0,.16,0,.24a.37.37,0,0,0,.69.19A3.8,3.8,0,0,0,2.46,79.3Z" transform="translate(54.61)"/><path class="cls-6" d="M9.91,76.34A.38.38,0,0,0,9.44,76a4.12,4.12,0,0,0-3,2.59l-.11.13a.31.31,0,0,0,0,.31.39.39,0,0,0,.59.25A2.91,2.91,0,0,0,9.91,76.34Z" transform="translate(54.61)"/><path class="cls-6" d="M19.49,83.61a.37.37,0,0,0-.64,0,3.67,3.67,0,0,0-.63,3.26.28.28,0,0,0,.05.11,1.69,1.69,0,0,0,.65,1.16c.2.16.47,0,.54-.22C20,86.5,20.34,85,19.49,83.61Z" transform="translate(54.61)"/><path class="cls-6" d="M29.84,76.78a7.52,7.52,0,0,0-2.57.37,2.06,2.06,0,0,0-1.21,1.17.9.9,0,0,0-.33.81c.23,1.6,3.08-.08,3.72-.42a1.86,1.86,0,0,0,1.08-1.15C30.63,77,30.34,76.78,29.84,76.78Z" transform="translate(54.61)"/><path class="cls-6" d="M37.85,86.29a6.06,6.06,0,0,0-3.41-.77.78.78,0,0,0-.66,1.07A.61.61,0,0,0,34,87a3.69,3.69,0,0,0,3.65.63A.75.75,0,0,0,37.85,86.29Z" transform="translate(54.61)"/><path class="cls-6" d="M41.12,96.3c-.71-.42-1.2.32-1.41.89a5.43,5.43,0,0,0-.34,1.87.73.73,0,0,0,1.28.48.51.51,0,0,0,.25-.16,2.83,2.83,0,0,0,.69-1.46C41.68,97.37,41.66,96.62,41.12,96.3Z" transform="translate(54.61)"/><path class="cls-5" d="M46.25,103.23a2.35,2.35,0,0,0-1.94-.81.75.75,0,0,0-.74.74.64.64,0,0,0,0,.23l0,0a.77.77,0,0,0,.52.92,3.71,3.71,0,0,0,1.81.13C46.52,104.38,46.57,103.61,46.25,103.23Z" transform="translate(54.61)"/><path class="cls-6" d="M38.28,134.55a54.29,54.29,0,0,1-12.74,1.72c.83-1,1.25-5.36.62-4.28a27.51,27.51,0,0,1-5.3,6.46c.41-1.25-1.72-4.68-1.55-3.45a6.33,6.33,0,0,1-2.13,5.62,41.35,41.35,0,0,1-5.74,2.61c.13-1.22.17-1.62.27-2.85.56-6.48-.27-12.7-.6-19.14-.36-7.27,1.73-15.11,2.29-23.36.08-1.24-5,18-5.56,25.91a25.07,25.07,0,0,0-1.46-4,35.06,35.06,0,0,0-3.94-6.33c0-.1-2.07-10.61-2-9.36.16,2.37.19,4.73.15,7.1-1.67-2-7.48-5.19-6.61-4.29,4.7,4.88,9.69,10,11.78,16.63a34.6,34.6,0,0,1,1.32,11,24.61,24.61,0,0,1-12.81-3.2A19.17,19.17,0,0,0,7,136.47c-.12,2.45-.36,4.89-.62,7.24-1.35,12.1-1.59,32.42-1.51,45A.87.87,0,0,0,5.51,190a22.06,22.06,0,0,0,5.62.53,1,1,0,0,0,.94-1.23c-1.49-11.5-2.28-31.51-1-43.1A29.3,29.3,0,0,0,24,138.12a.87.87,0,0,0,.47.13C29.31,138.26,39.5,134.23,38.28,134.55Z" transform="translate(54.61)"/><path class="cls-6" d="M134.47,175.72a.34.34,0,0,0-.21-.28,3.74,3.74,0,0,0-2.27,0,2.88,2.88,0,0,0-1.58,1.7v0c-.42.19-.83.41-1.23.64a4.36,4.36,0,0,0,.21-1.4c0-.48-.08-1.87-.9-1.67-.61.15-1.07,1.48-1.23,2a2.87,2.87,0,0,0,.21,2.26,16.42,16.42,0,0,0-2,1.92,4.91,4.91,0,0,0,0-1.27c-.06-.47-.3-1.84-1.1-1.54-.59.22-.88,1.59-1,2.13a2.84,2.84,0,0,0,.6,2.37.35.35,0,0,0,0,.28,22.29,22.29,0,0,0-1.21,2,.41.41,0,0,1-.07.11,4.54,4.54,0,0,0-.29-1.38c-.17-.44-.71-1.73-1.42-1.26-.52.35-.5,1.76-.46,2.3a2.82,2.82,0,0,0,1.12,2.18.37.37,0,0,0,0,.21c-.27.54-.52,1.07-.77,1.62a4.67,4.67,0,0,0-.43-1,3.14,3.14,0,0,0-.9-1.08c-.1-.71-1.28-.69-1.93-.52a5,5,0,0,0-1.67.79c.23-1.06.47-2.11.72-3.16,1.39,0,4.2-.85,4.24-1.93,0-.83-1.25-.81-1.94-.63a5.31,5.31,0,0,0-1.9,1c.22-.86.46-1.71.71-2.55,1.46.09,3.94-.33,4.13-1.31.15-.82-1.12-1-1.82-.92a5.4,5.4,0,0,0-1.78.53,27.79,27.79,0,0,1,1.06-2.66c1.41.42,3.9.56,4.3-.35.33-.76-.86-1.22-1.56-1.3a5.32,5.32,0,0,0-2,.14,16.1,16.1,0,0,1,1.78-2.52c1.23.65,4.08,1.26,4.63.33.43-.71-.7-1.31-1.38-1.48a5.3,5.3,0,0,0-2-.09,12.71,12.71,0,0,1,1.63-1.24l.08,0a3.91,3.91,0,0,0,2.55-.59,2.13,2.13,0,0,0,.58-2,.34.34,0,0,0-.25-.25,3.73,3.73,0,0,0-2.25.38,2.93,2.93,0,0,0-1.29,1.92v0a13.43,13.43,0,0,0-1.12.82,4.76,4.76,0,0,0,0-1.41c-.08-.47-.37-1.84-1.15-1.51-.58.23-.83,1.62-.91,2.16a2.86,2.86,0,0,0,.56,2.2,16.22,16.22,0,0,0-1.67,2.21,5,5,0,0,0-.19-1.26c-.14-.45-.59-1.77-1.33-1.36-.54.31-.62,1.72-.63,2.26a2.82,2.82,0,0,0,1,2.25.34.34,0,0,0,0,.28c-.33.7-.63,1.41-.89,2.14a.93.93,0,0,0,0,.13,4.51,4.51,0,0,0-.51-1.33c-.23-.41-1-1.59-1.59-1-.47.42-.22,1.81-.11,2.34a2.87,2.87,0,0,0,1.45,2,.36.36,0,0,0,0,.23c-.17.57-.34,1.14-.5,1.72a4.48,4.48,0,0,0-.59-1c-.3-.38-1.21-1.43-1.74-.78-.39.49.06,1.83.25,2.33a2.89,2.89,0,0,0,1.51,1.65c-.24,1-.46,2-.67,3a4.73,4.73,0,0,0-.71-1.25l-.13-.16a1,1,0,0,0-.15-.61.56.56,0,0,0-.73-.13.55.55,0,0,0-.72.13.94.94,0,0,0-.15.61l-.14.16a5,5,0,0,0-.7,1.25c-.21-1-.44-2-.67-3a2.84,2.84,0,0,0,1.5-1.65c.2-.5.65-1.84.26-2.33-.53-.65-1.44.4-1.74.78a4.48,4.48,0,0,0-.59,1c-.16-.58-.33-1.15-.5-1.72a.45.45,0,0,0,0-.23,2.82,2.82,0,0,0,1.44-2c.12-.53.37-1.92-.1-2.34-.62-.57-1.36.61-1.59,1a4.51,4.51,0,0,0-.51,1.33s0-.08,0-.13c-.27-.73-.56-1.44-.89-2.14a.34.34,0,0,0,0-.28,2.82,2.82,0,0,0,1-2.25c0-.54-.09-2-.64-2.26-.73-.41-1.18.91-1.32,1.36a5,5,0,0,0-.19,1.26,17.08,17.08,0,0,0-1.67-2.21,2.86,2.86,0,0,0,.55-2.2c-.07-.54-.32-1.93-.9-2.16-.78-.33-1.07,1-1.15,1.51a4.76,4.76,0,0,0,0,1.41c-.36-.29-.73-.56-1.12-.82v0a2.9,2.9,0,0,0-1.3-1.92,3.7,3.7,0,0,0-2.24-.38.34.34,0,0,0-.25.25,2.13,2.13,0,0,0,.58,2,3.9,3.9,0,0,0,2.55.59l.08,0a12.71,12.71,0,0,1,1.63,1.24,5.3,5.3,0,0,0-2,.09c-.68.17-1.81.77-1.38,1.48.55.93,3.4.32,4.63-.33a16.1,16.1,0,0,1,1.78,2.52,5.32,5.32,0,0,0-2-.14c-.7.08-1.89.54-1.56,1.3.4.91,2.89.77,4.3.35a27.79,27.79,0,0,1,1.06,2.66,5.47,5.47,0,0,0-1.78-.53c-.7-.08-2,.1-1.82.92.19,1,2.66,1.4,4.13,1.31.25.84.49,1.69.71,2.55a5.39,5.39,0,0,0-1.9-1c-.69-.18-2-.2-1.94.63,0,1.08,2.85,1.92,4.24,1.93.25,1.05.49,2.1.72,3.16a5.13,5.13,0,0,0-1.67-.79c-.62-.16-1.73-.19-1.91.43-.55-.1-1.11.82-1.31,1.17a5.23,5.23,0,0,0-.44,1c-.24-.55-.49-1.08-.76-1.62a.37.37,0,0,0,0-.21,2.85,2.85,0,0,0,1.12-2.18c0-.54.06-1.95-.46-2.3-.71-.47-1.25.82-1.42,1.26a4.56,4.56,0,0,0-.3,1.38l-.06-.11a22.29,22.29,0,0,0-1.21-2,.35.35,0,0,0,0-.28,2.84,2.84,0,0,0,.6-2.37c-.09-.54-.39-1.91-1-2.13-.8-.3-1,1.07-1.1,1.54a4.5,4.5,0,0,0,0,1.27,16.42,16.42,0,0,0-2-1.92,2.87,2.87,0,0,0,.21-2.26c-.16-.52-.62-1.85-1.23-2-.82-.2-.89,1.19-.9,1.67a4.36,4.36,0,0,0,.21,1.4c-.4-.23-.81-.45-1.23-.64v0a2.91,2.91,0,0,0-1.58-1.7,3.74,3.74,0,0,0-2.27,0,.33.33,0,0,0-.21.28,2.15,2.15,0,0,0,.88,1.88,3.87,3.87,0,0,0,2.6.18l.09,0a12,12,0,0,1,1.8,1,5.37,5.37,0,0,0-2,.39c-.66.28-1.68,1-1.15,1.68.69.83,3.42-.2,4.53-1a16.12,16.12,0,0,1,2.15,2.22,5.36,5.36,0,0,0-2,.16c-.68.19-1.79.82-1.34,1.53s3,.31,4.3-.32a25.43,25.43,0,0,1,1.46,2.47,5.19,5.19,0,0,0-1.84-.25c-.71,0-1.93.4-1.65,1.18.33.94,2.85,1,4.28.66.4.85.74,1.61,1.09,2.42a5.16,5.16,0,0,0-2-.65c-.71-.08-2,.1-1.82.92.21,1.07,3.12,1.46,4.49,1.25.2.26.73,0,.68-.32l-.09-.22a2.9,2.9,0,0,0,1.23-1.86,6.13,6.13,0,0,0,.16-1.45,7.62,7.62,0,0,0,3.4,1.09l.27,1.32a5.2,5.2,0,0,0-1.71-.82c-.69-.18-2-.2-1.94.64,0,1,2.62,1.84,4.06,1.92a.38.38,0,0,0,.58-.15,5.93,5.93,0,0,0,.7-.59,6.82,6.82,0,0,0,.71.59.38.38,0,0,0,.58.15c1.44-.08,4-.89,4.06-1.92,0-.06,0-.11,0-.16a2.7,2.7,0,0,0,1,1.24l-.09.22c-.05.31.48.58.68.32,1.37.21,4.28-.18,4.49-1.25.15-.82-1.11-1-1.82-.92a5.11,5.11,0,0,0-2,.65c.35-.81.69-1.57,1.09-2.42,1.43.32,3.95.28,4.28-.66.28-.78-.94-1.15-1.65-1.18a5.19,5.19,0,0,0-1.84.25,25.43,25.43,0,0,1,1.46-2.47c1.33.63,3.76,1.15,4.3.32s-.66-1.34-1.35-1.53a5.31,5.31,0,0,0-1.94-.16,16.12,16.12,0,0,1,2.15-2.22c1.11.84,3.83,1.87,4.52,1,.54-.64-.49-1.4-1.14-1.68a5.37,5.37,0,0,0-2-.39,11.52,11.52,0,0,1,1.8-1l.08,0a3.89,3.89,0,0,0,2.61-.18A2.15,2.15,0,0,0,134.47,175.72Zm-21,11.72a.39.39,0,0,0,.08-.1l.09.1-.09.09Zm3.49,1.64a5.1,5.1,0,0,0-1.71.82l.27-1.32a8.07,8.07,0,0,0,3-.84,6.35,6.35,0,0,0,.16,1.2,3,3,0,0,0,.13.45C118.58,188.89,117.58,188.93,117,189.08Z" transform="translate(54.61)"/><path class="cls-5" d="M37.77,99.6c1.54,6.88,5.57,11.68,12,15.44a71.52,71.52,0,0,0,15.13,6.2,24,24,0,0,0,4,0C86.36,117.94,95.07,102.9,96.2,89.8a40.47,40.47,0,0,0-3-18.92,47.9,47.9,0,0,0-10.59-15.6c-4-3.92-11-10.75-18.35-9.12-3.75.83-6.32,3.63-8.58,5.94a80.71,80.71,0,0,0-7.07,8.18C39.75,72,34.71,85.94,37.77,99.6Z" transform="translate(54.61)"/><path class="cls-6" d="M49.73,115a71.52,71.52,0,0,0,15.13,6.2,24,24,0,0,0,4,0C86.36,117.94,95.07,102.9,96.2,89.8a40.47,40.47,0,0,0-3-18.92c.34,5.2-.6,10.64-1.71,15.72-1.17,5.39-3.19,10.75-7.37,15.19s-10.52,7.15-16.8,9.42A61,61,0,0,1,49.73,115Z" transform="translate(54.61)"/><path class="cls-5" d="M91.7,88.66a.42.42,0,0,0,.18.19.58.58,0,0,0,.59.26c1.88-.25,3.74-.44,5-1.72,1.52-1.55,1.35-3.72,1.41-5.57a.55.55,0,0,0-.79-.43C94.87,82.82,90.09,85.22,91.7,88.66Z" transform="translate(54.61)"/><path class="cls-5" d="M87,71.67a.44.44,0,0,0,.23.14.6.6,0,0,0,.65.15c1.76-.58,3.51-1.11,4.35-2.57,1-1.78.23-3.87-.24-5.68a.61.61,0,0,0-.9-.27C88.42,65.4,84.45,68.6,87,71.67Z" transform="translate(54.61)"/><path class="cls-5" d="M82.19,63a.42.42,0,0,0,.23.15.6.6,0,0,0,.65.15c1.75-.58,3.51-1.11,4.34-2.57,1-1.78.24-3.87-.23-5.68a.61.61,0,0,0-.9-.27C83.59,56.74,79.62,59.94,82.19,63Z" transform="translate(54.61)"/><path class="cls-5" d="M77,58.67a.46.46,0,0,0,.23.15.6.6,0,0,0,.65.15c1.76-.58,3.51-1.11,4.35-2.57,1-1.78.23-3.87-.24-5.68a.61.61,0,0,0-.9-.27C78.41,52.41,74.44,55.61,77,58.67Z" transform="translate(54.61)"/><path class="cls-5" d="M71.24,53.28a.56.56,0,0,0,.26.12.63.63,0,0,0,.66.08c1.65-.75,3.3-1.46,3.89-3,.73-1.87-.39-3.87-1.15-5.61A.64.64,0,0,0,74,44.7C71.61,46.92,68.2,50.5,71.24,53.28Z" transform="translate(54.61)"/><path class="cls-5" d="M42.76,63.44a.61.61,0,0,0-.9.27c-.47,1.81-1.26,3.9-.24,5.68.84,1.46,2.59,2,4.35,2.57a.6.6,0,0,0,.65-.15.44.44,0,0,0,.23-.14C49.42,68.6,45.45,65.4,42.76,63.44Z" transform="translate(54.61)"/><path class="cls-6" d="M47.59,58a.61.61,0,0,0-.9.27c-.47,1.81-1.26,3.9-.23,5.68.83,1.46,2.59,2,4.34,2.57a.62.62,0,0,0,.65-.14.49.49,0,0,0,.23-.15C54.25,63.17,50.28,60,47.59,58Z" transform="translate(54.61)"/><path class="cls-5" d="M52.77,50.45a.61.61,0,0,0-.9.27c-.47,1.81-1.26,3.9-.24,5.68.84,1.46,2.59,2,4.35,2.57a.6.6,0,0,0,.65-.15.46.46,0,0,0,.23-.15C59.43,55.61,55.46,52.41,52.77,50.45Z" transform="translate(54.61)"/><path class="cls-5" d="M59.91,44.7a.64.64,0,0,0-.94.18c-.76,1.74-1.88,3.74-1.16,5.61.6,1.53,2.25,2.24,3.9,3a.63.63,0,0,0,.66-.08.56.56,0,0,0,.26-.12C65.67,50.5,62.26,46.92,59.91,44.7Z" transform="translate(54.61)"/><path class="cls-5" d="M65.69,49a.52.52,0,0,0,.28.08.63.63,0,0,0,.67,0c1.45-1,2.91-1.91,3.13-3.51.28-1.94-1.3-3.74-2.45-5.34a.64.64,0,0,0-1,0C64.57,42.74,62.05,46.76,65.69,49Z" transform="translate(54.61)"/><path class="cls-5" d="M91.38,93.71a.3.3,0,0,0,.05.23.42.42,0,0,0,.35.46c1.79.51,3.53,1.06,5.4.43,2.27-.76,3.48-2.72,4.68-4.31a.44.44,0,0,0-.43-.68C97.77,89.84,92.11,90.08,91.38,93.71Z" transform="translate(54.61)"/><path class="cls-6" d="M80.92,101.36a.32.32,0,0,0,0,.24.41.41,0,0,0,.35.45c1.79.52,3.53,1.06,5.4.44,2.28-.77,3.48-2.73,4.68-4.31a.45.45,0,0,0-.43-.69C87.3,97.5,81.64,97.73,80.92,101.36Z" transform="translate(54.61)"/><path class="cls-5" d="M73.22,104.31a.34.34,0,0,0-.09.23.35.35,0,0,0,.05.53c1.3,1.1,2.54,2.21,4.56,2.32,2.47.14,4.67-1.18,6.64-2.16a.41.41,0,0,0,0-.77C81.12,103.16,75.94,101.34,73.22,104.31Z" transform="translate(54.61)"/><path class="cls-5" d="M64.8,109.13a.32.32,0,0,0-.09.22.35.35,0,0,0,.05.53c1.3,1.11,2.54,2.22,4.56,2.33C71.79,112.34,74,111,76,110a.4.4,0,0,0,0-.76C72.7,108,67.52,106.15,64.8,109.13Z" transform="translate(54.61)"/><path class="cls-6" d="M84.76,93.9a.31.31,0,0,0,.11.22c0,.19.17.35.46.39,1.89.21,3.74.45,5.39-.47,2-1.13,2.68-3.25,3.43-5,.13-.29-.17-.67-.6-.59C90,89.06,84.51,90.23,84.76,93.9Z" transform="translate(54.61)"/><path class="cls-5" d="M72.84,117.1a.27.27,0,0,0-.13.16.27.27,0,0,0-.08.4,4.91,4.91,0,0,0,2.86,2.41c1.81.47,3.76-.2,5.47-.64.28-.07.44-.39.18-.57C79,117.4,75.57,115.28,72.84,117.1Z" transform="translate(54.61)"/><path class="cls-5" d="M89.41,103.74a.37.37,0,0,0,.12.22.48.48,0,0,0,.49.36c1.89.14,3.76.31,5.36-.67,2-1.2,2.48-3.34,3.13-5.11a.5.5,0,0,0-.64-.58C94.33,98.71,88.94,100.08,89.41,103.74Z" transform="translate(54.61)"/><path class="cls-6" d="M37.72,72.84a.56.56,0,0,0-.8.43c.07,1.85-.1,4,1.41,5.58,1.24,1.27,3.1,1.47,5,1.71a.54.54,0,0,0,.58-.26.41.41,0,0,0,.19-.18C45.69,76.67,40.91,74.27,37.72,72.84Z" transform="translate(54.61)"/><path class="cls-6" d="M31.11,80.57a.44.44,0,0,0-.43.68c1.2,1.58,2.4,3.54,4.68,4.31,1.86.63,3.61.08,5.39-.44a.42.42,0,0,0,.36-.45.34.34,0,0,0,0-.23C40.42,80.81,34.76,80.57,31.11,80.57Z" transform="translate(54.61)"/><path class="cls-5" d="M33.36,104.16a.42.42,0,0,0-.26.74c1.57,1.37,3.23,3.11,5.66,3.51,2,.33,3.55-.48,5.18-1.26a.39.39,0,0,0,.24-.5.31.31,0,0,0,0-.23C42.56,103,37,103.61,33.36,104.16Z" transform="translate(54.61)"/><path class="cls-5" d="M42.46,111.46a.42.42,0,0,0-.25.74c1.56,1.37,3.22,3.11,5.65,3.51,2,.33,3.56-.48,5.18-1.26a.39.39,0,0,0,.24-.5.34.34,0,0,0,0-.24C51.66,110.26,46.05,110.9,42.46,111.46Z" transform="translate(54.61)"/><path class="cls-6" d="M49.19,116.38a.41.41,0,0,0-.25.73c1.56,1.37,3.23,3.11,5.65,3.51,2,.33,3.56-.48,5.18-1.26a.38.38,0,0,0,.24-.5.27.27,0,0,0,0-.23C58.39,115.18,52.78,115.82,49.19,116.38Z" transform="translate(54.61)"/><path class="cls-5" d="M57.53,121.05c-.22.14-.1.4.13.47,1.39.4,3,1,4.48.63a4.13,4.13,0,0,0,2.42-1.93.21.21,0,0,0-.06-.33.19.19,0,0,0-.09-.13C62.22,118.21,59.32,119.89,57.53,121.05Z" transform="translate(54.61)"/><path class="cls-5" d="M74,121.05a.28.28,0,0,1-.12.47c-1.17.4-2.52,1-3.79.63A3.69,3.69,0,0,1,68,120.22a.24.24,0,0,1,0-.33.2.2,0,0,1,.08-.13C70,118.21,72.48,119.89,74,121.05Z" transform="translate(54.61)"/><path class="cls-6" d="M34.66,88.69c-.42-.09-.74.27-.63.57.65,1.77,1.17,3.91,3.13,5.12,1.6,1,3.46.81,5.35.67a.49.49,0,0,0,.49-.37.32.32,0,0,0,.12-.22C43.59,90.81,38.2,89.43,34.66,88.69Z" transform="translate(54.61)"/><path class="cls-5" d="M34.66,94.72c-.42-.09-.74.28-.63.57.65,1.78,1.17,3.92,3.13,5.12,1.6,1,3.46.81,5.35.67a.49.49,0,0,0,.49-.37.32.32,0,0,0,.12-.21C43.59,96.84,38.2,95.47,34.66,94.72Z" transform="translate(54.61)"/><path class="cls-5" d="M77.12,112.73a.3.3,0,0,0-.1.23.35.35,0,0,0,0,.53c1.29,1.1,2.52,2.22,4.54,2.34,2.47.15,4.68-1.16,6.66-2.13a.4.4,0,0,0,0-.76C85,111.61,79.86,109.77,77.12,112.73Z" transform="translate(54.61)"/><path class="cls-5" d="M81.73,109.81a.31.31,0,0,0,0,.24.36.36,0,0,0,.17.51c1.53.9,3,1.81,5,1.63,2.46-.23,4.32-1.84,6-3.09a.41.41,0,0,0-.16-.75C89.23,107.53,83.72,106.49,81.73,109.81Z" transform="translate(54.61)"/><path class="cls-5" d="M60.09,56.06a.38.38,0,0,0,.18,0,.38.38,0,0,0,.42-.05c.81-.7,1.64-1.36,1.64-2.37,0-1.24-1.16-2.27-2-3.21a.4.4,0,0,0-.6,0C58.81,52.17,57.6,54.83,60.09,56.06Z" transform="translate(54.61)"/><path class="cls-5" d="M46.55,84.13a.36.36,0,0,0,.18,0,.38.38,0,0,0,.39-.14c.55-.84,1.12-1.66.77-2.64-.42-1.19-1.87-1.94-3-2.66-.19-.12-.54-.06-.57.16C44,80.66,43.74,83.48,46.55,84.13Z" transform="translate(54.61)"/><path class="cls-6" d="M59.72,89.74a.37.37,0,0,0,.17.05.4.4,0,0,0,.42,0c.94-.6,1.88-1.17,2-2.17.22-1.22-.73-2.37-1.42-3.4a.41.41,0,0,0-.61,0C59.15,85.75,57.47,88.25,59.72,89.74Z" transform="translate(54.61)"/><path class="cls-5" d="M75.43,76.23a.47.47,0,0,0,.18.19.57.57,0,0,0,.59.25c1.88-.24,3.74-.44,5-1.71,1.51-1.55,1.34-3.73,1.4-5.57a.55.55,0,0,0-.79-.43C78.6,70.38,73.81,72.78,75.43,76.23Z" transform="translate(54.61)"/><path class="cls-6" d="M60.67,73a.79.79,0,0,0,.34,0,.89.89,0,0,0,.75-.19c1.3-1.22,2.62-2.4,2.34-3.87-.35-1.8-2.73-3-4.57-4.14-.31-.19-1-.12-1.1.2C57.27,67.73,55.79,71.91,60.67,73Z" transform="translate(54.61)"/><path class="cls-5" d="M73,59.16a.37.37,0,0,0,.19.16.66.66,0,0,0,.55.26c1.61,0,3.22,0,4.13-.93,1.11-1.1.66-2.84.47-4.29a.66.66,0,0,0-.77-.41C75,54.8,71.09,56.29,73,59.16Z" transform="translate(54.61)"/><path class="cls-5" d="M73.64,94a.46.46,0,0,0,.18.16.66.66,0,0,0,.55.25c1.62,0,3.22,0,4.14-.92,1.11-1.1.66-2.84.46-4.29a.64.64,0,0,0-.76-.42C75.61,89.62,71.74,91.11,73.64,94Z" transform="translate(54.61)"/><path class="cls-5" d="M71.92,121.26c-1.48,2.27-1.65,4.78-.85,7.74a32.37,32.37,0,0,0,2.66,6.33,10.91,10.91,0,0,0,1.16,1.22,13.56,13.56,0,0,0,16.72.31A14.16,14.16,0,0,0,96,131a18.35,18.35,0,0,0,1.29-7.37c-.06-2.25-.19-6.23-2.77-8.08a7.69,7.69,0,0,0-4.15-1.12,33.25,33.25,0,0,0-4.34-.06C80.2,114.68,74.85,116.74,71.92,121.26Z" transform="translate(54.61)"/><path class="cls-6" d="M71.07,129a32.37,32.37,0,0,0,2.66,6.33,10.91,10.91,0,0,0,1.16,1.22,13.56,13.56,0,0,0,16.72.31A14.16,14.16,0,0,0,96,131a20.16,20.16,0,0,1-4.89,3.57,11.42,11.42,0,0,1-6.38,1.67c-2.48-.14-5-1.4-7.51-2.76A28.59,28.59,0,0,1,71.07,129Z" transform="translate(54.61)"/><path class="cls-6" d="M91.88,111.85a.32.32,0,0,0-.44-.28c-.9.55-2,1.07-2.4,2.26a4.62,4.62,0,0,0,.53,3,.33.33,0,0,0,.29.23.33.33,0,0,0,.14,0C92.18,116.92,92.05,113.85,91.88,111.85Z" transform="translate(54.61)"/><path class="cls-5" d="M82.33,113.05a.32.32,0,0,0-.43-.28c-.91.55-2.05,1.07-2.41,2.26a4.63,4.63,0,0,0,.53,3,.31.31,0,0,0,.29.22.19.19,0,0,0,.15,0C82.64,118.11,82.51,115,82.33,113.05Z" transform="translate(54.61)"/><path class="cls-5" d="M76.89,114.18a.33.33,0,0,0-.51-.14c-.7.79-1.64,1.62-1.63,2.86a4.57,4.57,0,0,0,1.37,2.69.33.33,0,0,0,.35.13.27.27,0,0,0,.15,0C78.65,118.93,77.63,116,76.89,114.18Z" transform="translate(54.61)"/><path class="cls-5" d="M96.81,115.18a.32.32,0,0,0-.12-.51c-1-.24-2.21-.66-3.29,0a4.6,4.6,0,0,0-1.7,2.49.31.31,0,0,0,.06.36.27.27,0,0,0,.07.14C93.5,119,95.55,116.73,96.81,115.18Z" transform="translate(54.61)"/><path class="cls-5" d="M99.18,120.15a.28.28,0,0,1,.2.44c-.66.82-1.33,1.86-2.53,2.1a4.28,4.28,0,0,1-2.78-.75.29.29,0,0,1-.17-.29.19.19,0,0,1,0-.15C94.36,119.44,97.29,119.82,99.18,120.15Z" transform="translate(54.61)"/><path class="cls-6" d="M98.28,128.42a.3.3,0,0,1,.2.45c-.67.82-1.34,1.86-2.54,2.1a4.23,4.23,0,0,1-2.77-.75.27.27,0,0,1-.17-.3.21.21,0,0,1,0-.14C93.46,127.72,96.39,128.09,98.28,128.42Z" transform="translate(54.61)"/><path class="cls-5" d="M83.56,136.77a.29.29,0,0,1-.28.4c-1-.16-2.28-.21-3.1-1.12a4.31,4.31,0,0,1-.76-2.77.28.28,0,0,1,.17-.3.23.23,0,0,1,.12-.09C81.73,132.26,82.89,135,83.56,136.77Z" transform="translate(54.61)"/><path class="cls-6" d="M77.06,136.57a.54.54,0,0,0-.17.08.38.38,0,0,0-.3.28c-.16,1-.36,2,.35,2.73.86.92,2.5,1,3.84,1.22.23,0,.52-.16.47-.38C80.78,138.73,79.9,136,77.06,136.57Z" transform="translate(54.61)"/><path class="cls-6" d="M84.73,137.83a.29.29,0,0,0-.12.15.35.35,0,0,0-.14.38c.28,1,.53,1.93,1.5,2.3,1.18.45,2.69-.17,4-.58.22-.07.4-.37.25-.54C89,138.14,87.05,136.11,84.73,137.83Z" transform="translate(54.61)"/><path class="cls-6" d="M91.5,135.33a.58.58,0,0,0,0,.16.36.36,0,0,0,0,.36c.58.68,1.13,1.37,2,1.32,1.12-.06,2.12-1.1,3-1.9.15-.13.19-.44,0-.53C95.08,134,92.76,133.11,91.5,135.33Z" transform="translate(54.61)"/><path class="cls-6" d="M82,122.27a.44.44,0,0,0,.15.1.38.38,0,0,0,.38.1c.9-.31,1.81-.59,2.09-1.47.34-1.06-.36-2.36-.86-3.47-.08-.19-.38-.33-.53-.19C82,118.48,80.22,120.34,82,122.27Z" transform="translate(54.61)"/><path class="cls-6" d="M75.75,126.71a.37.37,0,0,0,.16.07.39.39,0,0,0,.39,0c.84-.47,1.68-.91,1.8-1.82.15-1.11-.78-2.25-1.47-3.26-.11-.17-.44-.25-.56-.09C75.05,123,73.61,125.14,75.75,126.71Z" transform="translate(54.61)"/><path class="cls-5" d="M88.38,121.59a.44.44,0,0,0,.07.17.37.37,0,0,0,.25.29c.93.25,1.84.52,2.56,0,.88-.7,1-2.16,1.23-3.36,0-.21-.14-.49-.34-.46C90.48,118.43,87.94,119,88.38,121.59Z" transform="translate(54.61)"/><path class="cls-5" d="M83.86,128.43a.52.52,0,0,0-.06.16.41.41,0,0,0,0,.4c.51.81,1,1.63,1.9,1.7,1.12.1,2.22-.89,3.19-1.62.17-.12.23-.45.06-.57C87.55,127.55,85.33,126.21,83.86,128.43Z" transform="translate(54.61)"/><path class="cls-6" d="M68.61,104.22s-.8,79.46,1.78,109.3H61.48S68,111.57,68.61,104.22Z" transform="translate(54.61)"/><path class="cls-6" d="M67.45,123.32s-7.22-9.65-9-13.58c0,0,7.27,14.43,8.61,19.44Z" transform="translate(54.61)"/><path class="cls-6" d="M67.42,140.67s5.15-4.86,10.73-9.81c0,0-7.1,10.67-10.31,15.67Z" transform="translate(54.61)"/><path class="cls-6" d="M67.74,119.2s4.21-5.67,5.29-8c0,0-4.24,8.54-5,11.54Z" transform="translate(54.61)"/><path class="cls-5" d="M100.07,193.33a.49.49,0,0,0-.29-.39,5.08,5.08,0,0,0-3.11.05,4,4,0,0,0-2.16,2.32v0c-.58.27-1.14.56-1.68.88a6.11,6.11,0,0,0,.28-1.92c0-.64-.1-2.55-1.23-2.28-.84.2-1.47,2-1.68,2.74a3.9,3.9,0,0,0,.28,3.09,23.3,23.3,0,0,0-2.72,2.63,6.33,6.33,0,0,0,0-1.74c-.09-.64-.42-2.52-1.5-2.11-.81.3-1.21,2.18-1.33,2.92a3.89,3.89,0,0,0,.81,3.24.51.51,0,0,0-.06.38c-.59.87-1.14,1.78-1.65,2.71l-.09.16a6.39,6.39,0,0,0-.4-1.9c-.23-.6-1-2.36-1.94-1.72-.71.48-.68,2.4-.63,3.15a3.9,3.9,0,0,0,1.53,3,.48.48,0,0,0,0,.29c-.36.74-.71,1.47-1,2.22a6.05,6.05,0,0,0-.6-1.42,4.26,4.26,0,0,0-1.24-1.48c-.12-1-1.74-.94-2.63-.71a7.28,7.28,0,0,0-2.29,1.07c.32-1.44.64-2.88,1-4.31,1.9,0,5.74-1.16,5.79-2.64,0-1.14-1.71-1.11-2.64-.87a7.17,7.17,0,0,0-2.6,1.31c.3-1.17.63-2.34,1-3.5,2,.13,5.39-.45,5.64-1.79.21-1.12-1.52-1.36-2.48-1.25a7.32,7.32,0,0,0-2.44.72,33.7,33.7,0,0,1,1.46-3.64c1.93.57,5.32.77,5.87-.47.46-1.05-1.17-1.67-2.14-1.79a7.15,7.15,0,0,0-2.65.19A21.79,21.79,0,0,1,82.9,187c1.68.89,5.58,1.73,6.34.46.58-1-1-1.8-1.9-2a7.15,7.15,0,0,0-2.76-.13,17.18,17.18,0,0,1,2.23-1.69.2.2,0,0,0,.11,0,5.26,5.26,0,0,0,3.48-.79,2.93,2.93,0,0,0,.8-2.72.47.47,0,0,0-.34-.34,5.19,5.19,0,0,0-3.07.52A3.94,3.94,0,0,0,86,183v0a17.11,17.11,0,0,0-1.52,1.13,6.65,6.65,0,0,0,0-1.94c-.11-.64-.5-2.5-1.57-2.06-.8.32-1.14,2.22-1.24,3a3.88,3.88,0,0,0,.76,3,21.54,21.54,0,0,0-2.28,3,6.78,6.78,0,0,0-.27-1.72c-.19-.63-.8-2.43-1.81-1.86-.75.42-.85,2.34-.86,3.09a3.86,3.86,0,0,0,1.31,3.08.46.46,0,0,0,0,.38c-.45,1-.86,1.93-1.22,2.93l-.06.17a6.26,6.26,0,0,0-.69-1.81c-.32-.56-1.33-2.18-2.18-1.4-.64.58-.3,2.47-.14,3.2a3.93,3.93,0,0,0,2,2.71.49.49,0,0,0,0,.31c-.24.78-.47,1.56-.68,2.35a6.43,6.43,0,0,0-.82-1.34c-.4-.51-1.65-2-2.37-1.06-.54.67.08,2.49.34,3.19a4,4,0,0,0,2.07,2.26c-.33,1.35-.64,2.71-.93,4.07a6.45,6.45,0,0,0-1-1.71l-.18-.22a1.35,1.35,0,0,0-.21-.84.76.76,0,0,0-1-.18.76.76,0,0,0-1,.18,1.35,1.35,0,0,0-.21.84l-.18.22a6.45,6.45,0,0,0-1,1.71c-.29-1.36-.6-2.72-.93-4.07a4,4,0,0,0,2.07-2.26c.26-.7.88-2.52.34-3.19-.72-.9-2,.55-2.37,1.06a6.43,6.43,0,0,0-.82,1.34c-.21-.79-.44-1.57-.68-2.35a.49.49,0,0,0,0-.31,3.93,3.93,0,0,0,2-2.71c.16-.73.5-2.62-.14-3.2-.85-.78-1.86.84-2.18,1.4a6.26,6.26,0,0,0-.69,1.81l-.06-.17c-.36-1-.77-2-1.22-2.93a.5.5,0,0,0,0-.38,3.86,3.86,0,0,0,1.31-3.08c0-.75-.11-2.67-.86-3.09-1-.57-1.62,1.23-1.81,1.86a6.35,6.35,0,0,0-.26,1.72,22.41,22.41,0,0,0-2.29-3,3.88,3.88,0,0,0,.76-3c-.1-.74-.44-2.64-1.24-3-1.07-.44-1.46,1.42-1.57,2.06a6.65,6.65,0,0,0,0,1.94A17.11,17.11,0,0,0,57,183v0a3.94,3.94,0,0,0-1.77-2.63,5.19,5.19,0,0,0-3.07-.52.47.47,0,0,0-.34.34,2.93,2.93,0,0,0,.8,2.72,5.26,5.26,0,0,0,3.48.79.2.2,0,0,0,.11,0,17.18,17.18,0,0,1,2.23,1.69,7.15,7.15,0,0,0-2.76.13c-.94.23-2.48,1.05-1.9,2,.76,1.27,4.66.43,6.34-.46a21.79,21.79,0,0,1,2.43,3.44,7.15,7.15,0,0,0-2.65-.19c-1,.12-2.6.74-2.14,1.79.55,1.24,4,1,5.87.47a33.7,33.7,0,0,1,1.46,3.64,7.32,7.32,0,0,0-2.44-.72c-1-.11-2.7.13-2.48,1.25.25,1.34,3.64,1.92,5.64,1.79.34,1.16.67,2.33,1,3.5a7.17,7.17,0,0,0-2.6-1.31c-.93-.24-2.68-.27-2.64.87.05,1.48,3.89,2.62,5.79,2.64.35,1.43.67,2.87,1,4.31A7.28,7.28,0,0,0,66,207.43c-.85-.22-2.36-.26-2.61.59-.75-.14-1.52,1.11-1.8,1.6A6.47,6.47,0,0,0,61,211c-.33-.75-.68-1.48-1-2.22a.57.57,0,0,0,0-.29,3.9,3.9,0,0,0,1.53-3c0-.75.08-2.67-.63-3.15-1-.64-1.71,1.12-2,1.72a6.39,6.39,0,0,0-.4,1.9c0-.06,0-.11-.08-.16-.51-.93-1.07-1.84-1.66-2.71a.47.47,0,0,0-.06-.38,3.86,3.86,0,0,0,.82-3.24c-.12-.74-.52-2.62-1.33-2.92-1.08-.41-1.41,1.47-1.5,2.11a6.33,6.33,0,0,0,0,1.74A22.62,22.62,0,0,0,52,197.84a3.9,3.9,0,0,0,.29-3.09c-.22-.72-.85-2.54-1.68-2.74-1.13-.27-1.22,1.64-1.23,2.28a6.11,6.11,0,0,0,.28,1.92c-.54-.32-1.11-.61-1.69-.88v0A4,4,0,0,0,45.82,193a5.08,5.08,0,0,0-3.11-.05.49.49,0,0,0-.29.39,2.91,2.91,0,0,0,1.21,2.56,5.24,5.24,0,0,0,3.56.25.25.25,0,0,0,.11,0,18,18,0,0,1,2.46,1.32,7.29,7.29,0,0,0-2.71.55c-.89.37-2.29,1.42-1.56,2.3.95,1.13,4.67-.29,6.19-1.43a22.16,22.16,0,0,1,2.94,3,7.26,7.26,0,0,0-2.66.22c-.93.26-2.45,1.13-1.83,2.09.73,1.15,4.06.43,5.88-.43a37.91,37.91,0,0,1,2,3.38,7.09,7.09,0,0,0-2.52-.35c-1,.05-2.64.55-2.26,1.62.46,1.29,3.9,1.34,5.86.9.56,1.17,1,2.2,1.49,3.31a7.22,7.22,0,0,0-2.77-.89c-1-.1-2.69.14-2.48,1.27.29,1.45,4.27,2,6.15,1.71.27.35,1,0,.92-.45l-.12-.29A4,4,0,0,0,64,211.41a9.13,9.13,0,0,0,.22-2,10.46,10.46,0,0,0,4.65,1.5l.36,1.79a7.33,7.33,0,0,0-2.34-1.12c-.94-.24-2.69-.27-2.65.87,0,1.42,3.59,2.53,5.56,2.63a.5.5,0,0,0,.78-.2,10,10,0,0,0,1-.8,10,10,0,0,0,1,.8.5.5,0,0,0,.78.2c2-.1,5.51-1.21,5.56-2.63a1.49,1.49,0,0,0,0-.21,3.79,3.79,0,0,0,1.42,1.7l-.12.29c-.07.44.65.8.92.45,1.88.28,5.86-.26,6.14-1.71.22-1.13-1.52-1.37-2.48-1.27a7.22,7.22,0,0,0-2.76.89c.47-1.11.93-2.14,1.48-3.31,2,.44,5.41.39,5.86-.9.39-1.07-1.29-1.57-2.26-1.62a7.15,7.15,0,0,0-2.52.35,35.73,35.73,0,0,1,2-3.38c1.82.86,5.15,1.58,5.88.43.61-1-.9-1.83-1.84-2.09a7.21,7.21,0,0,0-2.65-.22,21.59,21.59,0,0,1,2.94-3c1.52,1.14,5.24,2.56,6.19,1.43.72-.88-.68-1.93-1.57-2.3a7.25,7.25,0,0,0-2.71-.55,18.16,18.16,0,0,1,2.47-1.32.21.21,0,0,0,.11,0,5.24,5.24,0,0,0,3.56-.25A2.94,2.94,0,0,0,100.07,193.33Zm-28.68,16,.12-.14.12.14-.12.12Zm4.78,2.24a7.33,7.33,0,0,0-2.34,1.12l.36-1.79a11.28,11.28,0,0,0,4.12-1.17,9.45,9.45,0,0,0,.22,1.65,4.44,4.44,0,0,0,.19.62C78.34,211.35,77,211.39,76.17,211.6Z" transform="translate(54.61)"/></g><rect class="cls-7" x="-16.76" y="35.2" width="104.3" height="134.51" transform="translate(125.4 204.91) rotate(180)"/><polygon class="cls-8" points="105.91 167.28 116.83 167.28 70.43 36.74 59.51 36.74 105.91 167.28"/><polygon class="cls-8" points="125.19 167.28 130.66 167.28 84.25 36.74 78.79 36.74 125.19 167.28"/><polygon class="cls-8" points="72.13 167.28 77.59 167.28 39.11 50.86 37.95 58.44 72.13 167.28"/><rect class="cls-9" x="86.07" y="33.66" width="3.08" height="137.78" transform="translate(229.83 205.11) rotate(180)"/><rect class="cls-9" x="51.3" y="34.36" width="3.08" height="136.39" transform="translate(160.29 205.11) rotate(180)"/><rect class="cls-9" x="33.92" y="-18.49" width="3.08" height="107.38" transform="translate(54.87 70.66) rotate(-90)"/><rect class="cls-9" x="33.92" y="116.02" width="3.08" height="107.38" transform="translate(-79.64 205.17) rotate(-90)"/><rect class="cls-9" x="16.53" y="34.36" width="3.08" height="136.39" transform="translate(90.76 205.11) rotate(180)"/><rect class="cls-9" x="-18.24" y="33.66" width="3.08" height="137.78" transform="translate(21.22 205.11) rotate(180)"/><rect class="cls-9" x="36.38" y="101.02" width="107.38" height="3.08"/><rect class="cls-6" x="39.47" y="104.09" width="101.19" height="1.09"/><rect class="cls-6" x="39.47" y="167.28" width="101.19" height="1.09"/><rect class="cls-6" x="39.44" y="36.74" width="101.25" height="1.09"/><rect class="cls-6" x="198.95" y="67.29" width="79.33" height="47.83"/><rect class="cls-2" x="148.27" y="71.27" width="71.45" height="39.87" transform="translate(422.62 182.4) rotate(180)"/><rect class="cls-5" x="209.24" y="76.68" width="58.75" height="29.05"/><path class="cls-6" d="M213.38,105.72l-9.26-13.43a.88.88,0,0,0-1.46,0l-5.09,8.07-4.09-4.33a.87.87,0,0,0-1.4.18l-5.22,9.48Z" transform="translate(54.61)"/><path class="cls-9" d="M195.44,83.51a2.9,2.9,0,1,0,2.9-2.9A2.9,2.9,0,0,0,195.44,83.51Z" transform="translate(54.61)"/><path class="cls-9" d="M173.88,84.52c.14.31.47.35.77.41a21.61,21.61,0,0,0,3.51.12c.68,0,1.36,0,2,0a5.11,5.11,0,0,0,2.15.58c.82,0,1.49-.51,2.31-.58.48,0,1.9.14,1.5-.86s-3.06-.88-4-1.16a7.34,7.34,0,0,0-1.33-.3c-.63-.09-.52-.11-1.08-.47a3.21,3.21,0,0,0-.71-.37,2.14,2.14,0,0,0-1.61.08c-.57.26-.83.87-1.45,1S173.27,83.24,173.88,84.52Z" transform="translate(54.61)"/><path class="cls-9" d="M166.27,87.05a7.84,7.84,0,0,0,3.12.3,3.2,3.2,0,0,0,1.94-.56.76.76,0,0,0-.05-1.1,1,1,0,0,0-1-.2,3.68,3.68,0,0,0-2-.35,3.93,3.93,0,0,1-.84.18,6.75,6.75,0,0,1-.73-.22,1.54,1.54,0,0,0-.77,0C164.69,85.61,165.38,86.76,166.27,87.05Z" transform="translate(54.61)"/><path class="cls-6" d="M180,105.72l-5.78-10.33a.53.53,0,0,0-.92,0l-4.39,7.15-1.85-2.89a.54.54,0,0,0-.94.06l-2.86,6-4.81-11.16a.54.54,0,0,0-1,0l-2.82,7.93v3.2Z" transform="translate(54.61)"/><path class="cls-5" d="M122.53,57.79A18.11,18.11,0,0,1,104.44,39.7h.85a17.24,17.24,0,0,0,34.48,0h.85A18.1,18.1,0,0,1,122.53,57.79Z" transform="translate(54.61)"/><polygon class="cls-6" points="176.9 25.55 154.09 44.46 204.39 44.46 176.9 25.55"/><polygon class="cls-10" points="165.56 41.79 141.47 119.45 211.53 119.45 188.76 41.79 165.56 41.79"/><polygon class="cls-5" points="175.85 12.29 175.85 23.21 175.85 26.34 175.85 26.42 175.85 27.89 175.85 28.05 175.85 31.37 178.07 31.37 178.07 28.05 178.07 27.88 178.07 26.43 178.07 26.36 178.07 23.22 178.07 13.29 175.85 12.29"/><path class="cls-11" d="M175.87,28.05h2.18a2.62,2.62,0,0,1,2.62,2.62V36.1a0,0,0,0,1,0,0h-7.42a0,0,0,0,1,0,0V30.68A2.62,2.62,0,0,1,175.87,28.05Z"/><path class="cls-5" d="M126.57,45.09a4.32,4.32,0,1,0-4.32,4.33A4.32,4.32,0,0,0,126.57,45.09Z" transform="translate(54.61)"/><path class="cls-9" d="M122.31,47.8a3.54,3.54,0,0,1-2.7-2.07c-.09-.39-.68-.23-.59.16a4,4,0,0,0,3.12,2.5C122.53,48.46,122.7,47.87,122.31,47.8Z" transform="translate(54.61)"/><polygon class="cls-5" points="176.9 25.55 151.75 44.46 202.06 44.46 176.9 25.55"/><rect class="cls-5" x="174.56" y="23.22" width="4.67" height="4.67" rx="1.3"/></g><path class="cls-6" d="M183.72,165.39a5.08,5.08,0,0,0,2.93-1,24.85,24.85,0,0,1-.44,5.38c-1.15,1.85-4.34,5.26-4.12,5.24a10.16,10.16,0,0,0,2.56-.6,19.17,19.17,0,0,1-2,3.19c-1.55,2.07-3.75,3.72-4.59,6.24a.18.18,0,0,1-.1.11c0,.14-.17.25-.3.13-4.17-4-4.91-10-5.52-15.37,0-.26-.06-.51-.08-.77a16.77,16.77,0,0,0,3.84,3c.2.1-2.61-4.39-4-6.46a12.25,12.25,0,0,1,.72-3.85,31.87,31.87,0,0,1,4.27-7.3l.2-.27a12.51,12.51,0,0,0,1.79,3.24,37,37,0,0,0-.55-4.86q.6-.76,1.23-1.5c.56-.66,1.24-1.77,2.24-1.62s3.17,4.1,3.45,5.23c.12.49.23,1,.33,1.48.05.21.09.43.12.64a58.75,58.75,0,0,1,.75,6,3.62,3.62,0,0,1-.22.32C185.48,163.16,183.52,165.39,183.72,165.39Z" transform="translate(54.61)"/><path d="M179.93,163.4c2-.31,3.62-1.61,5.13-3,.22-.2-.05-.58-.28-.37a10.13,10.13,0,0,1-4.8,2.83q.65-4.59,1.54-9.14c.06-.3-.4-.37-.46-.07-.8,4-1.44,8.06-1.95,12.12a20.21,20.21,0,0,1-2.72-5.46c-.09-.29-.53-.11-.44.17a20.83,20.83,0,0,0,2.92,5.78.22.22,0,0,0,.17.09q-.16,1.33-.3,2.67a12.64,12.64,0,0,1-2-3.53c-.1-.29-.54-.11-.44.17a13.22,13.22,0,0,0,2.3,3.92.21.21,0,0,0,.1.06q-.47,4.4-.69,8.81l0,.1c-.06,1.08-.1,2.15-.11,3.23l-.06,2.1a.2.2,0,0,0,.07.16,102.82,102.82,0,0,0,2.5,19.67l.46-.11a97,97,0,0,1-2.49-22.26c0-.79.06-1.58.1-2.38a.2.2,0,0,0,.21,0,7.9,7.9,0,0,0,2.15-2.2c.17-.26-.2-.55-.36-.3a7.69,7.69,0,0,1-2,2q.39-7.6,1.45-15.14Z" transform="translate(54.61)"/><path class="cls-6" d="M163.59,177a5,5,0,0,1-2.76.24,17.42,17.42,0,0,0,1.93,3.89c1.51,1,5.22,2.53,5,2.59a10.59,10.59,0,0,1-2.35.39,15.44,15.44,0,0,0,2.58,1.76c1.92,1,4.27,1.55,5.72,3.17a.11.11,0,0,0,.11.05.17.17,0,0,0,.3,0c2.39-4.34,1.28-9.09.22-13.36l-.15-.61a15.41,15.41,0,0,1-2.39,3.52c-.14.14.94-4.16,1.51-6.16a9,9,0,0,0-1.73-2.66,25.45,25.45,0,0,0-5.75-4.08l-.26-.14a9.46,9.46,0,0,1-.58,3,27.75,27.75,0,0,1-.93-3.84c-.5-.25-1-.49-1.49-.72-.67-.31-1.57-.92-2.37-.48s-1.51,4.12-1.42,5.06c0,.41.09.81.15,1.22,0,.17,0,.35.08.52a42.59,42.59,0,0,0,1.13,4.78,2.46,2.46,0,0,0,.27.17A33.66,33.66,0,0,1,163.59,177Z" transform="translate(54.61)"/><path d="M177.6,204.74a73.79,73.79,0,0,0-3.59-15.6.17.17,0,0,0,0-.14l-.66-1.57c-.32-.8-.67-1.59-1-2.38l-.06-.07q-1.47-3.24-3.14-6.39a.16.16,0,0,0,.06-.08,10.28,10.28,0,0,0,.82-3.7c0-.25-.42-.23-.42,0a10.15,10.15,0,0,1-.69,3.32c-.34-.64-.69-1.27-1-1.91a.18.18,0,0,0,.12-.12,15.87,15.87,0,0,0,.8-5.3c0-.24-.42-.23-.42,0a15.39,15.39,0,0,1-.72,5q-2.41-4.34-5.18-8.48c-.14-.2-.51,0-.37.21,1.39,2.08,2.71,4.21,4,6.36a9.39,9.39,0,0,1-4.91-.55.2.2,0,0,0-.13.38,9.71,9.71,0,0,0,5.22.52h0q3.08,5.31,5.63,10.89a6.34,6.34,0,0,1-2.27-.89c-.21-.13-.44.21-.23.34a6.8,6.8,0,0,0,2.47.95.24.24,0,0,0,.19-.05c.26.58.52,1.17.77,1.75a69.76,69.76,0,0,1,4.36,17.55Z" transform="translate(54.61)"/><path d="M162.62,171.32a10.76,10.76,0,0,1-3.66-1.43c0,.17,0,.35.08.52a11.18,11.18,0,0,0,3.45,1.29C162.76,171.74,162.88,171.37,162.62,171.32Z" transform="translate(54.61)"/><path class="cls-6" d="M202.34,174.85c0,1.69-3.94,2.51-5.19,3-2.75,1-5.44,2.05-7.48,4.27a90,90,0,0,0-6.54,8.5.47.47,0,0,1-.49.21,8.54,8.54,0,0,1-.57-1.24c-.71-1.76-1.8-5-1.53-6.81a11,11,0,0,1,1.25-3.66,3.26,3.26,0,0,0,.78,1.55,31.35,31.35,0,0,0,.45-3.41c.19-.22.37-.44.56-.65a13.15,13.15,0,0,1,1.45-1.33l.33-.26q.64-.47,1.32-.87l.37-.21q.64-.36,1.32-.66a8.67,8.67,0,0,0,.73,2.42,16.57,16.57,0,0,0,.29-2.82,11,11,0,0,1,1.3-.42,6.42,6.42,0,0,0,.54,1.56,8.61,8.61,0,0,0,.85-1.9,17.1,17.1,0,0,1,4.2-.33l.35,0c.38,0,.75.07,1.12.13,1.35.21,4.53,1.06,4.59,2.89Z" transform="translate(54.61)"/><path d="M187.27,179.3c-3.33,3.28-4.37,9.32-4.58,11a7.43,7.43,0,0,0-.68,2.23,48.94,48.94,0,0,0-.22,8.3c0,.89.06,1.79.11,2.69l.46-.09c0-.56-.05-1.13-.07-1.7-.08-2.44-.08-4.89,0-7.33a11,11,0,0,1,.66-3.7.4.4,0,0,0,.15-.14,90,90,0,0,1,6.54-8.5c2-2.22,4.73-3.25,7.48-4.27,1.25-.46,5.16-1.28,5.19-3C197.12,175.46,191.1,175.52,187.27,179.3Z" transform="translate(54.61)"/><path d="M187.12,177.69a10.92,10.92,0,0,1-.07-3.78l-.37.21a11.13,11.13,0,0,0,.11,3.64C186.83,178,187.16,177.9,187.12,177.69Z" transform="translate(54.61)"/><path d="M185.85,178.36a14.21,14.21,0,0,1-.49-3.37l-.33.26a14.39,14.39,0,0,0,.48,3.19C185.57,178.65,185.91,178.58,185.85,178.36Z" transform="translate(54.61)"/><path class="cls-9" d="M172.11,210.64a11.92,11.92,0,0,1-4.62-7.13,11.76,11.76,0,0,1-.27-2.51,11.93,11.93,0,0,1,.29-2.61,11.22,11.22,0,0,1,.6-1.92h22.17a10.84,10.84,0,0,1,.6,1.91,12,12,0,0,1,.29,2.62,11.6,11.6,0,0,1-.27,2.5,11.92,11.92,0,0,1-4.62,7.14Z" transform="translate(54.61)"/><path d="M190.11,196.72a11.4,11.4,0,0,1,.53,1.72,12.1,12.1,0,0,1,.28,2.56,11.78,11.78,0,0,1-.26,2.45,11.64,11.64,0,0,1-4.46,6.94h-14a11.71,11.71,0,0,1-4.72-9.39,11.48,11.48,0,0,1,.29-2.56,10.93,10.93,0,0,1,.52-1.72Zm.34-.5H167.94a12.64,12.64,0,0,0-.67,2.11A12.34,12.34,0,0,0,167,201a12.78,12.78,0,0,0,.27,2.56,12.27,12.27,0,0,0,4.79,7.33h14.33a12.18,12.18,0,0,0,5.06-9.89,12.34,12.34,0,0,0-.29-2.67,12.67,12.67,0,0,0-.68-2.11Z" transform="translate(54.61)"/><path d="M191.42,201a12.18,12.18,0,0,1-5.06,9.89H172c18.73.93,18.42-14.67,18.42-14.67a12.67,12.67,0,0,1,.68,2.11A12.34,12.34,0,0,1,191.42,201Z" transform="translate(54.61)"/><path class="cls-9" d="M92.86,82.84a2.59,2.59,0,0,1-2.58-2.58V3.51A3.35,3.35,0,0,1,93.62.17H199a3.35,3.35,0,0,1,3.34,3.34V80.26a2.59,2.59,0,0,1-2.58,2.58Z" transform="translate(54.61)"/><path d="M199,.34a3.17,3.17,0,0,1,3.17,3.17V80.26a2.41,2.41,0,0,1-2.41,2.41H92.86a2.41,2.41,0,0,1-2.41-2.41V3.51A3.17,3.17,0,0,1,93.62.34ZM199,0H93.62a3.51,3.51,0,0,0-3.51,3.51V80.26A2.75,2.75,0,0,0,92.86,83H199.73a2.75,2.75,0,0,0,2.75-2.75V3.51A3.51,3.51,0,0,0,199,0Z" transform="translate(54.61)"/><path d="M202.48,12.08H90.11V3.51A3.51,3.51,0,0,1,93.62,0H199a3.51,3.51,0,0,1,3.51,3.51Z" transform="translate(54.61)"/><path class="cls-6" d="M109.44,6a1.86,1.86,0,1,1,1.85,1.86A1.85,1.85,0,0,1,109.44,6Z" transform="translate(54.61)"/><path class="cls-12" d="M102.3,6a1.86,1.86,0,1,1,1.85,1.86A1.85,1.85,0,0,1,102.3,6Z" transform="translate(54.61)"/><path class="cls-9" d="M97,7.73A1.69,1.69,0,1,1,98.7,6,1.69,1.69,0,0,1,97,7.73Z" transform="translate(54.61)"/><path d="M97,4.52A1.52,1.52,0,1,1,95.5,6,1.53,1.53,0,0,1,97,4.52Zm0-.33A1.86,1.86,0,1,0,98.87,6,1.85,1.85,0,0,0,97,4.19Z" transform="translate(54.61)"/><polygon class="cls-9" points="250.48 6.68 249.17 7.99 248.49 7.31 249.8 6 248.49 4.69 249.17 4.01 250.48 5.32 251.79 4.01 252.47 4.69 251.16 6 252.47 7.31 251.79 7.99 250.48 6.68"/><path d="M194.56,4.25l1.07,1.07.24.24.24-.24,1.07-1.07.44.43-1.07,1.08-.24.24.24.24,1.07,1.07-.44.44-1.07-1.07-.24-.24-.24.24-1.07,1.07-.44-.44,1.07-1.07.24-.24-.24-.24-1.07-1.08.44-.43Zm2.62-.48-1.31,1.31-1.31-1.31-.92.91L195,6l-1.31,1.31.92.92,1.31-1.31,1.31,1.31.92-.92L196.79,6l1.31-1.32-.92-.91Z" transform="translate(54.61)"/><rect x="165.31" y="77.3" width="11.7" height="0.47"/><rect x="203.86" y="21.22" width="18.75" height="0.47"/><rect x="248.16" y="23.83" width="0.47" height="11.39"/><rect x="231.16" y="55.56" width="10.6" height="0.47"/><rect x="180.37" y="77.3" width="44.3" height="0.47"/><rect x="157.32" y="35.03" width="0.47" height="15.31"/><rect x="158.01" y="35.23" width="0.47" height="15.11"/><rect x="179.81" y="17.27" width="0.47" height="11.97"/><path d="M137.58,26.45h-.24c-8.93,0-10.07-9.06-10.08-9.15l.47-.06c0,.35,1.09,8.58,9.37,8.73V17.58h.48Z" transform="translate(54.61)"/><polygon points="165.02 77.54 164.54 77.54 164.54 61.41 188.1 61.41 188.1 55.8 188.57 55.8 188.57 61.89 165.02 61.89 165.02 77.54"/><path d="M165.23,72.65h-6.84V60.31h6.84Zm-6.37-.48h5.89V60.78h-5.89Z" transform="translate(54.61)"/><path d="M155.74,41.48h-9.46V23.6h37v8.95H155.74Zm-9-.48h8.5V32.08h27.53v-8h-36Z" transform="translate(54.61)"/><path d="M121.4,47.81h-9.8v-10h9.8Zm-9.33-.48h8.86v-9h-8.86Z" transform="translate(54.61)"/><polygon points="182.34 77.08 181.87 77.08 181.87 65.61 176.01 65.61 176.01 77.08 175.54 77.08 175.54 65.13 182.34 65.13 182.34 77.08"/><path d="M171,53.74H154.94v-3H171Zm-15.58-.48h15.11v-2H155.42Z" transform="translate(54.61)"/><rect x="158.45" y="65.13" width="6.33" height="0.47"/><rect x="158.45" y="70.43" width="6.33" height="0.47"/><rect x="209.87" y="23.83" width="0.47" height="8.48"/><rect x="201.13" y="32.3" width="8.66" height="0.47"/><polygon points="202.75 41.24 202.28 41.24 202.28 24.86 237.64 24.86 237.64 25.34 202.75 25.34 202.75 41.24"/><polygon points="175.75 29.4 173.75 29.4 173.75 16.27 182.82 16.27 182.82 18.27 175.75 18.27 175.75 29.4"/><polygon points="197.58 29.4 195.58 29.4 195.58 18.27 191.96 18.27 191.96 16.27 197.58 16.27 197.58 29.4"/><rect x="196.58" y="20.46" width="9.1" height="2"/><polygon points="249.4 26.21 247.4 26.21 247.4 22.46 219.6 22.46 219.6 20.46 249.4 20.46 249.4 26.21"/><polygon points="249.4 56.8 240.65 56.8 240.65 54.8 247.4 54.8 247.4 32.85 249.4 32.85 249.4 56.8"/><rect x="197.61" y="54.8" width="35.12" height="2"/><rect x="157.9" y="54.8" width="32.44" height="2"/><polygon points="158.9 35.23 156.9 35.23 156.9 28.4 182.11 28.4 182.11 30.4 158.9 30.4 158.9 35.23"/><polygon points="166.45 78.54 156.9 78.54 156.9 50.02 158.9 50.02 158.9 76.54 166.45 76.54 166.45 78.54"/><rect x="174.12" y="76.54" width="10.13" height="2"/><polygon points="230.81 78.54 222.22 78.54 222.22 76.54 228.81 76.54 228.81 55.8 230.81 55.8 230.81 78.54"/><path class="cls-6" d="M72.9,204.52H70.58A1.54,1.54,0,0,1,69,203V192.15h5.42V203A1.55,1.55,0,0,1,72.9,204.52Z" transform="translate(54.61)"/><path class="cls-6" d="M103.68,207.59a5.25,5.25,0,0,0-3.34-6.63L75.82,192.9V178.33H67.65V193l-24.17,8a5.25,5.25,0,0,0-3.34,6.63l31.77-10.45h0Z" transform="translate(54.61)"/><path class="cls-6" d="M76.52,193.8H67.3V176.16a2.63,2.63,0,0,1,2.63-2.63h4a2.63,2.63,0,0,1,2.63,2.63Z" transform="translate(54.61)"/><path d="M47.91,205.69a5.17,5.17,0,1,0-5.16,5.17A5.16,5.16,0,0,0,47.91,205.69Z" transform="translate(54.61)"/><circle class="cls-6" cx="97.36" cy="205.69" r="4.04"/><path d="M76.9,205.69a5.17,5.17,0,1,0-5.16,5.17A5.16,5.16,0,0,0,76.9,205.69Z" transform="translate(54.61)"/><path class="cls-6" d="M75.78,205.69a4,4,0,1,0-4,4A4,4,0,0,0,75.78,205.69Z" transform="translate(54.61)"/><path d="M106.76,205.69a5.17,5.17,0,1,0-5.17,5.17A5.16,5.16,0,0,0,106.76,205.69Z" transform="translate(54.61)"/><path class="cls-6" d="M105.64,205.69a4,4,0,1,0-4,4A4,4,0,0,0,105.64,205.69Z" transform="translate(54.61)"/><path class="cls-12" d="M104.77,166.58a4.11,4.11,0,0,1-4.11,4.11H66.4l-2.46-.77c-6.18-2-22-7.11-23-8.76-1.31-2.06-4.43-31.09-4.43-31.09H70.74a4.11,4.11,0,0,1,4.42,3.77L76,152a11.43,11.43,0,0,0,11.33,10.47h13.37A4.11,4.11,0,0,1,104.77,166.58Z" transform="translate(54.61)"/><path d="M79,175.93H65.5c-2,0-3.59-2.85-3.59-6.36H82.59C82.59,173.08,81,175.93,79,175.93Z" transform="translate(54.61)"/><path class="cls-12" d="M104.77,166.58a4.11,4.11,0,0,1-4.11,4.11H63.94v-8.22h36.72A4.11,4.11,0,0,1,104.77,166.58Z" transform="translate(54.61)"/><path d="M66.4,170.69H53a19.68,19.68,0,0,1-19.53-18l-.79-18.16a4.11,4.11,0,1,1,8.19-.65L41.7,152A11.43,11.43,0,0,0,53,162.47H66.4a4.11,4.11,0,1,1,0,8.22Z" transform="translate(54.61)"/><path class="cls-9" d="M76.62,122.88a29.19,29.19,0,0,0,1.52,5.83c1.67,4.59,4.94,10.28,11,10.69,3.76.35,17-3.84,20.43-5.09.84-.29-2.2-3.55-2.2-3.55-.34,0-14.93,1-17.52-.52-.21-.12-3.75-12.84-4.15-13.45C81.73,111,76.48,120.72,76.62,122.88Z" transform="translate(54.61)"/><path d="M89.59,139.67l-.5,0c-6.14-.42-9.47-6.13-11.18-10.86a30,30,0,0,1-1.54-5.89h0c-.1-1.62,2.49-7,5.52-8,1-.35,2.57-.34,4,1.74.23.34,1.06,3.13,2.4,7.69.72,2.48,1.55,5.28,1.73,5.72,2.34,1.22,13.69.66,17.14.46l.31,0,.07.09c.62.65,2.6,2.85,2.4,3.63a.46.46,0,0,1-.29.33C106.5,135.68,94,139.67,89.59,139.67Zm-12.72-16.8a29.56,29.56,0,0,0,1.51,5.75c1.66,4.59,4.88,10.13,10.76,10.53,3.77.32,17.08-3.9,20.33-5.07.06-.28-.94-1.68-2.22-3.07h-.07c-4.5.26-15.21.73-17.47-.56-.16-.09-.19-.11-1.91-6-.9-3-2.12-7.22-2.33-7.55-1-1.46-2.15-2-3.42-1.54-2.72.93-5.27,6-5.18,7.48Z" transform="translate(54.61)"/><path class="cls-6" d="M73.09,126.45a17.33,17.33,0,0,0,6.83.66,8,8,0,0,0,1.21-.18l.12,0a18.52,18.52,0,0,0,3.39-1.29,35.11,35.11,0,0,0,5-2.82c-.09-1.2-3.34-7.9-7-12a19.7,19.7,0,0,0-3.47-3.15,7.8,7.8,0,0,0-1.76-1,3.74,3.74,0,0,0-1.64-.28,2.54,2.54,0,0,0-.71.17,2.27,2.27,0,0,0-.58.33C70.52,110,71.82,119.54,73.09,126.45Z" transform="translate(54.61)"/><path d="M75.6,119c.71,2-4.06,5.2-2.51,7.47A13.67,13.67,0,0,0,83.86,126c-5.17-4.23,7.41-9.25-5.08-15.58-.57-.22-3-3.83-2.91-3.75C75.75,111,74.14,114.81,75.6,119Z" transform="translate(54.61)"/><path class="cls-9" d="M107.69,130.25a7.78,7.78,0,0,1,2.22-2.36c.42-.16,1-.12.8.5a2.54,2.54,0,0,1-.82.93v0c1.74-.41,3.8-.37,5.11.77.85.74.39,1.3-.59,1-1.88-.59-3.35-.41-.49.29.58.14,1.7.72,1.6,1.15-.21.92-2.2.15-3.12-.07-.79.21,1.28,1.07,1.53,1.45,1.13,1.71-2.75.2-3,.41-.59.6,2.19,1.2,1,1.82-.89.46-3.19-1.15-4-1.22-.7-.07-1.92.18-2.43-.47C104.53,133.26,106.54,131.13,107.69,130.25Z" transform="translate(54.61)"/><path d="M111.55,136.49a6.6,6.6,0,0,1-2.32-.78,5.83,5.83,0,0,0-1.34-.53,5.78,5.78,0,0,0-.59,0c-.7,0-1.56,0-2-.56a1.44,1.44,0,0,1-.28-1.12c.16-1.29,1.69-2.79,2.51-3.42a6.84,6.84,0,0,1,2.31-2.42,1,1,0,0,1,1,.09.64.64,0,0,1,.09.73,2,2,0,0,1-.28.46,5.64,5.64,0,0,1,4.49,1c.68.59.55,1,.46,1.18a.87.87,0,0,1-.93.32c.56.27,1.19.7,1.08,1.19a.71.71,0,0,1-.36.48c-.57.34-1.65,0-2.52-.22l-.11,0,.51.32a3.28,3.28,0,0,1,.85.63c.1.15.39.6.16.94s-1.22.28-2.45,0a6.13,6.13,0,0,0-.66-.14,3.51,3.51,0,0,0,.51.36c.43.27.83.53.81.9s-.33.48-.43.53A1.1,1.1,0,0,1,111.55,136.49Zm-4-1.82.34,0a5.39,5.39,0,0,1,1.51.57c.82.38,2,.91,2.4.68a.5.5,0,0,0,.17-.13,2.69,2.69,0,0,0-.58-.43c-.4-.25-.77-.48-.8-.81a.44.44,0,0,1,.15-.4c.15-.16.37-.12,1.17.07.43.1,1.76.41,1.93.21h0s0-.1-.17-.38a3.41,3.41,0,0,0-.69-.48c-.7-.43-1.1-.69-1-1,0-.11.09-.26.36-.33l.06,0,.06,0c.16,0,.36.09.57.15.69.2,1.75.5,2.13.27a.24.24,0,0,0,.12-.17c0-.16-.75-.68-1.42-.85-1.69-.41-1.75-.6-1.78-.74l0-.15.12-.13c.36-.35,2.31.24,2.33.25.44.13.66,0,.7,0s0-.28-.35-.56c-1.53-1.33-3.94-1-4.9-.72l-1.08.25.87-.69a2.52,2.52,0,0,0,.75-.84c0-.12,0-.18,0-.2a.63.63,0,0,0-.5,0c-.32.12-1,.61-2.1,2.27l-.06,0c-.87.67-2.21,2.05-2.35,3.12a1,1,0,0,0,.19.75c.3.38,1,.37,1.61.36Z" transform="translate(54.61)"/><path class="cls-9" d="M107.88,130.43a4.35,4.35,0,0,1-2.35.81c-1.35,0-2.28,4.21-2.28,4.21l3.15-.34s1.23-.63,1.83-.37,1.14-3,1.14-3Z" transform="translate(54.61)"/><path class="cls-9" d="M105.45,195.26c-.25-.66-4.94-1.32-5.07-1-.41.86-1.68,4.2-1.39,4.76s4.83,1.65,5.19.81S105.69,195.9,105.45,195.26Z" transform="translate(54.61)"/><path d="M103.22,200.34c-1.42,0-4.15-.69-4.45-1.26-.41-.77,1.22-4.64,1.39-5s.28-.23.83-.2c.76,0,4.4.47,4.69,1.27h0c.32.85-1.26,4.66-1.27,4.7-.12.28-.45.43-1,.45Zm-2.65-5.94c-.56,1.19-1.54,4-1.35,4.45a9.41,9.41,0,0,0,4.35,1c.28,0,.37-.11.38-.13.52-1.23,1.43-3.86,1.27-4.33S101.28,194.27,100.57,194.4Zm0-.08h0Z" transform="translate(54.61)"/><path d="M99,197.85s-3.08,2.66-2.35,5.54c0,0,10.77,3.27,14.24,3.54,0,0,1.41-4.25-1.31-5.32a39.61,39.61,0,0,0-5.59-1.67S100.32,200.73,99,197.85Z" transform="translate(54.61)"/><path d="M69.13,157.62c3.85,5.46,14.12,6.07,21.8,6.83,4.61.46,8.28,1,9.07,2.63,3.08,6.49-1.62,21.76-1.65,28.38.39.94,1.65,1.3,3,1.41a20.71,20.71,0,0,0,4.84-.36c3.46-13.8,7.54-29,3.7-38.28-6.45-15.67-30.31-19-30.31-19C74.8,135.26,62.38,148.06,69.13,157.62Z" transform="translate(54.61)"/><path class="cls-9" d="M73.67,198.5c.06-.74-3.71-3.5-3.94-3.3-.7.62-3.14,3.22-3.11,3.89s3.49,3.76,4.13,3.12S73.62,199.21,73.67,198.5Z" transform="translate(54.61)"/><path d="M70.51,202.55a1.33,1.33,0,0,1-.5-.12c-1.13-.44-3.61-2.61-3.64-3.33s2.73-3.67,3.19-4.08c.16-.14.38-.06.57,0,.79.39,3.85,2.6,3.79,3.46h0c-.06.93-3,3.84-3,3.87A.61.61,0,0,1,70.51,202.55Zm-.69-7.09c-1,.89-3,3.16-2.95,3.62A9.26,9.26,0,0,0,70.28,202c.2.07.29,0,.3,0,.94-.93,2.8-3,2.84-3.55S70.53,195.7,69.82,195.46Z" transform="translate(54.61)"/><path d="M75.74,153.13c2.82,2.22,6,3.86,8.85,6a74.26,74.26,0,0,1,6.34,5.31c4.61.46,8.28,1,9.07,2.63,3.08,6.49-1.62,21.76-1.65,28.38.39.94,1.65,1.3,3,1.41a24.55,24.55,0,0,0,1.17-3.15,45.36,45.36,0,0,0,1.91-9.71c.62-6.55,1.19-12.3-2.35-17.75-2-3.06-3.85-5.68-5.19-9.16a17.22,17.22,0,0,0-3.51-6.2c-4.28-4.28-10.5-4.55-15.55-7.09l-.15,0a.44.44,0,0,0-.64-.33C73,145.57,71.64,149.87,75.74,153.13Z" transform="translate(54.61)"/><path d="M67.07,198s-3.73,1.12-4.26,4.19c0,0,8,8,10.83,9.82,0,0,2.93-3.4,1-5.65a40.64,40.64,0,0,0-4.14-4.12S67.05,201.36,67.07,198Z" transform="translate(54.61)"/><path d="M53.68,157.82c5.25,8.88,22.39,4.71,24,9.11,2.42,6.46-6.58,25.13-10.2,27.88.11.3,6.76,6.7,6.76,6.7,7.09-7.19,19.14-25.69,18.83-36.18-.47-16.27-27.18-24.1-27.18-24.1-3.59-3.46-13.33,3.32-13.64,11.21A9.52,9.52,0,0,0,53.68,157.82Z" transform="translate(54.61)"/><path d="M53.68,157.82c5.25,8.88,22.39,4.71,24,9.11,2.42,6.46-6.58,25.13-10.2,27.88.11.3,1.58,1.53,1.76,1.84,4.23-3.36,6.08-6.64,8.06-11.8,1.09-2.84,1.92-5.76,2.83-8.65s2.72-5.18,1.88-8.15c-1.41-5-5.09-6.53-9.65-6.61-16.72-.3-19.35-9.49-20.11-9A9.52,9.52,0,0,0,53.68,157.82Z" transform="translate(54.61)"/><path class="cls-6" d="M54.22,143.59l.26.1c.39.18.79.34,1.19.48l.09,0c.38.14.76.26,1.14.37l.81.23.47.13c.26.07.53.14.81.19,12.28,2.73,26.66-3.9,27.4-4.13h0v0c0-.07-.1-.28-.22-.62a1,1,0,0,0-.08-.2c0-.12-.09-.26-.15-.39-.17-.48-.4-1.07-.68-1.76-.09-.24-.19-.5-.3-.77L84.9,137l-.27-.67c-.62-1.54-1.37-3.32-2.17-5.17-.24-.55-.49-1.1-.74-1.66-.53-1.15-.23-.34-.78-1.43-.07-.14-.14-.28-.2-.42a1.92,1.92,0,0,1-.17-.39c-1-2.47-.57-3.82.44-5.13.56-.75,1.31-1.49,2-2.42a7,7,0,0,0,1.72-4.21c.11-2.49-1.6-5.67-4.5-7.49-1-.61-2-1.17-2.94-1.65a48.75,48.75,0,0,0-5.26-2.27,33,33,0,0,0-5.11,0h0a16.93,16.93,0,0,0-3.53.67c-8.05,2.54-5,10.77-3.63,17.71.16.79.3,1.57.39,2.32,0,.38.08.76.1,1.14,0,1-1.21,8.37-1.21,8.37s-.4,1-.51,1.26c-.24.56-.5,1.1-.76,1.62-.16.31-.32.62-.49.92l-.24.45c-.12.23-.26.46-.39.69-.31.56-.62,1.07-.92,1.58l-.36.61C55,142.26,54.55,143,54.22,143.59Z" transform="translate(54.61)"/><path d="M70.74,126.81c-.72,2.45-2.21,3.47-3.56,15.13,0-.38-6.94-16.7-7-17.08-.09-.75-.23-1.52-.39-2.32a12.44,12.44,0,0,1,2.55-3.22c3.34-3.16,0-11.6,0-11.6C70.72,110.05,71.5,124.21,70.74,126.81Z" transform="translate(54.61)"/><path class="cls-9" d="M74,101.64v3.25s.87,1.61,0,1.78c-1.93.38-4.7-2.61-4.7-2.61V99.7Z" transform="translate(54.61)"/><path d="M73.64,107c-2,0-4.42-2.6-4.53-2.72l-.07-.07V99.32l5.2,2.15v3.36c.14.28.56,1.16.3,1.7a.67.67,0,0,1-.51.39A2.56,2.56,0,0,1,73.64,107Zm-4.1-3c.43.44,2.78,2.79,4.4,2.47a.19.19,0,0,0,.15-.11c.12-.26-.12-.92-.32-1.31l0-.12v-3.08l-4.2-1.74Z" transform="translate(54.61)"/><path class="cls-9" d="M76.31,92.78a25.58,25.58,0,0,1,.49,7.09c-.25,2.33-5.11,4.29-7.69.3s-.46-8.62-.46-8.62Z" transform="translate(54.61)"/><path d="M73,102.71a4.88,4.88,0,0,1-4.12-2.41c-2.62-4.06-.57-8.66-.48-8.86l.08-.17,8,1.29,0,.17a25.15,25.15,0,0,1,.5,7.17,3.55,3.55,0,0,1-2.92,2.68A4.73,4.73,0,0,1,73,102.71ZM68.81,91.82c-.34.87-1.69,4.81.51,8.21a4.3,4.3,0,0,0,4.7,2.06,3.09,3.09,0,0,0,2.53-2.25A24.81,24.81,0,0,0,76.1,93Z" transform="translate(54.61)"/><path d="M76.89,89.16a4.75,4.75,0,0,1-2-.32c-2-.75-6.33-1-8.41,1.53-1.24,1.49-.82,4.95-.16,6.82.52,1.46,1.82,2.87,3.06,1.41a7,7,0,0,0,1.37-3.73,7.39,7.39,0,0,1,.32-1.31,3.45,3.45,0,0,1,3-.91c.2.31,3.3,1.95,4.52,1.12C81.72,91.61,78.39,89.05,76.89,89.16Z" transform="translate(54.61)"/><path class="cls-9" d="M70.93,94.82s-1.2-1-1.73.06a1.19,1.19,0,0,0,.87,1.83C70.64,96.64,71.14,95.36,70.93,94.82Z" transform="translate(54.61)"/><path d="M70,97a1.21,1.21,0,0,1-1-.57A1.52,1.52,0,0,1,69,94.77a1,1,0,0,1,.72-.58,1.91,1.91,0,0,1,1.39.44l0,0,0,.07a2.21,2.21,0,0,1-.31,1.61,1.09,1.09,0,0,1-.76.61Zm-.08-2.31-.12,0a.54.54,0,0,0-.38.32,1,1,0,0,0,0,1.11.68.68,0,0,0,.57.35c.1,0,.25-.11.4-.37A1.9,1.9,0,0,0,70.72,95,1.6,1.6,0,0,0,69.92,94.66Z" transform="translate(54.61)"/><path class="cls-9" d="M81,133.31s.78,3.77.84,4.1c0,0-22.47,6.43-24.35,1.1-2.9-8.17-1.88-9.24-1.95-17.71,0,0,11.92,2.47,10.75,3.08-.42.23-.42,8.67,0,9.17S79.29,133.29,81,133.31Z" transform="translate(54.61)"/><path d="M63.45,140.86c-3.14,0-5.59-.58-6.18-2.26-2.22-6.26-2.15-8.44-2-12.79,0-1.39.09-3,.07-5v-.1l.07-.08c.28-.31,9.1,2,10,2.33s1.25.56,1.27.8a.32.32,0,0,1-.16.31c-.34.79-.3,8.23.06,8.82.59.27,8.8.21,12.3.18h2.39l0,.2c0,.16.78,3.77.83,4.11l0,.22-.21.06C81.28,137.83,70.58,140.86,63.45,140.86ZM55.81,121.1c0,1.9,0,3.4-.07,4.73-.12,4.42-.18,6.43,2,12.6,1.69,4.78,21.51-.56,23.83-1.2-.15-.75-.61-3-.75-3.67h-2c-10.37.08-12.4-.06-12.67-.36-.53-.56-.49-7.43-.24-9a1.39,1.39,0,0,1,.14-.46C65,123.1,57.49,121.42,55.81,121.1Z" transform="translate(54.61)"/><path class="cls-6" d="M68,125.55c.28-1.19,1.93-9.14-.3-14.14-1-2.28-3.67-7.23-6.63-6.16-4.73,1.72-6.35,11.26-7.22,18.23C58.1,126.27,62.53,127.3,68,125.55Z" transform="translate(54.61)"/><path class="cls-9" d="M81.3,133.31a7.64,7.64,0,0,1,1.24-3c.35-.3.93-.47.92.18a2.48,2.48,0,0,1-.43,1.17,0,0,0,0,1,0,0c1.49-1,3.43-1.69,5.06-1.08,1.06.39.82,1.08-.2,1.14-2,.11-3.28.8-.35.45.59-.08,1.84.07,1.9.51.13.94-2,.91-2.94,1-.67.47,1.57.55,1.93.82,1.67,1.21-2.5,1.16-2.62,1.43-.35.77,2.47.35,1.57,1.35-.68.75-3.39,0-4.22.28s-1.73.85-2.44.42C79.4,137.24,80.53,134.54,81.3,133.31Z" transform="translate(54.61)"/><path d="M81.26,138.43a1.29,1.29,0,0,1-.68-.18,1.45,1.45,0,0,1-.66-.95c-.3-1.27.61-3.21,1.15-4.09a6.64,6.64,0,0,1,1.31-3.07,1,1,0,0,1,1-.29.63.63,0,0,1,.33.66,1.89,1.89,0,0,1-.09.52,5.65,5.65,0,0,1,4.55-.65c.84.31.87.76.84.94s-.33.53-.76.63c.62.05,1.36.23,1.43.73a.73.73,0,0,1-.16.57c-.42.52-1.54.61-2.44.69H87l.59.12a2.87,2.87,0,0,1,1,.29c.15.1.58.42.48.82s-1,.69-2.3.86l-.66.1a2.58,2.58,0,0,0,.61.16c.49.11,1,.2,1.07.55a.7.7,0,0,1-.22.66c-.5.55-1.72.46-2.89.37a5.38,5.38,0,0,0-1.44,0,4.17,4.17,0,0,0-.55.2A4.09,4.09,0,0,1,81.26,138.43Zm1.87-8.13a.77.77,0,0,0-.42.21c-.26.23-.67.91-1.17,2.86l0,.07c-.58.94-1.35,2.7-1.1,3.75a.94.94,0,0,0,.43.63c.42.26,1.07,0,1.64-.23.22-.08.43-.16.61-.21a5.3,5.3,0,0,1,1.61,0c.91.07,2.14.16,2.48-.21a.47.47,0,0,0,.12-.17,2.68,2.68,0,0,0-.7-.21c-.46-.09-.88-.18-1-.47a.45.45,0,0,1,0-.43c.09-.2.3-.24,1.12-.35.49-.06,1.79-.24,1.88-.48h0s0-.1-.29-.3a4.87,4.87,0,0,0-.82-.2c-.81-.15-1.27-.26-1.34-.58a.41.41,0,0,1,.22-.44l.11,0,.59-.05c.72-.06,1.81-.15,2.09-.5a.24.24,0,0,0,.05-.2c-.05-.17-1-.37-1.62-.3-1.74.21-1.85.05-1.94-.06l-.08-.13.06-.16c.21-.46,2.25-.59,2.27-.59.46,0,.64-.19.65-.26s-.12-.25-.53-.4c-1.9-.71-4,.5-4.83,1l-.78.53.46-.91a2.32,2.32,0,0,0,.37-1c0-.12,0-.18,0-.19Z" transform="translate(54.61)"/><path class="cls-9" d="M81.59,133.25a2,2,0,0,1-1.1.32c-.65,0-2.64,2.16-2.58,3s1.91,1.35,1.91,1.35a1.92,1.92,0,0,1,1.18,0c.51.23,2.27-3.69,1.86-4.23A1.59,1.59,0,0,0,81.59,133.25Z" transform="translate(54.61)"/><path d="M50.42,101.09c.91,4.1,7.06,7.08,10.71,4.56,2.28-1.57,3.29-4.52,3.34-7.18,0-1.45-.34-3,0-4.4.56-2.79,2.26-2.85,3.73-4.57a.46.46,0,0,0,.08-.13.52.52,0,0,0,.12-.65c-1.28-2.61-5.85-3.92-8.26-2.18a7.67,7.67,0,0,0-2.62,4.77A37.65,37.65,0,0,0,57,95.67a10.47,10.47,0,0,1-.58,3.41c-1.17,2.31-3.94,1.58-5.14,1.43C50.9,100.3,50.3,100.56,50.42,101.09Z" transform="translate(54.61)"/><path class="cls-12" d="M65.23,90.88a4.77,4.77,0,0,1,3.14-2.58c.7-.25,1.18.8.48,1a3.69,3.69,0,0,0-2.53,1.92A.58.58,0,0,1,65.23,90.88Z" transform="translate(54.61)"/><path class="cls-9" d="M70.83,94.41l-.49.73c-.13.19.16,1.29-.07,1.86s2.1.23,2.21-.33a11.14,11.14,0,0,0,0-2Z" transform="translate(54.61)"/><rect class="cls-9" x="197.61" y="180.81" width="2.18" height="30.09"/><path d="M145.42,211.15h-2.67V180.57h2.67Zm-2.18-.49h1.69v-29.6h-1.69Z" transform="translate(54.61)"/><rect class="cls-9" x="134.83" y="209.05" width="18.52" height="1.85" transform="translate(342.78 419.96) rotate(180)"/><path d="M153.59,211.15h-19v-2.34h19Zm-18.52-.49h18V209.3h-18Z" transform="translate(54.61)"/><polygon class="cls-9" points="105.84 136.51 108.97 141.82 213.25 141.82 216.38 136.51 105.84 136.51"/><path d="M158.78,142.06H54.22l-3.43-5.79H162.2ZM54.5,141.57h104l2.84-4.81H51.66Z" transform="translate(54.61)"/><polygon class="cls-9" points="105.84 136.51 108.97 141.82 133.29 141.82 135.1 136.51 105.84 136.51"/><path d="M78.85,142.06H54.22l-3.43-5.79h30Zm-24.35-.49h24l1.64-4.81H51.66Z" transform="translate(54.61)"/><rect class="cls-9" x="129.5" y="180.81" width="2.18" height="30.09"/><path d="M77.32,211.15H74.65V180.57h2.67Zm-2.18-.49h1.69v-29.6H75.14Z" transform="translate(54.61)"/><rect class="cls-6" x="128.38" y="142.04" width="4.42" height="42.76"/><rect class="cls-6" x="196.49" y="142.03" width="4.42" height="42.76"/><rect class="cls-9" x="66.72" y="209.05" width="18.52" height="1.85" transform="translate(206.58 419.96) rotate(180)"/><path d="M85.49,211.15h-19v-2.34h19ZM67,210.66H85V209.3H67Z" transform="translate(54.61)"/><path class="cls-12" d="M54,73.4A16.56,16.56,0,1,1,37.37,57,16.56,16.56,0,0,1,54,73.4Z" transform="translate(54.61)"/><path class="cls-9" d="M35.56,83.27C34,83.19,31.29,80.41,27.41,75a1.42,1.42,0,0,1-.25-1.09,1.45,1.45,0,0,1,1.44-1.23,1.49,1.49,0,0,1,1.2.61,53.21,53.21,0,0,0,5.31,6.43l.22.21.16-.27c2.44-4,9.52-15.16,9.58-15.27A1.47,1.47,0,0,1,47.55,66c-2.41,3.81-9.46,15-10.2,16.33a1.86,1.86,0,0,1-1.51,1h-.28Z" transform="translate(54.61)"/><path d="M46.31,64h0a1.23,1.23,0,0,1,.65.19,1.22,1.22,0,0,1,.38,1.68c-2.59,4.09-9.48,15-10.21,16.34a1.59,1.59,0,0,1-1.31.83h-.25c-1.43-.08-4.18-2.9-7.95-8.16a1.2,1.2,0,0,1-.22-.9,1.25,1.25,0,0,1,.49-.79,1.23,1.23,0,0,1,.71-.23,1.24,1.24,0,0,1,1,.5,52.4,52.4,0,0,0,5.35,6.47l.45.42.32-.53C38,76,44.55,65.7,45.28,64.54a1.21,1.21,0,0,1,1-.57Zm0-.5a1.72,1.72,0,0,0-1.45.8c-.33.52-7.2,11.36-9.58,15.27A51.75,51.75,0,0,1,30,73.15a1.73,1.73,0,0,0-2.4-.39,1.71,1.71,0,0,0-.39,2.39c5.41,7.54,7.42,8.32,8.33,8.37h.31a2.06,2.06,0,0,0,1.71-1.09c.73-1.33,7.61-12.23,10.2-16.31a1.72,1.72,0,0,0-1.45-2.64Z" transform="translate(54.61)"/><rect x="138.29" y="134.7" width="25.05" height="1.73"/><rect x="161.12" y="133.91" width="1.45" height="1.03"/><rect x="159.02" y="133.91" width="1.45" height="1.03"/><rect x="156.91" y="133.91" width="1.45" height="1.03"/><rect x="154.81" y="133.91" width="1.45" height="1.03"/><rect x="152.71" y="133.91" width="1.45" height="1.03"/><rect x="150.61" y="133.91" width="1.45" height="1.03"/><rect x="148.5" y="133.91" width="1.45" height="1.03"/><rect x="146.4" y="133.91" width="1.45" height="1.03"/><rect x="144.3" y="133.91" width="1.45" height="1.03"/><rect x="142.19" y="133.91" width="1.45" height="1.03"/><rect x="140.09" y="133.91" width="1.45" height="1.03"/><polygon points="164.29 134.67 167.94 134.67 173.63 125.28 169.99 125.28 164.29 134.67"/><polygon class="cls-6" points="165.91 134.67 169.56 134.67 175.25 125.28 171.61 125.28 165.91 134.67"/><path d="M99.46,127.56h33.38a2,2,0,0,0,2-1.85l2.1-25.83a2,2,0,0,0-2-2.16H101.56a2,2,0,0,0-2,1.84l-2.1,25.83A2,2,0,0,0,99.46,127.56Z" transform="translate(54.61)"/><path class="cls-6" d="M100.69,127.56h34.79a1.31,1.31,0,0,0,1.3-1.2L139,99.13a1.31,1.31,0,0,0-1.3-1.41H102.91a1.32,1.32,0,0,0-1.31,1.2l-2.21,27.22A1.31,1.31,0,0,0,100.69,127.56Z" transform="translate(54.61)"/><path d="M99.13,136.27c2.1-2.21,7-3.76,12.76-3.76s10.65,1.55,12.75,3.76Z" transform="translate(54.61)"/><path class="cls-6" d="M101.44,136.27c2.1-2.21,7-3.76,12.75-3.76s10.65,1.55,12.75,3.76Z" transform="translate(54.61)"/><path d="M104.2,124.32h8.13a.47.47,0,0,0,.46-.42l.25-2.5a.46.46,0,0,0-.46-.5h-8.13a.46.46,0,0,0-.46.41l-.25,2.5A.47.47,0,0,0,104.2,124.32Z" transform="translate(54.61)"/></g></g></svg>