<svg xmlns="http://www.w3.org/2000/svg" xmlns:xlink="http://www.w3.org/1999/xlink" viewBox="0 0 395.23 235.81"><defs><style>.cls-1{fill:none;}.cls-2{fill:#e6ebf0;}.cls-3{clip-path:url(#clip-path);}.cls-4{fill:#c6d0db;}.cls-5{fill:#aab6c2;}.cls-6,.cls-7,.cls-8,.cls-9{fill:#fff;}.cls-6{opacity:0.35;}.cls-7{opacity:0.5;}.cls-8{opacity:0.6;}.cls-10{fill:#ff822e;}.cls-11{fill:#33373b;}</style><clipPath id="clip-path" transform="translate(0.61)"><path class="cls-1" d="M27,115c-7,36.54,19,67.71,74.68,67.48s20.35,45.3,66.84,48.15,69.17-25.62,63.4-88.8S225.09,4.52,129.27,28C68.83,42.79,33.5,80.78,27,115Z"/></clipPath></defs><g id="Слой_2" data-name="Слой 2"><g id="Layer_1" data-name="Layer 1"><rect x="33.58" y="230.85" width="189.8" height="1.44"/><path class="cls-2" d="M27,115c-7,36.54,19,67.71,74.68,67.48s20.35,45.3,66.84,48.15,69.17-25.62,63.4-88.8S225.09,4.52,129.27,28C68.83,42.79,33.5,80.78,27,115Z" transform="translate(0.61)"/><path class="cls-2" d="M65.65,192.15c17.26-4.2,51.19-7.73,62.06,8.39s.06,22-19.5,14.25S41.81,198,65.65,192.15Z" transform="translate(0.61)"/><g class="cls-3"><polygon class="cls-4" points="82.08 80.44 82.08 72.69 94.94 72.69 94.94 35.64 98.49 35.64 98.49 72.69 112.34 72.69 112.34 80.44 119.76 80.44 119.76 235.81 66.25 235.81 66.25 80.44 82.08 80.44"/><rect class="cls-5" x="66.25" y="80.44" width="7.42" height="139.76"/><rect class="cls-4" x="93" y="117.45" width="53.51" height="118.36"/><rect class="cls-5" x="93" y="117.45" width="7.42" height="118.36"/><rect class="cls-5" x="131.37" y="122.5" width="7.68" height="3.19"/><rect class="cls-5" x="118.44" y="122.5" width="7.68" height="3.19"/><rect class="cls-5" x="131.37" y="134.1" width="7.68" height="3.19"/><rect class="cls-5" x="118.44" y="134.1" width="7.68" height="3.19"/><rect class="cls-5" x="105.51" y="134.1" width="7.68" height="3.19"/><rect class="cls-5" x="131.37" y="145.7" width="7.68" height="3.19"/><rect class="cls-5" x="105.51" y="145.7" width="7.68" height="3.19"/><rect class="cls-5" x="118.44" y="151.5" width="7.68" height="3.19"/><rect class="cls-5" x="131.37" y="157.31" width="7.68" height="3.19"/><rect class="cls-5" x="118.44" y="163.11" width="7.68" height="3.19"/><rect class="cls-5" x="131.37" y="168.91" width="7.68" height="3.19"/><rect class="cls-5" x="105.51" y="168.91" width="7.68" height="3.19"/><rect class="cls-5" x="131.37" y="179.63" width="7.68" height="3.19"/><rect class="cls-5" x="118.44" y="179.63" width="7.68" height="3.19"/><rect class="cls-5" x="131.37" y="191.23" width="7.68" height="3.19"/><rect class="cls-5" x="118.44" y="191.23" width="7.68" height="3.19"/><rect class="cls-5" x="105.51" y="191.23" width="7.68" height="3.19"/><rect class="cls-5" x="131.37" y="202.84" width="7.68" height="3.19"/><rect class="cls-5" x="105.51" y="202.84" width="7.68" height="3.19"/><rect class="cls-5" x="118.44" y="208.64" width="7.68" height="3.19"/><rect class="cls-5" x="105.51" y="208.64" width="7.68" height="3.19"/><rect class="cls-5" x="131.37" y="214.44" width="7.68" height="3.19"/><rect class="cls-5" x="118.44" y="220.24" width="7.68" height="3.19"/><rect class="cls-5" x="131.37" y="226.04" width="7.68" height="3.19"/><rect class="cls-5" x="105.51" y="226.04" width="7.68" height="3.19"/><rect class="cls-4" x="221.03" y="117.45" width="53.51" height="118.36"/><rect class="cls-5" x="221.03" y="117.45" width="7.42" height="118.36"/><rect class="cls-4" x="145.02" y="61.16" width="71.79" height="174.66"/><rect class="cls-5" x="145.02" y="61.16" width="7.42" height="174.66"/><rect class="cls-5" x="198.04" y="69.52" width="11.21" height="4.65"/><rect class="cls-5" x="179.16" y="69.52" width="11.21" height="4.65"/><rect class="cls-5" x="198.04" y="86.47" width="11.21" height="4.65"/><rect class="cls-5" x="179.16" y="86.47" width="11.21" height="4.65"/><rect class="cls-5" x="160.28" y="86.47" width="11.21" height="4.65"/><rect class="cls-5" x="198.04" y="103.41" width="11.21" height="4.65"/><rect class="cls-5" x="160.28" y="103.41" width="11.21" height="4.65"/><rect class="cls-5" x="179.16" y="111.88" width="11.21" height="4.65"/><rect class="cls-5" x="198.04" y="120.35" width="11.21" height="4.65"/><rect class="cls-5" x="179.16" y="128.83" width="11.21" height="4.65"/><rect class="cls-5" x="198.04" y="137.3" width="11.21" height="4.65"/><rect class="cls-5" x="160.28" y="137.3" width="11.21" height="4.65"/><rect class="cls-5" x="198.04" y="152.96" width="11.21" height="4.65"/><rect class="cls-5" x="179.16" y="152.96" width="11.21" height="4.65"/><rect class="cls-5" x="198.04" y="169.9" width="11.21" height="4.65"/><rect class="cls-5" x="179.16" y="169.9" width="11.21" height="4.65"/><rect class="cls-5" x="160.28" y="169.9" width="11.21" height="4.65"/><rect class="cls-5" x="198.04" y="186.84" width="11.21" height="4.65"/><rect class="cls-5" x="160.28" y="186.84" width="11.21" height="4.65"/><rect class="cls-5" x="179.16" y="195.31" width="11.21" height="4.65"/><rect class="cls-5" x="160.28" y="195.31" width="11.21" height="4.65"/><rect class="cls-5" x="198.04" y="203.79" width="11.21" height="4.65"/><rect class="cls-5" x="179.16" y="212.26" width="11.21" height="4.65"/><rect class="cls-5" x="198.04" y="220.73" width="11.21" height="4.65"/><rect class="cls-5" x="160.28" y="220.73" width="11.21" height="4.65"/><rect class="cls-4" x="257.89" y="74.18" width="70.36" height="161.64"/><rect class="cls-5" x="257.89" y="74.18" width="7.27" height="161.64"/><rect class="cls-5" x="309.86" y="81.92" width="10.99" height="4.31"/><rect class="cls-5" x="291.35" y="81.92" width="10.99" height="4.31"/><rect class="cls-5" x="309.86" y="97.6" width="10.99" height="4.31"/><rect class="cls-5" x="291.35" y="97.6" width="10.99" height="4.31"/><rect class="cls-5" x="272.85" y="97.6" width="10.99" height="4.31"/><rect class="cls-5" x="309.86" y="113.28" width="10.99" height="4.31"/><rect class="cls-5" x="272.85" y="113.28" width="10.99" height="4.31"/><rect class="cls-5" x="291.35" y="121.12" width="10.99" height="4.31"/><rect class="cls-5" x="309.86" y="128.96" width="10.99" height="4.31"/><rect class="cls-5" x="291.35" y="136.8" width="10.99" height="4.31"/><rect class="cls-5" x="309.86" y="144.64" width="10.99" height="4.31"/><rect class="cls-5" x="272.85" y="144.64" width="10.99" height="4.31"/><rect class="cls-5" x="309.86" y="159.13" width="10.99" height="4.31"/><rect class="cls-5" x="291.35" y="159.13" width="10.99" height="4.31"/><rect class="cls-5" x="309.86" y="174.81" width="10.99" height="4.31"/><rect class="cls-5" x="291.35" y="174.81" width="10.99" height="4.31"/><rect class="cls-5" x="272.85" y="174.81" width="10.99" height="4.31"/><rect class="cls-5" x="309.86" y="190.49" width="10.99" height="4.31"/><rect class="cls-5" x="272.85" y="190.49" width="10.99" height="4.31"/><rect class="cls-5" x="291.35" y="198.33" width="10.99" height="4.31"/><rect class="cls-5" x="272.85" y="198.33" width="10.99" height="4.31"/><rect class="cls-5" x="309.86" y="206.17" width="10.99" height="4.31"/><rect class="cls-5" x="291.35" y="214.01" width="10.99" height="4.31"/><rect class="cls-5" x="309.86" y="221.85" width="10.99" height="4.31"/><rect class="cls-5" x="272.85" y="221.85" width="10.99" height="4.31"/><rect class="cls-4" x="30.5" y="125.57" width="45.32" height="110.25"/><rect class="cls-5" x="30.5" y="125.57" width="4.68" height="110.25"/><rect class="cls-5" x="63.96" y="130.85" width="7.08" height="2.94"/><rect class="cls-5" x="52.05" y="130.85" width="7.08" height="2.94"/><rect class="cls-5" x="63.96" y="141.54" width="7.08" height="2.94"/><rect class="cls-5" x="52.05" y="141.54" width="7.08" height="2.94"/><rect class="cls-5" x="40.13" y="141.54" width="7.08" height="2.94"/><rect class="cls-5" x="63.96" y="152.24" width="7.08" height="2.94"/><rect class="cls-5" x="40.13" y="152.24" width="7.08" height="2.94"/><rect class="cls-5" x="52.05" y="157.58" width="7.08" height="2.94"/><rect class="cls-5" x="63.96" y="162.93" width="7.08" height="2.94"/><rect class="cls-5" x="52.05" y="168.28" width="7.08" height="2.94"/><rect class="cls-5" x="63.96" y="173.63" width="7.08" height="2.94"/><rect class="cls-5" x="40.13" y="173.63" width="7.08" height="2.94"/><rect class="cls-5" x="63.96" y="183.51" width="7.08" height="2.94"/><rect class="cls-5" x="52.05" y="183.51" width="7.08" height="2.94"/><rect class="cls-5" x="63.96" y="194.21" width="7.08" height="2.94"/><rect class="cls-5" x="52.05" y="194.21" width="7.08" height="2.94"/><rect class="cls-5" x="40.13" y="194.21" width="7.08" height="2.94"/><rect class="cls-5" x="63.96" y="204.9" width="7.08" height="2.94"/><rect class="cls-5" x="40.13" y="204.9" width="7.08" height="2.94"/><rect class="cls-5" x="52.05" y="210.25" width="7.08" height="2.94"/><rect class="cls-5" x="40.13" y="210.25" width="7.08" height="2.94"/><rect class="cls-5" x="63.96" y="215.6" width="7.08" height="2.94"/><rect class="cls-5" x="52.05" y="220.94" width="7.08" height="2.94"/><rect class="cls-5" x="63.96" y="226.29" width="7.08" height="2.94"/><rect class="cls-5" x="40.13" y="226.29" width="7.08" height="2.94"/><rect class="cls-6" x="2.1" y="7.57" width="192.05" height="218.97"/><polygon class="cls-7" points="68.22 222.59 53.31 222.59 133.22 10.07 148.12 10.07 68.22 222.59"/><polygon class="cls-7" points="41.9 222.59 34.45 222.59 114.35 10.07 121.8 10.07 41.9 222.59"/><polygon class="cls-7" points="130.89 222.59 123.44 222.59 191.94 32.89 191.94 48.17 130.89 222.59"/><rect class="cls-6" x="195.16" y="3.24" width="192.05" height="218.97"/><polygon class="cls-7" points="226.93 222.59 212.02 222.59 291.92 10.07 306.83 10.07 226.93 222.59"/><polygon class="cls-7" points="200.61 222.59 193.15 222.59 273.06 10.07 280.51 10.07 200.61 222.59"/><polygon class="cls-8" points="322.96 222.59 315.51 222.59 384.01 32.89 384.01 48.17 322.96 222.59"/><path class="cls-9" d="M394.62,47.07V44.56h-6.9V5.06H-.61v5H3.58v1.76H127.43V44.56H-.61v2.51h128v64.3H-.61v2.51h128v64.3H-.61v2.51h128v41.9H3.62V224H-.61v5.8H387.72v-.47h0V180.69h6.9v-2.51h-6.9v-64.3h6.9v-2.51h-6.9V47.07Zm-199,66.81h59.81v64.3H195.67Zm0-2.51V47.07h59.81v64.3Zm0-66.81V11.84h59.81V44.56Zm0,136.13h59.81v41.9H195.69V224h0Zm64,41.9v-41.9H319.5v41.9Zm0-44.41v-64.3H319.5v64.3Zm0-66.81V47.07H319.5v64.3Zm0-66.81V11.84H319.5V44.56Zm64-32.72h59.82V44.56H323.7Zm-192.07,0h59.82V44.56H131.63Zm0,35.23h59.82v64.3H131.63Zm0,66.81h59.82v64.3H131.63Zm0,66.81h59.82V224h0v-1.45H131.63ZM383.52,224h0v-1.45H323.7v-41.9h59.82Zm0-45.86H323.7v-64.3h59.82Zm0-66.81H323.7V47.07h59.82Z" transform="translate(0.61)"/></g><path class="cls-9" d="M48.06,50.34a12.33,12.33,0,0,1-11.29-7.6l-.13-.32-.27.24a8.18,8.18,0,0,1-12.63-1.89l-.16-.28-.23.23a9.67,9.67,0,0,1-16.16-3.6l0-.11L7,37A10.83,10.83,0,0,1,.25,26.89,10.64,10.64,0,0,1,10.72,16.11a10,10,0,0,1,4.75,1.19l.41.21-.05-.46c-.05-.51-.07-1-.07-1.55A15,15,0,0,1,30.57.25,14.81,14.81,0,0,1,44.14,9.39l.13.32.27-.23a9.83,9.83,0,0,1,6.67-2.63A10.22,10.22,0,0,1,61.27,17.21a10.85,10.85,0,0,1-.1,1.42l-.05.38.37-.11A8.87,8.87,0,0,1,64,18.53a9.44,9.44,0,0,1,9.29,9.56,3.84,3.84,0,0,1,0,.39s0,.47,0,.56l0,.25a8.58,8.58,0,0,1-3.66,6.21c-.08.07-.36.24-.36.24l-.14.09a8.38,8.38,0,0,1-3.78,1.24l0,0-.08,0H65l-.4,0a8.32,8.32,0,0,1-3.95-1l-.41-.21,0,.46a11,11,0,0,1,.07,1.29A12.51,12.51,0,0,1,48.06,50.34Z" transform="translate(0.61)"/><path d="M30.57.5a14.57,14.57,0,0,1,13.34,9l.27.65.52-.48A9.66,9.66,0,0,1,51.21,7.1,10,10,0,0,1,61,17.21a10.4,10.4,0,0,1-.1,1.38l-.1.76.74-.21A8.79,8.79,0,0,1,64,18.78a9.19,9.19,0,0,1,9,9.3v.08a2.83,2.83,0,0,1,0,.29v.32c0,.08,0,.16,0,.24s0,.09,0,.13l0,.12a8.34,8.34,0,0,1-3.56,6,2.67,2.67,0,0,1-.28.19l-.06,0-.14.09a8.17,8.17,0,0,1-3.68,1.2H65l-.39,0a8.06,8.06,0,0,1-3.83-1L60,35.47l.09.92c0,.42.06.85.06,1.27A12.27,12.27,0,0,1,48.06,50.09,12.07,12.07,0,0,1,37,42.64L36.73,42l-.52.48A7.92,7.92,0,0,1,24,40.64l-.34-.56-.45.47A9.43,9.43,0,0,1,7.42,37l-.07-.22-.22-.09A10.55,10.55,0,0,1,.5,26.89,10.38,10.38,0,0,1,10.71,16.36a9.85,9.85,0,0,1,4.64,1.16l.82.43L16.08,17c0-.51-.07-1-.07-1.53A14.8,14.8,0,0,1,30.57.5Zm0-.5A15.28,15.28,0,0,0,15.51,15.5c0,.53,0,1.06.07,1.58a10.4,10.4,0,0,0-4.87-1.22A10.88,10.88,0,0,0,0,26.89,11,11,0,0,0,7,37.2a9.93,9.93,0,0,0,16.58,3.7,8.54,8.54,0,0,0,7.3,4.19,8.43,8.43,0,0,0,5.71-2.25,12.57,12.57,0,0,0,11.52,7.75A12.76,12.76,0,0,0,60.63,37.66a11.38,11.38,0,0,0-.07-1.31,8.73,8.73,0,0,0,4.07,1l.55,0h0l.11,0A8.54,8.54,0,0,0,69.21,36l.2-.12.31-.21a8.86,8.86,0,0,0,3.77-6.4,2.13,2.13,0,0,0,0-.25,3,3,0,0,0,0-.42c0-.16,0-.32,0-.48v-.07A9.68,9.68,0,0,0,64,18.28a9.48,9.48,0,0,0-2.62.38,10,10,0,0,0,.11-1.45A10.46,10.46,0,0,0,51.21,6.6a10.08,10.08,0,0,0-6.84,2.69A15.06,15.06,0,0,0,30.57,0Z" transform="translate(0.61)"/><path class="cls-9" d="M52.17,61.71a3.42,3.42,0,0,1-1.14-.2,3.32,3.32,0,0,1,1.14-6.45,3.17,3.17,0,0,1,1.13.2,3.32,3.32,0,0,1,2,4.26A3.33,3.33,0,0,1,52.17,61.71Z" transform="translate(0.61)"/><path d="M52.17,54.81v.5a3.18,3.18,0,0,1,1,.18,3.09,3.09,0,0,1,1.84,3.94,3.07,3.07,0,0,1-2.89,2,3.13,3.13,0,0,1-1.05-.18,3.09,3.09,0,0,1-1.74-1.59,3,3,0,0,1-.1-2.35,3.07,3.07,0,0,1,2.89-2v-.5Zm0,0A3.58,3.58,0,0,0,51,61.75a3.68,3.68,0,0,0,1.22.21A3.58,3.58,0,0,0,53.39,55a3.77,3.77,0,0,0-1.22-.21Z" transform="translate(0.61)"/><path class="cls-9" d="M58.59,69.91a1.93,1.93,0,0,1-.67-.12A2,2,0,0,1,58.59,66a1.89,1.89,0,0,1,.67.12,2,2,0,0,1-.67,3.83Z" transform="translate(0.61)"/><path d="M58.59,66.21a1.74,1.74,0,0,1,1.62,2.31,1.74,1.74,0,0,1-1.62,1.14,1.75,1.75,0,0,1-1.56-1,1.72,1.72,0,0,1,1.56-2.45Zm0-.5A2.22,2.22,0,0,0,57.83,70a2.27,2.27,0,0,0,.76.14,2.22,2.22,0,0,0,.76-4.31,2.27,2.27,0,0,0-.76-.14Z" transform="translate(0.61)"/><path class="cls-9" d="M47.24,21.61l-9.09-8.53a2,2,0,0,0-2.73,0l-9.09,8.53Z" transform="translate(0.61)"/><path d="M47.24,22a.39.39,0,0,1-.26-.1l-9.09-8.53a1.62,1.62,0,0,0-2.22,0l-9.09,8.53a.37.37,0,0,1-.53,0,.38.38,0,0,1,0-.53l9.09-8.53a2.39,2.39,0,0,1,3.25,0l9.09,8.53a.37.37,0,0,1,0,.53A.36.36,0,0,1,47.24,22Z" transform="translate(0.61)"/><path class="cls-9" d="M44.06,23.07v8.65A1.23,1.23,0,0,1,42.84,33H30.73a1.22,1.22,0,0,1-1.22-1.23V23.07Z" transform="translate(0.61)"/><path d="M42.84,33.32H30.73a1.6,1.6,0,0,1-1.6-1.6V23.07a.38.38,0,0,1,.75,0v8.65a.85.85,0,0,0,.85.85H42.84a.85.85,0,0,0,.85-.85V23.07a.37.37,0,0,1,.37-.37.38.38,0,0,1,.38.37v8.65A1.6,1.6,0,0,1,42.84,33.32Z" transform="translate(0.61)"/><path class="cls-10" d="M40.67,19.81a2.83,2.83,0,0,0-3.77,1.33,1.6,1.6,0,0,0-.12.35,2.34,2.34,0,0,0-.13-.35,2.83,2.83,0,0,0-5.11,2.42c.63,1.33,5.21,4.46,5.23,4.45s4.6-3.1,5.24-4.43A2.83,2.83,0,0,0,40.67,19.81Z" transform="translate(0.61)"/><rect class="cls-9" x="66.76" y="88.63" width="169.62" height="94.95" transform="translate(15.79 287.42) rotate(-89.89)"/><path d="M104.51,51.45l94.45.19-.32,169.12-94.45-.19.32-169.12ZM104,51l-.32,170.12,95.45.19.32-170.12L104,51Z" transform="translate(0.61)"/><path d="M196.17,44.63,141,45v7.16l27.94.06,19.92.11A12.15,12.15,0,0,1,201,64.46L200.7,203a12.15,12.15,0,0,1-12.17,12.13l-47.87.1,0,15,55.18.52A12.14,12.14,0,0,0,208,218.71l.3-161.9A12.14,12.14,0,0,0,196.17,44.63Z" transform="translate(0.61)"/><path class="cls-5" d="M192,44.58c-.28,0-.56,0-.85,0H106.33a7.88,7.88,0,0,0-7.88,7.87l0,170.47a7.88,7.88,0,0,0,7.87,7.87h84.86a7.68,7.68,0,0,0,.83,0,12.15,12.15,0,0,0,11.33-12.13l0-161.89A12.16,12.16,0,0,0,192,44.58Zm4,162.65a7.88,7.88,0,0,1-7.88,7.88H113.61a7.87,7.87,0,0,1-7.87-7.88l0-147.14a7.87,7.87,0,0,1,7.87-7.87h74.51A7.87,7.87,0,0,1,196,60.1Z" transform="translate(0.61)"/><path d="M160.82,226.59l-20.23,0a3.68,3.68,0,0,1-3.66-3.68h0a3.67,3.67,0,0,1,3.68-3.67l20.23,0a3.67,3.67,0,0,1,3.66,3.68h0A3.67,3.67,0,0,1,160.82,226.59Z" transform="translate(0.61)"/><path d="M196,62.83H105.74V55.18A3.14,3.14,0,0,1,108.87,52h84A3.14,3.14,0,0,1,196,55.18Z" transform="translate(0.61)"/><path class="cls-9" d="M123,57.44a1.66,1.66,0,1,1,1.66,1.65A1.66,1.66,0,0,1,123,57.44Z" transform="translate(0.61)"/><path class="cls-5" d="M116.62,57.44a1.66,1.66,0,1,1,1.66,1.65A1.66,1.66,0,0,1,116.62,57.44Z" transform="translate(0.61)"/><path class="cls-10" d="M110.24,57.44a1.66,1.66,0,1,1,1.66,1.65A1.66,1.66,0,0,1,110.24,57.44Z" transform="translate(0.61)"/><polygon class="cls-9" points="188.74 56.23 189.56 55.41 190.73 56.58 191.9 55.41 192.72 56.23 191.55 57.4 192.72 58.57 191.9 59.39 190.73 58.22 189.56 59.39 188.74 58.57 189.91 57.4 188.74 56.23"/><circle class="cls-2" cx="153.33" cy="112.16" r="42"/><polygon class="cls-11" points="154.37 90.52 150.18 87.16 150.09 80.52 154.37 80.52 154.37 90.52"/><rect class="cls-5" x="154.37" y="80.52" width="3.79" height="10"/><rect x="149.41" y="79.81" width="5.35" height="1.41"/><rect class="cls-11" x="154.76" y="79.81" width="3.9" height="1.41"/><polygon points="127.82 97.85 153.31 97.85 166.04 85.52 140.55 85.52 127.82 97.85"/><polygon class="cls-5" points="130.23 97.85 153.31 97.85 158.43 85.52 142.97 85.52 130.23 97.85"/><rect class="cls-5" x="130.23" y="97.85" width="23" height="41.29"/><rect x="136.71" y="119.77" width="11.33" height="19.37"/><rect class="cls-10" x="136.15" y="119.85" width="11.16" height="19.2"/><path d="M146.61,119.94v19h-11v-19Zm.18-.17H135.46v19.37h11.33V119.77Z" transform="translate(0.61)"/><path d="M144.69,94.21c0,2.39-1.37,4.32-3.06,4.32s-3.06-1.93-3.06-4.32,1.37-4.31,3.06-4.31S144.69,91.83,144.69,94.21Z" transform="translate(0.61)"/><path class="cls-9" d="M144.18,94.21c0,2.39-1.37,4.32-3.06,4.32s-3.06-1.93-3.06-4.32,1.37-4.31,3.06-4.31S144.18,91.83,144.18,94.21Z" transform="translate(0.61)"/><path d="M141.12,98.76c-1.81,0-3.28-2-3.28-4.55s1.47-4.54,3.28-4.54,3.29,2,3.29,4.54S142.93,98.76,141.12,98.76Zm0-8.64c-1.56,0-2.83,1.84-2.83,4.09s1.27,4.09,2.83,4.09S144,96.47,144,94.21,142.68,90.12,141.12,90.12Z" transform="translate(0.61)"/><path class="cls-9" d="M141.12,89.9v0Z" transform="translate(0.61)"/><rect x="141.62" y="89.9" width="0.23" height="8.63"/><path class="cls-9" d="M138.06,94.21h0Z" transform="translate(0.61)"/><rect x="138.67" y="94.1" width="6.12" height="0.23"/><rect class="cls-11" x="153.17" y="97.85" width="23" height="41.29"/><rect x="155.93" y="103.44" width="7.68" height="11.04"/><rect class="cls-9" x="156.62" y="103.67" width="7.23" height="10.59"/><path d="M163,103.9V114h-6.78V103.9Zm.45-.46h-7.68v11h7.68v-11Z" transform="translate(0.61)"/><path class="cls-9" d="M159.63,103.65v0Z" transform="translate(0.61)"/><rect x="160.12" y="103.65" width="0.23" height="10.68"/><path class="cls-9" d="M156,109h0Z" transform="translate(0.61)"/><rect x="156.57" y="108.88" width="7.51" height="0.23"/><rect x="165.63" y="103.44" width="7.68" height="11.04"/><rect class="cls-9" x="166.27" y="103.67" width="7.23" height="10.59"/><path d="M172.66,103.9V114h-6.77V103.9Zm.46-.46h-7.69v11h7.69v-11Z" transform="translate(0.61)"/><path class="cls-9" d="M169.28,103.65v0Z" transform="translate(0.61)"/><rect x="169.77" y="103.65" width="0.23" height="10.68"/><path class="cls-9" d="M165.6,109h0Z" transform="translate(0.61)"/><rect x="166.21" y="108.88" width="7.51" height="0.23"/><rect x="142.85" y="103.44" width="7.68" height="11.04" transform="translate(293.98 217.93) rotate(180)"/><rect class="cls-9" x="143.22" y="103.67" width="7.23" height="10.59"/><path d="M149.61,103.9V114h-6.77V103.9Zm.45-.46h-7.68v11h7.68v-11Z" transform="translate(0.61)"/><path class="cls-9" d="M146.22,103.65v0Z" transform="translate(0.61)"/><rect x="146.72" y="103.65" width="0.23" height="10.68"/><path class="cls-9" d="M149.89,109h0Z" transform="translate(0.61)"/><rect x="142.99" y="108.88" width="7.51" height="0.23"/><rect x="133.15" y="103.44" width="7.68" height="11.04" transform="translate(274.59 217.93) rotate(180)"/><rect class="cls-9" x="133.57" y="103.67" width="7.23" height="10.59"/><path d="M140,103.9V114h-6.77V103.9Zm.46-.46h-7.68v11h7.68v-11Z" transform="translate(0.61)"/><path class="cls-9" d="M136.58,103.65v0Z" transform="translate(0.61)"/><rect x="137.07" y="103.65" width="0.23" height="10.68"/><path class="cls-9" d="M140.25,109h0Z" transform="translate(0.61)"/><rect x="133.34" y="108.88" width="7.51" height="0.23"/><rect x="155.93" y="120.99" width="7.68" height="11.04"/><rect class="cls-9" x="156.62" y="121.21" width="7.23" height="10.59"/><path d="M163,121.44v10.13h-6.78V121.44Zm.45-.45h-7.68v11h7.68V121Z" transform="translate(0.61)"/><path class="cls-9" d="M159.63,121.19v0Z" transform="translate(0.61)"/><rect x="160.12" y="121.19" width="0.23" height="10.68"/><path class="cls-9" d="M156,126.54h0Z" transform="translate(0.61)"/><rect x="156.57" y="126.42" width="7.51" height="0.23"/><rect x="165.63" y="120.99" width="7.68" height="11.04"/><rect class="cls-9" x="166.27" y="121.21" width="7.23" height="10.59"/><path d="M172.66,121.44v10.13h-6.77V121.44Zm.46-.45h-7.69v11h7.69V121Z" transform="translate(0.61)"/><path class="cls-9" d="M169.28,121.19v0Z" transform="translate(0.61)"/><rect x="169.77" y="121.19" width="0.23" height="10.68"/><path class="cls-9" d="M165.6,126.54h0Z" transform="translate(0.61)"/><rect x="166.21" y="126.42" width="7.51" height="0.23"/><polygon points="178.59 98.26 153.1 98.26 140.36 85.93 165.85 85.93 178.78 97.85 178.59 98.26"/><polygon class="cls-10" points="153.29 97.76 140.76 85.61 166.04 85.61 178.57 97.76 153.29 97.76"/><path d="M165.37,85.69l12.38,12h-25l-12.38-12Zm.07-.17H140l12.73,12.33h25.49L165.44,85.52Z" transform="translate(0.61)"/><path d="M136.11,129.15a.66.66,0,1,0,.66-.66A.66.66,0,0,0,136.11,129.15Z" transform="translate(0.61)"/><rect class="cls-10" x="128.98" y="190.28" width="45.02" height="15" rx="2.79"/><path d="M170.6,205.5H131.17a3,3,0,0,1-3-3v-9.42a3,3,0,0,1,3-3H170.6a3,3,0,0,1,3,3v9.42A3,3,0,0,1,170.6,205.5Zm-39.43-15a2.58,2.58,0,0,0-2.58,2.57v9.42a2.58,2.58,0,0,0,2.58,2.57H170.6a2.58,2.58,0,0,0,2.57-2.57v-9.42a2.57,2.57,0,0,0-2.57-2.57Z" transform="translate(0.61)"/><path class="cls-10" d="M124.72,179V176.2a3.68,3.68,0,0,1-1.93-1.14,2.82,2.82,0,0,1-.61-1.84,2.62,2.62,0,0,1,.69-1.85,2.76,2.76,0,0,1,1.85-.86v-.67h1v.67a2.86,2.86,0,0,1,1.7.73,2.75,2.75,0,0,1,.8,1.6l-1.69.22a1.38,1.38,0,0,0-.81-1.07v2.62a4.26,4.26,0,0,1,2.19,1.13,2.67,2.67,0,0,1,.59,1.78,3,3,0,0,1-.74,2,3.27,3.27,0,0,1-2,1v1.25h-1v-1.22a3.08,3.08,0,0,1-1.88-.86,3.53,3.53,0,0,1-.93-2l1.75-.19a2.31,2.31,0,0,0,.4.93A1.8,1.8,0,0,0,124.72,179Zm0-7a1.27,1.27,0,0,0-.63.46,1.15,1.15,0,0,0-.24.71,1.18,1.18,0,0,0,.22.66,1.53,1.53,0,0,0,.65.49Zm1,7.13a1.35,1.35,0,0,0,1.14-1.34,1.17,1.17,0,0,0-.27-.77,1.73,1.73,0,0,0-.87-.5Z" transform="translate(0.61)"/><path class="cls-10" d="M134.48,180.47H132.6v-7.11a6.43,6.43,0,0,1-2.44,1.43v-1.71a5.35,5.35,0,0,0,1.61-.91A3.52,3.52,0,0,0,133,170.6h1.53Z" transform="translate(0.61)"/><path class="cls-10" d="M137.33,177.94l1.87-.2a1.66,1.66,0,0,0,.48,1,1.29,1.29,0,0,0,.91.38,1.25,1.25,0,0,0,1-.48,2.22,2.22,0,0,0,.41-1.45,2,2,0,0,0-.4-1.36,1.38,1.38,0,0,0-1.06-.45,1.93,1.93,0,0,0-1.46.72l-1.52-.22,1-5.12h5v1.76H140l-.3,1.67a2.91,2.91,0,0,1,3.42.6,3.3,3.3,0,0,1,.87,2.37,3.52,3.52,0,0,1-.71,2.16,3.09,3.09,0,0,1-2.66,1.3,3.3,3.3,0,0,1-2.22-.73A3,3,0,0,1,137.33,177.94Z" transform="translate(0.61)"/><path class="cls-10" d="M148.12,170.6a2.69,2.69,0,0,1,2.24,1,8.81,8.81,0,0,1,0,8,2.67,2.67,0,0,1-2.23,1,2.81,2.81,0,0,1-2.31-1.1,9,9,0,0,1,.09-7.93A2.67,2.67,0,0,1,148.12,170.6Zm0,1.56a.94.94,0,0,0-.61.22,1.42,1.42,0,0,0-.41.78,10.58,10.58,0,0,0-.2,2.46,10.47,10.47,0,0,0,.18,2.38,1.63,1.63,0,0,0,.44.86.93.93,0,0,0,.6.21.9.9,0,0,0,.61-.22,1.43,1.43,0,0,0,.42-.78,10.68,10.68,0,0,0,.19-2.45,10.52,10.52,0,0,0-.17-2.38,1.66,1.66,0,0,0-.44-.86A.92.92,0,0,0,148.12,172.16Z" transform="translate(0.61)"/><path class="cls-10" d="M159.58,170.6a2.68,2.68,0,0,1,2.23,1,8.81,8.81,0,0,1,0,8,2.67,2.67,0,0,1-2.22,1,2.81,2.81,0,0,1-2.32-1.1,9.05,9.05,0,0,1,.09-7.93A2.69,2.69,0,0,1,159.58,170.6Zm0,1.56a.92.92,0,0,0-.61.22,1.43,1.43,0,0,0-.42.78,10.73,10.73,0,0,0-.19,2.46,11.3,11.3,0,0,0,.17,2.38,1.7,1.7,0,0,0,.44.86,1,1,0,0,0,.61.21.92.92,0,0,0,.61-.22,1.36,1.36,0,0,0,.41-.78,10.54,10.54,0,0,0,.2-2.45,10.35,10.35,0,0,0-.18-2.38,1.59,1.59,0,0,0-.44-.86A.87.87,0,0,0,159.58,172.16Z" transform="translate(0.61)"/><path class="cls-10" d="M167.22,170.6a2.68,2.68,0,0,1,2.23,1,8.81,8.81,0,0,1,0,8,2.67,2.67,0,0,1-2.22,1,2.81,2.81,0,0,1-2.32-1.1,9,9,0,0,1,.09-7.93A2.67,2.67,0,0,1,167.22,170.6Zm0,1.56a.9.9,0,0,0-.61.22,1.43,1.43,0,0,0-.42.78,16.37,16.37,0,0,0,0,4.84,1.7,1.7,0,0,0,.44.86,1,1,0,0,0,.61.21.94.94,0,0,0,.61-.22,1.49,1.49,0,0,0,.41-.78,10.54,10.54,0,0,0,.2-2.45,10.35,10.35,0,0,0-.18-2.38,1.59,1.59,0,0,0-.44-.86A.89.89,0,0,0,167.22,172.16Z" transform="translate(0.61)"/><path class="cls-10" d="M174.85,170.6a2.69,2.69,0,0,1,2.24,1,8.81,8.81,0,0,1,0,8,2.67,2.67,0,0,1-2.23,1,2.81,2.81,0,0,1-2.31-1.1,9,9,0,0,1,.09-7.93A2.67,2.67,0,0,1,174.85,170.6Zm0,1.56a.94.94,0,0,0-.61.22,1.42,1.42,0,0,0-.41.78,10.58,10.58,0,0,0-.2,2.46,10.47,10.47,0,0,0,.18,2.38,1.63,1.63,0,0,0,.44.86.93.93,0,0,0,.6.21.9.9,0,0,0,.61-.22,1.43,1.43,0,0,0,.42-.78,10.68,10.68,0,0,0,.19-2.45,10.52,10.52,0,0,0-.17-2.38,1.66,1.66,0,0,0-.44-.86A.92.92,0,0,0,174.85,172.16Z" transform="translate(0.61)"/><path class="cls-11" d="M135.09,163.79v-1.67a2.12,2.12,0,0,1-1.14-.67,1.69,1.69,0,0,1-.37-1.09,1.52,1.52,0,0,1,.42-1.09,1.58,1.58,0,0,1,1.09-.51v-.39h.57v.39a1.58,1.58,0,0,1,1.48,1.38l-1,.13a.83.83,0,0,0-.48-.64v1.55a2.64,2.64,0,0,1,1.3.67,1.61,1.61,0,0,1,.34,1.06,1.73,1.73,0,0,1-.43,1.2,1.93,1.93,0,0,1-1.21.61v.74h-.57v-.72a1.91,1.91,0,0,1-1.12-.51,2.16,2.16,0,0,1-.54-1.21l1-.11a1.21,1.21,0,0,0,.24.54A1,1,0,0,0,135.09,163.79Zm0-4.17a.88.88,0,0,0-.38.27.72.72,0,0,0-.13.42.69.69,0,0,0,.12.39.91.91,0,0,0,.39.29Zm.57,4.22a.88.88,0,0,0,.49-.27.8.8,0,0,0,.18-.52.73.73,0,0,0-.15-.46,1,1,0,0,0-.52-.3Z" transform="translate(0.61)"/><path class="cls-11" d="M141.77,163.61v1h-3.9a2.67,2.67,0,0,1,.38-1.12,7.5,7.5,0,0,1,1.25-1.39,8.34,8.34,0,0,0,.92-.95,1.18,1.18,0,0,0,.23-.68.77.77,0,0,0-.2-.58.74.74,0,0,0-.55-.2.72.72,0,0,0-.55.21,1.08,1.08,0,0,0-.24.7l-1.11-.11a1.8,1.8,0,0,1,.62-1.32,2.07,2.07,0,0,1,1.31-.4,1.89,1.89,0,0,1,1.35.46,1.53,1.53,0,0,1,.49,1.16,2.12,2.12,0,0,1-.14.75,2.88,2.88,0,0,1-.45.74,6,6,0,0,1-.73.74c-.35.32-.57.54-.66.64a1.9,1.9,0,0,0-.23.31Z" transform="translate(0.61)"/><path class="cls-11" d="M142.54,163.15l1.11-.11a.94.94,0,0,0,.28.59.76.76,0,0,0,.54.22.74.74,0,0,0,.59-.28,1.29,1.29,0,0,0,.24-.85,1.19,1.19,0,0,0-.24-.81.77.77,0,0,0-.62-.26,1.13,1.13,0,0,0-.86.42l-.9-.13.57-3h2.94V160h-2.1l-.17,1a1.7,1.7,0,0,1,.76-.18,1.66,1.66,0,0,1,1.25.54,1.91,1.91,0,0,1,.52,1.4A2.11,2.11,0,0,1,146,164a1.83,1.83,0,0,1-1.57.76,1.93,1.93,0,0,1-1.31-.43A1.79,1.79,0,0,1,142.54,163.15Z" transform="translate(0.61)"/><path class="cls-11" d="M148.92,158.81a1.57,1.57,0,0,1,1.32.6,5.21,5.21,0,0,1,0,4.74,1.57,1.57,0,0,1-1.32.59,1.63,1.63,0,0,1-1.36-.65,3.81,3.81,0,0,1-.52-2.32,3.88,3.88,0,0,1,.57-2.37A1.59,1.59,0,0,1,148.92,158.81Zm0,.92a.61.61,0,0,0-.36.13.86.86,0,0,0-.24.46,6.18,6.18,0,0,0-.12,1.46,6.05,6.05,0,0,0,.11,1.4.92.92,0,0,0,.25.51.55.55,0,0,0,.36.13.52.52,0,0,0,.36-.13.83.83,0,0,0,.25-.46,6.22,6.22,0,0,0,.11-1.45,6.39,6.39,0,0,0-.1-1.41,1,1,0,0,0-.26-.51A.57.57,0,0,0,148.92,159.73Z" transform="translate(0.61)"/><path class="cls-11" d="M155.69,158.81a1.6,1.6,0,0,1,1.33.6,3.93,3.93,0,0,1,.56,2.37,3.85,3.85,0,0,1-.57,2.37,1.57,1.57,0,0,1-1.32.59,1.63,1.63,0,0,1-1.36-.65,3.81,3.81,0,0,1-.52-2.32,3.88,3.88,0,0,1,.57-2.37A1.59,1.59,0,0,1,155.69,158.81Zm0,.92a.61.61,0,0,0-.36.13.94.94,0,0,0-.24.46,6.18,6.18,0,0,0-.12,1.46,6.05,6.05,0,0,0,.11,1.4.86.86,0,0,0,.26.51.51.51,0,0,0,.35.13.56.56,0,0,0,.37-.13.89.89,0,0,0,.24-.46,6.08,6.08,0,0,0,.12-1.45,6.22,6.22,0,0,0-.11-1.41,1,1,0,0,0-.26-.51A.57.57,0,0,0,155.69,159.73Z" transform="translate(0.61)"/><path class="cls-11" d="M160.21,158.81a1.6,1.6,0,0,1,1.32.6,5.21,5.21,0,0,1,0,4.74,1.59,1.59,0,0,1-1.32.59,1.65,1.65,0,0,1-1.37-.65,5.32,5.32,0,0,1,0-4.69A1.62,1.62,0,0,1,160.21,158.81Zm0,.92a.61.61,0,0,0-.36.13.87.87,0,0,0-.25.46,7,7,0,0,0-.11,1.46,6.22,6.22,0,0,0,.1,1.4,1,1,0,0,0,.26.51.55.55,0,0,0,.36.13.52.52,0,0,0,.36-.13.83.83,0,0,0,.25-.46,6.84,6.84,0,0,0,.11-1.45,6.39,6.39,0,0,0-.1-1.41,1.09,1.09,0,0,0-.26-.51A.59.59,0,0,0,160.21,159.73Z" transform="translate(0.61)"/><path class="cls-11" d="M164.73,158.81a1.6,1.6,0,0,1,1.32.6,3.93,3.93,0,0,1,.56,2.37,3.85,3.85,0,0,1-.57,2.37,1.56,1.56,0,0,1-1.31.59,1.64,1.64,0,0,1-1.37-.65,3.81,3.81,0,0,1-.52-2.32,3.88,3.88,0,0,1,.57-2.37A1.59,1.59,0,0,1,164.73,158.81Zm0,.92a.57.57,0,0,0-.36.13.87.87,0,0,0-.25.46,6.18,6.18,0,0,0-.12,1.46,6.05,6.05,0,0,0,.11,1.4.92.92,0,0,0,.26.51.52.52,0,0,0,.36.13.55.55,0,0,0,.36-.13.89.89,0,0,0,.24-.46,6.08,6.08,0,0,0,.12-1.45,6.22,6.22,0,0,0-.11-1.41.93.93,0,0,0-.26-.51A.56.56,0,0,0,164.73,159.73Z" transform="translate(0.61)"/><path d="M139.08,193.61h3.44a11.09,11.09,0,0,1,1.52.08,2.26,2.26,0,0,1,.89.36,2.08,2.08,0,0,1,.66.72,1.87,1.87,0,0,1,.27,1,2,2,0,0,1-1.21,1.86,2.37,2.37,0,0,1,1.21.78,2.09,2.09,0,0,1,.42,1.3,2.58,2.58,0,0,1-.27,1.14,2.31,2.31,0,0,1-.75.88,2.43,2.43,0,0,1-1.16.41c-.29,0-1,.05-2.09.06h-2.93Zm1.74,1.43v2H142c.68,0,1.1,0,1.26,0a1.17,1.17,0,0,0,.7-.31.92.92,0,0,0,.26-.67.93.93,0,0,0-.22-.65,1,1,0,0,0-.65-.3c-.18,0-.67,0-1.49,0Zm0,3.41v2.3h1.6a8.81,8.81,0,0,0,1.19-.05,1,1,0,0,0,.88-1.07,1.17,1.17,0,0,0-.19-.66,1.08,1.08,0,0,0-.54-.39,5.91,5.91,0,0,0-1.54-.13Z" transform="translate(0.61)"/><path d="M147.73,193.61h1.74v4.65a10.44,10.44,0,0,0,.06,1.44,1.35,1.35,0,0,0,.53.84,1.81,1.81,0,0,0,1.15.32,1.75,1.75,0,0,0,1.11-.3,1.19,1.19,0,0,0,.45-.74,9.62,9.62,0,0,0,.08-1.46v-4.75h1.73v4.51a12,12,0,0,1-.14,2.19,2.39,2.39,0,0,1-.52,1.07,2.51,2.51,0,0,1-1,.7,4.24,4.24,0,0,1-1.65.27,4.77,4.77,0,0,1-1.87-.29,2.57,2.57,0,0,1-1-.74,2.34,2.34,0,0,1-.49-.95,10.66,10.66,0,0,1-.17-2.18Z" transform="translate(0.61)"/><path d="M158.67,202.2v-3.62l-3.15-5h2l2,3.4,2-3.4h2l-3.16,5v3.6Z" transform="translate(0.61)"/><rect class="cls-11" x="128.04" y="161.31" width="44.09" height="0.81"/><path class="cls-9" d="M75.62,226.87a9.71,9.71,0,0,1-4.1-1c-.62-.61-.26-4.54-.15-5.15s4-.67,4.09-.67c1.4,0,1.73.19,1.86.36.35.43.15,2-.34,4.87-.08.46-.14.83-.16,1-.07.56-.91.57-1.2.57Z" transform="translate(0.61)"/><path d="M75.46,220.29a3,3,0,0,1,1.69.28c.45.56-.47,4.93-.56,5.71,0,.26-.42.36-1,.36a10,10,0,0,1-4-.91c-.48-.47-.24-4-.08-5,0-.2,2.24-.48,3.87-.48Zm0-.44c-.7,0-4.18,0-4.32.85,0,0-.57,4.57.22,5.35.49.48,3,1,4.26,1,.88,0,1.36-.26,1.42-.76,0-.18.08-.54.16-1,.59-3.42.66-4.6.3-5.05-.19-.23-.56-.44-2-.44Z" transform="translate(0.61)"/><path d="M71.32,224.65S69,228,70.65,230.6c0,0,12.15.57,15.81,0,0,0,.1-4.48-3-4.86a58.13,58.13,0,0,0-6.68-.33S73.6,227.12,71.32,224.65Z" transform="translate(0.61)"/><path class="cls-9" d="M48.63,227.27a9.54,9.54,0,0,1-4-1.38c-.62-.61-.25-4.54-.15-5.15s3.49-.66,3.52-.66c1.28,0,1.59.21,1.72.37.31.39.25,1.93-.26,5.67,0,.31-.08.54-.09.67s-.15.48-.77.48Z" transform="translate(0.61)"/><path d="M48,220.31c.75,0,1.38.07,1.54.28.45.56-.31,5.4-.39,6.18,0,.2-.23.28-.55.28a9.51,9.51,0,0,1-3.81-1.32c-.48-.47-.24-4-.09-5a9,9,0,0,1,3.3-.46Zm0-.45c-.37,0-3.6,0-3.74.84,0,0-.58,4.57.22,5.35a9.52,9.52,0,0,0,4.12,1.45c.83,0,1-.48,1-.69s.05-.36.09-.66c.53-3.91.58-5.38.21-5.84-.17-.22-.54-.45-1.89-.45Z" transform="translate(0.61)"/><path d="M71.45,177.4c.57,7.15,0,21.55-.52,28.69,0,.48,0,17.07,0,17.07l6.71.64c3.66-10.9,10.64-35.36,10.64-46.21s-.94-29-4.93-37.53c-3.79-8.16-18.75,3.11-20.51,5.11-.81.93.72,9.19,2.85,14.66C68.12,166.17,71.14,173.56,71.45,177.4Z" transform="translate(0.61)"/><path d="M70.89,223.16l4.14.4c-.37-2.61,0-8.42.15-11.07a77.79,77.79,0,0,1,2.49-13.61C79.36,191.77,81,184.24,79,177c-1-3.72-3.31-6.3-5.17-9.58a12.93,12.93,0,0,1-1.66-7.24c.1-1.39,1-3.14.49-4.52-.58-1.75-5.81-7.66-7.15-6.76-1.61,1.08-.8,5.28-1.45,7.23,2.47,6.34,7.12,17.41,7.43,21.25.57,7.15-.61,21.49-1,28.64A154.27,154.27,0,0,0,70.89,223.16Z" transform="translate(0.61)"/><path d="M44.22,223.16l6,.64c3.11-10.28,11.42-27.86,12.64-38.64,1.9-16.75,4.19-34.69,4.29-39.1,0-.71,0-1.09,0-1.09-4.11-5-11.06-7-14.16-7.4-1.22-.14-2.11.1-2.5.74a46.3,46.3,0,0,0-3,5.87c-5,11.86-.78,19-.87,34.45,0,.89,0,1.81,0,2.71-.16,6.38,1.56,14.23-.27,20.89C42.69,215.3,44.22,223.16,44.22,223.16Z" transform="translate(0.61)"/><path d="M44.22,223.16l1.35.13A115.62,115.62,0,0,1,46,211.37a66.83,66.83,0,0,1,4-15.79c3-8.32,5.09-16.54,4.51-25.48-.33-4.87-1.87-9.39-2.54-14.16-.44-3.09.2-6.05.69-9a27.87,27.87,0,0,0,.45-5.18c0-1.44-5.65-.29-5.65,2.09-5,11.86-.79,19.4-.88,34.82,0,.89,0,1.81,0,2.71a163.76,163.76,0,0,1-1.42,20.46C42.65,218.23,44.22,223.16,44.22,223.16Z" transform="translate(0.61)"/><path d="M44.46,224.65s-2.33,3.33-.66,5.95c0,0,12.14.57,15.81,0,0,0,.09-4.48-3-4.86s-7.17-.55-7.17-.55A3.7,3.7,0,0,1,44.46,224.65Z" transform="translate(0.61)"/><path d="M77.19,93.73s9.19,7.13,15,26.14l-15,3.39L77,104.39Z" transform="translate(0.61)"/><path class="cls-10" d="M86.32,145.22c-.19.56-7.23,3-14.23,4.07-8,1.24-20.89-1.86-24.2-2.49-1.35-.25-2.22-.61-2.42-1.05-.64-1.37,1.57-14.78,1.3-23.69-.05-1.72-.08-3.47-.08-5.19,0-9,.58-17.35,2.6-18.91.46-.36,1-.73,1.59-1.13s1-.7,1.65-1c.45-.27.92-.53,1.41-.79a28.81,28.81,0,0,1,6.32-2.43,26.17,26.17,0,0,1,12.6-.2s0,0,0,0a25.72,25.72,0,0,1,3.48,1l.85.32c4,1.59,3.39,10.21,2.75,17.44a69.49,69.49,0,0,0-.47,8.32,17.48,17.48,0,0,0,.24,1.91C80.61,126.72,85.65,141.34,86.32,145.22Z" transform="translate(0.61)"/><path class="cls-9" d="M69,93.85c-2,0-4.44-1.88-4.55-2l-.08-.06V85.47l5.36,2.22v4c.13.25.59,1.2.33,1.75a.69.69,0,0,1-.51.39A3.31,3.31,0,0,1,69,93.85Z" transform="translate(0.61)"/><path d="M64.57,85.8l4.92,2v3.87s.91,1.68,0,1.87a2.92,2.92,0,0,1-.51,0c-2,0-4.41-1.9-4.41-1.9V85.8Zm-.45-.67v6.81l.18.13c.1.08,2.59,2,4.68,2a3.83,3.83,0,0,0,.6,0,.94.94,0,0,0,.66-.51,2.54,2.54,0,0,0-.3-1.91V87.54l-.28-.11-4.92-2-.62-.26Z" transform="translate(0.61)"/><path class="cls-9" d="M69,89.17A5.39,5.39,0,0,1,65.79,88c-4.06-3-3.75-8.41-3.75-8.46v-.17l8.27-1.71.09.12a27.59,27.59,0,0,1,3.15,6.83,3.09,3.09,0,0,1-.72,2.62A4.87,4.87,0,0,1,69,89.17Z" transform="translate(0.61)"/><path d="M70.22,78a26.9,26.9,0,0,1,3.12,6.76C73.8,86.46,71.73,89,69,89a5.16,5.16,0,0,1-3.07-1.09c-4-3-3.67-8.26-3.67-8.26l8-1.65Zm.21-.5-.3.06-8,1.65-.33.07,0,.34c0,.22-.32,5.59,3.84,8.65A5.59,5.59,0,0,0,69,89.39a5.1,5.1,0,0,0,4-2,3.29,3.29,0,0,0,.75-2.81,26.81,26.81,0,0,0-3.18-6.89l-.16-.25Z" transform="translate(0.61)"/><path d="M60,83.26c-.62,1.17.74,1.9,2.06,2.06a1.54,1.54,0,0,0,.21.29c0,1.34,1,2.6,2.32,1.57,2,1.55,4.33,2.81,7.13,1.55a3.61,3.61,0,0,0,1.81-3.54c-.42-1.28-2.35.16-3.18-.6a.65.65,0,0,0-.88,0,2.2,2.2,0,0,1-2.5,1,4.4,4.4,0,0,1-1.73-.78,20.66,20.66,0,0,0-1-2.7c-.07-.23-.36-1.21-.62-2,3.13-.44,7.26-1.2,8.55-3.94,1.16-2.44-.8-3.69-2.9-3.37a2.18,2.18,0,0,0-3.15.78c-.74-.33-1.62-.55-2.2.06a1.15,1.15,0,0,0-.33.89,1.32,1.32,0,0,0-.77.17,1.9,1.9,0,0,0-.86.89c-.95-.31-2,1-1.74,2.19a1.73,1.73,0,0,0-.37,2.33A1.91,1.91,0,0,0,60,83.26Z" transform="translate(0.61)"/><path d="M77.25,128.82s13.51,1.49,15-2.15c1.36-3.41-.1-7.6-1.85-12.28-1.36-3.62-12.67,7.31-12.67,7.31Z" transform="translate(0.61)"/><path d="M70.72,121.27c-.88,1-.81,7.19-2.17,7.3-7.61.64-11.34-7.58-12-6.82a10.57,10.57,0,0,0-.44,2.68,96.75,96.75,0,0,1-2.64,11.1,9.65,9.65,0,0,1-.38,1.15c.4,1.55-4.76,8.9-5.16,10.12-1.35-.25-2.22-.61-2.42-1.05-.64-1.37,1.57-14.78,1.3-23.69-.05-1.72-.08-3.47-.08-5.19,0-9,.6-15.12,2.1-18.34a7.56,7.56,0,0,1,2.09-1.7c.5-.35,1.27,2.54,1.88,2.2,4.26-1.31,7,2.09,10.58,4.25,3.8,2.25,12.13,12.43,12.25,12.81C76.46,118.78,72.43,119.35,70.72,121.27Z" transform="translate(0.61)"/><path class="cls-9" d="M75.34,95.32l0-.08c-.75-1.39-.74-1.47-.72-1.56s0-.19,0-.37c-.52-.24-1-.46-1-.49a2.05,2.05,0,0,1-.84-1.6.68.68,0,0,1,.16-.54.73.73,0,0,1,.56-.24.86.86,0,0,1,.38.1,8.72,8.72,0,0,1-.52-3.44c.07-1.64.29-2.63.67-3a.74.74,0,0,1,.52-.24.65.65,0,0,1,.51.25.94.94,0,0,1,.15.8,8.44,8.44,0,0,0-.1,2,.9.9,0,0,1,.59-.2,1.43,1.43,0,0,1,1.07.51.54.54,0,0,1,.22,0,1.25,1.25,0,0,1,1,.84h.1c.5,0,1.24.59,1.26,1.88A3.07,3.07,0,0,1,79,92.1a2.43,2.43,0,0,1-.24.32l.29.48,0,1.44L77,95.94Z" transform="translate(0.61)"/><path d="M74.52,84.08c.3,0,.54.32.44.77a7.29,7.29,0,0,0,0,2.91c0-.57.3-.79.67-.79a1.18,1.18,0,0,1,1,.63.29.29,0,0,1,.27-.16,1.14,1.14,0,0,1,.89,1c0-.1.1-.16.22-.16.35,0,1,.49,1,1.66a2.86,2.86,0,0,1-.32,2,1.8,1.8,0,0,1-.33.4l.36.58,0,1.26L77,95.69l-1.45-.55a14.49,14.49,0,0,1-.69-1.42s0-.31,0-.55l-1.11-.54A1.79,1.79,0,0,1,73,91.19a.45.45,0,0,1,.49-.52A.5.5,0,0,1,74,91a3.44,3.44,0,0,0,.3.61,1.85,1.85,0,0,1,.33-.12,7.41,7.41,0,0,1-1-4.38c0-.71.14-2.39.61-2.86a.52.52,0,0,1,.36-.17Zm0-.45h0a1,1,0,0,0-.68.3c-.27.27-.64.89-.73,3.16a9.36,9.36,0,0,0,.38,3.13h0a1,1,0,0,0-.73.31.93.93,0,0,0-.21.72A2.27,2.27,0,0,0,73.47,93l.9.45v.2c0,.15-.05.22.74,1.69l.08.15.15.06,1.45.55.23.09.2-.16,1.9-1.46.18-.14v-.22l0-1.27v-.12l-.07-.1L79,92.44c.06-.07.11-.15.16-.22a3.32,3.32,0,0,0,.38-2.31c0-1.37-.85-2-1.43-2.08A1.41,1.41,0,0,0,77,87h-.15a1.66,1.66,0,0,0-1.14-.48,1.23,1.23,0,0,0-.39.06A8.07,8.07,0,0,1,75.4,85a1.15,1.15,0,0,0-.2-1,.88.88,0,0,0-.68-.33Z" transform="translate(0.61)"/><path class="cls-10" d="M79.34,128.69c10.3-2.33-.07-36.23-.07-36.23L74.49,93.9c-.24.3,1.88,24-.5,23-1.16-.5-9.11-15-14.37-18.31a13.2,13.2,0,0,0-7.52-1.94c-3,.05-4.51,3-4,6,1,6,5.44,14.57,11.34,20.7C65.9,130.05,70.45,130.71,79.34,128.69Z" transform="translate(0.61)"/><path class="cls-9" d="M73.21,130.37a1.32,1.32,0,0,1-1-.43,1.38,1.38,0,0,1-.38-1.07c0-.44.28-1,.75-1.11a3.38,3.38,0,0,1,0-.45c0-.49.35-1.22.94-1.22a.82.82,0,0,1,.39.11,1.48,1.48,0,0,1,.38.29,1.56,1.56,0,0,1,.69-.81,1.13,1.13,0,0,1,.56-.17.9.9,0,0,1,.7.36c.15-.53.42-.81.8-.81a.8.8,0,0,1,.38.1,2.58,2.58,0,0,1,.93,1l.09.14a5,5,0,0,1,.83,2.05,1.28,1.28,0,0,1-1.11,1.28,1,1,0,0,1-.58-.2l-.11-.08a1,1,0,0,1-1,1,1.57,1.57,0,0,1-1.1-.56.9.9,0,0,1-.66.52h0a1.08,1.08,0,0,1-.67-.24,1.3,1.3,0,0,1-.84.32Z" transform="translate(0.61)"/><path d="M77.08,125.29a.71.71,0,0,1,.29.07,3,3,0,0,1,.92,1.07,4.8,4.8,0,0,1,.8,1.91c0,.53-.4,1.07-.89,1.07a.78.78,0,0,1-.45-.15,3.36,3.36,0,0,1-.5-.44c.1.54,0,1.05-.47,1.23a.79.79,0,0,1-.29.06,1.63,1.63,0,0,1-1.15-.75.06.06,0,0,0,0,0c-.13.27-.28.62-.62.66h-.06a1,1,0,0,1-.66-.37.21.21,0,0,1-.07.17,1.09,1.09,0,0,1-.71.27,1.16,1.16,0,0,1-1.12-1.26c0-.32.22-.9.63-.9h0a.37.37,0,0,1,.15,0,1.77,1.77,0,0,1-.05-.69c0-.41.28-1,.71-1a.58.58,0,0,1,.29.08,1.69,1.69,0,0,1,.6.59,1.41,1.41,0,0,1,.68-1.12,1,1,0,0,1,.45-.14c.38,0,.63.36.81.78,0-.51.21-1.22.69-1.22Zm0-.45h0a1,1,0,0,0-.9.64,1,1,0,0,0-.6-.2,1.31,1.31,0,0,0-.68.21,1.78,1.78,0,0,0-.64.64l-.2-.13a1.13,1.13,0,0,0-.5-.13c-.66,0-1.09.71-1.16,1.42,0,.1,0,.2,0,.3a1.48,1.48,0,0,0-.74,1.27,1.6,1.6,0,0,0,.44,1.24,1.52,1.52,0,0,0,2,.23,1.09,1.09,0,0,0,.59.19h.11a1,1,0,0,0,.67-.4,1.61,1.61,0,0,0,1.06.44,1.11,1.11,0,0,0,.44-.08,1.15,1.15,0,0,0,.73-.74,1.19,1.19,0,0,0,.54.13,1.49,1.49,0,0,0,1.33-1.49,5.11,5.11,0,0,0-.86-2.18l-.09-.14a2.81,2.81,0,0,0-1-1.09,1.13,1.13,0,0,0-.48-.12Z" transform="translate(0.61)"/></g></g></svg>