<?xml version="1.0" encoding="utf-8"?>
<!-- Generator: Adobe Illustrator 27.5.0, SVG Export Plug-In . SVG Version: 6.00 Build 0)  -->
<svg version="1.1" id="OBJECTS" xmlns="http://www.w3.org/2000/svg" xmlns:xlink="http://www.w3.org/1999/xlink" x="0px" y="0px"
	 width="500px" height="500px" viewBox="0 0 500 500" enable-background="new 0 0 500 500" xml:space="preserve">
<ellipse id="path706" transform="matrix(0.7071 -0.7071 0.7071 0.7071 -103.5534 249.9999)" fill="#FCDF26" cx="250" cy="250" rx="218.1" ry="218.1"/>
<path id="path711" fill="#FFEE52" d="M287.1,35.1L35.4,286.8c3.6,21.6,10.5,42.6,20.4,62.2L349.1,55.7
	C329.6,45.8,308.7,38.8,287.1,35.1z M395.7,87.8L87.8,395.7c6.3,7,13.1,13.6,20.3,19.7L415.5,108C409.3,100.9,402.8,94.1,395.7,87.8
	z M436.2,136.6L136.8,436c18,11,37.4,19.4,57.8,24.8l266.3-266.3C455.5,174.1,447.2,154.6,436.2,136.6z"/>
<ellipse id="circle708" transform="matrix(0.7071 -0.7071 0.7071 0.7071 -103.5533 249.9999)" fill="#EEB80B" cx="250" cy="250" rx="163.1" ry="163.1"/>
<ellipse id="circle1324" transform="matrix(0.7071 -0.7071 0.7071 0.7071 -103.5534 249.9999)" fill="#F9CB07" cx="250" cy="250" rx="156.8" ry="156.8"/>
<text transform="matrix(1 0 0 1 160.9434 344.8867)" fill="#FFEE52" font-family="'Montserrat-Black'" font-size="271.11px">$</text>
</svg>
